<svg width="57" height="56" viewBox="0 0 57 56" fill="none" xmlns="http://www.w3.org/2000/svg">
<path d="M28.3496 12.8568V2.78027H18.2731M3.1582 27.9717H8.19649M20.7922 25.4526V30.4909M35.9071 25.4526V30.4909M48.5028 27.9717H53.5411M18.2731 43.0866L8.19649 53.1631V17.8951C8.19649 16.5589 8.72731 15.2774 9.67217 14.3325C10.617 13.3877 11.8985 12.8568 13.2348 12.8568H43.4645C44.8007 12.8568 46.0822 13.3877 47.0271 14.3325C47.972 15.2774 48.5028 16.5589 48.5028 17.8951V38.0483C48.5028 39.3845 47.972 40.666 47.0271 41.6109C46.0822 42.5557 44.8007 43.0866 43.4645 43.0866H18.2731Z" stroke="#97E42A" stroke-width="5.03829" stroke-linecap="round" stroke-linejoin="round"/>
</svg>
