<svg width="90" height="93" viewBox="0 0 90 93" fill="none" xmlns="http://www.w3.org/2000/svg">
<path d="M78.2827 33.2887C76.7914 33.2804 75.3126 33.5614 73.9286 34.1161L61.2971 18.3719C62.3354 16.8787 63.0071 15.1624 63.2579 13.3618C63.5087 11.5613 63.3316 9.72708 62.7408 8.00758C62.15 6.28808 61.1621 4.73158 59.8572 3.46399C58.5522 2.19639 56.9668 1.25329 55.2291 0.710991C53.4914 0.168687 51.6502 0.0424024 49.8546 0.342352C48.059 0.642302 46.3593 1.36006 44.893 2.43757C43.4267 3.51508 42.235 4.92209 41.4142 6.54477C40.5935 8.16745 40.1668 9.96024 40.1687 11.7781C40.1688 12.1843 40.1895 12.5902 40.2308 12.9943L20.9791 21.0029C19.8194 19.5826 18.3388 18.4573 16.6588 17.7195C14.9789 16.9817 13.1476 16.6524 11.3154 16.7588C9.48325 16.8651 7.7025 17.404 6.11948 18.3312C4.53646 19.2584 3.19636 20.5474 2.20929 22.0923C1.22222 23.6372 0.616348 25.394 0.441462 27.2182C0.266575 29.0423 0.527663 30.8819 1.20327 32.5858C1.87888 34.2896 2.94973 35.8091 4.32784 37.0193C5.70594 38.2295 7.35196 39.096 9.13064 39.5475L9.89707 58.7333C8.14084 59.3321 6.55412 60.3428 5.27013 61.6807C3.98614 63.0186 3.04235 64.6445 2.51802 66.4221C1.99369 68.1996 1.90412 70.0768 2.25682 71.896C2.60953 73.7152 3.39422 75.4234 4.54501 76.8771C5.69579 78.3309 7.17909 79.4877 8.87035 80.2504C10.5616 81.0132 12.4115 81.3597 14.2646 81.2607C16.1177 81.1618 17.92 80.6204 19.5202 79.6819C21.1204 78.7434 22.4717 77.4353 23.4607 75.8674L43.483 81.4684C43.5111 83.3314 43.9889 85.16 44.8758 86.7993C45.7627 88.4385 47.0325 89.8399 48.5776 90.8846C50.1226 91.9293 51.8973 92.5863 53.7509 92.8001C55.6045 93.0138 57.4825 92.7779 59.2253 92.1123C60.9681 91.4467 62.5244 90.3712 63.7622 88.9769C64.9999 87.5827 65.8825 85.9108 66.3351 84.1033C66.7877 82.2958 66.7969 80.4059 66.3619 78.594C65.927 76.7822 65.0607 75.1018 63.8367 73.6956L75.1093 56.0114C76.7048 56.4649 78.3792 56.5715 80.0194 56.3239C81.6597 56.0763 83.2277 55.4802 84.6176 54.576C86.0076 53.6718 87.1871 52.4804 88.0766 51.0822C88.9662 49.6841 89.545 48.1117 89.7741 46.4711C90.0033 44.8305 89.8773 43.16 89.4048 41.5722C88.9323 39.9844 88.1242 38.5162 87.035 37.2668C85.9459 36.0174 84.601 35.0157 83.0911 34.3295C81.5813 33.6433 79.9416 33.2883 78.2827 33.2887ZM55.0829 69.6913H54.7142L48.0111 49.6161L67.3374 48.6978C67.8255 50.0651 68.5676 51.3282 69.5248 52.4208L58.2521 70.105C57.2199 69.8217 56.1534 69.6825 55.0829 69.6913ZM16.5214 58.4686L15.755 39.2827C17.3175 38.7453 18.7469 37.8808 19.9476 36.747L37.567 46.9397L20.3908 60.268C19.2236 59.4344 17.9116 58.8242 16.5214 58.4686ZM52.419 23.3608C53.6909 23.2914 54.9425 23.0118 56.1227 22.5334L68.7542 38.2775C67.9489 39.4328 67.362 40.7254 67.0225 42.0915L47.7294 43.0099L52.419 23.3608ZM24.4632 65.4926L41.8258 52.0112L48.4295 71.7969C47.172 72.6822 46.102 73.8068 45.2809 75.1062L25.2545 69.4969C25.2302 68.1259 24.9623 66.7701 24.4632 65.4926ZM51.7686 6.81412C52.7519 6.81412 53.713 7.10525 54.5306 7.6507C55.3481 8.19615 55.9853 8.97142 56.3616 9.87847C56.7379 10.7855 56.8363 11.7836 56.6445 12.7465C56.4527 13.7095 55.9792 14.594 55.2839 15.2882C54.5887 15.9824 53.7028 16.4552 52.7385 16.6467C51.7741 16.8383 50.7746 16.74 49.8661 16.3642C48.9577 15.9885 48.1813 15.3523 47.6351 14.536C47.0888 13.7196 46.7972 12.7599 46.7972 11.7781C46.7972 10.4616 47.321 9.19897 48.2533 8.26804C49.1856 7.33711 50.4501 6.81412 51.7686 6.81412ZM42.787 19.1C43.6774 20.1841 44.7549 21.1004 45.9687 21.8054L41.2873 41.4338L23.2784 31.0218C23.4903 30.1384 23.5974 29.2332 23.5974 28.3247C23.5973 27.9186 23.5766 27.5126 23.5353 27.1086L42.787 19.1ZM7.02609 28.3247C7.02609 27.343 7.31766 26.3832 7.86392 25.5669C8.41018 24.7506 9.18661 24.1143 10.095 23.7386C11.0034 23.3629 12.003 23.2646 12.9674 23.4561C13.9317 23.6477 14.8175 24.1204 15.5128 24.8147C16.208 25.5089 16.6815 26.3934 16.8733 27.3563C17.0652 28.3192 16.9667 29.3173 16.5904 30.2244C16.2142 31.1314 15.577 31.9067 14.7594 32.4522C13.9419 32.9976 12.9807 33.2887 11.9975 33.2887C10.679 33.2887 9.41449 32.7657 8.48217 31.8348C7.54986 30.9039 7.02609 29.6413 7.02609 28.3247ZM13.6546 74.6553C12.6714 74.6553 11.7102 74.3642 10.8927 73.8187C10.0751 73.2733 9.43792 72.498 9.06164 71.591C8.68537 70.6839 8.58692 69.6858 8.77874 68.7229C8.97056 67.76 9.44404 66.8755 10.1393 66.1813C10.8346 65.487 11.7204 65.0143 12.6847 64.8227C13.6491 64.6312 14.6487 64.7295 15.5571 65.1052C16.4655 65.4809 17.2419 66.1172 17.7882 66.9335C18.3344 67.7498 18.626 68.7095 18.626 69.6913C18.626 71.0079 18.1022 72.2705 17.1699 73.2014C16.2376 74.1323 14.9731 74.6553 13.6546 74.6553ZM55.0829 86.238C54.0996 86.238 53.1385 85.9468 52.3209 85.4014C51.5034 84.8559 50.8662 84.0807 50.4899 83.1736C50.1136 82.2666 50.0152 81.2685 50.207 80.3055C50.3988 79.3426 50.8723 78.4581 51.5676 77.7639C52.2628 77.0697 53.1487 76.5969 54.113 76.4054C55.0774 76.2138 56.0769 76.3121 56.9853 76.6878C57.8937 77.0636 58.6702 77.6998 59.2164 78.5161C59.7627 79.3325 60.0543 80.2922 60.0543 81.274C60.0543 82.5905 59.5305 83.8531 58.5982 84.784C57.6659 85.715 56.4014 86.238 55.0829 86.238ZM78.2827 49.8354C77.2995 49.8354 76.3383 49.5442 75.5208 48.9988C74.7032 48.4533 74.066 47.6781 73.6897 46.771C73.3135 45.864 73.215 44.8659 73.4068 43.903C73.5987 42.94 74.0721 42.0555 74.7674 41.3613C75.4627 40.6671 76.3485 40.1943 77.3128 40.0028C78.2772 39.8112 79.2768 39.9095 80.1852 40.2852C81.0936 40.661 81.87 41.2972 82.4163 42.1135C82.9625 42.9299 83.2541 43.8896 83.2541 44.8714C83.2541 46.1879 82.7303 47.4505 81.798 48.3814C80.8657 49.3124 79.6012 49.8354 78.2827 49.8354Z" fill="#97E42A"/>
</svg>
