<svg width="94" height="90" viewBox="0 0 94 90" fill="none" xmlns="http://www.w3.org/2000/svg">
<path d="M48.7443 22.4842V42.7078L65.4863 52.7894C66.3296 53.2977 66.9372 54.1215 67.1753 55.0795C67.4135 56.0375 67.2628 57.0512 66.7563 57.8976C66.2498 58.7441 65.4291 59.3539 64.4747 59.593C63.5202 59.832 62.5103 59.6807 61.667 59.1724L43.1266 48.0068C42.5779 47.6759 42.1238 47.208 41.8087 46.6488C41.4935 46.0895 41.328 45.4578 41.3282 44.8153V22.4842C41.3282 21.4971 41.7189 20.5504 42.4143 19.8524C43.1097 19.1544 44.0528 18.7623 45.0363 18.7623C46.0197 18.7623 46.9629 19.1544 47.6583 19.8524C48.3537 20.5504 48.7443 21.4971 48.7443 22.4842ZM90.9515 11.6024C90.274 11.3203 89.5284 11.2462 88.8089 11.3895C88.0895 11.5327 87.4285 11.8869 86.9097 12.4073L81.19 18.1622C79.6928 16.5292 78.1494 14.9056 76.5085 13.2354C70.3246 7.02781 62.4553 2.787 53.8839 1.04282C45.3124 -0.701347 36.4189 0.128471 28.3147 3.42859C20.2104 6.72871 13.2547 12.3528 8.31678 19.5981C3.37885 26.8434 0.677607 35.3886 0.550593 44.166C0.423579 52.9434 2.87642 61.5638 7.60264 68.95C12.3288 76.3361 19.1188 82.1606 27.1242 85.6956C35.1296 89.2305 43.9953 90.3193 52.6136 88.8257C61.2319 87.3321 69.2206 83.3225 75.5815 77.2978C75.9358 76.9618 76.2206 76.559 76.4198 76.1125C76.619 75.666 76.7286 75.1845 76.7423 74.6954C76.7561 74.2064 76.6738 73.7194 76.5001 73.2623C76.3263 72.8052 76.0646 72.387 75.7298 72.0314C75.3951 71.6758 74.9938 71.3899 74.5489 71.19C74.1041 70.9901 73.6243 70.8801 73.1371 70.8662C72.6499 70.8524 72.1647 70.935 71.7093 71.1094C71.2539 71.2838 70.8372 71.5465 70.4829 71.8825C65.1826 76.9023 58.5262 80.2433 51.3451 81.4881C44.1641 82.7329 36.7768 81.8262 30.1061 78.8814C23.4355 75.9367 17.7771 71.0843 13.838 64.9305C9.89895 58.7768 7.85371 51.5944 7.95782 44.2807C8.06193 36.967 10.3108 29.8462 14.4234 23.8079C18.5361 17.7696 24.3302 13.0815 31.082 10.3292C37.8338 7.57695 45.2438 6.88253 52.3865 8.33272C59.5292 9.7829 66.0878 13.3134 71.2431 18.4832C72.8839 20.1487 74.4274 21.7863 75.9291 23.4286L68.3693 31.0165C67.8501 31.5371 67.4965 32.2005 67.3532 32.9228C67.2099 33.6452 67.2833 34.394 67.5642 35.0744C67.8451 35.7549 68.3208 36.3364 68.9312 36.7453C69.5415 37.1542 70.259 37.3722 70.9928 37.3716H89.5331C90.5166 37.3716 91.4597 36.9795 92.1551 36.2815C92.8505 35.5835 93.2412 34.6368 93.2412 33.6497V15.0405C93.2411 14.3044 93.0234 13.5848 92.6159 12.9729C92.2083 12.3609 91.6291 11.884 90.9515 11.6024Z" fill="#97E42A"/>
</svg>
