<svg width="94" height="92" viewBox="0 0 94 92" fill="none" xmlns="http://www.w3.org/2000/svg">
<path d="M93.2412 6.93754V30.1588C93.2412 31.1852 92.8343 32.1696 92.11 32.8954C91.3857 33.6212 90.4033 34.029 89.3789 34.029H66.2051C65.4407 34.0296 64.6934 33.8029 64.0577 33.3777C63.422 32.9525 62.9265 32.3478 62.6339 31.6403C62.3413 30.9327 62.2648 30.1541 62.4141 29.4029C62.5634 28.6518 62.9317 27.9619 63.4725 27.4206L72.3123 18.5482C65.2012 11.7208 55.7425 7.89464 45.8942 7.86156H45.6769C35.5854 7.84173 25.892 11.8042 18.6939 18.8916C17.9563 19.5816 16.9785 19.9549 15.9697 19.9317C14.961 19.9086 14.0013 19.4907 13.296 18.7676C12.5908 18.0444 12.196 17.0735 12.196 16.0624C12.1961 15.0512 12.591 14.0803 13.2963 13.3573C21.9063 4.92783 33.4513 0.185677 45.4884 0.134212C57.5256 0.0827472 69.1106 4.72601 77.792 13.0815L86.656 4.19937C87.1966 3.66081 87.8843 3.29463 88.6322 3.14695C89.3802 2.99927 90.1551 3.0767 90.8592 3.36948C91.5633 3.66226 92.1653 4.15731 92.5891 4.79225C93.013 5.42719 93.2399 6.17363 93.2412 6.93754ZM75.0932 72.3876C67.939 79.3895 58.3534 83.3378 48.3532 83.4018C38.3529 83.4659 28.7177 79.6407 21.4748 72.7311L30.3146 63.8731C30.8604 63.3326 31.2331 62.6415 31.3853 61.8879C31.5375 61.1342 31.4621 60.3523 31.169 59.6417C30.8758 58.9311 30.378 58.3242 29.7392 57.8982C29.1003 57.4723 28.3494 57.2467 27.582 57.2502H4.4082C3.38386 57.2502 2.40147 57.658 1.67714 58.3838C0.952821 59.1096 0.5459 60.094 0.5459 61.1204V84.3417C0.545298 85.1076 0.771493 85.8564 1.19585 86.4935C1.6202 87.1305 2.22363 87.627 2.92975 87.9202C3.63587 88.2133 4.41292 88.29 5.16254 88.1404C5.91215 87.9908 6.60062 87.6217 7.14079 87.0799L15.9951 78.1977C24.5511 86.472 35.9685 91.1107 47.8591 91.1436H48.115C60.2237 91.1748 71.8572 86.4247 80.4956 77.922C81.2009 77.1989 81.5959 76.228 81.5959 75.2169C81.596 74.2058 81.2011 73.2348 80.4959 72.5117C79.7906 71.7885 78.831 71.3707 77.8222 71.3475C76.8134 71.3243 75.8356 71.6976 75.098 72.3876H75.0932Z" fill="#97E42A"/>
</svg>
