<svg width="94" height="87" viewBox="0 0 94 87" fill="none" xmlns="http://www.w3.org/2000/svg">
<path d="M46.8721 23.3611C42.9438 23.3611 39.1036 24.5289 35.8374 26.7169C32.5711 28.9048 30.0253 32.0146 28.522 35.6531C27.0187 39.2915 26.6254 43.2951 27.3918 47.1576C28.1581 51.0201 30.0498 54.5681 32.8276 57.3528C35.6053 60.1375 39.1444 62.034 42.9972 62.8023C46.85 63.5706 50.8436 63.1762 54.4729 61.6692C58.1022 60.1621 61.2042 57.6099 63.3867 54.3354C65.5692 51.0609 66.734 47.2112 66.734 43.273C66.7286 37.9937 64.6342 32.9323 60.9106 29.1992C57.1869 25.4662 52.1381 23.3666 46.8721 23.3611ZM46.8721 56.5476C44.2532 56.5476 41.6931 55.769 39.5156 54.3104C37.3381 52.8518 35.6409 50.7786 34.6387 48.353C33.6365 45.9273 33.3743 43.2583 33.8852 40.6833C34.3961 38.1082 35.6572 35.7429 37.5091 33.8865C39.3609 32.03 41.7203 30.7657 44.2888 30.2535C46.8574 29.7413 49.5198 30.0042 51.9393 31.0089C54.3588 32.0136 56.4268 33.715 57.8818 35.898C59.3368 38.081 60.1134 40.6475 60.1134 43.273C60.1134 46.7936 58.7183 50.1701 56.2351 52.6595C53.7519 55.149 50.3839 56.5476 46.8721 56.5476ZM92.3642 34.6487C92.272 34.1813 92.0806 33.7394 91.8028 33.3529C91.5251 32.9663 91.1675 32.6443 90.7546 32.4086L78.4112 25.3565L78.3616 11.4099C78.3601 10.9296 78.2546 10.4553 78.0524 10.0198C77.8502 9.58438 77.5562 9.19811 77.1905 8.8877C72.7131 5.09067 67.5569 2.18091 61.9961 0.313159C61.5582 0.164566 61.0941 0.109576 60.6337 0.15173C60.1733 0.193884 59.7269 0.332248 59.323 0.557909L46.8721 7.53535L34.4087 0.545464C34.0047 0.318532 33.5576 0.179123 33.0964 0.136249C32.6353 0.0933756 32.1703 0.147991 31.7315 0.296565C26.1749 2.17806 21.0246 5.09891 16.5536 8.9043C16.1885 9.21425 15.8948 9.59985 15.6926 10.0345C15.4905 10.4692 15.3847 10.9427 15.3826 11.4223L15.3205 25.3814L2.97716 32.4335C2.5642 32.6692 2.2067 32.9912 1.92895 33.3778C1.6512 33.7643 1.45972 34.2062 1.36751 34.6736C0.238173 40.3646 0.238173 46.2229 1.36751 51.9139C1.45972 52.3812 1.6512 52.8232 1.92895 53.2097C2.2067 53.5963 2.5642 53.9183 2.97716 54.154L15.3205 61.2061L15.3702 75.1527C15.3717 75.633 15.4772 76.1073 15.6794 76.5427C15.8815 76.9782 16.1756 77.3645 16.5412 77.6749C21.0187 81.4719 26.1749 84.3817 31.7356 86.2494C32.1735 86.398 32.6376 86.453 33.098 86.4109C33.5584 86.3687 34.0049 86.2303 34.4087 86.0047L46.8721 79.0106L59.3355 86.0005C59.8286 86.2762 60.3846 86.4191 60.9492 86.4154C61.3108 86.4152 61.6699 86.3563 62.0127 86.2411C67.5686 84.3621 72.7189 81.4441 77.1905 77.6417C77.5556 77.3317 77.8494 76.9461 78.0515 76.5114C78.2537 76.0767 78.3595 75.6033 78.3616 75.1237L78.4236 61.1646L90.767 54.1125C91.18 53.8768 91.5375 53.5548 91.8152 53.1682C92.093 52.7817 92.2844 52.3398 92.3767 51.8724C93.4997 46.186 93.4955 40.3335 92.3642 34.6487ZM86.1574 49.1304L74.3354 55.8714C73.8174 56.1667 73.3885 56.5966 73.094 57.1159C72.854 57.5307 72.6016 57.9704 72.345 58.3853C72.0166 58.9084 71.8417 59.5136 71.8402 60.1317L71.7782 73.51C68.6005 76.0116 65.0604 78.012 61.2803 79.4421L49.3548 72.7799C48.8597 72.5053 48.3027 72.3624 47.7369 72.3651H46.1521C45.5599 72.3506 44.9746 72.4938 44.4555 72.7799L32.5218 79.4586C28.7336 78.0396 25.1838 76.049 21.995 73.5556L21.9495 60.1981C21.9474 59.5788 21.7726 58.9724 21.4446 58.4475C21.1881 58.0327 20.9357 57.6178 20.6998 57.1781C20.4072 56.6509 19.9784 56.2125 19.4584 55.9087L7.62403 49.1511C7.01168 45.2675 7.01168 41.3116 7.62403 37.428L19.4253 30.6746C19.9433 30.3793 20.3722 29.9494 20.6667 29.4301C20.9067 29.0153 21.1591 28.5756 21.4157 28.1607C21.7441 27.6376 21.919 27.0324 21.9205 26.4143L21.9826 13.036C25.1602 10.5344 28.7003 8.53399 32.4804 7.10393L44.3893 13.7661C44.9076 14.0541 45.4935 14.1974 46.0859 14.1809H47.5921C48.1842 14.1954 48.7696 14.0522 49.2886 13.7661L61.2223 7.08734C65.0106 8.50637 68.5604 10.497 71.7492 12.9904L71.7947 26.3479C71.7967 26.9672 71.9716 27.5736 72.2995 28.0985C72.5561 28.5133 72.8085 28.9282 73.0443 29.3679C73.337 29.8951 73.7658 30.3335 74.2857 30.6373L86.1201 37.3948C86.7406 41.2814 86.7476 45.2416 86.1408 49.1304H86.1574Z" fill="#97E42A"/>
</svg>
