<svg width="87" height="93" viewBox="0 0 87 93" fill="none" xmlns="http://www.w3.org/2000/svg">
<path d="M79.0633 7.34507H68.3349V3.77996C68.3349 2.83443 67.9581 1.92763 67.2875 1.25904C66.6168 0.590453 65.7072 0.214844 64.7588 0.214844C63.8103 0.214844 62.9007 0.590453 62.2301 1.25904C61.5594 1.92763 61.1827 2.83443 61.1827 3.77996V7.34507H25.4215V3.77996C25.4215 2.83443 25.0447 1.92763 24.3741 1.25904C23.7034 0.590453 22.7938 0.214844 21.8454 0.214844C20.8969 0.214844 19.9873 0.590453 19.3167 1.25904C18.646 1.92763 18.2693 2.83443 18.2693 3.77996V7.34507H7.54091C5.64402 7.34507 3.82482 8.09629 2.48351 9.43347C1.14221 10.7706 0.388672 12.5842 0.388672 14.4753V85.7776C0.388672 87.6686 1.14221 89.4822 2.48351 90.8194C3.82482 92.1566 5.64402 92.9078 7.54091 92.9078H79.0633C80.9602 92.9078 82.7793 92.1566 84.1207 90.8194C85.462 89.4822 86.2155 87.6686 86.2155 85.7776V14.4753C86.2155 12.5842 85.462 10.7706 84.1207 9.43347C82.7793 8.09629 80.9602 7.34507 79.0633 7.34507ZM18.2693 14.4753V18.0404C18.2693 18.9859 18.646 19.8927 19.3167 20.5613C19.9873 21.2299 20.8969 21.6055 21.8454 21.6055C22.7938 21.6055 23.7034 21.2299 24.3741 20.5613C25.0447 19.8927 25.4215 18.9859 25.4215 18.0404V14.4753H61.1827V18.0404C61.1827 18.9859 61.5594 19.8927 62.2301 20.5613C62.9007 21.2299 63.8103 21.6055 64.7588 21.6055C65.7072 21.6055 66.6168 21.2299 67.2875 20.5613C67.9581 19.8927 68.3349 18.9859 68.3349 18.0404V14.4753H79.0633V28.7358H7.54091V14.4753H18.2693ZM79.0633 85.7776H7.54091V35.866H79.0633V85.7776ZM61.9247 47.6041C62.2572 47.9352 62.521 48.3284 62.7009 48.7612C62.8809 49.194 62.9735 49.6579 62.9735 50.1264C62.9735 50.595 62.8809 51.0589 62.7009 51.4917C62.521 51.9245 62.2572 52.3177 61.9247 52.6488L40.468 74.0395C40.1359 74.3709 39.7415 74.6339 39.3073 74.8133C38.8732 74.9927 38.4079 75.085 37.9379 75.085C37.4679 75.085 37.0026 74.9927 36.5685 74.8133C36.1343 74.6339 35.7399 74.3709 35.4078 74.0395L24.6794 63.3441C24.0084 62.6751 23.6314 61.7678 23.6314 60.8218C23.6314 59.8757 24.0084 58.9684 24.6794 58.2995C25.3505 57.6305 26.2606 57.2547 27.2096 57.2547C28.1585 57.2547 29.0686 57.6305 29.7397 58.2995L37.9379 66.477L56.8645 47.6041C57.1966 47.2727 57.591 47.0097 58.0252 46.8303C58.4593 46.6509 58.9247 46.5585 59.3946 46.5585C59.8646 46.5585 60.3299 46.6509 60.764 46.8303C61.1982 47.0097 61.5926 47.2727 61.9247 47.6041Z" fill="#97E42A"/>
</svg>
