<svg width="116" height="93" viewBox="0 0 116 93" fill="none" xmlns="http://www.w3.org/2000/svg">
<path d="M45.2743 43.8061C45.6299 44.1613 45.912 44.5832 46.1045 45.0475C46.297 45.5118 46.3961 46.0096 46.3961 46.5122C46.3961 47.0149 46.297 47.5126 46.1045 47.9769C45.912 48.4413 45.6299 48.8631 45.2743 49.2183L29.9746 64.518C29.4397 65.0535 28.7579 65.4183 28.0155 65.5661C27.2732 65.7139 26.5037 65.6382 25.8044 65.3484C25.1051 65.0587 24.5075 64.568 24.0873 63.9384C23.667 63.3089 23.443 62.5688 23.4436 61.8118V50.3371H4.31905C3.30462 50.3371 2.33174 49.9341 1.61443 49.2168C0.897121 48.4995 0.494141 47.5266 0.494141 46.5122C0.494141 45.4978 0.897121 44.5249 1.61443 43.8076C2.33174 43.0903 3.30462 42.6873 4.31905 42.6873H23.4436V31.2126C23.443 30.4556 23.667 29.7155 24.0873 29.086C24.5075 28.4564 25.1051 27.9657 25.8044 27.676C26.5037 27.3862 27.2732 27.3105 28.0155 27.4583C28.7579 27.6061 29.4397 27.9709 29.9746 28.5064L45.2743 43.8061ZM111.417 42.6873H92.292V31.2126C92.2926 30.4556 92.0686 29.7155 91.6483 29.086C91.2281 28.4564 90.6305 27.9657 89.9312 27.676C89.2319 27.3862 88.4624 27.3105 87.72 27.4583C86.9777 27.6061 86.2959 27.9709 85.761 28.5064L70.4613 43.8061C70.1057 44.1613 69.8236 44.5832 69.6311 45.0475C69.4386 45.5118 69.3395 46.0096 69.3395 46.5122C69.3395 47.0149 69.4386 47.5126 69.6311 47.9769C69.8236 48.4413 70.1057 48.8631 70.4613 49.2183L85.761 64.518C86.2959 65.0535 86.9777 65.4183 87.72 65.5661C88.4624 65.7139 89.2319 65.6382 89.9312 65.3484C90.6305 65.0587 91.2281 64.568 91.6483 63.9384C92.0686 63.3089 92.2926 62.5688 92.292 61.8118V50.3371H111.417C112.431 50.3371 113.404 49.9341 114.121 49.2168C114.838 48.4995 115.241 47.5266 115.241 46.5122C115.241 45.4978 114.838 44.5249 114.121 43.8076C113.404 43.0903 112.431 42.6873 111.417 42.6873ZM57.8678 0.613281C56.8534 0.613281 55.8805 1.01626 55.1632 1.73357C54.4459 2.45088 54.0429 3.42376 54.0429 4.43819V88.5862C54.0429 89.6006 54.4459 90.5735 55.1632 91.2908C55.8805 92.0082 56.8534 92.4111 57.8678 92.4111C58.8822 92.4111 59.8551 92.0082 60.5724 91.2908C61.2897 90.5735 61.6927 89.6006 61.6927 88.5862V4.43819C61.6927 3.42376 61.2897 2.45088 60.5724 1.73357C59.8551 1.01626 58.8822 0.613281 57.8678 0.613281Z" fill="#97E42A"/>
</svg>
