<svg width="115" height="85" viewBox="0 0 115 85" fill="none" xmlns="http://www.w3.org/2000/svg">
<path d="M114.283 28.8317L102.695 3.91839C102.322 3.11569 101.806 2.39981 101.175 1.81162C100.544 1.22343 99.812 0.774453 99.0198 0.490317C98.2277 0.206181 97.3912 0.0924551 96.5581 0.155631C95.725 0.218806 94.9117 0.457645 94.1645 0.858514L82.5538 7.09539L58.4193 0.233851C57.9635 0.106971 57.4851 0.106971 57.0292 0.233851L32.8947 7.09539L21.2885 0.858514C20.5412 0.456886 19.7274 0.217441 18.8939 0.153869C18.0603 0.0902975 17.2232 0.203845 16.4306 0.48802C15.6379 0.772194 14.9051 1.22142 14.2741 1.81003C13.6431 2.39863 13.1262 3.11507 12.7531 3.91839L1.16509 28.8317C0.41119 30.4523 0.287239 32.3281 0.820498 34.0468C1.35376 35.7655 2.50056 37.1863 4.00872 37.9967L16.3417 44.624L41.6028 64.0081C41.8766 64.2202 42.1846 64.3757 42.5113 64.4669L71.5835 72.2752C71.8048 72.3348 72.0322 72.3643 72.2604 72.363C72.983 72.3623 73.6758 72.0534 74.1864 71.5041L99.3112 44.5118L111.44 37.9967C112.948 37.1863 114.095 35.7655 114.628 34.0468C115.161 32.3281 115.037 30.4523 114.283 28.8317ZM90.208 45.9905L73.9457 31.9941C73.4212 31.5432 72.7602 31.3162 72.0895 31.3567C71.4188 31.3972 70.7857 31.7024 70.3116 32.2137C61.8398 41.3836 52.3686 40.227 46.3316 36.0788C46.2129 36.0002 46.1126 35.8933 46.0386 35.7663C45.9645 35.6394 45.9187 35.4958 45.9046 35.3468C45.8885 35.2101 45.9009 35.0713 45.941 34.9405C45.981 34.8097 46.0477 34.69 46.1362 34.5904L66.0962 13.8008H81.4772L94.3826 41.53L90.208 45.9905ZM5.98927 32.1942C5.91415 31.9495 5.93211 31.6829 6.03924 31.4524L17.6318 6.53417C17.708 6.37172 17.8249 6.23538 17.9694 6.14053C18.1139 6.04568 18.2801 5.99608 18.4495 5.99735C18.5898 5.99751 18.7282 6.03259 18.8537 6.09984L28.9427 11.5168L16.5325 38.2017L6.44352 32.7847C6.33465 32.7243 6.23828 32.6408 6.16022 32.5393C6.08215 32.4378 6.024 32.3204 5.98927 32.1942ZM71.4246 66.1945L44.351 58.923L21.2295 41.1786L34.4846 12.7027L57.7243 6.09495L64.4472 8.00799C63.933 8.11485 63.4593 8.38122 63.0845 8.77417L42.325 30.4178C41.651 31.1415 41.137 32.0187 40.8209 32.9845C40.5049 33.9503 40.3949 34.9801 40.4992 35.9977C40.6034 37.0153 40.9192 37.9948 41.4231 38.8637C41.9271 39.7325 42.6063 40.4686 43.4107 41.0176C52.5957 47.3228 63.7386 46.1369 72.3921 38.1431L86.3423 50.1582L71.4246 66.1945ZM109.459 32.1942C109.422 32.316 109.362 32.4287 109.285 32.5258C109.207 32.6229 109.112 32.7026 109.005 32.7603L98.916 38.2017L86.5058 11.5168L96.5948 6.09984C96.7016 6.04219 96.818 6.00778 96.9373 5.99856C97.0566 5.98935 97.1763 6.00552 97.2898 6.04615C97.4031 6.08632 97.508 6.15009 97.5984 6.23383C97.6889 6.31756 97.763 6.41962 97.8167 6.53417L109.409 31.4524C109.516 31.6829 109.534 31.9495 109.459 32.1942ZM58.5828 81.855C58.4079 82.6081 57.9618 83.2558 57.3425 83.6557C56.7232 84.0556 55.9815 84.175 55.2804 83.9876L36.3244 78.8976C35.9973 78.8075 35.6891 78.6519 35.4158 78.4388L23.4372 69.2592C22.8486 68.8062 22.4517 68.1206 22.3337 67.3532C22.2158 66.5858 22.3864 65.7994 22.808 65.1672C23.2297 64.5349 23.8679 64.1085 24.5822 63.9817C25.2965 63.855 26.0284 64.0383 26.6169 64.4913L38.1505 73.339L56.5977 78.2924C56.9459 78.3859 57.2734 78.5523 57.5616 78.7822C57.8497 79.012 58.0928 79.3007 58.2768 79.6317C58.4608 79.9627 58.5822 80.3295 58.6339 80.711C58.6856 81.0926 58.6667 81.4813 58.5783 81.855H58.5828Z" fill="#97E42A"/>
</svg>
