<svg width="73" height="92" viewBox="0 0 73 92" fill="none" xmlns="http://www.w3.org/2000/svg">
<path d="M56.4417 88.6236C56.4417 89.493 56.098 90.3268 55.4862 90.9416C54.8744 91.5564 54.0447 91.9018 53.1795 91.9018H20.5573C19.6921 91.9018 18.8623 91.5564 18.2505 90.9416C17.6387 90.3268 17.295 89.493 17.295 88.6236C17.295 87.7542 17.6387 86.9204 18.2505 86.3056C18.8623 85.6909 19.6921 85.3455 20.5573 85.3455H53.1795C54.0447 85.3455 54.8744 85.6909 55.4862 86.3056C56.098 86.9204 56.4417 87.7542 56.4417 88.6236ZM72.7528 36.1735C72.7669 41.6383 71.5383 47.0341 69.1609 51.9491C66.7836 56.8641 63.3202 61.1684 59.0352 64.5334C58.2339 65.1506 57.5837 65.9436 57.1342 66.852C56.6847 67.7603 56.4479 68.7599 56.4417 69.7743V72.2329C56.4417 73.9718 55.7543 75.6394 54.5307 76.8689C53.3072 78.0985 51.6477 78.7892 49.9173 78.7892H23.8195C22.0891 78.7892 20.4296 78.0985 19.206 76.8689C17.9824 75.6394 17.295 73.9718 17.295 72.2329V69.7743C17.2944 68.772 17.065 67.7832 16.6246 66.8839C16.1842 65.9846 15.5445 65.1987 14.7546 64.5867C10.4803 61.2416 7.01923 56.9632 4.63345 52.0753C2.24768 47.1875 0.999684 41.8183 0.983932 36.3742C0.87791 16.8448 16.5855 0.581116 36.0039 0.113982C40.7885 -0.00188099 45.5479 0.845224 50.0019 2.60544C54.4559 4.36565 58.5144 7.0034 61.9387 10.3634C65.363 13.7235 68.0838 17.7379 69.941 22.1705C71.7982 26.603 72.7542 31.3641 72.7528 36.1735ZM66.2284 36.1735C66.2295 32.2383 65.4472 28.3427 63.9276 24.7159C62.4079 21.0892 60.1816 17.8045 57.3797 15.0554C54.5778 12.3062 51.2569 10.1481 47.6124 8.70805C43.968 7.26801 40.0737 6.57515 36.1588 6.67025C20.2555 7.04724 7.42274 20.3524 7.50838 36.3333C7.52328 40.7857 8.54574 45.1765 10.4984 49.1733C12.4511 53.1701 15.2828 56.6683 18.7794 59.4031C20.3511 60.631 21.6224 62.2039 22.496 64.0015C23.3696 65.7992 23.8223 67.7738 23.8195 69.7743V72.2329H49.9173V69.7743C49.9218 67.7681 50.3822 65.7894 51.2635 63.9892C52.1447 62.189 53.4235 60.6148 55.0023 59.3868C58.5095 56.6324 61.3442 53.1092 63.2898 49.0862C65.2354 45.0631 66.2405 40.6464 66.2284 36.1735ZM59.6591 32.3462C58.8132 27.5983 56.5399 23.2247 53.1454 19.8143C49.7509 16.404 45.3981 14.1206 40.6729 13.2716C40.2504 13.2 39.818 13.2128 39.4004 13.3091C38.9828 13.4055 38.5882 13.5836 38.2391 13.8332C37.8899 14.0828 37.5932 14.399 37.3657 14.7639C37.1382 15.1288 36.9845 15.5351 36.9132 15.9597C36.842 16.3842 36.8547 16.8187 36.9506 17.2384C37.0465 17.658 37.2237 18.0546 37.4721 18.4054C37.7205 18.7562 38.0352 19.0545 38.3983 19.2831C38.7614 19.5117 39.1657 19.6661 39.5882 19.7377C46.3451 20.881 52.0785 26.6423 53.2243 33.4444C53.3534 34.2079 53.7473 34.9008 54.3362 35.4003C54.9251 35.8999 55.671 36.1738 56.4417 36.1735C56.6261 36.1724 56.8101 36.1573 56.9922 36.1284C57.8449 35.9821 58.6049 35.5015 59.105 34.7922C59.6051 34.083 59.8044 33.2031 59.6591 32.3462Z" fill="#97E42A"/>
</svg>
