<svg width="317" height="400" viewBox="0 0 317 400" fill="none" xmlns="http://www.w3.org/2000/svg">
<rect x="316.939" width="399.265" height="316.939" rx="30.2979" transform="rotate(90 316.939 0)" fill="#F8F8F8"/>
<path d="M42.4531 62.3231C41.3023 62.3231 40.2016 62.1605 39.1509 61.8352C38.1002 61.51 37.137 61.0222 36.2614 60.3717C35.3858 59.7213 34.6228 58.9333 33.9724 58.0076C33.3219 57.057 32.8091 55.9562 32.4338 54.7054L37.1996 52.8291C37.5498 54.18 38.1627 55.3058 39.0383 56.2064C39.9139 57.082 41.0647 57.5198 42.4906 57.5198C43.016 57.5198 43.5163 57.4573 43.9917 57.3322C44.492 57.1821 44.9298 56.9819 45.3051 56.7318C45.7053 56.4566 46.018 56.1189 46.2432 55.7186C46.4683 55.3183 46.5809 54.8555 46.5809 54.3301C46.5809 53.8298 46.4934 53.3795 46.3182 52.9792C46.1431 52.5789 45.8429 52.2037 45.4176 51.8535C45.0174 51.5032 44.4795 51.1655 43.804 50.8403C43.1536 50.515 42.3405 50.1773 41.3649 49.8271L39.7138 49.2267C38.9883 48.9765 38.2503 48.6388 37.4998 48.2135C36.7743 47.7882 36.1113 47.2753 35.5109 46.6749C34.9105 46.0745 34.4102 45.3741 34.0099 44.5735C33.6346 43.7479 33.447 42.8223 33.447 41.7966C33.447 40.7459 33.6471 39.7702 34.0474 38.8696C34.4727 37.944 35.0606 37.1435 35.8111 36.468C36.5866 35.7675 37.4998 35.2297 38.5505 34.8544C39.6262 34.4541 40.8145 34.254 42.1154 34.254C43.4663 34.254 44.6296 34.4416 45.6053 34.8169C46.6059 35.1671 47.444 35.6299 48.1195 36.2053C48.8199 36.7557 49.3828 37.3686 49.8081 38.0441C50.2334 38.7195 50.5461 39.3575 50.7463 39.9579L46.2807 41.8341C46.0305 41.0836 45.5677 40.4082 44.8923 39.8078C44.2418 39.2074 43.3412 38.9072 42.1904 38.9072C41.0897 38.9072 40.1766 39.1698 39.4511 39.6952C38.7256 40.1955 38.3628 40.8585 38.3628 41.684C38.3628 42.4846 38.7131 43.1726 39.4136 43.7479C40.114 44.2983 41.2273 44.8362 42.7533 45.3615L44.442 45.9244C45.5177 46.2997 46.4934 46.7375 47.369 47.2378C48.2696 47.7131 49.0326 48.2885 49.658 48.964C50.3085 49.6395 50.7963 50.415 51.1215 51.2906C51.4717 52.1411 51.6469 53.1293 51.6469 54.2551C51.6469 55.656 51.3592 56.8694 50.7838 57.8951C50.2334 58.8957 49.5204 59.7213 48.6448 60.3717C47.7692 61.0222 46.7811 61.51 45.6803 61.8352C44.5796 62.1605 43.5038 62.3231 42.4531 62.3231ZM72.6685 57.032C71.8679 58.583 70.7422 59.8589 69.2912 60.8596C67.8652 61.8352 66.0765 62.3231 63.925 62.3231C62.4991 62.3231 61.1857 62.0854 59.9848 61.6101C58.8091 61.1097 57.7834 60.4218 56.9078 59.5462C56.0572 58.6706 55.3817 57.6449 54.8814 56.4691C54.4061 55.2683 54.1684 53.9549 54.1684 52.5289C54.1684 51.1029 54.4061 49.7896 54.8814 48.5887C55.3817 47.3879 56.0572 46.3622 56.9078 45.5116C57.7834 44.6361 58.8091 43.9606 59.9848 43.4853C61.1857 42.9849 62.4991 42.7348 63.925 42.7348C66.0515 42.7348 67.8402 43.2226 69.2912 44.1983C70.7422 45.1739 71.8054 46.4373 72.4808 47.9883L67.9778 49.8646C67.5525 49.014 67.0021 48.3761 66.3267 47.9508C65.6762 47.5005 64.8507 47.2753 63.85 47.2753C63.1995 47.2753 62.5866 47.4004 62.0112 47.6506C61.4358 47.9008 60.923 48.251 60.4727 48.7013C60.0474 49.1516 59.7097 49.702 59.4595 50.3524C59.2093 51.0029 59.0842 51.7284 59.0842 52.5289C59.0842 53.3295 59.2093 54.0549 59.4595 54.7054C59.7097 55.3558 60.0474 55.9062 60.4727 56.3565C60.923 56.8068 61.4358 57.1571 62.0112 57.4072C62.5866 57.6574 63.1995 57.7825 63.85 57.7825C64.8757 57.7825 65.7388 57.5573 66.4392 57.107C67.1647 56.6317 67.7401 55.9562 68.1654 55.0806L72.6685 57.032ZM86.817 59.7713H86.5168C85.9414 60.4718 85.241 61.0722 84.4154 61.5726C83.6149 62.0729 82.5767 62.3231 81.3008 62.3231C80.3501 62.3231 79.4495 62.1605 78.599 61.8352C77.7734 61.535 77.0479 61.1097 76.4225 60.5594C75.7971 60.009 75.3092 59.346 74.959 58.5705C74.6087 57.795 74.4336 56.9444 74.4336 56.0188C74.4336 55.0681 74.6213 54.2176 74.9965 53.467C75.3718 52.6915 75.8971 52.0286 76.5726 51.4782C77.248 50.9278 78.0361 50.515 78.9367 50.2399C79.8623 49.9397 80.863 49.7896 81.9387 49.7896C83.1395 49.7896 84.1277 49.8896 84.9032 50.0898C85.6788 50.2649 86.3167 50.4525 86.817 50.6526V50.0898C86.817 49.1141 86.4293 48.3136 85.6537 47.6881C84.8782 47.0377 83.9151 46.7125 82.7643 46.7125C81.0631 46.7125 79.6247 47.4254 78.4489 48.8514L74.8839 46.4123C76.8353 43.9606 79.4996 42.7348 82.8769 42.7348C85.7288 42.7348 87.9053 43.4102 89.4063 44.7611C90.9073 46.087 91.6578 48.0634 91.6578 50.6902V61.7227H86.817V59.7713ZM86.817 54.2551C86.2416 53.9799 85.6412 53.7673 85.0158 53.6172C84.4154 53.442 83.7525 53.3545 83.027 53.3545C81.8512 53.3545 80.938 53.6172 80.2876 54.1425C79.6622 54.6428 79.3495 55.2683 79.3495 56.0188C79.3495 56.7693 79.6497 57.3697 80.2501 57.82C80.8755 58.2703 81.5885 58.4955 82.389 58.4955C83.0395 58.4955 83.6399 58.3829 84.1903 58.1577C84.7406 57.9076 85.2034 57.5949 85.5787 57.2196C85.979 56.8193 86.2792 56.369 86.4793 55.8687C86.7045 55.3433 86.817 54.8055 86.817 54.2551ZM95.5663 61.7227V34.8544H100.482V61.7227H95.5663ZM121.92 57.2946C121.069 58.7957 119.918 60.009 118.467 60.9346C117.041 61.8602 115.29 62.3231 113.214 62.3231C111.813 62.3231 110.512 62.0854 109.311 61.6101C108.135 61.1097 107.11 60.4218 106.234 59.5462C105.359 58.6706 104.671 57.6449 104.17 56.4691C103.695 55.2683 103.457 53.9549 103.457 52.5289C103.457 51.203 103.695 49.9522 104.17 48.7764C104.646 47.5755 105.308 46.5373 106.159 45.6617C107.01 44.7611 108.01 44.0482 109.161 43.5228C110.337 42.9974 111.625 42.7348 113.026 42.7348C114.502 42.7348 115.816 42.9849 116.966 43.4853C118.117 43.9606 119.08 44.6361 119.856 45.5116C120.631 46.3622 121.219 47.3754 121.62 48.5512C122.02 49.727 122.22 51.0029 122.22 52.3788C122.22 52.5539 122.22 52.704 122.22 52.8291C122.195 52.9792 122.182 53.1168 122.182 53.2419C122.157 53.367 122.145 53.5046 122.145 53.6547H108.298C108.398 54.4052 108.598 55.0556 108.898 55.606C109.224 56.1314 109.611 56.5817 110.062 56.9569C110.537 57.3072 111.05 57.5698 111.6 57.745C112.151 57.8951 112.714 57.9701 113.289 57.9701C114.415 57.9701 115.34 57.7199 116.066 57.2196C116.816 56.6942 117.404 56.0438 117.829 55.2683L121.92 57.2946ZM117.454 50.1648C117.429 49.8396 117.317 49.4768 117.117 49.0766C116.941 48.6763 116.666 48.301 116.291 47.9508C115.941 47.6006 115.49 47.3129 114.94 47.0877C114.415 46.8626 113.777 46.75 113.026 46.75C111.976 46.75 111.05 47.0502 110.249 47.6506C109.449 48.251 108.886 49.0891 108.561 50.1648H117.454ZM131.654 43.3352H137.17L140.209 54.8555H140.472L144.112 43.3352H149.178L152.855 54.8555H153.118L156.12 43.3352H161.561L155.67 61.7227H150.379L146.701 50.1273H146.439L142.761 61.7227H137.545L131.654 43.3352ZM166.541 40.6709C166.115 40.6709 165.702 40.5958 165.302 40.4457C164.927 40.2706 164.589 40.0454 164.289 39.7702C164.014 39.47 163.789 39.1323 163.614 38.7571C163.463 38.3818 163.388 37.969 163.388 37.5187C163.388 37.0684 163.463 36.6556 163.614 36.2804C163.789 35.9051 164.014 35.5799 164.289 35.3047C164.589 35.0045 164.927 34.7794 165.302 34.6293C165.702 34.4541 166.115 34.3666 166.541 34.3666C167.416 34.3666 168.167 34.6793 168.792 35.3047C169.417 35.9051 169.73 36.6431 169.73 37.5187C169.73 38.3943 169.417 39.1448 168.792 39.7702C168.167 40.3707 167.416 40.6709 166.541 40.6709ZM164.101 61.7227V43.3352H169.017V61.7227H164.101ZM175.355 47.538H172.128V43.3352H175.355V37.7063H180.271V43.3352H184.774V47.538H180.271V54.6679C180.271 55.0932 180.309 55.4934 180.384 55.8687C180.484 56.2189 180.659 56.5191 180.909 56.7693C181.259 57.1696 181.76 57.3697 182.41 57.3697C182.836 57.3697 183.173 57.3322 183.423 57.2571C183.674 57.1571 183.911 57.032 184.136 56.8819L185.525 61.1973C184.949 61.4725 184.324 61.6726 183.649 61.7977C182.998 61.9478 182.273 62.0229 181.472 62.0229C180.547 62.0229 179.708 61.8853 178.958 61.6101C178.232 61.3099 177.62 60.9096 177.119 60.4093C175.943 59.2835 175.355 57.6824 175.355 55.606V47.538ZM188.574 34.8544H193.49V42.397L193.189 45.7368H193.49C194.015 44.8612 194.766 44.1482 195.741 43.5978C196.742 43.0225 197.855 42.7348 199.081 42.7348C201.458 42.7348 203.209 43.4352 204.335 44.8362C205.485 46.2371 206.061 48.1509 206.061 50.5776V61.7227H201.145V51.178C201.145 49.9021 200.845 48.939 200.244 48.2885C199.644 47.6131 198.806 47.2753 197.73 47.2753C197.055 47.2753 196.454 47.4254 195.929 47.7257C195.403 48.0008 194.953 48.3886 194.578 48.8889C194.228 49.3893 193.952 49.9772 193.752 50.6526C193.577 51.3031 193.49 52.0036 193.49 52.7541V61.7227H188.574V34.8544ZM34.235 72.8544H39.301V84.3747H39.6012L49.4329 72.8544H55.5495V73.1546L45.8304 84.2622L56.5627 99.4225V99.7227H50.371L42.3781 88.2774L39.301 91.8423V99.7227H34.235V72.8544ZM70.7253 97.321H70.4251C69.8498 98.2467 69.0742 98.9847 68.0986 99.535C67.1229 100.06 66.0096 100.323 64.7588 100.323C62.4322 100.323 60.6935 99.6101 59.5428 98.1841C58.417 96.7581 57.8541 94.8569 57.8541 92.4802V81.3352H62.7699V91.8798C62.7699 93.2057 63.0576 94.1939 63.633 94.8443C64.2334 95.4698 65.0965 95.7825 66.2223 95.7825C66.8977 95.7825 67.4856 95.6449 67.986 95.3697C68.5113 95.0695 68.9491 94.6817 69.2994 94.2064C69.6746 93.7061 69.9498 93.1307 70.1249 92.4802C70.3251 91.8048 70.4251 91.0918 70.4251 90.3413V81.3352H75.341V99.7227H70.7253V97.321ZM79.552 72.8544H84.4679V80.9224L84.1677 83.5492H84.4679C84.9182 82.7736 85.6187 82.1107 86.5693 81.5603C87.52 81.0099 88.6958 80.7348 90.0967 80.7348C91.2725 80.7348 92.3858 80.9849 93.4365 81.4853C94.5122 81.9606 95.4503 82.6361 96.2509 83.5116C97.0764 84.3622 97.7269 85.3879 98.2022 86.5887C98.6775 87.7896 98.9152 89.1029 98.9152 90.5289C98.9152 91.9549 98.6775 93.2683 98.2022 94.4691C97.7269 95.6699 97.0764 96.7081 96.2509 97.5837C95.4503 98.4343 94.5122 99.1097 93.4365 99.6101C92.3858 100.085 91.2725 100.323 90.0967 100.323C88.6958 100.323 87.52 100.048 86.5693 99.4975C85.6187 98.9471 84.9182 98.2842 84.4679 97.5087H84.1677V99.7227H79.552V72.8544ZM89.0835 95.7825C89.734 95.7825 90.3469 95.6574 90.9223 95.4072C91.5227 95.1571 92.048 94.8068 92.4983 94.3565C92.9486 93.9062 93.3114 93.3558 93.5866 92.7054C93.8618 92.0549 93.9994 91.3295 93.9994 90.5289C93.9994 89.7284 93.8618 89.0029 93.5866 88.3524C93.3114 87.702 92.9486 87.1516 92.4983 86.7013C92.048 86.251 91.5227 85.9008 90.9223 85.6506C90.3469 85.4004 89.734 85.2753 89.0835 85.2753C88.4331 85.2753 87.8076 85.4004 87.2072 85.6506C86.6319 85.8758 86.119 86.2135 85.6687 86.6638C85.2184 87.1141 84.8556 87.6645 84.5805 88.3149C84.3053 88.9654 84.1677 89.7034 84.1677 90.5289C84.1677 91.3545 84.3053 92.0925 84.5805 92.7429C84.8556 93.3934 85.2184 93.9437 85.6687 94.394C86.119 94.8443 86.6319 95.1946 87.2072 95.4448C87.8076 95.6699 88.4331 95.7825 89.0835 95.7825ZM113.385 97.7713H113.085C112.51 98.4718 111.809 99.0722 110.984 99.5726C110.183 100.073 109.145 100.323 107.869 100.323C106.918 100.323 106.018 100.16 105.167 99.8352C104.342 99.535 103.616 99.1097 102.991 98.5594C102.365 98.009 101.878 97.346 101.527 96.5705C101.177 95.795 101.002 94.9444 101.002 94.0188C101.002 93.0681 101.19 92.2176 101.565 91.467C101.94 90.6915 102.465 90.0286 103.141 89.4782C103.816 88.9278 104.604 88.515 105.505 88.2399C106.431 87.9397 107.431 87.7896 108.507 87.7896C109.708 87.7896 110.696 87.8896 111.472 88.0898C112.247 88.2649 112.885 88.4525 113.385 88.6526V88.0898C113.385 87.1141 112.998 86.3136 112.222 85.6881C111.447 85.0377 110.483 84.7125 109.333 84.7125C107.631 84.7125 106.193 85.4254 105.017 86.8514L101.452 84.4123C103.404 81.9606 106.068 80.7348 109.445 80.7348C112.297 80.7348 114.474 81.4102 115.975 82.7611C117.476 84.087 118.226 86.0634 118.226 88.6902V99.7227H113.385V97.7713ZM113.385 92.2551C112.81 91.9799 112.21 91.7673 111.584 91.6172C110.984 91.442 110.321 91.3545 109.595 91.3545C108.419 91.3545 107.506 91.6172 106.856 92.1425C106.231 92.6428 105.918 93.2683 105.918 94.0188C105.918 94.7693 106.218 95.3697 106.818 95.82C107.444 96.2703 108.157 96.4955 108.957 96.4955C109.608 96.4955 110.208 96.3829 110.759 96.1577C111.309 95.9076 111.772 95.5949 112.147 95.2196C112.547 94.8193 112.848 94.369 113.048 93.8687C113.273 93.3433 113.385 92.8055 113.385 92.2551ZM122.135 81.3352H126.75V83.8869H127.051C127.276 83.4366 127.576 83.0238 127.951 82.6486C128.326 82.2733 128.739 81.9481 129.189 81.6729C129.665 81.3977 130.165 81.1851 130.69 81.035C131.241 80.8849 131.779 80.8098 132.304 80.8098C132.955 80.8098 133.505 80.8724 133.955 80.9974C134.431 81.1225 134.831 81.2851 135.156 81.4853L133.843 85.9508C133.542 85.8007 133.205 85.6881 132.829 85.6131C132.479 85.513 132.041 85.463 131.516 85.463C130.841 85.463 130.228 85.6006 129.677 85.8758C129.127 86.1259 128.652 86.4887 128.251 86.964C127.876 87.4393 127.576 88.0022 127.351 88.6526C127.151 89.2781 127.051 89.966 127.051 90.7165V99.7227H122.135V81.3352Z" fill="#DD032D"/>
<path d="M36.0005 114.609L34.4262 118.955H37.6287L36.0543 114.609H36.0005ZM33.0672 122.723H31.6947L35.3277 113.088H36.7271L40.3602 122.723H38.9877L38.0593 120.112H34.0091L33.0672 122.723ZM46.3207 120.893C46.3207 121.467 46.0695 121.951 45.5672 122.346C45.0648 122.741 44.4324 122.938 43.6699 122.938C43.0061 122.938 42.423 122.768 41.9206 122.427C41.4183 122.077 41.0595 121.619 40.8442 121.054L41.9476 120.583C42.109 120.978 42.3423 121.287 42.6473 121.512C42.9612 121.727 43.3021 121.835 43.6699 121.835C44.0646 121.835 44.392 121.749 44.6522 121.579C44.9213 121.408 45.0558 121.207 45.0558 120.973C45.0558 120.552 44.7329 120.242 44.087 120.045L42.9567 119.762C41.674 119.439 41.0326 118.82 41.0326 117.905C41.0326 117.304 41.2748 116.825 41.7592 116.466C42.2526 116.098 42.8805 115.914 43.643 115.914C44.2261 115.914 44.7508 116.053 45.2173 116.331C45.6927 116.609 46.0247 116.982 46.213 117.448L45.1097 117.905C44.9841 117.627 44.7778 117.412 44.4907 117.26C44.2126 117.098 43.8986 117.017 43.5488 117.017C43.2259 117.017 42.9343 117.098 42.6742 117.26C42.423 117.421 42.2974 117.618 42.2974 117.852C42.2974 118.228 42.6517 118.498 43.3604 118.659L44.3561 118.915C45.6658 119.238 46.3207 119.897 46.3207 120.893ZM56.2484 116.129L52.1175 125.629H50.8392L52.3732 122.306L49.6551 116.129H51.0007L52.9652 120.866H52.9921L54.9028 116.129H56.2484ZM56.4168 119.426C56.4168 118.412 56.7353 117.574 57.3722 116.91C58.0181 116.246 58.8299 115.914 59.8077 115.914C60.7855 115.914 61.5928 116.246 62.2297 116.91C62.8756 117.574 63.1985 118.412 63.1985 119.426C63.1985 120.449 62.8756 121.287 62.2297 121.942C61.5928 122.606 60.7855 122.938 59.8077 122.938C58.8299 122.938 58.0181 122.606 57.3722 121.942C56.7353 121.278 56.4168 120.44 56.4168 119.426ZM57.6548 119.426C57.6548 120.135 57.8611 120.709 58.2737 121.148C58.6864 121.588 59.1977 121.808 59.8077 121.808C60.4177 121.808 60.929 121.588 61.3416 121.148C61.7543 120.709 61.9606 120.135 61.9606 119.426C61.9606 118.726 61.7543 118.157 61.3416 117.717C60.92 117.269 60.4087 117.044 59.8077 117.044C59.2067 117.044 58.6953 117.269 58.2737 117.717C57.8611 118.157 57.6548 118.726 57.6548 119.426ZM70.0433 122.723H68.8592V121.808H68.8054C68.617 122.131 68.3255 122.4 67.9308 122.615C67.545 122.83 67.1414 122.938 66.7198 122.938C65.9124 122.938 65.289 122.709 64.8494 122.252C64.4188 121.785 64.2035 121.126 64.2035 120.274V116.129H65.4415V120.193C65.4684 121.269 66.0111 121.808 67.0696 121.808C67.563 121.808 67.9756 121.61 68.3075 121.216C68.6394 120.812 68.8054 120.332 68.8054 119.776V116.129H70.0433V122.723ZM72.7882 122.723H71.5503V116.129H72.7344V117.206H72.7882C72.9138 116.856 73.1695 116.56 73.5552 116.318C73.9499 116.067 74.3356 115.941 74.7124 115.941C75.0712 115.941 75.3762 115.995 75.6274 116.102L75.2506 117.3C75.0981 117.237 74.8559 117.206 74.524 117.206C74.0575 117.206 73.6494 117.394 73.2995 117.771C72.9586 118.148 72.7882 118.587 72.7882 119.09V122.723ZM82.8801 122.938C82.3957 122.938 81.9517 122.835 81.548 122.628C81.1533 122.422 80.8483 122.149 80.633 121.808H80.5792V122.723H79.3951V113.088H80.633V116.129L80.5792 117.044H80.633C80.8483 116.703 81.1533 116.43 81.548 116.224C81.9517 116.017 82.3957 115.914 82.8801 115.914C83.7503 115.914 84.4859 116.255 85.0869 116.937C85.7059 117.627 86.0153 118.457 86.0153 119.426C86.0153 120.404 85.7059 121.234 85.0869 121.915C84.4859 122.597 83.7503 122.938 82.8801 122.938ZM82.6783 121.808C83.2704 121.808 83.7682 121.583 84.1719 121.135C84.5756 120.695 84.7774 120.126 84.7774 119.426C84.7774 118.735 84.5756 118.166 84.1719 117.717C83.7682 117.269 83.2704 117.044 82.6783 117.044C82.0773 117.044 81.5749 117.269 81.1713 117.717C80.7766 118.166 80.5792 118.735 80.5792 119.426C80.5792 120.126 80.7766 120.7 81.1713 121.148C81.5749 121.588 82.0773 121.808 82.6783 121.808ZM92.8682 122.723H91.6841V121.808H91.6303C91.4419 122.131 91.1504 122.4 90.7557 122.615C90.3699 122.83 89.9663 122.938 89.5446 122.938C88.7373 122.938 88.1138 122.709 87.6743 122.252C87.2437 121.785 87.0284 121.126 87.0284 120.274V116.129H88.2663V120.193C88.2933 121.269 88.836 121.808 89.8945 121.808C90.3879 121.808 90.8005 121.61 91.1324 121.216C91.4643 120.812 91.6303 120.332 91.6303 119.776V116.129H92.8682V122.723ZM99.3554 120.893C99.3554 121.467 99.1042 121.951 98.6019 122.346C98.0995 122.741 97.4671 122.938 96.7046 122.938C96.0408 122.938 95.4577 122.768 94.9553 122.427C94.453 122.077 94.0942 121.619 93.8789 121.054L94.9823 120.583C95.1437 120.978 95.377 121.287 95.682 121.512C95.9959 121.727 96.3368 121.835 96.7046 121.835C97.0993 121.835 97.4267 121.749 97.6869 121.579C97.956 121.408 98.0905 121.207 98.0905 120.973C98.0905 120.552 97.7676 120.242 97.1217 120.045L95.9914 119.762C94.7087 119.439 94.0673 118.82 94.0673 117.905C94.0673 117.304 94.3095 116.825 94.7939 116.466C95.2872 116.098 95.9152 115.914 96.6777 115.914C97.2608 115.914 97.7855 116.053 98.252 116.331C98.7274 116.609 99.0594 116.982 99.2477 117.448L98.1444 117.905C98.0188 117.627 97.8125 117.412 97.5254 117.26C97.2473 117.098 96.9333 117.017 96.5835 117.017C96.2606 117.017 95.969 117.098 95.7089 117.26C95.4577 117.421 95.3321 117.618 95.3321 117.852C95.3321 118.228 95.6864 118.498 96.3951 118.659L97.3908 118.915C98.7005 119.238 99.3554 119.897 99.3554 120.893ZM101.968 113.855C101.968 114.098 101.883 114.304 101.713 114.474C101.542 114.645 101.336 114.73 101.094 114.73C100.852 114.73 100.645 114.645 100.475 114.474C100.304 114.304 100.219 114.098 100.219 113.855C100.219 113.613 100.304 113.407 100.475 113.236C100.645 113.066 100.852 112.981 101.094 112.981C101.336 112.981 101.542 113.066 101.713 113.236C101.883 113.407 101.968 113.613 101.968 113.855ZM101.713 116.129V122.723H100.475V116.129H101.713ZM103.324 116.129H104.508V117.044H104.562C104.75 116.721 105.037 116.452 105.423 116.237C105.818 116.022 106.226 115.914 106.647 115.914C107.455 115.914 108.074 116.147 108.504 116.614C108.944 117.071 109.164 117.726 109.164 118.578V122.723H107.926V118.659C107.899 117.583 107.356 117.044 106.298 117.044C105.804 117.044 105.391 117.246 105.06 117.65C104.728 118.045 104.562 118.52 104.562 119.076V122.723H103.324V116.129ZM113.577 122.938C112.608 122.938 111.81 122.606 111.182 121.942C110.554 121.278 110.24 120.44 110.24 119.426C110.24 118.421 110.545 117.587 111.155 116.923C111.765 116.25 112.545 115.914 113.496 115.914C114.474 115.914 115.25 116.232 115.824 116.869C116.407 117.497 116.699 118.381 116.699 119.52L116.685 119.655H111.505C111.523 120.301 111.738 120.821 112.151 121.216C112.563 121.61 113.057 121.808 113.631 121.808C114.42 121.808 115.039 121.413 115.488 120.624L116.591 121.162C116.295 121.718 115.882 122.153 115.353 122.467C114.833 122.781 114.241 122.938 113.577 122.938ZM111.599 118.632H115.38C115.344 118.175 115.156 117.798 114.815 117.502C114.483 117.197 114.034 117.044 113.469 117.044C113.003 117.044 112.599 117.188 112.258 117.475C111.926 117.762 111.707 118.148 111.599 118.632ZM122.942 120.893C122.942 121.467 122.691 121.951 122.189 122.346C121.687 122.741 121.054 122.938 120.292 122.938C119.628 122.938 119.045 122.768 118.542 122.427C118.04 122.077 117.681 121.619 117.466 121.054L118.569 120.583C118.731 120.978 118.964 121.287 119.269 121.512C119.583 121.727 119.924 121.835 120.292 121.835C120.686 121.835 121.014 121.749 121.274 121.579C121.543 121.408 121.678 121.207 121.678 120.973C121.678 120.552 121.355 120.242 120.709 120.045L119.578 119.762C118.296 119.439 117.654 118.82 117.654 117.905C117.654 117.304 117.896 116.825 118.381 116.466C118.874 116.098 119.502 115.914 120.265 115.914C120.848 115.914 121.373 116.053 121.839 116.331C122.314 116.609 122.646 116.982 122.835 117.448L121.731 117.905C121.606 117.627 121.399 117.412 121.112 117.26C120.834 117.098 120.52 117.017 120.171 117.017C119.848 117.017 119.556 117.098 119.296 117.26C119.045 117.421 118.919 117.618 118.919 117.852C118.919 118.228 119.273 118.498 119.982 118.659L120.978 118.915C122.288 119.238 122.942 119.897 122.942 120.893ZM129.066 120.893C129.066 121.467 128.815 121.951 128.312 122.346C127.81 122.741 127.178 122.938 126.415 122.938C125.751 122.938 125.168 122.768 124.666 122.427C124.163 122.077 123.805 121.619 123.589 121.054L124.693 120.583C124.854 120.978 125.087 121.287 125.392 121.512C125.706 121.727 126.047 121.835 126.415 121.835C126.81 121.835 127.137 121.749 127.397 121.579C127.666 121.408 127.801 121.207 127.801 120.973C127.801 120.552 127.478 120.242 126.832 120.045L125.702 119.762C124.419 119.439 123.778 118.82 123.778 117.905C123.778 117.304 124.02 116.825 124.504 116.466C124.998 116.098 125.626 115.914 126.388 115.914C126.971 115.914 127.496 116.053 127.962 116.331C128.438 116.609 128.77 116.982 128.958 117.448L127.855 117.905C127.729 117.627 127.523 117.412 127.236 117.26C126.958 117.098 126.644 117.017 126.294 117.017C125.971 117.017 125.679 117.098 125.419 117.26C125.168 117.421 125.043 117.618 125.043 117.852C125.043 118.228 125.397 118.498 126.106 118.659L127.101 118.915C128.411 119.238 129.066 119.897 129.066 120.893ZM136.06 121.808C136.67 121.808 137.168 121.588 137.554 121.148C137.957 120.709 138.159 120.135 138.159 119.426C138.159 118.735 137.957 118.166 137.554 117.717C137.159 117.269 136.661 117.044 136.06 117.044C135.468 117.044 134.97 117.269 134.567 117.717C134.163 118.166 133.961 118.735 133.961 119.426C133.961 120.126 134.163 120.695 134.567 121.135C134.97 121.583 135.468 121.808 136.06 121.808ZM136.02 125.844C135.652 125.844 135.307 125.795 134.984 125.696C134.661 125.607 134.365 125.477 134.096 125.306C133.836 125.136 133.611 124.934 133.423 124.701C133.235 124.467 133.091 124.207 132.992 123.92L134.163 123.436C134.298 123.822 134.531 124.131 134.863 124.364C135.195 124.597 135.58 124.714 136.02 124.714C136.693 124.714 137.217 124.512 137.594 124.109C137.971 123.705 138.159 123.149 138.159 122.44V121.808H138.106C137.872 122.158 137.554 122.436 137.15 122.642C136.755 122.839 136.325 122.938 135.858 122.938C134.997 122.938 134.257 122.602 133.638 121.929C133.028 121.238 132.723 120.404 132.723 119.426C132.723 118.448 133.028 117.618 133.638 116.937C134.257 116.255 134.997 115.914 135.858 115.914C136.325 115.914 136.755 116.017 137.15 116.224C137.554 116.421 137.872 116.694 138.106 117.044H138.159V116.129H139.343V122.44C139.343 123.499 139.043 124.328 138.442 124.929C137.832 125.539 137.025 125.844 136.02 125.844ZM142.091 122.723H140.853V116.129H142.037V117.206H142.091C142.216 116.856 142.472 116.56 142.858 116.318C143.252 116.067 143.638 115.941 144.015 115.941C144.374 115.941 144.679 115.995 144.93 116.102L144.553 117.3C144.401 117.237 144.158 117.206 143.827 117.206C143.36 117.206 142.952 117.394 142.602 117.771C142.261 118.148 142.091 118.587 142.091 119.09V122.723ZM144.957 119.426C144.957 118.412 145.275 117.574 145.912 116.91C146.558 116.246 147.37 115.914 148.348 115.914C149.326 115.914 150.133 116.246 150.77 116.91C151.416 117.574 151.739 118.412 151.739 119.426C151.739 120.449 151.416 121.287 150.77 121.942C150.133 122.606 149.326 122.938 148.348 122.938C147.37 122.938 146.558 122.606 145.912 121.942C145.275 121.278 144.957 120.44 144.957 119.426ZM146.195 119.426C146.195 120.135 146.401 120.709 146.814 121.148C147.226 121.588 147.738 121.808 148.348 121.808C148.958 121.808 149.469 121.588 149.882 121.148C150.294 120.709 150.501 120.135 150.501 119.426C150.501 118.726 150.294 118.157 149.882 117.717C149.46 117.269 148.949 117.044 148.348 117.044C147.747 117.044 147.235 117.269 146.814 117.717C146.401 118.157 146.195 118.726 146.195 119.426ZM162.07 116.129L159.944 122.723H158.679L157.038 117.663L155.409 122.723H154.158L152.032 116.129H153.324L154.79 121.108H154.804L156.432 116.129H157.71L159.339 121.108H159.352L160.805 116.129H162.07ZM167.922 120.893C167.922 121.467 167.671 121.951 167.169 122.346C166.666 122.741 166.034 122.938 165.271 122.938C164.607 122.938 164.024 122.768 163.522 122.427C163.02 122.077 162.661 121.619 162.446 121.054L163.549 120.583C163.71 120.978 163.944 121.287 164.249 121.512C164.563 121.727 164.903 121.835 165.271 121.835C165.666 121.835 165.993 121.749 166.254 121.579C166.523 121.408 166.657 121.207 166.657 120.973C166.657 120.552 166.334 120.242 165.688 120.045L164.558 119.762C163.275 119.439 162.634 118.82 162.634 117.905C162.634 117.304 162.876 116.825 163.361 116.466C163.854 116.098 164.482 115.914 165.244 115.914C165.827 115.914 166.352 116.053 166.819 116.331C167.294 116.609 167.626 116.982 167.814 117.448L166.711 117.905C166.585 117.627 166.379 117.412 166.092 117.26C165.814 117.098 165.5 117.017 165.15 117.017C164.827 117.017 164.536 117.098 164.276 117.26C164.024 117.421 163.899 117.618 163.899 117.852C163.899 118.228 164.253 118.498 164.962 118.659L165.958 118.915C167.267 119.238 167.922 119.897 167.922 120.893ZM169.417 124.23L168.838 123.853L169.565 122.723C169.376 122.687 169.215 122.593 169.08 122.44C168.955 122.288 168.892 122.104 168.892 121.888C168.892 121.628 168.982 121.413 169.161 121.243C169.34 121.063 169.556 120.973 169.807 120.973C170.067 120.973 170.282 121.063 170.453 121.243C170.632 121.413 170.722 121.628 170.722 121.888C170.722 122.131 170.632 122.395 170.453 122.682L169.417 124.23ZM180.829 113.088H182.43V113.142L178.851 117.273L182.673 122.669V122.723H181.152L178.017 118.228L176.537 119.937V122.723H175.299V113.088H176.537V118.054H176.591L180.829 113.088ZM188.977 122.723H187.793V121.808H187.739C187.551 122.131 187.259 122.4 186.865 122.615C186.479 122.83 186.075 122.938 185.654 122.938C184.846 122.938 184.223 122.709 183.783 122.252C183.353 121.785 183.137 121.126 183.137 120.274V116.129H184.375V120.193C184.402 121.269 184.945 121.808 186.003 121.808C186.497 121.808 186.909 121.61 187.241 121.216C187.573 120.812 187.739 120.332 187.739 119.776V116.129H188.977V122.723ZM193.969 122.938C193.485 122.938 193.041 122.835 192.637 122.628C192.242 122.422 191.937 122.149 191.722 121.808H191.668V122.723H190.484V113.088H191.722V116.129L191.668 117.044H191.722C191.937 116.703 192.242 116.43 192.637 116.224C193.041 116.017 193.485 115.914 193.969 115.914C194.839 115.914 195.575 116.255 196.176 116.937C196.795 117.627 197.104 118.457 197.104 119.426C197.104 120.404 196.795 121.234 196.176 121.915C195.575 122.597 194.839 122.938 193.969 122.938ZM193.767 121.808C194.359 121.808 194.857 121.583 195.261 121.135C195.665 120.695 195.866 120.126 195.866 119.426C195.866 118.735 195.665 118.166 195.261 117.717C194.857 117.269 194.359 117.044 193.767 117.044C193.166 117.044 192.664 117.269 192.26 117.717C191.866 118.166 191.668 118.735 191.668 119.426C191.668 120.126 191.866 120.7 192.26 121.148C192.664 121.588 193.166 121.808 193.767 121.808ZM199.139 120.704C199.139 121.027 199.273 121.296 199.542 121.512C199.82 121.727 200.143 121.835 200.511 121.835C201.031 121.835 201.493 121.642 201.897 121.256C202.31 120.87 202.516 120.417 202.516 119.897C202.13 119.592 201.592 119.439 200.901 119.439C200.399 119.439 199.977 119.561 199.636 119.803C199.304 120.045 199.139 120.345 199.139 120.704ZM200.74 115.914C201.655 115.914 202.377 116.161 202.906 116.654C203.435 117.139 203.7 117.807 203.7 118.659V122.723H202.516V121.808H202.462C201.951 122.561 201.269 122.938 200.417 122.938C199.69 122.938 199.08 122.723 198.587 122.292C198.102 121.861 197.86 121.323 197.86 120.677C197.86 119.996 198.116 119.453 198.627 119.049C199.147 118.646 199.838 118.444 200.699 118.444C201.435 118.444 202.04 118.578 202.516 118.847V118.565C202.516 118.134 202.345 117.771 202.005 117.475C201.664 117.17 201.265 117.017 200.807 117.017C200.116 117.017 199.569 117.309 199.165 117.892L198.075 117.206C198.677 116.345 199.565 115.914 200.74 115.914ZM206.334 122.723H205.096V116.129H206.28V117.206H206.334C206.46 116.856 206.715 116.56 207.101 116.318C207.496 116.067 207.882 115.941 208.258 115.941C208.617 115.941 208.922 115.995 209.173 116.102L208.797 117.3C208.644 117.237 208.402 117.206 208.07 117.206C207.604 117.206 207.195 117.394 206.846 117.771C206.505 118.148 206.334 118.587 206.334 119.09V122.723ZM210.455 116.022L209.877 115.645L210.55 114.622C210.361 114.586 210.2 114.492 210.065 114.34C209.94 114.187 209.877 114.003 209.877 113.788C209.877 113.528 209.967 113.313 210.146 113.142C210.325 112.963 210.541 112.873 210.792 112.873C211.052 112.873 211.267 112.963 211.438 113.142C211.617 113.313 211.707 113.528 211.707 113.788C211.707 114.039 211.613 114.313 211.424 114.609L210.455 116.022ZM217.488 120.893C217.488 121.467 217.236 121.951 216.734 122.346C216.232 122.741 215.599 122.938 214.837 122.938C214.173 122.938 213.59 122.768 213.088 122.427C212.585 122.077 212.226 121.619 212.011 121.054L213.115 120.583C213.276 120.978 213.509 121.287 213.814 121.512C214.128 121.727 214.469 121.835 214.837 121.835C215.232 121.835 215.559 121.749 215.819 121.579C216.088 121.408 216.223 121.207 216.223 120.973C216.223 120.552 215.9 120.242 215.254 120.045L214.124 119.762C212.841 119.439 212.2 118.82 212.2 117.905C212.2 117.304 212.442 116.825 212.926 116.466C213.42 116.098 214.047 115.914 214.81 115.914C215.393 115.914 215.918 116.053 216.384 116.331C216.86 116.609 217.192 116.982 217.38 117.448L216.277 117.905C216.151 117.627 215.945 117.412 215.658 117.26C215.38 117.098 215.066 117.017 214.716 117.017C214.393 117.017 214.101 117.098 213.841 117.26C213.59 117.421 213.464 117.618 213.464 117.852C213.464 118.228 213.819 118.498 214.527 118.659L215.523 118.915C216.833 119.238 217.488 119.897 217.488 120.893ZM226.568 120.893C226.568 121.467 226.317 121.951 225.814 122.346C225.312 122.741 224.679 122.938 223.917 122.938C223.253 122.938 222.67 122.768 222.168 122.427C221.665 122.077 221.306 121.619 221.091 121.054L222.195 120.583C222.356 120.978 222.589 121.287 222.894 121.512C223.208 121.727 223.549 121.835 223.917 121.835C224.312 121.835 224.639 121.749 224.899 121.579C225.168 121.408 225.303 121.207 225.303 120.973C225.303 120.552 224.98 120.242 224.334 120.045L223.204 119.762C221.921 119.439 221.28 118.82 221.28 117.905C221.28 117.304 221.522 116.825 222.006 116.466C222.5 116.098 223.127 115.914 223.89 115.914C224.473 115.914 224.998 116.053 225.464 116.331C225.94 116.609 226.272 116.982 226.46 117.448L225.357 117.905C225.231 117.627 225.025 117.412 224.738 117.26C224.46 117.098 224.146 117.017 223.796 117.017C223.473 117.017 223.181 117.098 222.921 117.26C222.67 117.421 222.544 117.618 222.544 117.852C222.544 118.228 222.899 118.498 223.607 118.659L224.603 118.915C225.913 119.238 226.568 119.897 226.568 120.893ZM233.539 116.129L229.408 125.629H228.13L229.664 122.306L226.946 116.129H228.291L230.256 120.866H230.283L232.193 116.129H233.539ZM239.261 120.893C239.261 121.467 239.01 121.951 238.508 122.346C238.005 122.741 237.373 122.938 236.611 122.938C235.947 122.938 235.364 122.768 234.861 122.427C234.359 122.077 234 121.619 233.785 121.054L234.888 120.583C235.05 120.978 235.283 121.287 235.588 121.512C235.902 121.727 236.243 121.835 236.611 121.835C237.005 121.835 237.333 121.749 237.593 121.579C237.862 121.408 237.996 121.207 237.996 120.973C237.996 120.552 237.674 120.242 237.028 120.045L235.897 119.762C234.615 119.439 233.973 118.82 233.973 117.905C233.973 117.304 234.215 116.825 234.7 116.466C235.193 116.098 235.821 115.914 236.584 115.914C237.167 115.914 237.691 116.053 238.158 116.331C238.633 116.609 238.965 116.982 239.154 117.448L238.05 117.905C237.925 117.627 237.718 117.412 237.431 117.26C237.153 117.098 236.839 117.017 236.489 117.017C236.166 117.017 235.875 117.098 235.615 117.26C235.364 117.421 235.238 117.618 235.238 117.852C235.238 118.228 235.592 118.498 236.301 118.659L237.297 118.915C238.606 119.238 239.261 119.897 239.261 120.893ZM242.884 122.83C242.345 122.83 241.897 122.664 241.538 122.332C241.188 122.001 241.009 121.539 241 120.946V117.26H239.843V116.129H241V114.111H242.238V116.129H243.852V117.26H242.238V120.543C242.238 120.982 242.323 121.283 242.493 121.444C242.664 121.597 242.857 121.673 243.072 121.673C243.171 121.673 243.265 121.664 243.355 121.646C243.453 121.619 243.543 121.588 243.624 121.552L244.014 122.655C243.691 122.772 243.314 122.83 242.884 122.83ZM247.925 122.938C246.956 122.938 246.157 122.606 245.529 121.942C244.901 121.278 244.588 120.44 244.588 119.426C244.588 118.421 244.892 117.587 245.502 116.923C246.112 116.25 246.893 115.914 247.844 115.914C248.822 115.914 249.598 116.232 250.172 116.869C250.755 117.497 251.046 118.381 251.046 119.52L251.033 119.655H245.852C245.87 120.301 246.086 120.821 246.498 121.216C246.911 121.61 247.404 121.808 247.978 121.808C248.768 121.808 249.387 121.413 249.835 120.624L250.939 121.162C250.643 121.718 250.23 122.153 249.701 122.467C249.18 122.781 248.588 122.938 247.925 122.938ZM245.947 118.632H249.728C249.692 118.175 249.503 117.798 249.162 117.502C248.831 117.197 248.382 117.044 247.817 117.044C247.35 117.044 246.947 117.188 246.606 117.475C246.274 117.762 246.054 118.148 245.947 118.632ZM253.416 122.723H252.178V116.129H253.362V117.044H253.416C253.605 116.721 253.892 116.452 254.277 116.237C254.672 116.022 255.062 115.914 255.448 115.914C255.933 115.914 256.359 116.026 256.726 116.25C257.094 116.475 257.363 116.784 257.534 117.179C258.081 116.336 258.839 115.914 259.808 115.914C260.57 115.914 261.158 116.147 261.57 116.614C261.983 117.08 262.189 117.744 262.189 118.605V122.723H260.952V118.794C260.952 118.175 260.839 117.731 260.615 117.461C260.391 117.183 260.014 117.044 259.485 117.044C259.009 117.044 258.61 117.246 258.287 117.65C257.964 118.054 257.803 118.529 257.803 119.076V122.723H256.565V118.794C256.565 118.175 256.453 117.731 256.229 117.461C256.004 117.183 255.628 117.044 255.098 117.044C254.623 117.044 254.224 117.246 253.901 117.65C253.578 118.054 253.416 118.529 253.416 119.076V122.723ZM35.3008 135.938C34.323 135.938 33.5112 135.606 32.8653 134.942C32.2284 134.26 31.91 133.422 31.91 132.426C31.91 131.412 32.2284 130.574 32.8653 129.91C33.5112 129.246 34.323 128.914 35.3008 128.914C35.9736 128.914 36.5612 129.084 37.0635 129.425C37.5659 129.757 37.9426 130.219 38.1938 130.811L37.0635 131.282C36.7137 130.457 36.0992 130.044 35.2201 130.044C34.6549 130.044 34.1661 130.273 33.7534 130.731C33.3497 131.188 33.1479 131.753 33.1479 132.426C33.1479 133.099 33.3497 133.664 33.7534 134.121C34.1661 134.579 34.6549 134.808 35.2201 134.808C36.1261 134.808 36.763 134.395 37.1308 133.57L38.2342 134.041C37.992 134.633 37.6107 135.099 37.0904 135.44C36.5791 135.772 35.9826 135.938 35.3008 135.938ZM40.1527 133.704C40.1527 134.027 40.2872 134.296 40.5564 134.512C40.8344 134.727 41.1574 134.835 41.5252 134.835C42.0455 134.835 42.5074 134.642 42.9111 134.256C43.3238 133.87 43.5301 133.417 43.5301 132.897C43.1444 132.592 42.6061 132.439 41.9154 132.439C41.413 132.439 40.9914 132.561 40.6505 132.803C40.3186 133.045 40.1527 133.345 40.1527 133.704ZM41.7539 128.914C42.6689 128.914 43.391 129.161 43.9203 129.654C44.4496 130.139 44.7142 130.807 44.7142 131.659V135.723H43.5301V134.808H43.4763C42.9649 135.561 42.2832 135.938 41.431 135.938C40.7044 135.938 40.0944 135.723 39.601 135.292C39.1166 134.861 38.8744 134.323 38.8744 133.677C38.8744 132.996 39.13 132.453 39.6414 132.049C40.1617 131.646 40.8524 131.444 41.7136 131.444C42.4491 131.444 43.0546 131.578 43.5301 131.847V131.565C43.5301 131.134 43.3596 130.771 43.0188 130.475C42.6779 130.17 42.2787 130.017 41.8212 130.017C41.1305 130.017 40.5833 130.309 40.1796 130.892L39.0897 130.206C39.6907 129.345 40.5788 128.914 41.7539 128.914ZM46.1104 129.129H47.2945V130.044H47.3484C47.5368 129.721 47.8238 129.452 48.2095 129.237C48.6042 129.022 49.0124 128.914 49.434 128.914C50.2414 128.914 50.8603 129.147 51.2909 129.614C51.7305 130.071 51.9502 130.726 51.9502 131.578V135.723H50.7123V131.659C50.6854 130.583 50.1427 130.044 49.0842 130.044C48.5908 130.044 48.1781 130.246 47.8462 130.65C47.5143 131.045 47.3484 131.52 47.3484 132.076V135.723H46.1104V129.129ZM56.36 126.088H57.5979V129.129L57.5441 130.044H57.5979C57.7863 129.721 58.0733 129.452 58.4591 129.237C58.8538 129.022 59.2619 128.914 59.6835 128.914C60.4909 128.914 61.1098 129.147 61.5404 129.614C61.98 130.071 62.1998 130.726 62.1998 131.578V135.723H60.9618V131.82C60.9618 130.636 60.4371 130.044 59.3875 130.044C58.8852 130.044 58.4591 130.255 58.1092 130.677C57.7683 131.089 57.5979 131.574 57.5979 132.13V135.723H56.36V126.088ZM64.4887 133.704C64.4887 134.027 64.6233 134.296 64.8924 134.512C65.1705 134.727 65.4934 134.835 65.8612 134.835C66.3815 134.835 66.8435 134.642 67.2472 134.256C67.6598 133.87 67.8661 133.417 67.8661 132.897C67.4804 132.592 66.9422 132.439 66.2514 132.439C65.7491 132.439 65.3275 132.561 64.9866 132.803C64.6547 133.045 64.4887 133.345 64.4887 133.704ZM66.09 128.914C67.005 128.914 67.7271 129.161 68.2563 129.654C68.7856 130.139 69.0502 130.807 69.0502 131.659V135.723H67.8661V134.808H67.8123C67.301 135.561 66.6192 135.938 65.767 135.938C65.0404 135.938 64.4304 135.723 63.937 135.292C63.4526 134.861 63.2104 134.323 63.2104 133.677C63.2104 132.996 63.4661 132.453 63.9774 132.049C64.4977 131.646 65.1884 131.444 66.0496 131.444C66.7852 131.444 67.3907 131.578 67.8661 131.847V131.565C67.8661 131.134 67.6957 130.771 67.3548 130.475C67.0139 130.17 66.6147 130.017 66.1572 130.017C65.4665 130.017 64.9193 130.309 64.5156 130.892L63.4257 130.206C64.0267 129.345 64.9148 128.914 66.09 128.914ZM70.4465 129.129H71.6306V130.044H71.6844C71.8728 129.721 72.1598 129.452 72.5456 129.237C72.9403 129.022 73.3484 128.914 73.7701 128.914C74.5774 128.914 75.1964 129.147 75.627 129.614C76.0665 130.071 76.2863 130.726 76.2863 131.578V135.723H75.0484V131.659C75.0214 130.583 74.4787 130.044 73.4202 130.044C72.9268 130.044 72.5142 130.246 72.1823 130.65C71.8504 131.045 71.6844 131.52 71.6844 132.076V135.723H70.4465V129.129ZM80.6997 134.808C81.3097 134.808 81.8075 134.588 82.1933 134.148C82.5969 133.709 82.7988 133.135 82.7988 132.426C82.7988 131.735 82.5969 131.166 82.1933 130.717C81.7986 130.269 81.3007 130.044 80.6997 130.044C80.1076 130.044 79.6098 130.269 79.2061 130.717C78.8024 131.166 78.6006 131.735 78.6006 132.426C78.6006 133.126 78.8024 133.695 79.2061 134.135C79.6098 134.583 80.1076 134.808 80.6997 134.808ZM80.4978 135.938C79.6367 135.938 78.8966 135.597 78.2776 134.915C77.6676 134.225 77.3626 133.395 77.3626 132.426C77.3626 131.457 77.6676 130.627 78.2776 129.937C78.8966 129.255 79.6367 128.914 80.4978 128.914C80.9822 128.914 81.4218 129.017 81.8165 129.224C82.2202 129.43 82.5297 129.703 82.745 130.044H82.7988L82.745 129.129V126.088H83.9829V135.723H82.7988V134.808H82.745C82.5297 135.149 82.2202 135.422 81.8165 135.628C81.4218 135.835 80.9822 135.938 80.4978 135.938ZM86.7302 126.088V135.723H85.4922V126.088H86.7302ZM91.1332 135.938C90.1643 135.938 89.366 135.606 88.738 134.942C88.1101 134.278 87.7961 133.44 87.7961 132.426C87.7961 131.421 88.1011 130.587 88.7111 129.923C89.3211 129.25 90.1016 128.914 91.0524 128.914C92.0302 128.914 92.8062 129.232 93.3803 129.869C93.9634 130.497 94.2549 131.381 94.2549 132.52L94.2414 132.655H89.061C89.0789 133.301 89.2942 133.821 89.7069 134.216C90.1195 134.61 90.6129 134.808 91.187 134.808C91.9764 134.808 92.5954 134.413 93.0439 133.624L94.1473 134.162C93.8512 134.718 93.4386 135.153 92.9093 135.467C92.389 135.781 91.797 135.938 91.1332 135.938ZM89.1552 131.632H92.9362C92.9004 131.175 92.712 130.798 92.3711 130.502C92.0392 130.197 91.5907 130.044 91.0255 130.044C90.5591 130.044 90.1554 130.188 89.8145 130.475C89.4826 130.762 89.2628 131.148 89.1552 131.632ZM99.5815 135.723H98.3436V129.129H99.5277V130.044H99.5815C99.7699 129.721 100.057 129.452 100.443 129.237C100.837 129.022 101.228 128.914 101.613 128.914C102.098 128.914 102.524 129.026 102.892 129.25C103.259 129.475 103.529 129.784 103.699 130.179C104.246 129.336 105.004 128.914 105.973 128.914C106.735 128.914 107.323 129.147 107.736 129.614C108.148 130.08 108.355 130.744 108.355 131.605V135.723H107.117V131.794C107.117 131.175 107.005 130.731 106.78 130.461C106.556 130.183 106.179 130.044 105.65 130.044C105.175 130.044 104.775 130.246 104.452 130.65C104.13 131.054 103.968 131.529 103.968 132.076V135.723H102.73V131.794C102.73 131.175 102.618 130.731 102.394 130.461C102.169 130.183 101.793 130.044 101.263 130.044C100.788 130.044 100.389 130.246 100.066 130.65C99.743 131.054 99.5815 131.529 99.5815 132.076V135.723ZM109.425 132.426C109.425 131.412 109.744 130.574 110.381 129.91C111.026 129.246 111.838 128.914 112.816 128.914C113.794 128.914 114.601 129.246 115.238 129.91C115.884 130.574 116.207 131.412 116.207 132.426C116.207 133.449 115.884 134.287 115.238 134.942C114.601 135.606 113.794 135.938 112.816 135.938C111.838 135.938 111.026 135.606 110.381 134.942C109.744 134.278 109.425 133.44 109.425 132.426ZM110.663 132.426C110.663 133.135 110.87 133.709 111.282 134.148C111.695 134.588 112.206 134.808 112.816 134.808C113.426 134.808 113.937 134.588 114.35 134.148C114.763 133.709 114.969 133.135 114.969 132.426C114.969 131.726 114.763 131.157 114.35 130.717C113.928 130.269 113.417 130.044 112.816 130.044C112.215 130.044 111.704 130.269 111.282 130.717C110.87 131.157 110.663 131.726 110.663 132.426ZM118.438 135.723H117.2V129.129H118.384V130.206H118.438C118.564 129.856 118.819 129.56 119.205 129.318C119.6 129.067 119.985 128.941 120.362 128.941C120.721 128.941 121.026 128.995 121.277 129.102L120.9 130.3C120.748 130.237 120.506 130.206 120.174 130.206C119.707 130.206 119.299 130.394 118.949 130.771C118.608 131.148 118.438 131.587 118.438 132.09V135.723ZM124.641 135.938C123.672 135.938 122.874 135.606 122.246 134.942C121.618 134.278 121.304 133.44 121.304 132.426C121.304 131.421 121.609 130.587 122.219 129.923C122.829 129.25 123.61 128.914 124.56 128.914C125.538 128.914 126.314 129.232 126.888 129.869C127.471 130.497 127.763 131.381 127.763 132.52L127.749 132.655H122.569C122.587 133.301 122.802 133.821 123.215 134.216C123.628 134.61 124.121 134.808 124.695 134.808C125.484 134.808 126.103 134.413 126.552 133.624L127.655 134.162C127.359 134.718 126.947 135.153 126.417 135.467C125.897 135.781 125.305 135.938 124.641 135.938ZM122.663 131.632H126.444C126.408 131.175 126.22 130.798 125.879 130.502C125.547 130.197 125.099 130.044 124.534 130.044C124.067 130.044 123.663 130.188 123.323 130.475C122.991 130.762 122.771 131.148 122.663 131.632ZM133.09 126.088V135.723H131.852V126.088H133.09ZM134.155 132.426C134.155 131.412 134.474 130.574 135.111 129.91C135.757 129.246 136.569 128.914 137.546 128.914C138.524 128.914 139.331 129.246 139.968 129.91C140.614 130.574 140.937 131.412 140.937 132.426C140.937 133.449 140.614 134.287 139.968 134.942C139.331 135.606 138.524 135.938 137.546 135.938C136.569 135.938 135.757 135.606 135.111 134.942C134.474 134.278 134.155 133.44 134.155 132.426ZM135.393 132.426C135.393 133.135 135.6 133.709 136.012 134.148C136.425 134.588 136.936 134.808 137.546 134.808C138.156 134.808 138.668 134.588 139.08 134.148C139.493 133.709 139.699 133.135 139.699 132.426C139.699 131.726 139.493 131.157 139.08 130.717C138.659 130.269 138.147 130.044 137.546 130.044C136.945 130.044 136.434 130.269 136.012 130.717C135.6 131.157 135.393 131.726 135.393 132.426ZM142.963 133.704C142.963 134.027 143.098 134.296 143.367 134.512C143.645 134.727 143.968 134.835 144.336 134.835C144.856 134.835 145.318 134.642 145.722 134.256C146.134 133.87 146.341 133.417 146.341 132.897C145.955 132.592 145.417 132.439 144.726 132.439C144.224 132.439 143.802 132.561 143.461 132.803C143.129 133.045 142.963 133.345 142.963 133.704ZM144.564 128.914C145.479 128.914 146.202 129.161 146.731 129.654C147.26 130.139 147.525 130.807 147.525 131.659V135.723H146.341V134.808H146.287C145.776 135.561 145.094 135.938 144.242 135.938C143.515 135.938 142.905 135.723 142.412 135.292C141.927 134.861 141.685 134.323 141.685 133.677C141.685 132.996 141.941 132.453 142.452 132.049C142.972 131.646 143.663 131.444 144.524 131.444C145.26 131.444 145.865 131.578 146.341 131.847V131.565C146.341 131.134 146.17 130.771 145.829 130.475C145.488 130.17 145.089 130.017 144.632 130.017C143.941 130.017 143.394 130.309 142.99 130.892L141.9 130.206C142.501 129.345 143.389 128.914 144.564 128.914ZM148.921 129.129H150.105V130.044H150.159C150.347 129.721 150.634 129.452 151.02 129.237C151.415 129.022 151.823 128.914 152.245 128.914C153.052 128.914 153.671 129.147 154.101 129.614C154.541 130.071 154.761 130.726 154.761 131.578V135.723H153.523V131.659C153.496 130.583 152.953 130.044 151.895 130.044C151.401 130.044 150.989 130.246 150.657 130.65C150.325 131.045 150.159 131.52 150.159 132.076V135.723H148.921V129.129ZM161.194 133.893C161.194 134.467 160.943 134.951 160.441 135.346C159.938 135.741 159.306 135.938 158.543 135.938C157.88 135.938 157.296 135.768 156.794 135.427C156.292 135.077 155.933 134.619 155.718 134.054L156.821 133.583C156.982 133.978 157.216 134.287 157.521 134.512C157.835 134.727 158.176 134.835 158.543 134.835C158.938 134.835 159.265 134.749 159.526 134.579C159.795 134.408 159.929 134.207 159.929 133.973C159.929 133.552 159.606 133.242 158.96 133.045L157.83 132.762C156.547 132.439 155.906 131.82 155.906 130.905C155.906 130.304 156.148 129.825 156.633 129.466C157.126 129.098 157.754 128.914 158.516 128.914C159.1 128.914 159.624 129.053 160.091 129.331C160.566 129.609 160.898 129.982 161.087 130.448L159.983 130.905C159.858 130.627 159.651 130.412 159.364 130.26C159.086 130.098 158.772 130.017 158.422 130.017C158.099 130.017 157.808 130.098 157.548 130.26C157.296 130.421 157.171 130.618 157.171 130.852C157.171 131.228 157.525 131.498 158.234 131.659L159.23 131.915C160.539 132.238 161.194 132.897 161.194 133.893ZM166.13 133.704C166.13 134.027 166.264 134.296 166.533 134.512C166.812 134.727 167.134 134.835 167.502 134.835C168.023 134.835 168.485 134.642 168.888 134.256C169.301 133.87 169.507 133.417 169.507 132.897C169.121 132.592 168.583 132.439 167.892 132.439C167.39 132.439 166.969 132.561 166.628 132.803C166.296 133.045 166.13 133.345 166.13 133.704ZM167.731 128.914C168.646 128.914 169.368 129.161 169.897 129.654C170.427 130.139 170.691 130.807 170.691 131.659V135.723H169.507V134.808H169.453C168.942 135.561 168.26 135.938 167.408 135.938C166.681 135.938 166.071 135.723 165.578 135.292C165.094 134.861 164.851 134.323 164.851 133.677C164.851 132.996 165.107 132.453 165.618 132.049C166.139 131.646 166.829 131.444 167.691 131.444C168.426 131.444 169.032 131.578 169.507 131.847V131.565C169.507 131.134 169.337 130.771 168.996 130.475C168.655 130.17 168.256 130.017 167.798 130.017C167.108 130.017 166.56 130.309 166.157 130.892L165.067 130.206C165.668 129.345 166.556 128.914 167.731 128.914ZM172.088 129.129H173.272V130.044H173.325C173.514 129.721 173.801 129.452 174.187 129.237C174.581 129.022 174.99 128.914 175.411 128.914C176.218 128.914 176.837 129.147 177.268 129.614C177.708 130.071 177.927 130.726 177.927 131.578V135.723H176.689V131.659C176.663 130.583 176.12 130.044 175.061 130.044C174.568 130.044 174.155 130.246 173.823 130.65C173.491 131.045 173.325 131.52 173.325 132.076V135.723H172.088V129.129ZM182.341 134.808C182.951 134.808 183.449 134.588 183.834 134.148C184.238 133.709 184.44 133.135 184.44 132.426C184.44 131.735 184.238 131.166 183.834 130.717C183.44 130.269 182.942 130.044 182.341 130.044C181.749 130.044 181.251 130.269 180.847 130.717C180.443 131.166 180.242 131.735 180.242 132.426C180.242 133.126 180.443 133.695 180.847 134.135C181.251 134.583 181.749 134.808 182.341 134.808ZM182.139 135.938C181.278 135.938 180.538 135.597 179.919 134.915C179.309 134.225 179.004 133.395 179.004 132.426C179.004 131.457 179.309 130.627 179.919 129.937C180.538 129.255 181.278 128.914 182.139 128.914C182.623 128.914 183.063 129.017 183.458 129.224C183.861 129.43 184.171 129.703 184.386 130.044H184.44L184.386 129.129V126.088H185.624V135.723H184.44V134.808H184.386C184.171 135.149 183.861 135.422 183.458 135.628C183.063 135.835 182.623 135.938 182.139 135.938ZM193.575 135.938C193.091 135.938 192.647 135.835 192.243 135.628C191.848 135.422 191.543 135.149 191.328 134.808H191.274V135.723H190.09V126.088H191.328V129.129L191.274 130.044H191.328C191.543 129.703 191.848 129.43 192.243 129.224C192.647 129.017 193.091 128.914 193.575 128.914C194.445 128.914 195.181 129.255 195.782 129.937C196.401 130.627 196.71 131.457 196.71 132.426C196.71 133.404 196.401 134.234 195.782 134.915C195.181 135.597 194.445 135.938 193.575 135.938ZM193.373 134.808C193.965 134.808 194.463 134.583 194.867 134.135C195.27 133.695 195.472 133.126 195.472 132.426C195.472 131.735 195.27 131.166 194.867 130.717C194.463 130.269 193.965 130.044 193.373 130.044C192.772 130.044 192.27 130.269 191.866 130.717C191.471 131.166 191.274 131.735 191.274 132.426C191.274 133.126 191.471 133.7 191.866 134.148C192.27 134.588 192.772 134.808 193.373 134.808ZM199.378 126.855C199.378 127.098 199.293 127.304 199.123 127.474C198.952 127.645 198.746 127.73 198.504 127.73C198.261 127.73 198.055 127.645 197.885 127.474C197.714 127.304 197.629 127.098 197.629 126.855C197.629 126.613 197.714 126.407 197.885 126.236C198.055 126.066 198.261 125.981 198.504 125.981C198.746 125.981 198.952 126.066 199.123 126.236C199.293 126.407 199.378 126.613 199.378 126.855ZM199.123 129.129V135.723H197.885V129.129H199.123ZM203.628 134.808C204.238 134.808 204.736 134.588 205.122 134.148C205.525 133.709 205.727 133.135 205.727 132.426C205.727 131.735 205.525 131.166 205.122 130.717C204.727 130.269 204.229 130.044 203.628 130.044C203.036 130.044 202.538 130.269 202.135 130.717C201.731 131.166 201.529 131.735 201.529 132.426C201.529 133.126 201.731 133.695 202.135 134.135C202.538 134.583 203.036 134.808 203.628 134.808ZM203.588 138.844C203.22 138.844 202.875 138.795 202.552 138.696C202.229 138.607 201.933 138.477 201.664 138.306C201.404 138.136 201.179 137.934 200.991 137.701C200.802 137.467 200.659 137.207 200.56 136.92L201.731 136.436C201.866 136.822 202.099 137.131 202.431 137.364C202.763 137.597 203.148 137.714 203.588 137.714C204.261 137.714 204.785 137.512 205.162 137.109C205.539 136.705 205.727 136.149 205.727 135.44V134.808H205.673C205.44 135.158 205.122 135.436 204.718 135.642C204.323 135.839 203.893 135.938 203.426 135.938C202.565 135.938 201.825 135.602 201.206 134.929C200.596 134.238 200.291 133.404 200.291 132.426C200.291 131.448 200.596 130.618 201.206 129.937C201.825 129.255 202.565 128.914 203.426 128.914C203.893 128.914 204.323 129.017 204.718 129.224C205.122 129.421 205.44 129.694 205.673 130.044H205.727V129.129H206.911V135.44C206.911 136.499 206.611 137.328 206.01 137.929C205.4 138.539 204.593 138.844 203.588 138.844ZM211.315 134.808C211.925 134.808 212.423 134.588 212.809 134.148C213.213 133.709 213.414 133.135 213.414 132.426C213.414 131.735 213.213 131.166 212.809 130.717C212.414 130.269 211.916 130.044 211.315 130.044C210.723 130.044 210.225 130.269 209.822 130.717C209.418 131.166 209.216 131.735 209.216 132.426C209.216 133.126 209.418 133.695 209.822 134.135C210.225 134.583 210.723 134.808 211.315 134.808ZM211.275 138.844C210.907 138.844 210.562 138.795 210.239 138.696C209.916 138.607 209.62 138.477 209.351 138.306C209.091 138.136 208.866 137.934 208.678 137.701C208.49 137.467 208.346 137.207 208.247 136.92L209.418 136.436C209.553 136.822 209.786 137.131 210.118 137.364C210.45 137.597 210.835 137.714 211.275 137.714C211.948 137.714 212.473 137.512 212.849 137.109C213.226 136.705 213.414 136.149 213.414 135.44V134.808H213.361C213.127 135.158 212.809 135.436 212.405 135.642C212.011 135.839 211.58 135.938 211.114 135.938C210.252 135.938 209.512 135.602 208.893 134.929C208.283 134.238 207.978 133.404 207.978 132.426C207.978 131.448 208.283 130.618 208.893 129.937C209.512 129.255 210.252 128.914 211.114 128.914C211.58 128.914 212.011 129.017 212.405 129.224C212.809 129.421 213.127 129.694 213.361 130.044H213.414V129.129H214.599V135.44C214.599 136.499 214.298 137.328 213.697 137.929C213.087 138.539 212.28 138.844 211.275 138.844ZM219.002 135.938C218.034 135.938 217.235 135.606 216.607 134.942C215.979 134.278 215.665 133.44 215.665 132.426C215.665 131.421 215.97 130.587 216.58 129.923C217.19 129.25 217.971 128.914 218.922 128.914C219.9 128.914 220.675 129.232 221.25 129.869C221.833 130.497 222.124 131.381 222.124 132.52L222.111 132.655H216.93C216.948 133.301 217.164 133.821 217.576 134.216C217.989 134.61 218.482 134.808 219.056 134.808C219.846 134.808 220.465 134.413 220.913 133.624L222.017 134.162C221.721 134.718 221.308 135.153 220.779 135.467C220.258 135.781 219.666 135.938 219.002 135.938ZM217.024 131.632H220.806C220.77 131.175 220.581 130.798 220.24 130.502C219.909 130.197 219.46 130.044 218.895 130.044C218.428 130.044 218.025 130.188 217.684 130.475C217.352 130.762 217.132 131.148 217.024 131.632ZM224.494 135.723H223.256V129.129H224.44V130.206H224.494C224.62 129.856 224.875 129.56 225.261 129.318C225.656 129.067 226.042 128.941 226.418 128.941C226.777 128.941 227.082 128.995 227.333 129.102L226.957 130.3C226.804 130.237 226.562 130.206 226.23 130.206C225.764 130.206 225.355 130.394 225.006 130.771C224.665 131.148 224.494 131.587 224.494 132.09V135.723ZM232.003 133.704C232.003 134.027 232.137 134.296 232.406 134.512C232.684 134.727 233.007 134.835 233.375 134.835C233.895 134.835 234.357 134.642 234.761 134.256C235.174 133.87 235.38 133.417 235.38 132.897C234.994 132.592 234.456 132.439 233.765 132.439C233.263 132.439 232.841 132.561 232.501 132.803C232.169 133.045 232.003 133.345 232.003 133.704ZM233.604 128.914C234.519 128.914 235.241 129.161 235.77 129.654C236.3 130.139 236.564 130.807 236.564 131.659V135.723H235.38V134.808H235.326C234.815 135.561 234.133 135.938 233.281 135.938C232.554 135.938 231.944 135.723 231.451 135.292C230.967 134.861 230.724 134.323 230.724 133.677C230.724 132.996 230.98 132.453 231.491 132.049C232.012 131.646 232.702 131.444 233.564 131.444C234.299 131.444 234.905 131.578 235.38 131.847V131.565C235.38 131.134 235.21 130.771 234.869 130.475C234.528 130.17 234.129 130.017 233.671 130.017C232.98 130.017 232.433 130.309 232.03 130.892L230.94 130.206C231.541 129.345 232.429 128.914 233.604 128.914ZM239.198 135.723H237.96V129.129H239.145V130.044H239.198C239.387 129.721 239.674 129.452 240.06 129.237C240.454 129.022 240.844 128.914 241.23 128.914C241.715 128.914 242.141 129.026 242.508 129.25C242.876 129.475 243.145 129.784 243.316 130.179C243.863 129.336 244.621 128.914 245.59 128.914C246.352 128.914 246.94 129.147 247.353 129.614C247.765 130.08 247.972 130.744 247.972 131.605V135.723H246.734V131.794C246.734 131.175 246.621 130.731 246.397 130.461C246.173 130.183 245.796 130.044 245.267 130.044C244.791 130.044 244.392 130.246 244.069 130.65C243.746 131.054 243.585 131.529 243.585 132.076V135.723H242.347V131.794C242.347 131.175 242.235 130.731 242.011 130.461C241.786 130.183 241.41 130.044 240.88 130.044C240.405 130.044 240.006 130.246 239.683 130.65C239.36 131.054 239.198 131.529 239.198 132.076V135.723ZM249.042 132.426C249.042 131.412 249.361 130.574 249.997 129.91C250.643 129.246 251.455 128.914 252.433 128.914C253.411 128.914 254.218 129.246 254.855 129.91C255.501 130.574 255.824 131.412 255.824 132.426C255.824 133.449 255.501 134.287 254.855 134.942C254.218 135.606 253.411 135.938 252.433 135.938C251.455 135.938 250.643 135.606 249.997 134.942C249.361 134.278 249.042 133.44 249.042 132.426ZM250.28 132.426C250.28 133.135 250.486 133.709 250.899 134.148C251.312 134.588 251.823 134.808 252.433 134.808C253.043 134.808 253.554 134.588 253.967 134.148C254.38 133.709 254.586 133.135 254.586 132.426C254.586 131.726 254.38 131.157 253.967 130.717C253.545 130.269 253.034 130.044 252.433 130.044C251.832 130.044 251.321 130.269 250.899 130.717C250.486 131.157 250.28 131.726 250.28 132.426ZM262.669 135.723H261.484V134.808H261.431C261.242 135.131 260.951 135.4 260.556 135.615C260.17 135.83 259.767 135.938 259.345 135.938C258.538 135.938 257.914 135.709 257.475 135.252C257.044 134.785 256.829 134.126 256.829 133.274V129.129H258.067V133.193C258.094 134.269 258.636 134.808 259.695 134.808C260.188 134.808 260.601 134.61 260.933 134.216C261.265 133.812 261.431 133.332 261.431 132.776V129.129H262.669V135.723ZM264.176 129.129H265.36V130.044H265.413C265.602 129.721 265.889 129.452 266.275 129.237C266.669 129.022 267.078 128.914 267.499 128.914C268.306 128.914 268.925 129.147 269.356 129.614C269.796 130.071 270.015 130.726 270.015 131.578V135.723H268.777V131.659C268.751 130.583 268.208 130.044 267.149 130.044C266.656 130.044 266.243 130.246 265.911 130.65C265.579 131.045 265.413 131.52 265.413 132.076V135.723H264.176V129.129ZM273.737 135.83C273.199 135.83 272.75 135.664 272.392 135.332C272.042 135.001 271.862 134.539 271.853 133.946V130.26H270.696V129.129H271.853V127.111H273.091V129.129H274.706V130.26H273.091V133.543C273.091 133.982 273.177 134.283 273.347 134.444C273.517 134.597 273.71 134.673 273.926 134.673C274.024 134.673 274.118 134.664 274.208 134.646C274.307 134.619 274.397 134.588 274.477 134.552L274.868 135.655C274.545 135.772 274.168 135.83 273.737 135.83ZM281.061 133.893C281.061 134.467 280.81 134.951 280.307 135.346C279.805 135.741 279.173 135.938 278.41 135.938C277.746 135.938 277.163 135.768 276.661 135.427C276.159 135.077 275.8 134.619 275.584 134.054L276.688 133.583C276.849 133.978 277.083 134.287 277.388 134.512C277.702 134.727 278.042 134.835 278.41 134.835C278.805 134.835 279.132 134.749 279.392 134.579C279.662 134.408 279.796 134.207 279.796 133.973C279.796 133.552 279.473 133.242 278.827 133.045L277.697 132.762C276.414 132.439 275.773 131.82 275.773 130.905C275.773 130.304 276.015 129.825 276.499 129.466C276.993 129.098 277.621 128.914 278.383 128.914C278.966 128.914 279.491 129.053 279.958 129.331C280.433 129.609 280.765 129.982 280.953 130.448L279.85 130.905C279.724 130.627 279.518 130.412 279.231 130.26C278.953 130.098 278.639 130.017 278.289 130.017C277.966 130.017 277.675 130.098 277.414 130.26C277.163 130.421 277.038 130.618 277.038 130.852C277.038 131.228 277.392 131.498 278.101 131.659L279.096 131.915C280.406 132.238 281.061 132.897 281.061 133.893Z" fill="#060606"/>
<mask id="mask0_331_32" style="mask-type:alpha" maskUnits="userSpaceOnUse" x="-1" y="0" width="318" height="400">
<rect x="316.938" width="399.265" height="316.939" rx="30.2979" transform="rotate(90 316.938 0)" fill="#F8F8F8"/>
</mask>
<g mask="url(#mask0_331_32)">
<path d="M248.999 408.826C248.999 411.79 247.775 414.632 245.597 416.727C243.419 418.823 240.464 420 237.384 420H-41.3856C-44.4662 420 -47.4206 418.823 -49.5989 416.727C-51.7772 414.632 -53.001 411.79 -53.001 408.826C-53.001 405.863 -51.7772 403.02 -49.5989 400.925C-47.4206 398.829 -44.4662 397.652 -41.3856 397.652H-29.7702V308.261C-29.7702 305.297 -28.5464 302.455 -26.3681 300.36C-24.1898 298.264 -21.2354 297.087 -18.1548 297.087H16.6913C19.7719 297.087 22.7263 298.264 24.9047 300.36C27.083 302.455 28.3067 305.297 28.3067 308.261V397.652H51.5375V241.217C51.5375 238.254 52.7612 235.412 54.9396 233.316C57.1179 231.221 60.0723 230.043 63.1529 230.043H109.614C112.695 230.043 115.649 231.221 117.828 233.316C120.006 235.412 121.23 238.254 121.23 241.217V397.652H144.461V174.174C144.461 171.21 145.684 168.368 147.863 166.273C150.041 164.177 152.995 163 156.076 163H214.153C217.233 163 220.188 164.177 222.366 166.273C224.545 168.368 225.768 171.21 225.768 174.174V397.652H237.384C240.464 397.652 243.419 398.829 245.597 400.925C247.775 403.02 248.999 405.863 248.999 408.826Z" fill="#D50C31"/>
</g>
</svg>
