<svg width="318" height="400" viewBox="0 0 318 400" fill="none" xmlns="http://www.w3.org/2000/svg">
<rect x="317.439" width="399.265" height="316.939" rx="30.2979" transform="rotate(90 317.439 0)" fill="#F8F8F8"/>
<path d="M34.6218 34.8163H51.6583V39.6196H39.6877V46.149H50.4575V50.9523H39.6877V61.6846H34.6218V34.8163ZM65.546 59.7332H65.2458C64.6704 60.4337 63.9699 61.0341 63.1443 61.5345C62.3438 62.0348 61.3056 62.285 60.0297 62.285C59.0791 62.285 58.1785 62.1224 57.3279 61.7971C56.5023 61.4969 55.7768 61.0717 55.1514 60.5213C54.526 59.9709 54.0382 59.308 53.6879 58.5324C53.3377 57.7569 53.1626 56.9063 53.1626 55.9807C53.1626 55.0301 53.3502 54.1795 53.7255 53.429C54.1007 52.6534 54.6261 51.9905 55.3015 51.4401C55.977 50.8897 56.765 50.477 57.6656 50.2018C58.5913 49.9016 59.5919 49.7515 60.6677 49.7515C61.8685 49.7515 62.8567 49.8515 63.6322 50.0517C64.4077 50.2268 65.0456 50.4144 65.546 50.6146V50.0517C65.546 49.076 65.1582 48.2755 64.3827 47.65C63.6072 46.9996 62.644 46.6744 61.4932 46.6744C59.7921 46.6744 58.3536 47.3874 57.1778 48.8133L53.6129 46.3742C55.5642 43.9225 58.2285 42.6967 61.6058 42.6967C64.4577 42.6967 66.6342 43.3721 68.1352 44.7231C69.6363 46.049 70.3868 48.0253 70.3868 50.6521V61.6846H65.546V59.7332ZM65.546 54.217C64.9706 53.9418 64.3702 53.7292 63.7448 53.5791C63.1443 53.4039 62.4814 53.3164 61.7559 53.3164C60.5801 53.3164 59.667 53.5791 59.0165 54.1044C58.3911 54.6048 58.0784 55.2302 58.0784 55.9807C58.0784 56.7312 58.3786 57.3316 58.979 57.7819C59.6044 58.2322 60.3174 58.4574 61.118 58.4574C61.7684 58.4574 62.3688 58.3448 62.9192 58.1196C63.4696 57.8695 63.9324 57.5568 64.3076 57.1815C64.7079 56.7812 65.0081 56.3309 65.2083 55.8306C65.4334 55.3052 65.546 54.7674 65.546 54.217ZM81.392 62.285C80.1912 62.285 79.1154 62.1349 78.1648 61.8347C77.2392 61.5345 76.4261 61.1467 75.7256 60.6714C75.0502 60.171 74.4748 59.6082 73.9995 58.9827C73.5241 58.3323 73.1614 57.6819 72.9112 57.0314L77.3017 55.1551C77.727 56.1058 78.2899 56.8188 78.9904 57.2941C79.7159 57.7444 80.5164 57.9695 81.392 57.9695C82.2926 57.9695 83.0056 57.8069 83.5309 57.4817C84.0563 57.1565 84.319 56.7687 84.319 56.3184C84.319 55.8181 84.0938 55.4178 83.6435 55.1176C83.2182 54.7924 82.4677 54.5047 81.392 54.2545L78.8027 53.6916C78.2273 53.5666 77.6269 53.3664 77.0015 53.0912C76.4011 52.816 75.8507 52.4658 75.3504 52.0405C74.85 51.6152 74.4373 51.1024 74.112 50.502C73.7868 49.9016 73.6242 49.2011 73.6242 48.4005C73.6242 47.4999 73.8118 46.6994 74.1871 45.9989C74.5874 45.2984 75.1252 44.7105 75.8007 44.2352C76.4762 43.7349 77.2642 43.3596 78.1648 43.1095C79.0904 42.8343 80.0786 42.6967 81.1293 42.6967C82.8805 42.6967 84.4441 43.0469 85.82 43.7474C87.1959 44.4228 88.2091 45.5111 88.8596 47.0121L84.6192 48.7383C84.2689 48.0128 83.7561 47.4874 83.0806 47.1622C82.4052 46.837 81.7297 46.6744 81.0543 46.6744C80.3538 46.6744 79.7409 46.8245 79.2155 47.1247C78.6902 47.3999 78.4275 47.7626 78.4275 48.2129C78.4275 48.6382 78.6401 48.9759 79.0654 49.2261C79.5157 49.4763 80.1161 49.7014 80.8666 49.9016L83.681 50.577C85.5573 51.0273 86.9458 51.7528 87.8464 52.7535C88.772 53.7292 89.2348 54.8925 89.2348 56.2434C89.2348 57.0439 89.0472 57.8069 88.6719 58.5324C88.2967 59.2579 87.7588 59.9084 87.0583 60.4838C86.3829 61.0341 85.5573 61.4719 84.5817 61.7971C83.631 62.1224 82.5678 62.285 81.392 62.285ZM94.095 47.4999H90.8678V43.2971H94.095V37.6683H99.0108V43.2971H103.514V47.4999H99.0108V54.6298C99.0108 55.0551 99.0483 55.4553 99.1234 55.8306C99.2234 56.1808 99.3986 56.481 99.6487 56.7312C99.999 57.1315 100.499 57.3316 101.15 57.3316C101.575 57.3316 101.913 57.2941 102.163 57.219C102.413 57.119 102.651 56.9939 102.876 56.8438L104.264 61.1592C103.689 61.4344 103.064 61.6345 102.388 61.7596C101.738 61.9097 101.012 61.9848 100.212 61.9848C99.286 61.9848 98.4479 61.8472 97.6974 61.572C96.9719 61.2718 96.359 60.8715 95.8587 60.3712C94.6829 59.2454 94.095 57.6443 94.095 55.5679V47.4999ZM124.359 57.2566C123.508 58.7576 122.357 59.9709 120.906 60.8965C119.48 61.8222 117.729 62.285 115.653 62.285C114.252 62.285 112.951 62.0473 111.75 61.572C110.574 61.0717 109.549 60.3837 108.673 59.5081C107.797 58.6325 107.109 57.6068 106.609 56.431C106.134 55.2302 105.896 53.9168 105.896 52.4908C105.896 51.1649 106.134 49.9141 106.609 48.7383C107.084 47.5375 107.747 46.4993 108.598 45.6237C109.449 44.7231 110.449 44.0101 111.6 43.4847C112.776 42.9594 114.064 42.6967 115.465 42.6967C116.941 42.6967 118.255 42.9468 119.405 43.4472C120.556 43.9225 121.519 44.598 122.295 45.4736C123.07 46.3241 123.658 47.3373 124.058 48.5131C124.459 49.6889 124.659 50.9648 124.659 52.3407C124.659 52.5158 124.659 52.6659 124.659 52.791C124.634 52.9411 124.621 53.0787 124.621 53.2038C124.596 53.3289 124.584 53.4665 124.584 53.6166H110.737C110.837 54.3671 111.037 55.0175 111.337 55.5679C111.663 56.0933 112.05 56.5436 112.501 56.9188C112.976 57.2691 113.489 57.5318 114.039 57.7069C114.59 57.857 115.152 57.932 115.728 57.932C116.854 57.932 117.779 57.6819 118.505 57.1815C119.255 56.6562 119.843 56.0057 120.268 55.2302L124.359 57.2566ZM119.893 50.1267C119.868 49.8015 119.756 49.4388 119.555 49.0385C119.38 48.6382 119.105 48.263 118.73 47.9127C118.38 47.5625 117.929 47.2748 117.379 47.0496C116.854 46.8245 116.216 46.7119 115.465 46.7119C114.414 46.7119 113.489 47.0121 112.688 47.6125C111.888 48.2129 111.325 49.051 111 50.1267H119.893ZM127.798 43.2971H132.414V45.8488H132.714C132.939 45.3985 133.24 44.9857 133.615 44.6105C133.99 44.2352 134.403 43.91 134.853 43.6348C135.329 43.3596 135.829 43.147 136.354 42.9969C136.905 42.8468 137.442 42.7717 137.968 42.7717C138.618 42.7717 139.169 42.8343 139.619 42.9594C140.094 43.0844 140.495 43.247 140.82 43.4472L139.506 47.9127C139.206 47.7626 138.868 47.65 138.493 47.575C138.143 47.4749 137.705 47.4249 137.18 47.4249C136.504 47.4249 135.891 47.5625 135.341 47.8377C134.791 48.0878 134.315 48.4506 133.915 48.9259C133.54 49.4012 133.24 49.9641 133.014 50.6146C132.814 51.24 132.714 51.9279 132.714 52.6785V61.6846H127.798V43.2971ZM151.926 34.8163H156.991V56.8813H168.362V61.6846H151.926V34.8163ZM180.076 42.6967C181.502 42.6967 182.803 42.9468 183.979 43.4472C185.18 43.9225 186.206 44.598 187.056 45.4736C187.932 46.3241 188.607 47.3498 189.082 48.5507C189.583 49.7515 189.833 51.0649 189.833 52.4908C189.833 53.9168 189.583 55.2302 189.082 56.431C188.607 57.6318 187.932 58.67 187.056 59.5456C186.206 60.3962 185.18 61.0717 183.979 61.572C182.803 62.0473 181.502 62.285 180.076 62.285C178.65 62.285 177.337 62.0473 176.136 61.572C174.96 61.0717 173.935 60.3962 173.059 59.5456C172.209 58.67 171.533 57.6318 171.033 56.431C170.557 55.2302 170.32 53.9168 170.32 52.4908C170.32 51.0649 170.557 49.7515 171.033 48.5507C171.533 47.3498 172.209 46.3241 173.059 45.4736C173.935 44.598 174.96 43.9225 176.136 43.4472C177.337 42.9468 178.65 42.6967 180.076 42.6967ZM180.076 57.7444C180.702 57.7444 181.302 57.6318 181.878 57.4067C182.478 57.1565 183.003 56.8063 183.454 56.356C183.904 55.9056 184.254 55.3553 184.504 54.7048C184.78 54.0544 184.917 53.3164 184.917 52.4908C184.917 51.6653 184.78 50.9273 184.504 50.2768C184.254 49.6264 183.904 49.076 183.454 48.6257C183.003 48.1754 182.478 47.8377 181.878 47.6125C181.302 47.3623 180.702 47.2373 180.076 47.2373C179.426 47.2373 178.813 47.3623 178.238 47.6125C177.662 47.8377 177.149 48.1754 176.699 48.6257C176.249 49.076 175.886 49.6264 175.611 50.2768C175.361 50.9273 175.236 51.6653 175.236 52.4908C175.236 53.3164 175.361 54.0544 175.611 54.7048C175.886 55.3553 176.249 55.9056 176.699 56.356C177.149 56.8063 177.662 57.1565 178.238 57.4067C178.813 57.6318 179.426 57.7444 180.076 57.7444ZM204.324 59.7332H204.024C203.449 60.4337 202.748 61.0341 201.923 61.5345C201.122 62.0348 200.084 62.285 198.808 62.285C197.857 62.285 196.957 62.1224 196.106 61.7971C195.281 61.4969 194.555 61.0717 193.93 60.5213C193.304 59.9709 192.816 59.308 192.466 58.5324C192.116 57.7569 191.941 56.9063 191.941 55.9807C191.941 55.0301 192.129 54.1795 192.504 53.429C192.879 52.6534 193.404 51.9905 194.08 51.4401C194.755 50.8897 195.543 50.477 196.444 50.2018C197.37 49.9016 198.37 49.7515 199.446 49.7515C200.647 49.7515 201.635 49.8515 202.411 50.0517C203.186 50.2268 203.824 50.4144 204.324 50.6146V50.0517C204.324 49.076 203.937 48.2755 203.161 47.65C202.385 46.9996 201.422 46.6744 200.272 46.6744C198.57 46.6744 197.132 47.3874 195.956 48.8133L192.391 46.3742C194.343 43.9225 197.007 42.6967 200.384 42.6967C203.236 42.6967 205.413 43.3721 206.914 44.7231C208.415 46.049 209.165 48.0253 209.165 50.6521V61.6846H204.324V59.7332ZM204.324 54.217C203.749 53.9418 203.149 53.7292 202.523 53.5791C201.923 53.4039 201.26 53.3164 200.534 53.3164C199.358 53.3164 198.445 53.5791 197.795 54.1044C197.169 54.6048 196.857 55.2302 196.857 55.9807C196.857 56.7312 197.157 57.3316 197.757 57.7819C198.383 58.2322 199.096 58.4574 199.896 58.4574C200.547 58.4574 201.147 58.3448 201.698 58.1196C202.248 57.8695 202.711 57.5568 203.086 57.1815C203.486 56.7812 203.786 56.3309 203.987 55.8306C204.212 55.3052 204.324 54.7674 204.324 54.217ZM217.689 45.6987H217.989C218.565 44.7731 219.34 44.0476 220.316 43.5222C221.292 42.9719 222.405 42.6967 223.656 42.6967C224.807 42.6967 225.82 42.8843 226.695 43.2596C227.571 43.6348 228.284 44.1727 228.834 44.8732C229.41 45.5486 229.835 46.3742 230.11 47.3498C230.41 48.3005 230.56 49.3637 230.56 50.5395V61.6846H225.645V51.1399C225.645 49.814 225.344 48.8383 224.744 48.2129C224.169 47.5625 223.318 47.2373 222.192 47.2373C221.517 47.2373 220.916 47.3874 220.391 47.6876C219.891 47.9628 219.453 48.3505 219.078 48.8509C218.727 49.3262 218.452 49.9016 218.252 50.577C218.077 51.2275 217.989 51.9279 217.989 52.6785V61.6846H213.074V43.2971H217.689V45.6987ZM42.4646 72.8163H48.2435L58.3379 99.6846H52.7466L50.5326 93.2677H40.1755L37.9615 99.6846H32.3702L42.4646 72.8163ZM48.8814 88.6146L46.4798 81.8975L45.5041 78.6328H45.2039L44.2283 81.8975L41.8266 88.6146H48.8814ZM60.916 81.2971H65.5316V83.5111H65.8318C66.2821 82.7356 66.9826 82.0726 67.9332 81.5222C68.8839 80.9719 70.0597 80.6967 71.4606 80.6967C72.6364 80.6967 73.7497 80.9468 74.8004 81.4472C75.8761 81.9225 76.8143 82.598 77.6148 83.4736C78.4404 84.3241 79.0908 85.3498 79.5661 86.5507C80.0415 87.7515 80.2791 89.0649 80.2791 90.4908C80.2791 91.9168 80.0415 93.2302 79.5661 94.431C79.0908 95.6318 78.4404 96.67 77.6148 97.5456C76.8143 98.3962 75.8761 99.0717 74.8004 99.572C73.7497 100.047 72.6364 100.285 71.4606 100.285C70.0597 100.285 68.8839 100.01 67.9332 99.4594C66.9826 98.909 66.2821 98.2461 65.8318 97.4706H65.5316L65.8318 100.097V107.79H60.916V81.2971ZM70.4475 95.7444C71.0979 95.7444 71.7108 95.6193 72.2862 95.3691C72.8866 95.119 73.412 94.7687 73.8623 94.3184C74.3126 93.8681 74.6753 93.3177 74.9505 92.6673C75.2257 92.0169 75.3633 91.2914 75.3633 90.4908C75.3633 89.6903 75.2257 88.9648 74.9505 88.3143C74.6753 87.6639 74.3126 87.1135 73.8623 86.6632C73.412 86.2129 72.8866 85.8627 72.2862 85.6125C71.7108 85.3623 71.0979 85.2373 70.4475 85.2373C69.797 85.2373 69.1716 85.3623 68.5712 85.6125C67.9958 85.8377 67.4829 86.1754 67.0326 86.6257C66.5823 87.076 66.2196 87.6264 65.9444 88.2768C65.6692 88.9273 65.5316 89.6653 65.5316 90.4908C65.5316 91.3164 65.6692 92.0544 65.9444 92.7048C66.2196 93.3553 66.5823 93.9056 67.0326 94.356C67.4829 94.8063 67.9958 95.1565 68.5712 95.4067C69.1716 95.6318 69.797 95.7444 70.4475 95.7444ZM82.9036 81.2971H87.5192V83.5111H87.8194C88.2697 82.7356 88.9702 82.0726 89.9208 81.5222C90.8715 80.9719 92.0473 80.6967 93.4482 80.6967C94.624 80.6967 95.7373 80.9468 96.788 81.4472C97.8637 81.9225 98.8019 82.598 99.6024 83.4736C100.428 84.3241 101.078 85.3498 101.554 86.5507C102.029 87.7515 102.267 89.0649 102.267 90.4908C102.267 91.9168 102.029 93.2302 101.554 94.431C101.078 95.6318 100.428 96.67 99.6024 97.5456C98.8019 98.3962 97.8637 99.0717 96.788 99.572C95.7373 100.047 94.624 100.285 93.4482 100.285C92.0473 100.285 90.8715 100.01 89.9208 99.4594C88.9702 98.909 88.2697 98.2461 87.8194 97.4706H87.5192L87.8194 100.097V107.79H82.9036V81.2971ZM92.435 95.7444C93.0855 95.7444 93.6984 95.6193 94.2738 95.3691C94.8742 95.119 95.3996 94.7687 95.8499 94.3184C96.3002 93.8681 96.6629 93.3177 96.9381 92.6673C97.2133 92.0169 97.3509 91.2914 97.3509 90.4908C97.3509 89.6903 97.2133 88.9648 96.9381 88.3143C96.6629 87.6639 96.3002 87.1135 95.8499 86.6632C95.3996 86.2129 94.8742 85.8627 94.2738 85.6125C93.6984 85.3623 93.0855 85.2373 92.435 85.2373C91.7846 85.2373 91.1592 85.3623 90.5588 85.6125C89.9834 85.8377 89.4705 86.1754 89.0202 86.6257C88.5699 87.076 88.2072 87.6264 87.932 88.2768C87.6568 88.9273 87.5192 89.6653 87.5192 90.4908C87.5192 91.3164 87.6568 92.0544 87.932 92.7048C88.2072 93.3553 88.5699 93.9056 89.0202 94.356C89.4705 94.8063 89.9834 95.1565 90.5588 95.4067C91.1592 95.6318 91.7846 95.7444 92.435 95.7444ZM105.224 81.2971H109.84V83.8488H110.14C110.365 83.3985 110.666 82.9857 111.041 82.6105C111.416 82.2352 111.829 81.91 112.279 81.6348C112.755 81.3596 113.255 81.147 113.78 80.9969C114.331 80.8468 114.869 80.7717 115.394 80.7717C116.044 80.7717 116.595 80.8343 117.045 80.9594C117.52 81.0844 117.921 81.247 118.246 81.4472L116.932 85.9127C116.632 85.7626 116.295 85.65 115.919 85.575C115.569 85.4749 115.131 85.4249 114.606 85.4249C113.93 85.4249 113.317 85.5625 112.767 85.8377C112.217 86.0878 111.741 86.4506 111.341 86.9259C110.966 87.4012 110.666 87.9641 110.441 88.6146C110.24 89.24 110.14 89.9279 110.14 90.6785V99.6846H105.224V81.2971ZM128.076 80.6967C129.502 80.6967 130.803 80.9468 131.978 81.4472C133.179 81.9225 134.205 82.598 135.055 83.4736C135.931 84.3241 136.607 85.3498 137.082 86.5507C137.582 87.7515 137.832 89.0649 137.832 90.4908C137.832 91.9168 137.582 93.2302 137.082 94.431C136.607 95.6318 135.931 96.67 135.055 97.5456C134.205 98.3962 133.179 99.0717 131.978 99.572C130.803 100.047 129.502 100.285 128.076 100.285C126.65 100.285 125.336 100.047 124.136 99.572C122.96 99.0717 121.934 98.3962 121.058 97.5456C120.208 96.67 119.532 95.6318 119.032 94.431C118.557 93.2302 118.319 91.9168 118.319 90.4908C118.319 89.0649 118.557 87.7515 119.032 86.5507C119.532 85.3498 120.208 84.3241 121.058 83.4736C121.934 82.598 122.96 81.9225 124.136 81.4472C125.336 80.9468 126.65 80.6967 128.076 80.6967ZM128.076 95.7444C128.701 95.7444 129.302 95.6318 129.877 95.4067C130.477 95.1565 131.003 94.8063 131.453 94.356C131.903 93.9056 132.254 93.3553 132.504 92.7048C132.779 92.0544 132.917 91.3164 132.917 90.4908C132.917 89.6653 132.779 88.9273 132.504 88.2768C132.254 87.6264 131.903 87.076 131.453 86.6257C131.003 86.1754 130.477 85.8377 129.877 85.6125C129.302 85.3623 128.701 85.2373 128.076 85.2373C127.425 85.2373 126.812 85.3623 126.237 85.6125C125.662 85.8377 125.149 86.1754 124.698 86.6257C124.248 87.076 123.885 87.6264 123.61 88.2768C123.36 88.9273 123.235 89.6653 123.235 90.4908C123.235 91.3164 123.36 92.0544 123.61 92.7048C123.885 93.3553 124.248 93.9056 124.698 94.356C125.149 94.8063 125.662 95.1565 126.237 95.4067C126.812 95.6318 127.425 95.7444 128.076 95.7444ZM138.673 81.2971H144.264L148.843 93.005H149.105L153.721 81.2971H159.275L151.357 99.6846H146.516L138.673 81.2971ZM172.479 97.7332H172.179C171.603 98.4337 170.903 99.0341 170.077 99.5345C169.277 100.035 168.239 100.285 166.963 100.285C166.012 100.285 165.111 100.122 164.261 99.7971C163.435 99.4969 162.71 99.0717 162.084 98.5213C161.459 97.9709 160.971 97.308 160.621 96.5324C160.271 95.7569 160.096 94.9063 160.096 93.9807C160.096 93.0301 160.283 92.1795 160.658 91.429C161.034 90.6534 161.559 89.9905 162.234 89.4401C162.91 88.8897 163.698 88.477 164.599 88.2018C165.524 87.9016 166.525 87.7515 167.601 87.7515C168.801 87.7515 169.79 87.8515 170.565 88.0517C171.341 88.2268 171.979 88.4144 172.479 88.6146V88.0517C172.479 87.076 172.091 86.2755 171.316 85.65C170.54 84.9996 169.577 84.6744 168.426 84.6744C166.725 84.6744 165.287 85.3874 164.111 86.8133L160.546 84.3742C162.497 81.9225 165.161 80.6967 168.539 80.6967C171.391 80.6967 173.567 81.3721 175.068 82.7231C176.569 84.049 177.32 86.0253 177.32 88.6521V99.6846H172.479V97.7332ZM172.479 92.217C171.904 91.9418 171.303 91.7292 170.678 91.5791C170.077 91.4039 169.414 91.3164 168.689 91.3164C167.513 91.3164 166.6 91.5791 165.95 92.1044C165.324 92.6048 165.011 93.2302 165.011 93.9807C165.011 94.7312 165.312 95.3316 165.912 95.7819C166.537 96.2322 167.25 96.4574 168.051 96.4574C168.701 96.4574 169.302 96.3448 169.852 96.1196C170.403 95.8695 170.865 95.5568 171.241 95.1815C171.641 94.7812 171.941 94.3309 172.141 93.8306C172.366 93.3052 172.479 92.7674 172.479 92.217ZM181.228 99.6846V72.8163H186.144V99.6846H181.228ZM197.45 100.285C196.249 100.285 195.173 100.135 194.223 99.8347C193.297 99.5345 192.484 99.1467 191.783 98.6714C191.108 98.171 190.533 97.6082 190.057 96.9827C189.582 96.3323 189.219 95.6819 188.969 95.0314L193.36 93.1551C193.785 94.1058 194.348 94.8188 195.048 95.2941C195.774 95.7444 196.574 95.9695 197.45 95.9695C198.35 95.9695 199.063 95.8069 199.589 95.4817C200.114 95.1565 200.377 94.7687 200.377 94.3184C200.377 93.8181 200.152 93.4178 199.701 93.1176C199.276 92.7924 198.526 92.5047 197.45 92.2545L194.861 91.6916C194.285 91.5666 193.685 91.3664 193.059 91.0912C192.459 90.816 191.909 90.4658 191.408 90.0405C190.908 89.6152 190.495 89.1024 190.17 88.502C189.845 87.9016 189.682 87.2011 189.682 86.4005C189.682 85.4999 189.87 84.6994 190.245 83.9989C190.645 83.2984 191.183 82.7105 191.859 82.2352C192.534 81.7349 193.322 81.3596 194.223 81.1095C195.148 80.8343 196.136 80.6967 197.187 80.6967C198.938 80.6967 200.502 81.0469 201.878 81.7474C203.254 82.4228 204.267 83.5111 204.917 85.0121L200.677 86.7383C200.327 86.0128 199.814 85.4874 199.138 85.1622C198.463 84.837 197.788 84.6744 197.112 84.6744C196.412 84.6744 195.799 84.8245 195.273 85.1247C194.748 85.3999 194.485 85.7626 194.485 86.2129C194.485 86.6382 194.698 86.9759 195.123 87.2261C195.574 87.4763 196.174 87.7014 196.924 87.9016L199.739 88.577C201.615 89.0273 203.004 89.7528 203.904 90.7535C204.83 91.7292 205.293 92.8925 205.293 94.2434C205.293 95.0439 205.105 95.8069 204.73 96.5324C204.354 97.2579 203.817 97.9084 203.116 98.4838C202.441 99.0341 201.615 99.4719 200.639 99.7971C199.689 100.122 198.626 100.285 197.45 100.285Z" fill="#049B2F"/>
<path d="M34.1257 126.352H32.8878V116.717H34.3948L39.0774 124.212H39.1312L39.0774 122.355V116.717H40.3154V126.352H39.0236L34.1257 118.493H34.0719L34.1257 120.35V126.352ZM41.6648 123.055C41.6648 122.041 41.9833 121.202 42.6202 120.539C43.2661 119.875 44.0779 119.543 45.0557 119.543C46.0335 119.543 46.8408 119.875 47.4777 120.539C48.1236 121.202 48.4465 122.041 48.4465 123.055C48.4465 124.078 48.1236 124.916 47.4777 125.571C46.8408 126.235 46.0335 126.567 45.0557 126.567C44.0779 126.567 43.2661 126.235 42.6202 125.571C41.9833 124.907 41.6648 124.069 41.6648 123.055ZM42.9028 123.055C42.9028 123.764 43.1091 124.338 43.5217 124.777C43.9344 125.217 44.4457 125.437 45.0557 125.437C45.6657 125.437 46.177 125.217 46.5896 124.777C47.0023 124.338 47.2086 123.764 47.2086 123.055C47.2086 122.355 47.0023 121.786 46.5896 121.346C46.168 120.897 45.6567 120.673 45.0557 120.673C44.4547 120.673 43.9433 120.897 43.5217 121.346C43.1091 121.786 42.9028 122.355 42.9028 123.055ZM53.7656 126.352H52.5276V119.758H53.7117V120.673H53.7656C53.9539 120.35 54.241 120.081 54.6267 119.866C55.0214 119.651 55.4117 119.543 55.7974 119.543C56.2818 119.543 56.7079 119.655 57.0757 119.879C57.4435 120.104 57.7126 120.413 57.883 120.808C58.4302 119.965 59.1882 119.543 60.1571 119.543C60.9196 119.543 61.5071 119.776 61.9198 120.243C62.3324 120.709 62.5387 121.373 62.5387 122.234V126.352H61.3008V122.422C61.3008 121.804 61.1887 121.359 60.9644 121.09C60.7401 120.812 60.3634 120.673 59.8341 120.673C59.3587 120.673 58.9595 120.875 58.6366 121.279C58.3136 121.682 58.1521 122.158 58.1521 122.705V126.352H56.9142V122.422C56.9142 121.804 56.8021 121.359 56.5778 121.09C56.3536 120.812 55.9768 120.673 55.4475 120.673C54.9721 120.673 54.5729 120.875 54.25 121.279C53.927 121.682 53.7656 122.158 53.7656 122.705V126.352ZM63.6093 123.055C63.6093 122.041 63.9278 121.202 64.5647 120.539C65.2105 119.875 66.0224 119.543 67.0002 119.543C67.9779 119.543 68.7853 119.875 69.4222 120.539C70.0681 121.202 70.391 122.041 70.391 123.055C70.391 124.078 70.0681 124.916 69.4222 125.571C68.7853 126.235 67.9779 126.567 67.0002 126.567C66.0224 126.567 65.2105 126.235 64.5647 125.571C63.9278 124.907 63.6093 124.069 63.6093 123.055ZM64.8472 123.055C64.8472 123.764 65.0536 124.338 65.4662 124.777C65.8788 125.217 66.3902 125.437 67.0002 125.437C67.6102 125.437 68.1215 125.217 68.5341 124.777C68.9468 124.338 69.1531 123.764 69.1531 123.055C69.1531 122.355 68.9468 121.786 68.5341 121.346C68.1125 120.897 67.6012 120.673 67.0002 120.673C66.3991 120.673 65.8878 120.897 65.4662 121.346C65.0536 121.786 64.8472 122.355 64.8472 123.055ZM72.622 126.352H71.3841V119.758H72.5682V120.835H72.622C72.7476 120.485 73.0033 120.189 73.389 119.947C73.7837 119.695 74.1695 119.57 74.5462 119.57C74.905 119.57 75.21 119.624 75.4612 119.731L75.0845 120.929C74.932 120.866 74.6898 120.835 74.3578 120.835C73.8914 120.835 73.4832 121.023 73.1334 121.4C72.7925 121.777 72.622 122.216 72.622 122.719V126.352ZM78.8253 126.567C77.8565 126.567 77.0581 126.235 76.4301 125.571C75.8022 124.907 75.4882 124.069 75.4882 123.055C75.4882 122.05 75.7932 121.216 76.4032 120.552C77.0132 119.879 77.7937 119.543 78.7445 119.543C79.7223 119.543 80.4983 119.861 81.0724 120.498C81.6555 121.126 81.947 122.01 81.947 123.149L81.9336 123.284H76.7531C76.771 123.93 76.9863 124.45 77.399 124.845C77.8116 125.239 78.305 125.437 78.8791 125.437C79.6685 125.437 80.2875 125.042 80.736 124.252L81.8394 124.791C81.5433 125.347 81.1307 125.782 80.6014 126.096C80.0811 126.41 79.4891 126.567 78.8253 126.567ZM76.8473 122.261H80.6283C80.5925 121.804 80.4041 121.427 80.0632 121.131C79.7313 120.826 79.2828 120.673 78.7176 120.673C78.2512 120.673 77.8475 120.817 77.5066 121.104C77.1747 121.391 76.9549 121.777 76.8473 122.261ZM95.374 119.758L93.248 126.352H91.9831L90.3415 121.292L88.7134 126.352H87.462L85.336 119.758H86.6277L88.0944 124.737H88.1079L89.736 119.758H91.0143L92.6425 124.737H92.6559L94.1091 119.758H95.374ZM96.9502 124.333C96.9502 124.656 97.0848 124.925 97.3539 125.141C97.632 125.356 97.9549 125.463 98.3227 125.463C98.843 125.463 99.305 125.271 99.7086 124.885C100.121 124.499 100.328 124.046 100.328 123.526C99.9419 123.221 99.4036 123.068 98.7129 123.068C98.2106 123.068 97.7889 123.189 97.4481 123.432C97.1162 123.674 96.9502 123.974 96.9502 124.333ZM98.5514 119.543C99.4664 119.543 100.189 119.79 100.718 120.283C101.247 120.767 101.512 121.436 101.512 122.288V126.352H100.328V125.437H100.274C99.7625 126.19 99.0807 126.567 98.2285 126.567C97.5019 126.567 96.8919 126.352 96.3985 125.921C95.9141 125.49 95.6719 124.952 95.6719 124.306C95.6719 123.625 95.9276 123.082 96.4389 122.678C96.9592 122.274 97.6499 122.073 98.5111 122.073C99.2467 122.073 99.8522 122.207 100.328 122.476V122.194C100.328 121.763 100.157 121.4 99.8163 121.104C99.4754 120.799 99.0762 120.646 98.6187 120.646C97.928 120.646 97.3808 120.938 96.9771 121.521L95.8872 120.835C96.4882 119.974 97.3763 119.543 98.5514 119.543ZM104.509 117.484C104.509 117.726 104.424 117.933 104.254 118.103C104.083 118.274 103.877 118.359 103.635 118.359C103.392 118.359 103.186 118.274 103.016 118.103C102.845 117.933 102.76 117.726 102.76 117.484C102.76 117.242 102.845 117.036 103.016 116.865C103.186 116.695 103.392 116.61 103.635 116.61C103.877 116.61 104.083 116.695 104.254 116.865C104.424 117.036 104.509 117.242 104.509 117.484ZM104.254 119.758V126.352H103.016V119.758H104.254ZM108.409 126.459C107.871 126.459 107.423 126.293 107.064 125.961C106.714 125.629 106.534 125.167 106.525 124.575V120.889H105.368V119.758H106.525V117.74H107.763V119.758H109.378V120.889H107.763V124.172C107.763 124.611 107.849 124.912 108.019 125.073C108.189 125.226 108.382 125.302 108.598 125.302C108.696 125.302 108.791 125.293 108.88 125.275C108.979 125.248 109.069 125.217 109.149 125.181L109.54 126.284C109.217 126.401 108.84 126.459 108.409 126.459ZM112.223 117.484C112.223 117.726 112.137 117.933 111.967 118.103C111.797 118.274 111.59 118.359 111.348 118.359C111.106 118.359 110.899 118.274 110.729 118.103C110.559 117.933 110.473 117.726 110.473 117.484C110.473 117.242 110.559 117.036 110.729 116.865C110.899 116.695 111.106 116.61 111.348 116.61C111.59 116.61 111.797 116.695 111.967 116.865C112.137 117.036 112.223 117.242 112.223 117.484ZM111.967 119.758V126.352H110.729V119.758H111.967ZM113.578 119.758H114.762V120.673H114.816C115.004 120.35 115.291 120.081 115.677 119.866C116.072 119.651 116.48 119.543 116.902 119.543C117.709 119.543 118.328 119.776 118.758 120.243C119.198 120.7 119.418 121.355 119.418 122.207V126.352H118.18V122.288C118.153 121.211 117.61 120.673 116.552 120.673C116.058 120.673 115.646 120.875 115.314 121.279C114.982 121.673 114.816 122.149 114.816 122.705V126.352H113.578V119.758ZM123.765 125.437C124.375 125.437 124.873 125.217 125.259 124.777C125.663 124.338 125.865 123.764 125.865 123.055C125.865 122.364 125.663 121.795 125.259 121.346C124.864 120.897 124.366 120.673 123.765 120.673C123.173 120.673 122.676 120.897 122.272 121.346C121.868 121.795 121.666 122.364 121.666 123.055C121.666 123.755 121.868 124.324 122.272 124.764C122.676 125.212 123.173 125.437 123.765 125.437ZM123.725 129.473C123.357 129.473 123.012 129.424 122.689 129.325C122.366 129.236 122.07 129.106 121.801 128.935C121.541 128.765 121.317 128.563 121.128 128.33C120.94 128.096 120.796 127.836 120.698 127.549L121.868 127.065C122.003 127.45 122.236 127.76 122.568 127.993C122.9 128.226 123.286 128.343 123.725 128.343C124.398 128.343 124.923 128.141 125.299 127.738C125.676 127.334 125.865 126.778 125.865 126.069V125.437H125.811C125.578 125.786 125.259 126.065 124.855 126.271C124.461 126.468 124.03 126.567 123.564 126.567C122.702 126.567 121.962 126.23 121.343 125.558C120.733 124.867 120.428 124.033 120.428 123.055C120.428 122.077 120.733 121.247 121.343 120.566C121.962 119.884 122.702 119.543 123.564 119.543C124.03 119.543 124.461 119.646 124.855 119.852C125.259 120.05 125.578 120.323 125.811 120.673H125.865V119.758H127.049V126.069C127.049 127.128 126.748 127.957 126.147 128.558C125.537 129.168 124.73 129.473 123.725 129.473ZM134.293 116.61C134.741 116.61 135.109 116.686 135.396 116.838L135.06 117.928C134.845 117.821 134.602 117.767 134.333 117.767C134.028 117.767 133.777 117.874 133.58 118.09C133.391 118.296 133.297 118.574 133.297 118.924V119.758H135.019V120.889H133.297V126.352H132.059V120.889H130.821V119.758H132.059V118.803C132.059 118.148 132.265 117.619 132.678 117.215C133.1 116.811 133.638 116.61 134.293 116.61ZM135.422 123.055C135.422 122.041 135.74 121.202 136.377 120.539C137.023 119.875 137.835 119.543 138.813 119.543C139.79 119.543 140.598 119.875 141.235 120.539C141.88 121.202 142.203 122.041 142.203 123.055C142.203 124.078 141.88 124.916 141.235 125.571C140.598 126.235 139.79 126.567 138.813 126.567C137.835 126.567 137.023 126.235 136.377 125.571C135.74 124.907 135.422 124.069 135.422 123.055ZM136.66 123.055C136.66 123.764 136.866 124.338 137.279 124.777C137.691 125.217 138.203 125.437 138.813 125.437C139.422 125.437 139.934 125.217 140.346 124.777C140.759 124.338 140.965 123.764 140.965 123.055C140.965 122.355 140.759 121.786 140.346 121.346C139.925 120.897 139.414 120.673 138.813 120.673C138.211 120.673 137.7 120.897 137.279 121.346C136.866 121.786 136.66 122.355 136.66 123.055ZM144.434 126.352H143.196V119.758H144.381V120.835H144.434C144.56 120.485 144.816 120.189 145.201 119.947C145.596 119.695 145.982 119.57 146.359 119.57C146.717 119.57 147.022 119.624 147.274 119.731L146.897 120.929C146.744 120.866 146.502 120.835 146.17 120.835C145.704 120.835 145.296 121.023 144.946 121.4C144.605 121.777 144.434 122.216 144.434 122.719V126.352ZM160.38 119.758L158.254 126.352H156.989L155.347 121.292L153.719 126.352H152.468L150.342 119.758H151.633L153.1 124.737H153.113L154.742 119.758H156.02L157.648 124.737H157.662L159.115 119.758H160.38ZM164.015 126.567C163.046 126.567 162.247 126.235 161.619 125.571C160.991 124.907 160.678 124.069 160.678 123.055C160.678 122.05 160.983 121.216 161.593 120.552C162.203 119.879 162.983 119.543 163.934 119.543C164.912 119.543 165.688 119.861 166.262 120.498C166.845 121.126 167.136 122.01 167.136 123.149L167.123 123.284H161.942C161.96 123.93 162.176 124.45 162.588 124.845C163.001 125.239 163.494 125.437 164.068 125.437C164.858 125.437 165.477 125.042 165.925 124.252L167.029 124.791C166.733 125.347 166.32 125.782 165.791 126.096C165.27 126.41 164.678 126.567 164.015 126.567ZM162.037 122.261H165.818C165.782 121.804 165.593 121.427 165.252 121.131C164.921 120.826 164.472 120.673 163.907 120.673C163.44 120.673 163.037 120.817 162.696 121.104C162.364 121.391 162.144 121.777 162.037 122.261ZM171.294 126.567C170.326 126.567 169.527 126.235 168.899 125.571C168.271 124.907 167.957 124.069 167.957 123.055C167.957 122.05 168.262 121.216 168.872 120.552C169.482 119.879 170.263 119.543 171.214 119.543C172.191 119.543 172.967 119.861 173.541 120.498C174.125 121.126 174.416 122.01 174.416 123.149L174.403 123.284H169.222C169.24 123.93 169.455 124.45 169.868 124.845C170.281 125.239 170.774 125.437 171.348 125.437C172.138 125.437 172.757 125.042 173.205 124.252L174.308 124.791C174.012 125.347 173.6 125.782 173.07 126.096C172.55 126.41 171.958 126.567 171.294 126.567ZM169.316 122.261H173.097C173.062 121.804 172.873 121.427 172.532 121.131C172.2 120.826 171.752 120.673 171.187 120.673C170.72 120.673 170.317 120.817 169.976 121.104C169.644 121.391 169.424 121.777 169.316 122.261ZM181.348 126.352H179.854L177.795 123.243L176.786 124.239V126.352H175.548V116.717H176.786V122.651L179.639 119.758H181.226V119.812L178.656 122.369L181.348 126.298V126.352ZM186.967 124.522C186.967 125.096 186.716 125.58 186.214 125.975C185.711 126.37 185.079 126.567 184.316 126.567C183.653 126.567 183.069 126.396 182.567 126.056C182.065 125.706 181.706 125.248 181.491 124.683L182.594 124.212C182.756 124.607 182.989 124.916 183.294 125.141C183.608 125.356 183.949 125.463 184.316 125.463C184.711 125.463 185.039 125.378 185.299 125.208C185.568 125.037 185.702 124.836 185.702 124.602C185.702 124.181 185.379 123.871 184.734 123.674L183.603 123.391C182.32 123.068 181.679 122.449 181.679 121.534C181.679 120.933 181.921 120.453 182.406 120.095C182.899 119.727 183.527 119.543 184.289 119.543C184.873 119.543 185.397 119.682 185.864 119.96C186.339 120.238 186.671 120.61 186.86 121.077L185.756 121.534C185.631 121.256 185.424 121.041 185.137 120.889C184.859 120.727 184.545 120.646 184.195 120.646C183.872 120.646 183.581 120.727 183.321 120.889C183.069 121.05 182.944 121.247 182.944 121.481C182.944 121.857 183.298 122.126 184.007 122.288L185.003 122.544C186.312 122.867 186.967 123.526 186.967 124.522ZM190.625 123.055C190.625 122.041 190.943 121.202 191.58 120.539C192.226 119.875 193.038 119.543 194.015 119.543C194.993 119.543 195.8 119.875 196.437 120.539C197.083 121.202 197.406 122.041 197.406 123.055C197.406 124.078 197.083 124.916 196.437 125.571C195.8 126.235 194.993 126.567 194.015 126.567C193.038 126.567 192.226 126.235 191.58 125.571C190.943 124.907 190.625 124.069 190.625 123.055ZM191.862 123.055C191.862 123.764 192.069 124.338 192.481 124.777C192.894 125.217 193.405 125.437 194.015 125.437C194.625 125.437 195.137 125.217 195.549 124.777C195.962 124.338 196.168 123.764 196.168 123.055C196.168 122.355 195.962 121.786 195.549 121.346C195.128 120.897 194.616 120.673 194.015 120.673C193.414 120.673 192.903 120.897 192.481 121.346C192.069 121.786 191.862 122.355 191.862 123.055ZM199.637 126.352H198.399V119.758H199.583V120.835H199.637C199.763 120.485 200.019 120.189 200.404 119.947C200.799 119.695 201.185 119.57 201.561 119.57C201.92 119.57 202.225 119.624 202.476 119.731L202.1 120.929C201.947 120.866 201.705 120.835 201.373 120.835C200.907 120.835 200.498 121.023 200.149 121.4C199.808 121.777 199.637 122.216 199.637 122.719V126.352ZM35.6327 138.437C36.2427 138.437 36.7406 138.217 37.1263 137.777C37.53 137.338 37.7318 136.764 37.7318 136.055C37.7318 135.364 37.53 134.795 37.1263 134.346C36.7316 133.897 36.2338 133.673 35.6327 133.673C35.0407 133.673 34.5428 133.897 34.1391 134.346C33.7355 134.795 33.5336 135.364 33.5336 136.055C33.5336 136.755 33.7355 137.324 34.1391 137.764C34.5428 138.212 35.0407 138.437 35.6327 138.437ZM35.4309 139.567C34.5697 139.567 33.8297 139.226 33.2107 138.544C32.6007 137.853 32.2957 137.024 32.2957 136.055C32.2957 135.086 32.6007 134.256 33.2107 133.566C33.8297 132.884 34.5697 132.543 35.4309 132.543C35.9153 132.543 36.3549 132.646 36.7496 132.852C37.1532 133.059 37.4627 133.332 37.678 133.673H37.7318L37.678 132.758V129.717H38.916V139.352H37.7318V138.437H37.678C37.4627 138.777 37.1532 139.051 36.7496 139.257C36.3549 139.464 35.9153 139.567 35.4309 139.567ZM43.3199 139.567C42.3511 139.567 41.5527 139.235 40.9248 138.571C40.2968 137.907 39.9828 137.069 39.9828 136.055C39.9828 135.05 40.2878 134.216 40.8978 133.552C41.5078 132.879 42.2883 132.543 43.2391 132.543C44.2169 132.543 44.9929 132.861 45.567 133.498C46.1501 134.126 46.4416 135.01 46.4416 136.149L46.4282 136.284H41.2477C41.2656 136.93 41.4809 137.45 41.8936 137.845C42.3062 138.239 42.7996 138.437 43.3737 138.437C44.1631 138.437 44.7821 138.042 45.2306 137.252L46.334 137.791C46.0379 138.347 45.6253 138.782 45.096 139.096C44.5758 139.41 43.9837 139.567 43.3199 139.567ZM41.3419 135.261H45.123C45.0871 134.804 44.8987 134.427 44.5578 134.131C44.2259 133.826 43.7774 133.673 43.2122 133.673C42.7458 133.673 42.3421 133.817 42.0012 134.104C41.6693 134.391 41.4495 134.777 41.3419 135.261ZM48.5409 137.333C48.5409 137.656 48.6755 137.925 48.9446 138.141C49.2227 138.356 49.5456 138.463 49.9134 138.463C50.4337 138.463 50.8957 138.271 51.2994 137.885C51.712 137.499 51.9183 137.046 51.9183 136.526C51.5326 136.221 50.9944 136.068 50.3036 136.068C49.8013 136.068 49.3797 136.189 49.0388 136.432C48.7069 136.674 48.5409 136.974 48.5409 137.333ZM50.1422 132.543C51.0572 132.543 51.7793 132.79 52.3086 133.283C52.8378 133.767 53.1024 134.436 53.1024 135.288V139.352H51.9183V138.437H51.8645C51.3532 139.19 50.6714 139.567 49.8192 139.567C49.0926 139.567 48.4826 139.352 47.9892 138.921C47.5048 138.49 47.2626 137.952 47.2626 137.306C47.2626 136.625 47.5183 136.082 48.0296 135.678C48.5499 135.274 49.2406 135.073 50.1018 135.073C50.8374 135.073 51.4429 135.207 51.9183 135.476V135.194C51.9183 134.763 51.7479 134.4 51.407 134.104C51.0661 133.799 50.6669 133.646 50.2094 133.646C49.5187 133.646 48.9715 133.938 48.5678 134.521L47.4779 133.835C48.079 132.974 48.967 132.543 50.1422 132.543ZM55.7366 129.717V139.352H54.4987V129.717H55.7366ZM58.8463 130.484C58.8463 130.726 58.7611 130.933 58.5906 131.103C58.4202 131.274 58.2139 131.359 57.9716 131.359C57.7294 131.359 57.5231 131.274 57.3527 131.103C57.1822 130.933 57.097 130.726 57.097 130.484C57.097 130.242 57.1822 130.036 57.3527 129.865C57.5231 129.695 57.7294 129.61 57.9716 129.61C58.2139 129.61 58.4202 129.695 58.5906 129.865C58.7611 130.036 58.8463 130.242 58.8463 130.484ZM58.5906 132.758V139.352H57.3527V132.758H58.5906ZM60.2016 132.758H61.3857V133.673H61.4396C61.6279 133.35 61.915 133.081 62.3007 132.866C62.6954 132.651 63.1036 132.543 63.5252 132.543C64.3326 132.543 64.9515 132.776 65.3821 133.243C65.8217 133.7 66.0414 134.355 66.0414 135.207V139.352H64.8035V135.288C64.7766 134.211 64.2339 133.673 63.1754 133.673C62.682 133.673 62.2693 133.875 61.9374 134.279C61.6055 134.673 61.4396 135.149 61.4396 135.705V139.352H60.2016V132.758ZM70.3891 138.437C70.9991 138.437 71.497 138.217 71.8827 137.777C72.2864 137.338 72.4882 136.764 72.4882 136.055C72.4882 135.364 72.2864 134.795 71.8827 134.346C71.488 133.897 70.9902 133.673 70.3891 133.673C69.7971 133.673 69.2992 133.897 68.8955 134.346C68.4919 134.795 68.29 135.364 68.29 136.055C68.29 136.755 68.4919 137.324 68.8955 137.764C69.2992 138.212 69.7971 138.437 70.3891 138.437ZM70.3488 142.473C69.981 142.473 69.6356 142.424 69.3127 142.325C68.9897 142.236 68.6937 142.106 68.4246 141.935C68.1644 141.765 67.9402 141.563 67.7518 141.33C67.5634 141.096 67.4199 140.836 67.3212 140.549L68.4919 140.065C68.6264 140.45 68.8597 140.76 69.1916 140.993C69.5235 141.226 69.9092 141.343 70.3488 141.343C71.0215 141.343 71.5463 141.141 71.9231 140.738C72.2998 140.334 72.4882 139.778 72.4882 139.069V138.437H72.4344C72.2012 138.786 71.8827 139.065 71.479 139.271C71.0843 139.468 70.6538 139.567 70.1873 139.567C69.3261 139.567 68.5861 139.23 67.9671 138.558C67.3571 137.867 67.0521 137.033 67.0521 136.055C67.0521 135.077 67.3571 134.247 67.9671 133.566C68.5861 132.884 69.3261 132.543 70.1873 132.543C70.6538 132.543 71.0843 132.646 71.479 132.852C71.8827 133.05 72.2012 133.323 72.4344 133.673H72.4882V132.758H73.6723V139.069C73.6723 140.128 73.3718 140.957 72.7708 141.558C72.1608 142.168 71.3535 142.473 70.3488 142.473ZM87.4766 132.758L85.3506 139.352H84.0857L82.4441 134.292L80.816 139.352H79.5646L77.4386 132.758H78.7303L80.197 137.737H80.2105L81.8386 132.758H83.1169L84.7451 137.737H84.7585L86.2118 132.758H87.4766ZM89.8839 130.484C89.8839 130.726 89.7987 130.933 89.6283 131.103C89.4578 131.274 89.2515 131.359 89.0093 131.359C88.7671 131.359 88.5608 131.274 88.3903 131.103C88.2199 130.933 88.1347 130.726 88.1347 130.484C88.1347 130.242 88.2199 130.036 88.3903 129.865C88.5608 129.695 88.7671 129.61 89.0093 129.61C89.2515 129.61 89.4578 129.695 89.6283 129.865C89.7987 130.036 89.8839 130.242 89.8839 130.484ZM89.6283 132.758V139.352H88.3903V132.758H89.6283ZM93.784 139.459C93.2458 139.459 92.7972 139.293 92.4384 138.961C92.0886 138.629 91.9092 138.167 91.9002 137.575V133.889H90.743V132.758H91.9002V130.74H93.1381V132.758H94.7528V133.889H93.1381V137.172C93.1381 137.611 93.2233 137.912 93.3938 138.073C93.5642 138.226 93.7571 138.302 93.9724 138.302C94.0711 138.302 94.1652 138.293 94.2549 138.275C94.3536 138.248 94.4433 138.217 94.5241 138.181L94.9143 139.284C94.5913 139.401 94.2146 139.459 93.784 139.459ZM95.9961 129.717H97.234V132.758L97.1802 133.673H97.234C97.4224 133.35 97.7095 133.081 98.0952 132.866C98.4899 132.651 98.8981 132.543 99.3197 132.543C100.127 132.543 100.746 132.776 101.177 133.243C101.616 133.7 101.836 134.355 101.836 135.207V139.352H100.598V135.449C100.598 134.265 100.073 133.673 99.0237 133.673C98.5213 133.673 98.0952 133.884 97.7454 134.306C97.4045 134.718 97.234 135.203 97.234 135.759V139.352H95.9961V129.717ZM109.475 138.437C110.067 138.437 110.565 138.212 110.969 137.764C111.372 137.324 111.574 136.755 111.574 136.055C111.574 135.364 111.372 134.795 110.969 134.346C110.565 133.897 110.067 133.673 109.475 133.673C108.874 133.673 108.372 133.897 107.968 134.346C107.573 134.795 107.376 135.364 107.376 136.055C107.376 136.755 107.573 137.329 107.968 137.777C108.372 138.217 108.874 138.437 109.475 138.437ZM109.677 139.567C109.192 139.567 108.748 139.464 108.345 139.257C107.95 139.051 107.645 138.777 107.43 138.437H107.376L107.43 139.352V142.258H106.192V132.758H107.376V133.673H107.43C107.645 133.332 107.95 133.059 108.345 132.852C108.748 132.646 109.192 132.543 109.677 132.543C110.547 132.543 111.283 132.884 111.884 133.566C112.503 134.256 112.812 135.086 112.812 136.055C112.812 137.033 112.503 137.862 111.884 138.544C111.283 139.226 110.547 139.567 109.677 139.567ZM114.847 137.333C114.847 137.656 114.982 137.925 115.251 138.141C115.529 138.356 115.852 138.463 116.22 138.463C116.74 138.463 117.202 138.271 117.606 137.885C118.019 137.499 118.225 137.046 118.225 136.526C117.839 136.221 117.301 136.068 116.61 136.068C116.108 136.068 115.686 136.189 115.345 136.432C115.013 136.674 114.847 136.974 114.847 137.333ZM116.449 132.543C117.364 132.543 118.086 132.79 118.615 133.283C119.144 133.767 119.409 134.436 119.409 135.288V139.352H118.225V138.437H118.171C117.66 139.19 116.978 139.567 116.126 139.567C115.399 139.567 114.789 139.352 114.296 138.921C113.811 138.49 113.569 137.952 113.569 137.306C113.569 136.625 113.825 136.082 114.336 135.678C114.856 135.274 115.547 135.073 116.408 135.073C117.144 135.073 117.749 135.207 118.225 135.476V135.194C118.225 134.763 118.054 134.4 117.714 134.104C117.373 133.799 116.973 133.646 116.516 133.646C115.825 133.646 115.278 133.938 114.874 134.521L113.784 133.835C114.385 132.974 115.274 132.543 116.449 132.543ZM124.035 138.437C124.627 138.437 125.125 138.212 125.528 137.764C125.932 137.324 126.134 136.755 126.134 136.055C126.134 135.364 125.932 134.795 125.528 134.346C125.125 133.897 124.627 133.673 124.035 133.673C123.434 133.673 122.931 133.897 122.528 134.346C122.133 134.795 121.935 135.364 121.935 136.055C121.935 136.755 122.133 137.329 122.528 137.777C122.931 138.217 123.434 138.437 124.035 138.437ZM124.236 139.567C123.752 139.567 123.308 139.464 122.904 139.257C122.51 139.051 122.205 138.777 121.989 138.437H121.935L121.989 139.352V142.258H120.751V132.758H121.935V133.673H121.989C122.205 133.332 122.51 133.059 122.904 132.852C123.308 132.646 123.752 132.543 124.236 132.543C125.107 132.543 125.842 132.884 126.443 133.566C127.062 134.256 127.372 135.086 127.372 136.055C127.372 137.033 127.062 137.862 126.443 138.544C125.842 139.226 125.107 139.567 124.236 139.567ZM131.466 139.567C130.497 139.567 129.699 139.235 129.071 138.571C128.443 137.907 128.129 137.069 128.129 136.055C128.129 135.05 128.434 134.216 129.044 133.552C129.654 132.879 130.434 132.543 131.385 132.543C132.363 132.543 133.139 132.861 133.713 133.498C134.296 134.126 134.587 135.01 134.587 136.149L134.574 136.284H129.394C129.411 136.93 129.627 137.45 130.039 137.845C130.452 138.239 130.945 138.437 131.52 138.437C132.309 138.437 132.928 138.042 133.376 137.252L134.48 137.791C134.184 138.347 133.771 138.782 133.242 139.096C132.722 139.41 132.13 139.567 131.466 139.567ZM129.488 135.261H133.269C133.233 134.804 133.045 134.427 132.704 134.131C132.372 133.826 131.923 133.673 131.358 133.673C130.892 133.673 130.488 133.817 130.147 134.104C129.815 134.391 129.595 134.777 129.488 135.261ZM136.957 139.352H135.72V132.758H136.904V133.835H136.957C137.083 133.485 137.339 133.189 137.724 132.947C138.119 132.695 138.505 132.57 138.882 132.57C139.24 132.57 139.545 132.624 139.797 132.731L139.42 133.929C139.267 133.866 139.025 133.835 138.693 133.835C138.227 133.835 137.819 134.023 137.469 134.4C137.128 134.777 136.957 135.216 136.957 135.719V139.352ZM150.078 132.758L147.952 139.352H146.687L145.045 134.292L143.417 139.352H142.166L140.04 132.758H141.331L142.798 137.737H142.811L144.44 132.758H145.718L147.346 137.737H147.359L148.813 132.758H150.078ZM150.375 136.055C150.375 135.041 150.694 134.202 151.331 133.539C151.977 132.875 152.789 132.543 153.766 132.543C154.744 132.543 155.551 132.875 156.188 133.539C156.834 134.202 157.157 135.041 157.157 136.055C157.157 137.078 156.834 137.916 156.188 138.571C155.551 139.235 154.744 139.567 153.766 139.567C152.789 139.567 151.977 139.235 151.331 138.571C150.694 137.907 150.375 137.069 150.375 136.055ZM151.613 136.055C151.613 136.764 151.82 137.338 152.232 137.777C152.645 138.217 153.156 138.437 153.766 138.437C154.376 138.437 154.888 138.217 155.3 137.777C155.713 137.338 155.919 136.764 155.919 136.055C155.919 135.355 155.713 134.786 155.3 134.346C154.879 133.897 154.367 133.673 153.766 133.673C153.165 133.673 152.654 133.897 152.232 134.346C151.82 134.786 151.613 135.355 151.613 136.055ZM159.388 139.352H158.15V132.758H159.334V133.835H159.388C159.514 133.485 159.769 133.189 160.155 132.947C160.55 132.695 160.936 132.57 161.312 132.57C161.671 132.57 161.976 132.624 162.227 132.731L161.851 133.929C161.698 133.866 161.456 133.835 161.124 133.835C160.658 133.835 160.249 134.023 159.899 134.4C159.559 134.777 159.388 135.216 159.388 135.719V139.352ZM168.904 139.352H167.41L165.351 136.243L164.342 137.239V139.352H163.104V129.717H164.342V135.651L167.195 132.758H168.783V132.812L166.212 135.369L168.904 139.298V139.352ZM175.526 138.437C176.136 138.437 176.633 138.217 177.019 137.777C177.423 137.338 177.625 136.764 177.625 136.055C177.625 135.364 177.423 134.795 177.019 134.346C176.624 133.897 176.127 133.673 175.526 133.673C174.933 133.673 174.436 133.897 174.032 134.346C173.628 134.795 173.426 135.364 173.426 136.055C173.426 136.755 173.628 137.324 174.032 137.764C174.436 138.212 174.933 138.437 175.526 138.437ZM175.324 139.567C174.463 139.567 173.722 139.226 173.104 138.544C172.494 137.853 172.189 137.024 172.189 136.055C172.189 135.086 172.494 134.256 173.104 133.566C173.722 132.884 174.463 132.543 175.324 132.543C175.808 132.543 176.248 132.646 176.642 132.852C177.046 133.059 177.356 133.332 177.571 133.673H177.625L177.571 132.758V129.717H178.809V139.352H177.625V138.437H177.571C177.356 138.777 177.046 139.051 176.642 139.257C176.248 139.464 175.808 139.567 175.324 139.567ZM183.213 139.567C182.244 139.567 181.445 139.235 180.818 138.571C180.19 137.907 179.876 137.069 179.876 136.055C179.876 135.05 180.181 134.216 180.791 133.552C181.401 132.879 182.181 132.543 183.132 132.543C184.11 132.543 184.886 132.861 185.46 133.498C186.043 134.126 186.334 135.01 186.334 136.149L186.321 136.284H181.14C181.158 136.93 181.374 137.45 181.786 137.845C182.199 138.239 182.692 138.437 183.267 138.437C184.056 138.437 184.675 138.042 185.123 137.252L186.227 137.791C185.931 138.347 185.518 138.782 184.989 139.096C184.469 139.41 183.877 139.567 183.213 139.567ZM181.235 135.261H185.016C184.98 134.804 184.791 134.427 184.451 134.131C184.119 133.826 183.67 133.673 183.105 133.673C182.639 133.673 182.235 133.817 181.894 134.104C181.562 134.391 181.342 134.777 181.235 135.261ZM188.704 129.717V139.352H187.467V129.717H188.704ZM191.049 137.333C191.049 137.656 191.183 137.925 191.452 138.141C191.73 138.356 192.053 138.463 192.421 138.463C192.941 138.463 193.403 138.271 193.807 137.885C194.22 137.499 194.426 137.046 194.426 136.526C194.04 136.221 193.502 136.068 192.811 136.068C192.309 136.068 191.887 136.189 191.547 136.432C191.215 136.674 191.049 136.974 191.049 137.333ZM192.65 132.543C193.565 132.543 194.287 132.79 194.816 133.283C195.346 133.767 195.61 134.436 195.61 135.288V139.352H194.426V138.437H194.372C193.861 139.19 193.179 139.567 192.327 139.567C191.6 139.567 190.99 139.352 190.497 138.921C190.013 138.49 189.77 137.952 189.77 137.306C189.77 136.625 190.026 136.082 190.537 135.678C191.058 135.274 191.748 135.073 192.61 135.073C193.345 135.073 193.951 135.207 194.426 135.476V135.194C194.426 134.763 194.256 134.4 193.915 134.104C193.574 133.799 193.175 133.646 192.717 133.646C192.026 133.646 191.479 133.938 191.076 134.521L189.986 133.835C190.587 132.974 191.475 132.543 192.65 132.543ZM202.769 132.758L198.638 142.258H197.359L198.893 138.934L196.175 132.758H197.521L199.485 137.495H199.512L201.423 132.758H202.769ZM208.491 137.522C208.491 138.096 208.24 138.58 207.738 138.975C207.235 139.37 206.603 139.567 205.84 139.567C205.177 139.567 204.593 139.396 204.091 139.056C203.589 138.706 203.23 138.248 203.015 137.683L204.118 137.212C204.279 137.607 204.513 137.916 204.818 138.141C205.132 138.356 205.473 138.463 205.84 138.463C206.235 138.463 206.562 138.378 206.823 138.208C207.092 138.037 207.226 137.836 207.226 137.602C207.226 137.181 206.903 136.871 206.257 136.674L205.127 136.391C203.844 136.068 203.203 135.449 203.203 134.534C203.203 133.933 203.445 133.453 203.93 133.095C204.423 132.727 205.051 132.543 205.813 132.543C206.397 132.543 206.921 132.682 207.388 132.96C207.863 133.238 208.195 133.61 208.384 134.077L207.28 134.534C207.155 134.256 206.948 134.041 206.661 133.889C206.383 133.727 206.069 133.646 205.719 133.646C205.396 133.646 205.105 133.727 204.845 133.889C204.593 134.05 204.468 134.247 204.468 134.481C204.468 134.857 204.822 135.126 205.531 135.288L206.527 135.544C207.836 135.867 208.491 136.526 208.491 137.522Z" fill="#060606"/>
<mask id="mask0_331_10" style="mask-type:alpha" maskUnits="userSpaceOnUse" x="0" y="0" width="318" height="400">
<rect x="317.438" width="399.265" height="316.939" rx="30.2979" transform="rotate(90 317.438 0)" fill="#F8F8F8"/>
</mask>
<g mask="url(#mask0_331_10)">
<path d="M186.364 339.014L0.65093 429.074C-1.31501 430.023 -3.56508 430.318 -5.75973 429.917C-7.95438 429.516 -9.97453 428.439 -11.5153 426.848C-13.0562 425.258 -14.034 423.242 -14.3014 421.102C-14.5687 418.963 -14.1111 416.818 -12.9975 414.989L35.3828 336.47L-25.342 286.243C-26.6469 285.166 -27.6646 283.802 -28.3041 282.27C-28.9436 280.739 -29.1851 279.09 -29.0069 277.469C-28.8287 275.848 -28.2364 274.306 -27.283 272.982C-26.3296 271.657 -25.0446 270.591 -23.543 269.878L162.17 179.818C164.136 178.869 190.157 163.381 192.351 163.783C194.738 163.634 194.843 164.543 194.843 164.543C194.843 164.543 194.627 162.859 194.895 164.998C195.162 167.137 176.932 192.074 175.818 193.902L127.356 272.497L188.093 322.689C189.386 323.765 190.393 325.125 191.026 326.649C191.659 328.172 191.898 329.813 191.723 331.425C191.547 333.037 190.962 334.571 190.018 335.891C189.075 337.212 187.804 338.278 186.315 338.996L186.364 339.014Z" fill="#049B2F"/>
</g>
</svg>
