<svg width="318" height="400" viewBox="0 0 318 400" fill="none" xmlns="http://www.w3.org/2000/svg">
<rect x="317.189" y="0.277344" width="399.265" height="316.939" rx="30.2979" transform="rotate(90 317.189 0.277344)" fill="#F8F8F8"/>
<mask id="mask0_331_3" style="mask-type:alpha" maskUnits="userSpaceOnUse" x="0" y="0" width="318" height="400">
<rect x="317.188" y="0.277344" width="399.265" height="316.939" rx="30.2979" transform="rotate(90 317.188 0.277344)" fill="#F8F8F8"/>
</mask>
<g mask="url(#mask0_331_3)">
<path d="M134.543 201.175H197.156L220.001 162.506H-0.327113L-23.1723 201.175H61.4551C80.1179 206.678 95.2876 217.728 103.675 231.754H-0.327113L-23.1729 270.423H108.835C101.006 296.831 70.7293 316.512 34.5466 316.512H-10.5804V351.364L117.472 459.837H173.229V446.352L56.2146 349.462C105.319 347.516 145.434 313.911 152.779 270.423H197.156L220.001 231.753H150.498C147.231 220.595 141.758 210.274 134.543 201.175Z" fill="#00359E"/>
</g>
<path d="M39.4377 39.8969V46.1262H50.2075V50.9294H39.4377V57.1587H51.4083V61.9619H34.3718V35.0937H51.4083V39.8969H39.4377ZM66.2488 60.0106H65.9486C65.3732 60.7111 64.6727 61.3115 63.8471 61.8118C63.0466 62.3122 62.0084 62.5623 60.7325 62.5623C59.7819 62.5623 58.8813 62.3997 58.0307 62.0745C57.2051 61.7743 56.4796 61.349 55.8542 60.7986C55.2288 60.2483 54.741 59.5853 54.3907 58.8098C54.0405 58.0342 53.8654 57.1837 53.8654 56.258C53.8654 55.3074 54.053 54.4568 54.4282 53.7063C54.8035 52.9308 55.3289 52.2678 56.0043 51.7175C56.6798 51.1671 57.4678 50.7543 58.3684 50.4791C59.2941 50.1789 60.2947 50.0288 61.3705 50.0288C62.5713 50.0288 63.5594 50.1289 64.335 50.329C65.1105 50.5041 65.7484 50.6918 66.2488 50.8919V50.329C66.2488 49.3534 65.861 48.5528 65.0855 47.9274C64.31 47.2769 63.3468 46.9517 62.196 46.9517C60.4949 46.9517 59.0564 47.6647 57.8806 49.0907L54.3157 46.6515C56.267 44.1999 58.9313 42.974 62.3086 42.974C65.1605 42.974 67.337 43.6495 68.838 45.0004C70.3391 46.3263 71.0896 48.3026 71.0896 50.9294V61.9619H66.2488V60.0106ZM66.2488 54.4943C65.6734 54.2192 65.073 54.0065 64.4476 53.8564C63.8471 53.6813 63.1842 53.5937 62.4587 53.5937C61.2829 53.5937 60.3698 53.8564 59.7193 54.3818C59.0939 54.8821 58.7812 55.5075 58.7812 56.258C58.7812 57.0086 59.0814 57.609 59.6818 58.0593C60.3072 58.5096 61.0202 58.7347 61.8208 58.7347C62.4712 58.7347 63.0716 58.6221 63.622 58.397C64.1724 58.1468 64.6352 57.8341 65.0104 57.4589C65.4107 57.0586 65.7109 56.6083 65.911 56.1079C66.1362 55.5826 66.2488 55.0447 66.2488 54.4943ZM82.0948 62.5623C80.894 62.5623 79.8182 62.4122 78.8676 62.112C77.942 61.8118 77.1289 61.424 76.4284 60.9487C75.753 60.4484 75.1776 59.8855 74.7023 59.2601C74.2269 58.6096 73.8642 57.9592 73.614 57.3088L78.0045 55.4325C78.4298 56.3831 78.9927 57.0961 79.6932 57.5714C80.4186 58.0217 81.2192 58.2469 82.0948 58.2469C82.9954 58.2469 83.7084 58.0843 84.2337 57.7591C84.7591 57.4338 85.0218 57.0461 85.0218 56.5958C85.0218 56.0954 84.7966 55.6952 84.3463 55.395C83.921 55.0697 83.1705 54.782 82.0948 54.5319L79.5055 53.969C78.9301 53.8439 78.3297 53.6438 77.7043 53.3686C77.1039 53.0934 76.5535 52.7432 76.0532 52.3179C75.5528 51.8926 75.1401 51.3797 74.8148 50.7793C74.4896 50.1789 74.327 49.4784 74.327 48.6779C74.327 47.7773 74.5146 46.9767 74.8899 46.2763C75.2902 45.5758 75.828 44.9879 76.5035 44.5126C77.1789 44.0122 77.967 43.637 78.8676 43.3868C79.7932 43.1116 80.7814 42.974 81.8321 42.974C83.5833 42.974 85.1469 43.3243 86.5228 44.0247C87.8987 44.7002 88.9119 45.7884 89.5624 47.2894L85.322 49.0156C84.9717 48.2901 84.4589 47.7648 83.7834 47.4396C83.108 47.1143 82.4325 46.9517 81.7571 46.9517C81.0566 46.9517 80.4437 47.1018 79.9183 47.402C79.393 47.6772 79.1303 48.04 79.1303 48.4903C79.1303 48.9156 79.3429 49.2533 79.7682 49.5035C80.2185 49.7536 80.8189 49.9788 81.5694 50.1789L84.3838 50.8544C86.2601 51.3047 87.6486 52.0302 88.5492 53.0308C89.4748 54.0065 89.9376 55.1698 89.9376 56.5207C89.9376 57.3213 89.75 58.0843 89.3747 58.8098C88.9995 59.5353 88.4616 60.1857 87.7611 60.7611C87.0857 61.3115 86.2601 61.7493 85.2845 62.0745C84.3338 62.3997 83.2706 62.5623 82.0948 62.5623ZM98.7335 61.0613L91.0033 43.5744H96.5946L101.248 54.7195H101.51L105.976 43.5744H111.455L99.9343 70.0674H94.6432L98.7335 61.0613ZM145.3 57.6465C143.974 59.2476 142.411 60.4734 140.609 61.324C138.808 62.1495 136.794 62.5623 134.568 62.5623C132.566 62.5623 130.703 62.1996 128.976 61.4741C127.275 60.7486 125.799 59.7604 124.548 58.5096C123.298 57.2587 122.309 55.7827 121.584 54.0816C120.858 52.3554 120.496 50.5041 120.496 48.5278C120.496 46.5514 120.858 44.7127 121.584 43.0115C122.309 41.2854 123.298 39.7969 124.548 38.546C125.799 37.2952 127.275 36.307 128.976 35.5815C130.703 34.856 132.566 34.4933 134.568 34.4933C136.719 34.4933 138.608 34.8685 140.234 35.619C141.885 36.3695 143.349 37.4578 144.625 38.8837L141.06 42.3361C140.259 41.4105 139.333 40.6725 138.283 40.1221C137.257 39.5717 136.031 39.2965 134.605 39.2965C133.354 39.2965 132.179 39.5217 131.078 39.972C129.977 40.3973 129.014 41.0102 128.188 41.8107C127.388 42.6113 126.75 43.5869 126.275 44.7377C125.799 45.8635 125.562 47.1268 125.562 48.5278C125.562 49.9287 125.799 51.2046 126.275 52.3554C126.75 53.4812 127.388 54.4443 128.188 55.2449C129.014 56.0454 129.977 56.6708 131.078 57.1211C132.179 57.5464 133.354 57.7591 134.605 57.7591C136.106 57.7591 137.432 57.4589 138.583 56.8584C139.759 56.233 140.797 55.3574 141.698 54.2317L145.3 57.6465ZM148.4 43.5744H153.016V46.1262H153.316C153.541 45.6759 153.841 45.2631 154.216 44.8878C154.592 44.5126 155.004 44.1873 155.455 43.9122C155.93 43.637 156.43 43.4243 156.956 43.2742C157.506 43.1241 158.044 43.0491 158.569 43.0491C159.22 43.0491 159.77 43.1116 160.221 43.2367C160.696 43.3618 161.096 43.5244 161.421 43.7245L160.108 48.1901C159.808 48.04 159.47 47.9274 159.095 47.8523C158.744 47.7523 158.307 47.7022 157.781 47.7022C157.106 47.7022 156.493 47.8398 155.943 48.115C155.392 48.3652 154.917 48.7279 154.517 49.2032C154.141 49.6786 153.841 50.2415 153.616 50.8919C153.416 51.5173 153.316 52.2053 153.316 52.9558V61.9619H148.4V43.5744ZM179.957 57.5339C179.107 59.0349 177.956 60.2483 176.505 61.1739C175.079 62.0995 173.328 62.5623 171.251 62.5623C169.85 62.5623 168.549 62.3247 167.349 61.8493C166.173 61.349 165.147 60.661 164.271 59.7854C163.396 58.9098 162.708 57.8841 162.208 56.7083C161.732 55.5075 161.495 54.1941 161.495 52.7682C161.495 51.4423 161.732 50.1914 162.208 49.0156C162.683 47.8148 163.346 46.7766 164.196 45.901C165.047 45.0004 166.048 44.2874 167.198 43.7621C168.374 43.2367 169.663 42.974 171.064 42.974C172.54 42.974 173.853 43.2242 175.004 43.7245C176.155 44.1999 177.118 44.8753 177.893 45.7509C178.669 46.6015 179.257 47.6147 179.657 48.7905C180.057 49.9663 180.257 51.2421 180.257 52.6181C180.257 52.7932 180.257 52.9433 180.257 53.0684C180.232 53.2185 180.22 53.3561 180.22 53.4812C180.195 53.6062 180.182 53.7438 180.182 53.8939H166.335C166.435 54.6444 166.636 55.2949 166.936 55.8453C167.261 56.3706 167.649 56.8209 168.099 57.1962C168.574 57.5464 169.087 57.8091 169.638 57.9842C170.188 58.1343 170.751 58.2094 171.326 58.2094C172.452 58.2094 173.378 57.9592 174.103 57.4589C174.854 56.9335 175.442 56.2831 175.867 55.5075L179.957 57.5339ZM175.492 50.4041C175.467 50.0788 175.354 49.7161 175.154 49.3158C174.979 48.9156 174.704 48.5403 174.328 48.1901C173.978 47.8398 173.528 47.5521 172.977 47.327C172.452 47.1018 171.814 46.9892 171.064 46.9892C170.013 46.9892 169.087 47.2894 168.287 47.8899C167.486 48.4903 166.923 49.3283 166.598 50.4041H175.492ZM197.277 59.7479H196.977C196.526 60.5234 195.826 61.1864 194.875 61.7368C193.925 62.2871 192.749 62.5623 191.348 62.5623C190.172 62.5623 189.046 62.3247 187.971 61.8493C186.92 61.349 185.982 60.6735 185.156 59.823C184.356 58.9474 183.718 57.9092 183.242 56.7083C182.767 55.5075 182.529 54.1941 182.529 52.7682C182.529 51.3422 182.767 50.0288 183.242 48.828C183.718 47.6272 184.356 46.6015 185.156 45.7509C185.982 44.8753 186.92 44.1999 187.971 43.7245C189.046 43.2242 190.172 42.974 191.348 42.974C192.749 42.974 193.925 43.2492 194.875 43.7996C195.826 44.35 196.526 45.0129 196.977 45.7884H197.277L196.977 43.1616V35.0937H201.893V61.9619H197.277V59.7479ZM192.361 58.0217C193.012 58.0217 193.624 57.9092 194.2 57.684C194.8 57.4338 195.326 57.0836 195.776 56.6333C196.226 56.183 196.589 55.6326 196.864 54.9822C197.139 54.3317 197.277 53.5937 197.277 52.7682C197.277 51.9426 197.139 51.2046 196.864 50.5542C196.589 49.9037 196.226 49.3534 195.776 48.903C195.326 48.4527 194.8 48.115 194.2 47.8899C193.624 47.6397 193.012 47.5146 192.361 47.5146C191.711 47.5146 191.085 47.6397 190.485 47.8899C189.909 48.14 189.397 48.4903 188.946 48.9406C188.496 49.3909 188.133 49.9413 187.858 50.5917C187.583 51.2421 187.445 51.9676 187.445 52.7682C187.445 53.5687 187.583 54.2942 187.858 54.9446C188.133 55.5951 188.496 56.1455 188.946 56.5958C189.397 57.0461 189.909 57.3963 190.485 57.6465C191.085 57.8967 191.711 58.0217 192.361 58.0217ZM208.82 40.9101C208.395 40.9101 207.982 40.8351 207.582 40.685C207.207 40.5098 206.869 40.2847 206.569 40.0095C206.293 39.7093 206.068 39.3716 205.893 38.9963C205.743 38.6211 205.668 38.2083 205.668 37.758C205.668 37.3077 205.743 36.8949 205.893 36.5196C206.068 36.1444 206.293 35.8192 206.569 35.544C206.869 35.2438 207.207 35.0186 207.582 34.8685C207.982 34.6934 208.395 34.6058 208.82 34.6058C209.696 34.6058 210.446 34.9185 211.072 35.544C211.697 36.1444 212.01 36.8824 212.01 37.758C212.01 38.6336 211.697 39.3841 211.072 40.0095C210.446 40.6099 209.696 40.9101 208.82 40.9101ZM206.381 61.9619V43.5744H211.297V61.9619H206.381ZM217.635 47.7773H214.408V43.5744H217.635V37.9456H222.551V43.5744H227.054V47.7773H222.551V54.9071C222.551 55.3324 222.588 55.7327 222.663 56.1079C222.764 56.4582 222.939 56.7584 223.189 57.0086C223.539 57.4088 224.039 57.609 224.69 57.609C225.115 57.609 225.453 57.5714 225.703 57.4964C225.953 57.3963 226.191 57.2712 226.416 57.1211L227.804 61.4366C227.229 61.7117 226.604 61.9119 225.928 62.037C225.278 62.1871 224.552 62.2621 223.752 62.2621C222.826 62.2621 221.988 62.1245 221.238 61.8493C220.512 61.5491 219.899 61.1489 219.399 60.6485C218.223 59.5228 217.635 57.9217 217.635 55.8453V47.7773ZM42.2146 73.0937H47.9935L58.0879 99.9619H52.4966L50.2826 93.5451H39.9255L37.7115 99.9619H32.1202L42.2146 73.0937ZM48.6314 88.8919L46.2298 82.1748L45.2541 78.9101H44.9539L43.9783 82.1748L41.5766 88.8919H48.6314ZM77.5325 95.2712C76.732 96.8223 75.6062 98.0981 74.1552 99.0988C72.7293 100.074 70.9405 100.562 68.7891 100.562C67.3631 100.562 66.0497 100.325 64.8489 99.8493C63.6731 99.349 62.6474 98.661 61.7718 97.7854C60.9212 96.9098 60.2458 95.8841 59.7454 94.7083C59.2701 93.5075 59.0324 92.1941 59.0324 90.7682C59.0324 89.3422 59.2701 88.0288 59.7454 86.828C60.2458 85.6272 60.9212 84.6015 61.7718 83.7509C62.6474 82.8753 63.6731 82.1999 64.8489 81.7245C66.0497 81.2242 67.3631 80.974 68.7891 80.974C70.9155 80.974 72.7042 81.4619 74.1552 82.4375C75.6062 83.4132 76.6694 84.6765 77.3449 86.2276L72.8418 88.1039C72.4165 87.2533 71.8662 86.6154 71.1907 86.1901C70.5403 85.7398 69.7147 85.5146 68.714 85.5146C68.0636 85.5146 67.4507 85.6397 66.8753 85.8899C66.2999 86.14 65.787 86.4903 65.3367 86.9406C64.9114 87.3909 64.5737 87.9413 64.3235 88.5917C64.0734 89.2421 63.9483 89.9676 63.9483 90.7682C63.9483 91.5687 64.0734 92.2942 64.3235 92.9446C64.5737 93.5951 64.9114 94.1455 65.3367 94.5958C65.787 95.0461 66.2999 95.3963 66.8753 95.6465C67.4507 95.8967 68.0636 96.0217 68.714 96.0217C69.7397 96.0217 70.6028 95.7966 71.3033 95.3463C72.0288 94.871 72.6042 94.1955 73.0295 93.3199L77.5325 95.2712ZM97.7977 95.2712C96.9972 96.8223 95.8714 98.0981 94.4204 99.0988C92.9945 100.074 91.2058 100.562 89.0543 100.562C87.6283 100.562 86.3149 100.325 85.1141 99.8493C83.9383 99.349 82.9126 98.661 82.037 97.7854C81.1865 96.9098 80.511 95.8841 80.0107 94.7083C79.5353 93.5075 79.2977 92.1941 79.2977 90.7682C79.2977 89.3422 79.5353 88.0288 80.0107 86.828C80.511 85.6272 81.1865 84.6015 82.037 83.7509C82.9126 82.8753 83.9383 82.1999 85.1141 81.7245C86.3149 81.2242 87.6283 80.974 89.0543 80.974C91.1807 80.974 92.9695 81.4619 94.4204 82.4375C95.8714 83.4132 96.9347 84.6765 97.6101 86.2276L93.1071 88.1039C92.6818 87.2533 92.1314 86.6154 91.4559 86.1901C90.8055 85.7398 89.9799 85.5146 88.9793 85.5146C88.3288 85.5146 87.7159 85.6397 87.1405 85.8899C86.5651 86.14 86.0523 86.4903 85.602 86.9406C85.1767 87.3909 84.8389 87.9413 84.5888 88.5917C84.3386 89.2421 84.2135 89.9676 84.2135 90.7682C84.2135 91.5687 84.3386 92.2942 84.5888 92.9446C84.8389 93.5951 85.1767 94.1455 85.602 94.5958C86.0523 95.0461 86.5651 95.3963 87.1405 95.6465C87.7159 95.8967 88.3288 96.0217 88.9793 96.0217C90.0049 96.0217 90.868 95.7966 91.5685 95.3463C92.294 94.871 92.8694 94.1955 93.2947 93.3199L97.7977 95.2712ZM118.025 95.5339C117.175 97.0349 116.024 98.2483 114.573 99.1739C113.147 100.1 111.396 100.562 109.32 100.562C107.919 100.562 106.618 100.325 105.417 99.8493C104.241 99.349 103.215 98.661 102.34 97.7854C101.464 96.9098 100.776 95.8841 100.276 94.7083C99.8006 93.5075 99.5629 92.1941 99.5629 90.7682C99.5629 89.4423 99.8006 88.1914 100.276 87.0156C100.751 85.8148 101.414 84.7766 102.265 83.901C103.115 83.0004 104.116 82.2874 105.267 81.7621C106.443 81.2367 107.731 80.974 109.132 80.974C110.608 80.974 111.921 81.2242 113.072 81.7245C114.223 82.1999 115.186 82.8753 115.962 83.7509C116.737 84.6015 117.325 85.6147 117.725 86.7905C118.126 87.9663 118.326 89.2421 118.326 90.6181C118.326 90.7932 118.326 90.9433 118.326 91.0684C118.301 91.2185 118.288 91.3561 118.288 91.4812C118.263 91.6062 118.251 91.7438 118.251 91.8939H104.404C104.504 92.6444 104.704 93.2949 105.004 93.8453C105.329 94.3706 105.717 94.8209 106.167 95.1962C106.643 95.5464 107.156 95.8091 107.706 95.9842C108.256 96.1343 108.819 96.2094 109.395 96.2094C110.52 96.2094 111.446 95.9592 112.171 95.4589C112.922 94.9335 113.51 94.2831 113.935 93.5075L118.025 95.5339ZM113.56 88.4041C113.535 88.0788 113.422 87.7161 113.222 87.3158C113.047 86.9156 112.772 86.5403 112.397 86.1901C112.046 85.8398 111.596 85.5521 111.046 85.327C110.52 85.1018 109.882 84.9892 109.132 84.9892C108.081 84.9892 107.156 85.2894 106.355 85.8899C105.554 86.4903 104.992 87.3283 104.666 88.4041H113.56ZM128.928 100.562C127.728 100.562 126.652 100.412 125.701 100.112C124.776 99.8118 123.962 99.424 123.262 98.9487C122.587 98.4484 122.011 97.8855 121.536 97.2601C121.061 96.6096 120.698 95.9592 120.448 95.3088L124.838 93.4325C125.263 94.3831 125.826 95.0961 126.527 95.5714C127.252 96.0217 128.053 96.2469 128.928 96.2469C129.829 96.2469 130.542 96.0843 131.067 95.7591C131.593 95.4338 131.855 95.0461 131.855 94.5958C131.855 94.0954 131.63 93.6952 131.18 93.395C130.755 93.0697 130.004 92.782 128.928 92.5319L126.339 91.969C125.764 91.8439 125.163 91.6438 124.538 91.3686C123.937 91.0934 123.387 90.7432 122.887 90.3179C122.386 89.8926 121.974 89.3797 121.648 88.7793C121.323 88.1789 121.161 87.4784 121.161 86.6779C121.161 85.7773 121.348 84.9767 121.723 84.2763C122.124 83.5758 122.662 82.9879 123.337 82.5126C124.013 82.0122 124.801 81.637 125.701 81.3868C126.627 81.1116 127.615 80.974 128.666 80.974C130.417 80.974 131.98 81.3243 133.356 82.0247C134.732 82.7002 135.745 83.7884 136.396 85.2894L132.156 87.0156C131.805 86.2901 131.292 85.7648 130.617 85.4396C129.942 85.1143 129.266 84.9517 128.591 84.9517C127.89 84.9517 127.277 85.1018 126.752 85.402C126.227 85.6772 125.964 86.04 125.964 86.4903C125.964 86.9156 126.176 87.2533 126.602 87.5035C127.052 87.7536 127.652 87.9788 128.403 88.1789L131.217 88.8544C133.094 89.3047 134.482 90.0302 135.383 91.0308C136.308 92.0065 136.771 93.1698 136.771 94.5207C136.771 95.3213 136.584 96.0843 136.208 96.8098C135.833 97.5353 135.295 98.1857 134.595 98.7611C133.919 99.3115 133.094 99.7493 132.118 100.074C131.167 100.4 130.104 100.562 128.928 100.562ZM147.068 100.562C145.867 100.562 144.792 100.412 143.841 100.112C142.915 99.8118 142.102 99.424 141.402 98.9487C140.726 98.4484 140.151 97.8855 139.676 97.2601C139.2 96.6096 138.838 95.9592 138.587 95.3088L142.978 93.4325C143.403 94.3831 143.966 95.0961 144.666 95.5714C145.392 96.0217 146.193 96.2469 147.068 96.2469C147.969 96.2469 148.682 96.0843 149.207 95.7591C149.732 95.4338 149.995 95.0461 149.995 94.5958C149.995 94.0954 149.77 93.6952 149.32 93.395C148.894 93.0697 148.144 92.782 147.068 92.5319L144.479 91.969C143.903 91.8439 143.303 91.6438 142.678 91.3686C142.077 91.0934 141.527 90.7432 141.027 90.3179C140.526 89.8926 140.113 89.3797 139.788 88.7793C139.463 88.1789 139.3 87.4784 139.3 86.6779C139.3 85.7773 139.488 84.9767 139.863 84.2763C140.263 83.5758 140.801 82.9879 141.477 82.5126C142.152 82.0122 142.94 81.637 143.841 81.3868C144.767 81.1116 145.755 80.974 146.805 80.974C148.557 80.974 150.12 81.3243 151.496 82.0247C152.872 82.7002 153.885 83.7884 154.536 85.2894L150.295 87.0156C149.945 86.2901 149.432 85.7648 148.757 85.4396C148.081 85.1143 147.406 84.9517 146.73 84.9517C146.03 84.9517 145.417 85.1018 144.892 85.402C144.366 85.6772 144.104 86.04 144.104 86.4903C144.104 86.9156 144.316 87.2533 144.742 87.5035C145.192 87.7536 145.792 87.9788 146.543 88.1789L149.357 88.8544C151.233 89.3047 152.622 90.0302 153.522 91.0308C154.448 92.0065 154.911 93.1698 154.911 94.5207C154.911 95.3213 154.723 96.0843 154.348 96.8098C153.973 97.5353 153.435 98.1857 152.734 98.7611C152.059 99.3115 151.233 99.7493 150.258 100.074C149.307 100.4 148.244 100.562 147.068 100.562Z" fill="#00359E"/>
<path d="M36.1372 118.515L34.5629 122.861H37.7654L36.1911 118.515H36.1372ZM33.2039 126.629H31.8314L35.4645 116.995H36.8639L40.4969 126.629H39.1244L38.196 124.018H34.1458L33.2039 126.629ZM44.2285 126.844C43.2507 126.844 42.4389 126.512 41.793 125.848C41.1561 125.167 40.8376 124.328 40.8376 123.332C40.8376 122.319 41.1561 121.48 41.793 120.816C42.4389 120.152 43.2507 119.82 44.2285 119.82C44.9013 119.82 45.4888 119.991 45.9912 120.332C46.4935 120.664 46.8703 121.125 47.1215 121.718L45.9912 122.188C45.6413 121.363 45.0269 120.951 44.1477 120.951C43.5826 120.951 43.0937 121.179 42.6811 121.637C42.2774 122.094 42.0756 122.659 42.0756 123.332C42.0756 124.005 42.2774 124.57 42.6811 125.028C43.0937 125.485 43.5826 125.714 44.1477 125.714C45.0538 125.714 45.6907 125.301 46.0585 124.476L47.1618 124.947C46.9196 125.539 46.5384 126.005 46.0181 126.346C45.5068 126.678 44.9102 126.844 44.2285 126.844ZM51.1929 126.844C50.2151 126.844 49.4033 126.512 48.7574 125.848C48.1205 125.167 47.802 124.328 47.802 123.332C47.802 122.319 48.1205 121.48 48.7574 120.816C49.4033 120.152 50.2151 119.82 51.1929 119.82C51.8657 119.82 52.4533 119.991 52.9556 120.332C53.4579 120.664 53.8347 121.125 54.0859 121.718L52.9556 122.188C52.6057 121.363 51.9913 120.951 51.1122 120.951C50.547 120.951 50.0581 121.179 49.6455 121.637C49.2418 122.094 49.04 122.659 49.04 123.332C49.04 124.005 49.2418 124.57 49.6455 125.028C50.0581 125.485 50.547 125.714 51.1122 125.714C52.0182 125.714 52.6551 125.301 53.0229 124.476L54.1263 124.947C53.884 125.539 53.5028 126.005 52.9825 126.346C52.4712 126.678 51.8747 126.844 51.1929 126.844ZM58.1035 126.844C57.1347 126.844 56.3363 126.512 55.7084 125.848C55.0804 125.185 54.7665 124.346 54.7665 123.332C54.7665 122.328 55.0714 121.493 55.6814 120.829C56.2914 120.157 57.0719 119.82 58.0228 119.82C59.0005 119.82 59.7765 120.139 60.3506 120.776C60.9337 121.404 61.2252 122.287 61.2252 123.426L61.2118 123.561H56.0313C56.0492 124.207 56.2645 124.727 56.6772 125.122C57.0898 125.517 57.5832 125.714 58.1573 125.714C58.9467 125.714 59.5657 125.319 60.0142 124.53L61.1176 125.068C60.8216 125.624 60.4089 126.059 59.8796 126.373C59.3594 126.687 58.7673 126.844 58.1035 126.844ZM56.1255 122.538H59.9066C59.8707 122.081 59.6823 121.704 59.3414 121.408C59.0095 121.103 58.561 120.951 57.9958 120.951C57.5294 120.951 57.1257 121.094 56.7848 121.381C56.4529 121.668 56.2331 122.054 56.1255 122.538ZM67.4689 124.799C67.4689 125.373 67.2177 125.857 66.7154 126.252C66.213 126.647 65.5806 126.844 64.8181 126.844C64.1543 126.844 63.5712 126.674 63.0689 126.333C62.5665 125.983 62.2077 125.526 61.9924 124.96L63.0958 124.489C63.2573 124.884 63.4905 125.194 63.7955 125.418C64.1095 125.633 64.4503 125.741 64.8181 125.741C65.2128 125.741 65.5403 125.656 65.8004 125.485C66.0695 125.315 66.2041 125.113 66.2041 124.88C66.2041 124.458 65.8811 124.149 65.2353 123.951L64.105 123.669C62.8222 123.346 62.1808 122.727 62.1808 121.812C62.1808 121.211 62.423 120.731 62.9074 120.372C63.4008 120.004 64.0287 119.82 64.7912 119.82C65.3743 119.82 65.8991 119.959 66.3655 120.237C66.841 120.515 67.1729 120.888 67.3613 121.354L66.2579 121.812C66.1323 121.534 65.926 121.318 65.6389 121.166C65.3608 121.004 65.0469 120.924 64.697 120.924C64.3741 120.924 64.0825 121.004 63.8224 121.166C63.5712 121.327 63.4456 121.525 63.4456 121.758C63.4456 122.135 63.8 122.404 64.5086 122.565L65.5044 122.821C66.8141 123.144 67.4689 123.803 67.4689 124.799ZM73.5923 124.799C73.5923 125.373 73.3412 125.857 72.8388 126.252C72.3365 126.647 71.7041 126.844 70.9416 126.844C70.2777 126.844 69.6947 126.674 69.1923 126.333C68.69 125.983 68.3311 125.526 68.1158 124.96L69.2192 124.489C69.3807 124.884 69.6139 125.194 69.9189 125.418C70.2329 125.633 70.5738 125.741 70.9416 125.741C71.3363 125.741 71.6637 125.656 71.9238 125.485C72.1929 125.315 72.3275 125.113 72.3275 124.88C72.3275 124.458 72.0046 124.149 71.3587 123.951L70.2284 123.669C68.9456 123.346 68.3042 122.727 68.3042 121.812C68.3042 121.211 68.5464 120.731 69.0308 120.372C69.5242 120.004 70.1522 119.82 70.9146 119.82C71.4977 119.82 72.0225 119.959 72.489 120.237C72.9644 120.515 73.2963 120.888 73.4847 121.354L72.3813 121.812C72.2557 121.534 72.0494 121.318 71.7624 121.166C71.4843 121.004 71.1703 120.924 70.8205 120.924C70.4975 120.924 70.206 121.004 69.9458 121.166C69.6947 121.327 69.5691 121.525 69.5691 121.758C69.5691 122.135 69.9234 122.404 70.6321 122.565L71.6278 122.821C72.9375 123.144 73.5923 123.803 73.5923 124.799ZM78.8644 116.995V126.629H77.6265V116.995H78.8644ZM79.9303 123.332C79.9303 122.319 80.2488 121.48 80.8857 120.816C81.5316 120.152 82.3434 119.82 83.3212 119.82C84.299 119.82 85.1063 120.152 85.7432 120.816C86.3891 121.48 86.7121 122.319 86.7121 123.332C86.7121 124.355 86.3891 125.194 85.7432 125.848C85.1063 126.512 84.299 126.844 83.3212 126.844C82.3434 126.844 81.5316 126.512 80.8857 125.848C80.2488 125.185 79.9303 124.346 79.9303 123.332ZM81.1683 123.332C81.1683 124.041 81.3746 124.615 81.7872 125.055C82.1999 125.494 82.7112 125.714 83.3212 125.714C83.9312 125.714 84.4425 125.494 84.8552 125.055C85.2678 124.615 85.4741 124.041 85.4741 123.332C85.4741 122.633 85.2678 122.063 84.8552 121.623C84.4335 121.175 83.9222 120.951 83.3212 120.951C82.7202 120.951 82.2089 121.175 81.7872 121.623C81.3746 122.063 81.1683 122.633 81.1683 123.332ZM88.7381 124.611C88.7381 124.933 88.8726 125.203 89.1418 125.418C89.4199 125.633 89.7428 125.741 90.1106 125.741C90.6309 125.741 91.0929 125.548 91.4965 125.162C91.9092 124.776 92.1155 124.323 92.1155 123.803C91.7298 123.498 91.1915 123.346 90.5008 123.346C89.9984 123.346 89.5768 123.467 89.236 123.709C88.904 123.951 88.7381 124.252 88.7381 124.611ZM90.3393 119.82C91.2543 119.82 91.9764 120.067 92.5057 120.56C93.035 121.045 93.2996 121.713 93.2996 122.565V126.629H92.1155V125.714H92.0617C91.5503 126.467 90.8686 126.844 90.0164 126.844C89.2898 126.844 88.6798 126.629 88.1864 126.198C87.702 125.768 87.4598 125.23 87.4598 124.584C87.4598 123.902 87.7155 123.359 88.2268 122.955C88.7471 122.552 89.4378 122.35 90.299 122.35C91.0345 122.35 91.6401 122.485 92.1155 122.754V122.471C92.1155 122.04 91.9451 121.677 91.6042 121.381C91.2633 121.076 90.8641 120.924 90.4066 120.924C89.7159 120.924 89.1687 121.215 88.765 121.798L87.6751 121.112C88.2761 120.251 89.1642 119.82 90.3393 119.82ZM94.6958 120.036H95.88V120.951H95.9338C96.1222 120.628 96.4092 120.359 96.795 120.143C97.1897 119.928 97.5978 119.82 98.0194 119.82C98.8268 119.82 99.4457 120.054 99.8763 120.52C100.316 120.977 100.536 121.632 100.536 122.485V126.629H99.2977V122.565C99.2708 121.489 98.7281 120.951 97.6696 120.951C97.1762 120.951 96.7636 121.152 96.4316 121.556C96.0997 121.951 95.9338 122.426 95.9338 122.982V126.629H94.6958V120.036ZM106.969 124.799C106.969 125.373 106.718 125.857 106.215 126.252C105.713 126.647 105.081 126.844 104.318 126.844C103.654 126.844 103.071 126.674 102.569 126.333C102.067 125.983 101.708 125.526 101.492 124.96L102.596 124.489C102.757 124.884 102.991 125.194 103.296 125.418C103.61 125.633 103.95 125.741 104.318 125.741C104.713 125.741 105.04 125.656 105.3 125.485C105.57 125.315 105.704 125.113 105.704 124.88C105.704 124.458 105.381 124.149 104.735 123.951L103.605 123.669C102.322 123.346 101.681 122.727 101.681 121.812C101.681 121.211 101.923 120.731 102.407 120.372C102.901 120.004 103.529 119.82 104.291 119.82C104.874 119.82 105.399 119.959 105.866 120.237C106.341 120.515 106.673 120.888 106.861 121.354L105.758 121.812C105.632 121.534 105.426 121.318 105.139 121.166C104.861 121.004 104.547 120.924 104.197 120.924C103.874 120.924 103.583 121.004 103.322 121.166C103.071 121.327 102.946 121.525 102.946 121.758C102.946 122.135 103.3 122.404 104.009 122.565L105.004 122.821C106.314 123.144 106.969 123.803 106.969 124.799ZM113.963 126.844C112.995 126.844 112.196 126.512 111.568 125.848C110.94 125.185 110.626 124.346 110.626 123.332C110.626 122.328 110.931 121.493 111.541 120.829C112.151 120.157 112.932 119.82 113.883 119.82C114.86 119.82 115.636 120.139 116.21 120.776C116.794 121.404 117.085 122.287 117.085 123.426L117.072 123.561H111.891C111.909 124.207 112.124 124.727 112.537 125.122C112.95 125.517 113.443 125.714 114.017 125.714C114.807 125.714 115.426 125.319 115.874 124.53L116.977 125.068C116.681 125.624 116.269 126.059 115.74 126.373C115.219 126.687 114.627 126.844 113.963 126.844ZM111.985 122.538H115.766C115.731 122.081 115.542 121.704 115.201 121.408C114.869 121.103 114.421 120.951 113.856 120.951C113.389 120.951 112.986 121.094 112.645 121.381C112.313 121.668 112.093 122.054 111.985 122.538ZM119.184 124.611C119.184 124.933 119.319 125.203 119.588 125.418C119.866 125.633 120.189 125.741 120.557 125.741C121.077 125.741 121.539 125.548 121.943 125.162C122.356 124.776 122.562 124.323 122.562 123.803C122.176 123.498 121.638 123.346 120.947 123.346C120.445 123.346 120.023 123.467 119.682 123.709C119.35 123.951 119.184 124.252 119.184 124.611ZM120.786 119.82C121.701 119.82 122.423 120.067 122.952 120.56C123.481 121.045 123.746 121.713 123.746 122.565V126.629H122.562V125.714H122.508C121.997 126.467 121.315 126.844 120.463 126.844C119.736 126.844 119.126 126.629 118.633 126.198C118.148 125.768 117.906 125.23 117.906 124.584C117.906 123.902 118.162 123.359 118.673 122.955C119.193 122.552 119.884 122.35 120.745 122.35C121.481 122.35 122.086 122.485 122.562 122.754V122.471C122.562 122.04 122.391 121.677 122.051 121.381C121.71 121.076 121.31 120.924 120.853 120.924C120.162 120.924 119.615 121.215 119.211 121.798L118.121 121.112C118.722 120.251 119.611 119.82 120.786 119.82ZM130.122 124.799C130.122 125.373 129.871 125.857 129.369 126.252C128.867 126.647 128.234 126.844 127.472 126.844C126.808 126.844 126.225 126.674 125.722 126.333C125.22 125.983 124.861 125.526 124.646 124.96L125.749 124.489C125.911 124.884 126.144 125.194 126.449 125.418C126.763 125.633 127.104 125.741 127.472 125.741C127.866 125.741 128.194 125.656 128.454 125.485C128.723 125.315 128.858 125.113 128.858 124.88C128.858 124.458 128.535 124.149 127.889 123.951L126.758 123.669C125.476 123.346 124.834 122.727 124.834 121.812C124.834 121.211 125.076 120.731 125.561 120.372C126.054 120.004 126.682 119.82 127.445 119.82C128.028 119.82 128.553 119.959 129.019 120.237C129.494 120.515 129.826 120.888 130.015 121.354L128.911 121.812C128.786 121.534 128.579 121.318 128.292 121.166C128.014 121.004 127.7 120.924 127.351 120.924C127.028 120.924 126.736 121.004 126.476 121.166C126.225 121.327 126.099 121.525 126.099 121.758C126.099 122.135 126.453 122.404 127.162 122.565L128.158 122.821C129.468 123.144 130.122 123.803 130.122 124.799ZM132.735 117.762C132.735 118.004 132.65 118.21 132.48 118.381C132.309 118.551 132.103 118.636 131.861 118.636C131.619 118.636 131.412 118.551 131.242 118.381C131.071 118.21 130.986 118.004 130.986 117.762C130.986 117.519 131.071 117.313 131.242 117.143C131.412 116.972 131.619 116.887 131.861 116.887C132.103 116.887 132.309 116.972 132.48 117.143C132.65 117.313 132.735 117.519 132.735 117.762ZM132.48 120.036V126.629H131.242V120.036H132.48ZM135.329 116.995V126.629H134.091V116.995H135.329ZM142.731 120.036L138.6 129.535H137.322L138.856 126.212L136.137 120.036H137.483L139.448 124.772H139.474L141.385 120.036H142.731ZM149.106 126.737C148.568 126.737 148.119 126.571 147.76 126.239C147.41 125.907 147.231 125.445 147.222 124.853V121.166H146.065V120.036H147.222V118.017H148.46V120.036H150.075V121.166H148.46V124.449C148.46 124.889 148.545 125.189 148.716 125.351C148.886 125.503 149.079 125.579 149.294 125.579C149.393 125.579 149.487 125.57 149.577 125.552C149.675 125.526 149.765 125.494 149.846 125.458L150.236 126.562C149.913 126.678 149.536 126.737 149.106 126.737ZM151.318 116.995H152.556V120.036L152.502 120.951H152.556C152.744 120.628 153.031 120.359 153.417 120.143C153.812 119.928 154.22 119.82 154.641 119.82C155.449 119.82 156.068 120.054 156.498 120.52C156.938 120.977 157.158 121.632 157.158 122.485V126.629H155.92V122.727C155.92 121.543 155.395 120.951 154.345 120.951C153.843 120.951 153.417 121.161 153.067 121.583C152.726 121.996 152.556 122.48 152.556 123.036V126.629H151.318V116.995ZM159.849 126.629H158.611V120.036H159.795V121.112H159.849C159.974 120.762 160.23 120.466 160.616 120.224C161.01 119.973 161.396 119.847 161.773 119.847C162.132 119.847 162.437 119.901 162.688 120.009L162.311 121.206C162.159 121.143 161.916 121.112 161.585 121.112C161.118 121.112 160.71 121.3 160.36 121.677C160.019 122.054 159.849 122.493 159.849 122.996V126.629ZM162.715 123.332C162.715 122.319 163.033 121.48 163.67 120.816C164.316 120.152 165.128 119.82 166.106 119.82C167.084 119.82 167.891 120.152 168.528 120.816C169.174 121.48 169.497 122.319 169.497 123.332C169.497 124.355 169.174 125.194 168.528 125.848C167.891 126.512 167.084 126.844 166.106 126.844C165.128 126.844 164.316 126.512 163.67 125.848C163.033 125.185 162.715 124.346 162.715 123.332ZM163.953 123.332C163.953 124.041 164.159 124.615 164.572 125.055C164.984 125.494 165.496 125.714 166.106 125.714C166.716 125.714 167.227 125.494 167.64 125.055C168.052 124.615 168.259 124.041 168.259 123.332C168.259 122.633 168.052 122.063 167.64 121.623C167.218 121.175 166.707 120.951 166.106 120.951C165.505 120.951 164.993 121.175 164.572 121.623C164.159 122.063 163.953 122.633 163.953 123.332ZM176.341 126.629H175.157V125.714H175.103C174.915 126.037 174.624 126.306 174.229 126.521C173.843 126.737 173.439 126.844 173.018 126.844C172.21 126.844 171.587 126.615 171.147 126.158C170.717 125.691 170.502 125.032 170.502 124.18V120.036H171.74V124.099C171.766 125.176 172.309 125.714 173.368 125.714C173.861 125.714 174.274 125.517 174.606 125.122C174.938 124.718 175.103 124.238 175.103 123.682V120.036H176.341V126.629ZM180.743 125.714C181.353 125.714 181.851 125.494 182.237 125.055C182.64 124.615 182.842 124.041 182.842 123.332C182.842 122.642 182.64 122.072 182.237 121.623C181.842 121.175 181.344 120.951 180.743 120.951C180.151 120.951 179.653 121.175 179.249 121.623C178.846 122.072 178.644 122.642 178.644 123.332C178.644 124.032 178.846 124.602 179.249 125.041C179.653 125.49 180.151 125.714 180.743 125.714ZM180.703 129.751C180.335 129.751 179.989 129.701 179.666 129.603C179.344 129.513 179.048 129.383 178.778 129.212C178.518 129.042 178.294 128.84 178.106 128.607C177.917 128.374 177.774 128.114 177.675 127.826L178.846 127.342C178.98 127.728 179.213 128.037 179.545 128.271C179.877 128.504 180.263 128.62 180.703 128.62C181.375 128.62 181.9 128.419 182.277 128.015C182.654 127.611 182.842 127.055 182.842 126.346V125.714H182.788C182.555 126.064 182.237 126.342 181.833 126.548C181.438 126.746 181.008 126.844 180.541 126.844C179.68 126.844 178.94 126.508 178.321 125.835C177.711 125.144 177.406 124.31 177.406 123.332C177.406 122.354 177.711 121.525 178.321 120.843C178.94 120.161 179.68 119.82 180.541 119.82C181.008 119.82 181.438 119.923 181.833 120.13C182.237 120.327 182.555 120.601 182.788 120.951H182.842V120.036H184.026V126.346C184.026 127.405 183.726 128.235 183.125 128.836C182.515 129.446 181.707 129.751 180.703 129.751ZM185.536 116.995H186.773V120.036L186.72 120.951H186.773C186.962 120.628 187.249 120.359 187.635 120.143C188.029 119.928 188.437 119.82 188.859 119.82C189.666 119.82 190.285 120.054 190.716 120.52C191.156 120.977 191.375 121.632 191.375 122.485V126.629H190.137V122.727C190.137 121.543 189.613 120.951 188.563 120.951C188.061 120.951 187.635 121.161 187.285 121.583C186.944 121.996 186.773 122.48 186.773 123.036V126.629H185.536V116.995ZM198.395 126.737C197.857 126.737 197.409 126.571 197.05 126.239C196.7 125.907 196.521 125.445 196.512 124.853V121.166H195.354V120.036H196.512V118.017H197.75V120.036H199.364V121.166H197.75V124.449C197.75 124.889 197.835 125.189 198.005 125.351C198.176 125.503 198.369 125.579 198.584 125.579C198.682 125.579 198.777 125.57 198.866 125.552C198.965 125.526 199.055 125.494 199.136 125.458L199.526 126.562C199.203 126.678 198.826 126.737 198.395 126.737ZM200.608 116.995H201.845V120.036L201.792 120.951H201.845C202.034 120.628 202.321 120.359 202.707 120.143C203.101 119.928 203.51 119.82 203.931 119.82C204.738 119.82 205.357 120.054 205.788 120.52C206.228 120.977 206.447 121.632 206.447 122.485V126.629H205.209V122.727C205.209 121.543 204.685 120.951 203.635 120.951C203.133 120.951 202.707 121.161 202.357 121.583C202.016 121.996 201.845 122.48 201.845 123.036V126.629H200.608V116.995ZM210.861 126.844C209.892 126.844 209.094 126.512 208.466 125.848C207.838 125.185 207.524 124.346 207.524 123.332C207.524 122.328 207.829 121.493 208.439 120.829C209.049 120.157 209.829 119.82 210.78 119.82C211.758 119.82 212.534 120.139 213.108 120.776C213.691 121.404 213.982 122.287 213.982 123.426L213.969 123.561H208.789C208.807 124.207 209.022 124.727 209.434 125.122C209.847 125.517 210.34 125.714 210.915 125.714C211.704 125.714 212.323 125.319 212.771 124.53L213.875 125.068C213.579 125.624 213.166 126.059 212.637 126.373C212.117 126.687 211.525 126.844 210.861 126.844ZM208.883 122.538H212.664C212.628 122.081 212.44 121.704 212.099 121.408C211.767 121.103 211.318 120.951 210.753 120.951C210.287 120.951 209.883 121.094 209.542 121.381C209.21 121.668 208.99 122.054 208.883 122.538ZM221.556 126.844C221.072 126.844 220.628 126.741 220.224 126.535C219.829 126.328 219.524 126.055 219.309 125.714H219.255V126.629H218.071V116.995H219.309V120.036L219.255 120.951H219.309C219.524 120.61 219.829 120.336 220.224 120.13C220.628 119.923 221.072 119.82 221.556 119.82C222.426 119.82 223.162 120.161 223.763 120.843C224.382 121.534 224.691 122.363 224.691 123.332C224.691 124.31 224.382 125.14 223.763 125.822C223.162 126.503 222.426 126.844 221.556 126.844ZM221.354 125.714C221.946 125.714 222.444 125.49 222.848 125.041C223.252 124.602 223.453 124.032 223.453 123.332C223.453 122.642 223.252 122.072 222.848 121.623C222.444 121.175 221.946 120.951 221.354 120.951C220.753 120.951 220.251 121.175 219.847 121.623C219.453 122.072 219.255 122.642 219.255 123.332C219.255 124.032 219.453 124.606 219.847 125.055C220.251 125.494 220.753 125.714 221.354 125.714ZM231.544 126.629H230.36V125.714H230.306C230.118 126.037 229.826 126.306 229.432 126.521C229.046 126.737 228.642 126.844 228.221 126.844C227.413 126.844 226.79 126.615 226.35 126.158C225.92 125.691 225.704 125.032 225.704 124.18V120.036H226.942V124.099C226.969 125.176 227.512 125.714 228.571 125.714C229.064 125.714 229.477 125.517 229.808 125.122C230.14 124.718 230.306 124.238 230.306 123.682V120.036H231.544V126.629ZM238.031 124.799C238.031 125.373 237.78 125.857 237.278 126.252C236.776 126.647 236.143 126.844 235.381 126.844C234.717 126.844 234.134 126.674 233.631 126.333C233.129 125.983 232.77 125.526 232.555 124.96L233.658 124.489C233.82 124.884 234.053 125.194 234.358 125.418C234.672 125.633 235.013 125.741 235.381 125.741C235.775 125.741 236.103 125.656 236.363 125.485C236.632 125.315 236.767 125.113 236.767 124.88C236.767 124.458 236.444 124.149 235.798 123.951L234.668 123.669C233.385 123.346 232.743 122.727 232.743 121.812C232.743 121.211 232.986 120.731 233.47 120.372C233.963 120.004 234.591 119.82 235.354 119.82C235.937 119.82 236.462 119.959 236.928 120.237C237.404 120.515 237.735 120.888 237.924 121.354L236.82 121.812C236.695 121.534 236.489 121.318 236.201 121.166C235.923 121.004 235.609 120.924 235.26 120.924C234.937 120.924 234.645 121.004 234.385 121.166C234.134 121.327 234.008 121.525 234.008 121.758C234.008 122.135 234.363 122.404 235.071 122.565L236.067 122.821C237.377 123.144 238.031 123.803 238.031 124.799ZM240.644 117.762C240.644 118.004 240.559 118.21 240.389 118.381C240.218 118.551 240.012 118.636 239.77 118.636C239.528 118.636 239.321 118.551 239.151 118.381C238.98 118.21 238.895 118.004 238.895 117.762C238.895 117.519 238.98 117.313 239.151 117.143C239.321 116.972 239.528 116.887 239.77 116.887C240.012 116.887 240.218 116.972 240.389 117.143C240.559 117.313 240.644 117.519 240.644 117.762ZM240.389 120.036V126.629H239.151V120.036H240.389ZM242 120.036H243.184V120.951H243.238C243.426 120.628 243.713 120.359 244.099 120.143C244.494 119.928 244.902 119.82 245.323 119.82C246.131 119.82 246.75 120.054 247.18 120.52C247.62 120.977 247.84 121.632 247.84 122.485V126.629H246.602V122.565C246.575 121.489 246.032 120.951 244.974 120.951C244.48 120.951 244.068 121.152 243.736 121.556C243.404 121.951 243.238 122.426 243.238 122.982V126.629H242V120.036ZM252.253 126.844C251.284 126.844 250.486 126.512 249.858 125.848C249.23 125.185 248.916 124.346 248.916 123.332C248.916 122.328 249.221 121.493 249.831 120.829C250.441 120.157 251.221 119.82 252.172 119.82C253.15 119.82 253.926 120.139 254.5 120.776C255.083 121.404 255.375 122.287 255.375 123.426L255.361 123.561H250.181C250.199 124.207 250.414 124.727 250.827 125.122C251.239 125.517 251.733 125.714 252.307 125.714C253.096 125.714 253.715 125.319 254.164 124.53L255.267 125.068C254.971 125.624 254.558 126.059 254.029 126.373C253.509 126.687 252.917 126.844 252.253 126.844ZM250.275 122.538H254.056C254.02 122.081 253.832 121.704 253.491 121.408C253.159 121.103 252.711 120.951 252.145 120.951C251.679 120.951 251.275 121.094 250.934 121.381C250.602 121.668 250.383 122.054 250.275 122.538ZM261.618 124.799C261.618 125.373 261.367 125.857 260.865 126.252C260.363 126.647 259.73 126.844 258.968 126.844C258.304 126.844 257.721 126.674 257.218 126.333C256.716 125.983 256.357 125.526 256.142 124.96L257.245 124.489C257.407 124.884 257.64 125.194 257.945 125.418C258.259 125.633 258.6 125.741 258.968 125.741C259.362 125.741 259.69 125.656 259.95 125.485C260.219 125.315 260.354 125.113 260.354 124.88C260.354 124.458 260.031 124.149 259.385 123.951L258.255 123.669C256.972 123.346 256.33 122.727 256.33 121.812C256.33 121.211 256.573 120.731 257.057 120.372C257.55 120.004 258.178 119.82 258.941 119.82C259.524 119.82 260.049 119.959 260.515 120.237C260.991 120.515 261.322 120.888 261.511 121.354L260.407 121.812C260.282 121.534 260.076 121.318 259.789 121.166C259.51 121.004 259.196 120.924 258.847 120.924C258.524 120.924 258.232 121.004 257.972 121.166C257.721 121.327 257.595 121.525 257.595 121.758C257.595 122.135 257.95 122.404 258.658 122.565L259.654 122.821C260.964 123.144 261.618 123.803 261.618 124.799ZM267.742 124.799C267.742 125.373 267.491 125.857 266.988 126.252C266.486 126.647 265.854 126.844 265.091 126.844C264.427 126.844 263.844 126.674 263.342 126.333C262.84 125.983 262.481 125.526 262.265 124.96L263.369 124.489C263.53 124.884 263.763 125.194 264.068 125.418C264.382 125.633 264.723 125.741 265.091 125.741C265.486 125.741 265.813 125.656 266.073 125.485C266.343 125.315 266.477 125.113 266.477 124.88C266.477 124.458 266.154 124.149 265.508 123.951L264.378 123.669C263.095 123.346 262.454 122.727 262.454 121.812C262.454 121.211 262.696 120.731 263.18 120.372C263.674 120.004 264.302 119.82 265.064 119.82C265.647 119.82 266.172 119.959 266.639 120.237C267.114 120.515 267.446 120.888 267.634 121.354L266.531 121.812C266.405 121.534 266.199 121.318 265.912 121.166C265.634 121.004 265.32 120.924 264.97 120.924C264.647 120.924 264.356 121.004 264.095 121.166C263.844 121.327 263.719 121.525 263.719 121.758C263.719 122.135 264.073 122.404 264.782 122.565L265.777 122.821C267.087 123.144 267.742 123.803 267.742 124.799ZM33.325 137.611C33.325 137.933 33.4595 138.203 33.7287 138.418C34.0067 138.633 34.3297 138.741 34.6975 138.741C35.2178 138.741 35.6797 138.548 36.0834 138.162C36.4961 137.776 36.7024 137.323 36.7024 136.803C36.3167 136.498 35.7784 136.346 35.0877 136.346C34.5853 136.346 34.1637 136.467 33.8228 136.709C33.4909 136.951 33.325 137.252 33.325 137.611ZM34.9262 132.82C35.8412 132.82 36.5633 133.067 37.0926 133.56C37.6219 134.045 37.8865 134.713 37.8865 135.565V139.629H36.7024V138.714H36.6486C36.1372 139.467 35.4555 139.844 34.6033 139.844C33.8767 139.844 33.2667 139.629 32.7733 139.198C32.2889 138.768 32.0467 138.23 32.0467 137.584C32.0467 136.902 32.3023 136.359 32.8137 135.955C33.334 135.552 34.0247 135.35 34.8859 135.35C35.6214 135.35 36.2269 135.485 36.7024 135.754V135.471C36.7024 135.04 36.5319 134.677 36.1911 134.381C35.8502 134.076 35.451 133.924 34.9935 133.924C34.3028 133.924 33.7556 134.215 33.3519 134.798L32.262 134.112C32.863 133.251 33.7511 132.82 34.9262 132.82ZM42.5121 138.714C43.1042 138.714 43.602 138.49 44.0057 138.041C44.4094 137.602 44.6112 137.032 44.6112 136.332C44.6112 135.642 44.4094 135.072 44.0057 134.623C43.602 134.175 43.1042 133.951 42.5121 133.951C41.9111 133.951 41.4088 134.175 41.0051 134.623C40.6104 135.072 40.413 135.642 40.413 136.332C40.413 137.032 40.6104 137.606 41.0051 138.055C41.4088 138.494 41.9111 138.714 42.5121 138.714ZM42.714 139.844C42.2296 139.844 41.7855 139.741 41.3818 139.535C40.9871 139.328 40.6821 139.055 40.4668 138.714H40.413L40.4668 139.629V142.535H39.2289V133.036H40.413V133.951H40.4668C40.6821 133.61 40.9871 133.336 41.3818 133.13C41.7855 132.923 42.2296 132.82 42.714 132.82C43.5841 132.82 44.3197 133.161 44.9207 133.843C45.5397 134.534 45.8492 135.363 45.8492 136.332C45.8492 137.31 45.5397 138.14 44.9207 138.822C44.3197 139.503 43.5841 139.844 42.714 139.844ZM50.081 138.714C50.6731 138.714 51.1709 138.49 51.5746 138.041C51.9783 137.602 52.1801 137.032 52.1801 136.332C52.1801 135.642 51.9783 135.072 51.5746 134.623C51.1709 134.175 50.6731 133.951 50.081 133.951C49.48 133.951 48.9776 134.175 48.574 134.623C48.1793 135.072 47.9819 135.642 47.9819 136.332C47.9819 137.032 48.1793 137.606 48.574 138.055C48.9776 138.494 49.48 138.714 50.081 138.714ZM50.2828 139.844C49.7984 139.844 49.3544 139.741 48.9507 139.535C48.556 139.328 48.251 139.055 48.0357 138.714H47.9819L48.0357 139.629V142.535H46.7978V133.036H47.9819V133.951H48.0357C48.251 133.61 48.556 133.336 48.9507 133.13C49.3544 132.923 49.7984 132.82 50.2828 132.82C51.153 132.82 51.8886 133.161 52.4896 133.843C53.1086 134.534 53.418 135.363 53.418 136.332C53.418 137.31 53.1086 138.14 52.4896 138.822C51.8886 139.503 51.153 139.844 50.2828 139.844ZM59.5321 137.799C59.5321 138.373 59.2809 138.857 58.7786 139.252C58.2762 139.647 57.6438 139.844 56.8813 139.844C56.2175 139.844 55.6344 139.674 55.1321 139.333C54.6297 138.983 54.2709 138.526 54.0556 137.96L55.159 137.489C55.3205 137.884 55.5537 138.194 55.8587 138.418C56.1727 138.633 56.5135 138.741 56.8813 138.741C57.276 138.741 57.6034 138.656 57.8636 138.485C58.1327 138.315 58.2673 138.113 58.2673 137.88C58.2673 137.458 57.9443 137.149 57.2985 136.951L56.1682 136.669C54.8854 136.346 54.244 135.727 54.244 134.812C54.244 134.211 54.4862 133.731 54.9706 133.372C55.464 133.004 56.0919 132.82 56.8544 132.82C57.4375 132.82 57.9623 132.959 58.4287 133.237C58.9042 133.515 59.2361 133.888 59.4245 134.354L58.3211 134.812C58.1955 134.534 57.9892 134.318 57.7021 134.166C57.424 134.004 57.1101 133.924 56.7602 133.924C56.4373 133.924 56.1457 134.004 55.8856 134.166C55.6344 134.327 55.5088 134.525 55.5088 134.758C55.5088 135.135 55.8632 135.404 56.5718 135.565L57.5676 135.821C58.8773 136.144 59.5321 136.803 59.5321 137.799ZM69.4599 133.036L65.3289 142.535H64.0506L65.5846 139.212L62.8665 133.036H64.2121L66.1766 137.772H66.2036L68.1143 133.036H69.4599ZM69.6283 136.332C69.6283 135.319 69.9467 134.48 70.5836 133.816C71.2295 133.152 72.0413 132.82 73.0191 132.82C73.9969 132.82 74.8042 133.152 75.4412 133.816C76.087 134.48 76.41 135.319 76.41 136.332C76.41 137.355 76.087 138.194 75.4412 138.848C74.8042 139.512 73.9969 139.844 73.0191 139.844C72.0413 139.844 71.2295 139.512 70.5836 138.848C69.9467 138.185 69.6283 137.346 69.6283 136.332ZM70.8662 136.332C70.8662 137.041 71.0725 137.615 71.4852 138.055C71.8978 138.494 72.4091 138.714 73.0191 138.714C73.6291 138.714 74.1404 138.494 74.5531 138.055C74.9657 137.615 75.172 137.041 75.172 136.332C75.172 135.633 74.9657 135.063 74.5531 134.623C74.1315 134.175 73.6201 133.951 73.0191 133.951C72.4181 133.951 71.9068 134.175 71.4852 134.623C71.0725 135.063 70.8662 135.633 70.8662 136.332ZM83.2548 139.629H82.0706V138.714H82.0168C81.8284 139.037 81.5369 139.306 81.1422 139.521C80.7565 139.737 80.3528 139.844 79.9312 139.844C79.1238 139.844 78.5004 139.615 78.0608 139.158C77.6302 138.691 77.4149 138.032 77.4149 137.18V133.036H78.6529V137.099C78.6798 138.176 79.2225 138.714 80.281 138.714C80.7744 138.714 81.1871 138.517 81.519 138.122C81.8509 137.718 82.0168 137.238 82.0168 136.682V133.036H83.2548V139.629ZM88.6198 137.611C88.6198 137.933 88.7544 138.203 89.0235 138.418C89.3016 138.633 89.6245 138.741 89.9923 138.741C90.5126 138.741 90.9746 138.548 91.3783 138.162C91.7909 137.776 91.9972 137.323 91.9972 136.803C91.6115 136.498 91.0733 136.346 90.3825 136.346C89.8802 136.346 89.4586 136.467 89.1177 136.709C88.7858 136.951 88.6198 137.252 88.6198 137.611ZM90.2211 132.82C91.1361 132.82 91.8582 133.067 92.3874 133.56C92.9167 134.045 93.1813 134.713 93.1813 135.565V139.629H91.9972V138.714H91.9434C91.4321 139.467 90.7503 139.844 89.8981 139.844C89.1715 139.844 88.5615 139.629 88.0681 139.198C87.5837 138.768 87.3415 138.23 87.3415 137.584C87.3415 136.902 87.5972 136.359 88.1085 135.955C88.6288 135.552 89.3195 135.35 90.1807 135.35C90.9163 135.35 91.5218 135.485 91.9972 135.754V135.471C91.9972 135.04 91.8268 134.677 91.4859 134.381C91.145 134.076 90.7458 133.924 90.2883 133.924C89.5976 133.924 89.0504 134.215 88.6467 134.798L87.5568 134.112C88.1578 133.251 89.0459 132.82 90.2211 132.82ZM95.8155 129.995V139.629H94.5776V129.995H95.8155ZM98.5619 139.629H97.3239V133.036H98.508V134.112H98.5619C98.6874 133.762 98.9431 133.466 99.3288 133.224C99.7235 132.973 100.109 132.847 100.486 132.847C100.845 132.847 101.15 132.901 101.401 133.009L101.024 134.206C100.872 134.143 100.63 134.112 100.298 134.112C99.8312 134.112 99.423 134.3 99.0732 134.677C98.7323 135.054 98.5619 135.493 98.5619 135.996V139.629ZM104.765 139.844C103.796 139.844 102.998 139.512 102.37 138.848C101.742 138.185 101.428 137.346 101.428 136.332C101.428 135.328 101.733 134.493 102.343 133.829C102.953 133.157 103.733 132.82 104.684 132.82C105.662 132.82 106.438 133.139 107.012 133.776C107.595 134.404 107.887 135.287 107.887 136.426L107.873 136.561H102.693C102.711 137.207 102.926 137.727 103.339 138.122C103.751 138.517 104.245 138.714 104.819 138.714C105.608 138.714 106.227 138.319 106.676 137.53L107.779 138.068C107.483 138.624 107.071 139.059 106.541 139.373C106.021 139.687 105.429 139.844 104.765 139.844ZM102.787 135.538H106.568C106.532 135.081 106.344 134.704 106.003 134.408C105.671 134.103 105.223 133.951 104.657 133.951C104.191 133.951 103.787 134.094 103.446 134.381C103.115 134.668 102.895 135.054 102.787 135.538ZM109.986 137.611C109.986 137.933 110.121 138.203 110.39 138.418C110.668 138.633 110.991 138.741 111.359 138.741C111.879 138.741 112.341 138.548 112.745 138.162C113.157 137.776 113.364 137.323 113.364 136.803C112.978 136.498 112.44 136.346 111.749 136.346C111.246 136.346 110.825 136.467 110.484 136.709C110.152 136.951 109.986 137.252 109.986 137.611ZM111.587 132.82C112.502 132.82 113.224 133.067 113.754 133.56C114.283 134.045 114.548 134.713 114.548 135.565V139.629H113.364V138.714H113.31C112.798 139.467 112.117 139.844 111.264 139.844C110.538 139.844 109.928 139.629 109.434 139.198C108.95 138.768 108.708 138.23 108.708 137.584C108.708 136.902 108.963 136.359 109.475 135.955C109.995 135.552 110.686 135.35 111.547 135.35C112.283 135.35 112.888 135.485 113.364 135.754V135.471C113.364 135.04 113.193 134.677 112.852 134.381C112.511 134.076 112.112 133.924 111.655 133.924C110.964 133.924 110.417 134.215 110.013 134.798L108.923 134.112C109.524 133.251 110.412 132.82 111.587 132.82ZM118.838 138.714C119.448 138.714 119.946 138.494 120.332 138.055C120.736 137.615 120.938 137.041 120.938 136.332C120.938 135.642 120.736 135.072 120.332 134.623C119.937 134.175 119.439 133.951 118.838 133.951C118.246 133.951 117.749 134.175 117.345 134.623C116.941 135.072 116.739 135.642 116.739 136.332C116.739 137.032 116.941 137.602 117.345 138.041C117.749 138.49 118.246 138.714 118.838 138.714ZM118.637 139.844C117.775 139.844 117.035 139.503 116.416 138.822C115.806 138.131 115.501 137.301 115.501 136.332C115.501 135.363 115.806 134.534 116.416 133.843C117.035 133.161 117.775 132.82 118.637 132.82C119.121 132.82 119.561 132.923 119.955 133.13C120.359 133.336 120.668 133.61 120.884 133.951H120.938L120.884 133.036V129.995H122.122V139.629H120.938V138.714H120.884C120.668 139.055 120.359 139.328 119.955 139.535C119.561 139.741 119.121 139.844 118.637 139.844ZM129.525 133.036L125.394 142.535H124.115L125.649 139.212L122.931 133.036H124.277L126.241 137.772H126.268L128.179 133.036H129.525ZM139.075 139.629H137.891V138.714H137.837C137.649 139.037 137.357 139.306 136.963 139.521C136.577 139.737 136.173 139.844 135.752 139.844C134.944 139.844 134.321 139.615 133.881 139.158C133.451 138.691 133.235 138.032 133.235 137.18V133.036H134.473V137.099C134.5 138.176 135.043 138.714 136.101 138.714C136.595 138.714 137.008 138.517 137.339 138.122C137.671 137.718 137.837 137.238 137.837 136.682V133.036H139.075V139.629ZM145.562 137.799C145.562 138.373 145.311 138.857 144.809 139.252C144.307 139.647 143.674 139.844 142.912 139.844C142.248 139.844 141.665 139.674 141.162 139.333C140.66 138.983 140.301 138.526 140.086 137.96L141.189 137.489C141.351 137.884 141.584 138.194 141.889 138.418C142.203 138.633 142.544 138.741 142.912 138.741C143.306 138.741 143.634 138.656 143.894 138.485C144.163 138.315 144.298 138.113 144.298 137.88C144.298 137.458 143.975 137.149 143.329 136.951L142.198 136.669C140.916 136.346 140.274 135.727 140.274 134.812C140.274 134.211 140.516 133.731 141.001 133.372C141.494 133.004 142.122 132.82 142.885 132.82C143.468 132.82 143.993 132.959 144.459 133.237C144.934 133.515 145.266 133.888 145.455 134.354L144.351 134.812C144.226 134.534 144.019 134.318 143.732 134.166C143.454 134.004 143.14 133.924 142.79 133.924C142.468 133.924 142.176 134.004 141.916 134.166C141.665 134.327 141.539 134.525 141.539 134.758C141.539 135.135 141.893 135.404 142.602 135.565L143.598 135.821C144.908 136.144 145.562 136.803 145.562 137.799ZM149.666 139.844C148.697 139.844 147.899 139.512 147.271 138.848C146.643 138.185 146.329 137.346 146.329 136.332C146.329 135.328 146.634 134.493 147.244 133.829C147.854 133.157 148.634 132.82 149.585 132.82C150.563 132.82 151.339 133.139 151.913 133.776C152.496 134.404 152.788 135.287 152.788 136.426L152.774 136.561H147.594C147.612 137.207 147.827 137.727 148.24 138.122C148.652 138.517 149.146 138.714 149.72 138.714C150.509 138.714 151.128 138.319 151.577 137.53L152.68 138.068C152.384 138.624 151.971 139.059 151.442 139.373C150.922 139.687 150.33 139.844 149.666 139.844ZM147.688 135.538H151.469C151.433 135.081 151.245 134.704 150.904 134.408C150.572 134.103 150.123 133.951 149.558 133.951C149.092 133.951 148.688 134.094 148.347 134.381C148.015 134.668 147.796 135.054 147.688 135.538Z" fill="#060606"/>
</svg>
