<svg width="52" height="56" viewBox="0 0 52 56" fill="none" xmlns="http://www.w3.org/2000/svg">
<path d="M13.104 10.8352C13.0594 9.83615 13.215 8.83831 13.5616 7.90033C13.9083 6.96234 14.439 6.10315 15.1226 5.37328C15.8062 4.64341 16.6288 4.0576 17.5421 3.65031C18.4554 3.24302 19.441 3.02247 20.4407 3.00163C21.4405 2.98079 22.4344 3.16008 23.3638 3.52896C24.2933 3.89784 25.1397 4.44886 25.8531 5.14962C26.5665 5.85037 27.1325 6.6867 27.518 7.60943C27.9034 8.53215 28.1005 9.52264 28.0975 10.5226V43.0249M13.104 10.8352C11.6344 11.213 10.27 11.9204 9.11427 12.9036C7.95851 13.8868 7.04165 15.1201 6.43311 16.5102C5.82458 17.9002 5.54034 19.4105 5.60192 20.9267C5.66349 22.4428 6.06928 23.9251 6.78853 25.2612M13.104 10.8352C13.1534 12.0446 13.4948 13.2241 14.099 14.2729M6.78853 25.2612C5.52389 26.2886 4.52943 27.6094 3.89167 29.1088C3.25391 30.6082 2.99215 32.2407 3.12918 33.8643C3.2662 35.4879 3.79786 37.0534 4.67789 38.4247C5.55793 39.7959 6.75969 40.9314 8.17863 41.7324M6.78853 25.2612C7.24591 24.8887 7.73535 24.5599 8.25113 24.2736M8.17863 41.7324C8.00341 43.088 8.10797 44.4653 8.48587 45.7789C8.86376 47.0926 9.50696 48.3149 10.3757 49.3703C11.2445 50.4257 12.3204 51.2917 13.5371 51.915C14.7537 52.5382 16.0851 52.9055 17.4492 52.994C18.8133 53.0825 20.1811 52.8904 21.468 52.4296C22.755 51.9688 23.9338 51.2491 24.9317 50.3149C25.9296 49.3806 26.7254 48.2517 27.2699 46.9979C27.8144 45.7441 28.0961 44.3919 28.0975 43.0249M8.17863 41.7324C9.6794 42.5789 11.3734 43.0257 13.0965 43.0249M28.0975 43.0249H43.0986C44.4248 43.0249 45.6966 43.5518 46.6344 44.4895C47.5721 45.4273 48.099 46.6991 48.099 48.0253V50.5255M20.597 30.5241C22.696 29.7856 24.529 28.4414 25.8641 26.6613C27.1991 24.8812 27.9764 22.7452 28.0975 20.5233M28.0975 30.5241H38.0983M28.0975 18.0232H48.099M38.0983 18.0232V10.5226C38.0983 9.19646 38.6251 7.9246 39.5628 6.98685C40.5006 6.0491 41.7724 5.52228 43.0986 5.52228M39.3483 30.5241C39.3483 31.2145 38.7887 31.7741 38.0983 31.7741C37.4078 31.7741 36.8482 31.2145 36.8482 30.5241C36.8482 29.8336 37.4078 29.274 38.0983 29.274C38.7887 29.274 39.3483 29.8336 39.3483 30.5241ZM44.3487 5.52228C44.3487 6.21268 43.789 6.77237 43.0986 6.77237C42.4082 6.77237 41.8485 6.21268 41.8485 5.52228C41.8485 4.83187 42.4082 4.27219 43.0986 4.27219C43.789 4.27219 44.3487 4.83187 44.3487 5.52228ZM49.3491 50.5255C49.3491 51.2159 48.7894 51.7756 48.099 51.7756C47.4086 51.7756 46.8489 51.2159 46.8489 50.5255C46.8489 49.8351 47.4086 49.2754 48.099 49.2754C48.7894 49.2754 49.3491 49.8351 49.3491 50.5255ZM49.3491 18.0232C49.3491 18.7136 48.7894 19.2733 48.099 19.2733C47.4086 19.2733 46.8489 18.7136 46.8489 18.0232C46.8489 17.3328 47.4086 16.7731 48.099 16.7731C48.7894 16.7731 49.3491 17.3328 49.3491 18.0232Z" stroke="#97E42A" stroke-width="4.44652" stroke-linecap="round" stroke-linejoin="round"/>
</svg>
