<svg width="50" height="51" viewBox="0 0 50 51" fill="none" xmlns="http://www.w3.org/2000/svg">
<path d="M12.7095 23.0129V33.0136C12.7095 34.3398 13.2363 35.6116 14.174 36.5494C15.1118 37.4871 16.3836 38.014 17.7098 38.014H27.7105M7.7091 3.01147H17.7098C20.4714 3.01147 22.7102 5.25021 22.7102 8.01183V18.0125C22.7102 20.7742 20.4714 23.0129 17.7098 23.0129H7.7091C4.94748 23.0129 2.70874 20.7742 2.70874 18.0125V8.01183C2.70874 5.25021 4.94748 3.01147 7.7091 3.01147ZM32.7109 28.0133H42.7116C45.4732 28.0133 47.7119 30.252 47.7119 33.0136V43.0143C47.7119 45.7759 45.4732 48.0147 42.7116 48.0147H32.7109C29.9493 48.0147 27.7105 45.7759 27.7105 43.0143V33.0136C27.7105 30.252 29.9493 28.0133 32.7109 28.0133Z" stroke="#97E42A" stroke-width="4.44652" stroke-linecap="round" stroke-linejoin="round"/>
</svg>
