<svg width="51" height="56" viewBox="0 0 51 56" fill="none" xmlns="http://www.w3.org/2000/svg">
<path d="M47.8689 10.5005C47.8689 14.643 37.7946 18.0011 25.3673 18.0011C12.94 18.0011 2.86572 14.643 2.86572 10.5005M47.8689 10.5005C47.8689 6.3581 37.7946 3 25.3673 3C12.94 3 2.86572 6.3581 2.86572 10.5005M47.8689 10.5005V45.503C47.8689 47.4923 45.4982 49.4001 41.2784 50.8067C37.0585 52.2133 31.3351 53.0036 25.3673 53.0036C19.3995 53.0036 13.6762 52.2133 9.45629 50.8067C5.23642 49.4001 2.86572 47.4923 2.86572 45.503V10.5005M2.86572 28.0018C2.86572 29.991 5.23642 31.8988 9.45629 33.3055C13.6762 34.7121 19.3995 35.5023 25.3673 35.5023C31.3351 35.5023 37.0585 34.7121 41.2784 33.3055C45.4982 31.8988 47.8689 29.991 47.8689 28.0018" stroke="#97E42A" stroke-width="4.44652" stroke-linecap="round" stroke-linejoin="round"/>
</svg>
