<svg width="55" height="56" viewBox="0 0 55 56" fill="none" xmlns="http://www.w3.org/2000/svg">
<path d="M27.4805 13.0007V3H17.4798M2.47876 28.0018H7.47912M19.98 25.5016V30.502M34.9811 25.5016V30.502M47.482 28.0018H52.4823M17.4798 43.0028L7.47912 53.0036V18.0011C7.47912 16.6749 8.00594 15.403 8.94368 14.4653C9.88143 13.5275 11.1533 13.0007 12.4795 13.0007H42.4816C43.8078 13.0007 45.0796 13.5275 46.0174 14.4653C46.9551 15.403 47.482 16.6749 47.482 18.0011V38.0025C47.482 39.3287 46.9551 40.6005 46.0174 41.5383C45.0796 42.476 43.8078 43.0028 42.4816 43.0028H17.4798Z" stroke="#97E42A" stroke-width="4.44652" stroke-linecap="round" stroke-linejoin="round"/>
</svg>
