<svg width="317" height="400" viewBox="0 0 317 400" fill="none" xmlns="http://www.w3.org/2000/svg">
<rect x="316.938" width="399.265" height="316.939" rx="30.2979" transform="rotate(90 316.938 0)" fill="#F8F8F8"/>
<path d="M42.3271 61.3231C41.1764 61.3231 40.0756 61.1605 39.0249 60.8352C37.9742 60.51 37.011 60.0222 36.1354 59.3717C35.2598 58.7213 34.4968 57.9333 33.8464 57.0076C33.1959 56.057 32.6831 54.9562 32.3078 53.7054L37.0736 51.8291C37.4238 53.18 38.0367 54.3058 38.9123 55.2064C39.7879 56.082 40.9387 56.5198 42.3647 56.5198C42.89 56.5198 43.3904 56.4573 43.8657 56.3322C44.366 56.1821 44.8038 55.9819 45.1791 55.7318C45.5794 55.4566 45.8921 55.1189 46.1172 54.7186C46.3424 54.3183 46.4549 53.8555 46.4549 53.3301C46.4549 52.8298 46.3674 52.3795 46.1923 51.9792C46.0171 51.5789 45.7169 51.2037 45.2917 50.8535C44.8914 50.5032 44.3535 50.1655 43.6781 49.8403C43.0276 49.515 42.2146 49.1773 41.2389 48.8271L39.5878 48.2267C38.8623 47.9765 38.1243 47.6388 37.3738 47.2135C36.6483 46.7882 35.9853 46.2753 35.3849 45.6749C34.7845 45.0745 34.2842 44.3741 33.8839 43.5735C33.5087 42.7479 33.321 41.8223 33.321 40.7966C33.321 39.7459 33.5212 38.7702 33.9214 37.8696C34.3467 36.944 34.9346 36.1435 35.6851 35.468C36.4607 34.7675 37.3738 34.2297 38.4245 33.8544C39.5002 33.4541 40.6885 33.254 41.9894 33.254C43.3403 33.254 44.5036 33.4416 45.4793 33.8169C46.48 34.1671 47.318 34.6299 47.9935 35.2053C48.694 35.7557 49.2568 36.3686 49.6821 37.0441C50.1074 37.7195 50.4201 38.3575 50.6203 38.9579L46.1547 40.8341C45.9046 40.0836 45.4418 39.4082 44.7663 38.8078C44.1159 38.2074 43.2152 37.9072 42.0645 37.9072C40.9637 37.9072 40.0506 38.1698 39.3251 38.6952C38.5996 39.1955 38.2369 39.8585 38.2369 40.684C38.2369 41.4846 38.5871 42.1726 39.2876 42.7479C39.9881 43.2983 41.1013 43.8362 42.6273 44.3615L44.316 44.9244C45.3917 45.2997 46.3674 45.7375 47.243 46.2378C48.1436 46.7131 48.9066 47.2885 49.532 47.964C50.1825 48.6395 50.6703 49.415 50.9955 50.2906C51.3458 51.1411 51.5209 52.1293 51.5209 53.2551C51.5209 54.656 51.2332 55.8694 50.6578 56.8951C50.1074 57.8957 49.3944 58.7213 48.5188 59.3717C47.6433 60.0222 46.6551 60.51 45.5543 60.8352C44.4536 61.1605 43.3779 61.3231 42.3271 61.3231ZM56.1667 46.538H52.9395V42.3352H56.1667V36.7063H61.0826V42.3352H65.5856V46.538H61.0826V53.6679C61.0826 54.0932 61.1201 54.4934 61.1951 54.8687C61.2952 55.2189 61.4703 55.5191 61.7205 55.7693C62.0707 56.1696 62.5711 56.3697 63.2215 56.3697C63.6468 56.3697 63.9845 56.3322 64.2347 56.2571C64.4849 56.1571 64.7225 56.032 64.9477 55.8819L66.3361 60.1973C65.7607 60.4725 65.1353 60.6726 64.4598 60.7977C63.8094 60.9478 63.0839 61.0229 62.2834 61.0229C61.3577 61.0229 60.5197 60.8853 59.7692 60.6101C59.0437 60.3099 58.4308 59.9096 57.9304 59.4093C56.7546 58.2835 56.1667 56.6824 56.1667 54.606V46.538ZM80.1681 58.7713H79.8679C79.2925 59.4718 78.592 60.0722 77.7664 60.5726C76.9659 61.0729 75.9277 61.3231 74.6518 61.3231C73.7012 61.3231 72.8006 61.1605 71.95 60.8352C71.1244 60.535 70.3989 60.1097 69.7735 59.5594C69.1481 59.009 68.6603 58.346 68.31 57.5705C67.9598 56.795 67.7847 55.9444 67.7847 55.0188C67.7847 54.0681 67.9723 53.2176 68.3475 52.467C68.7228 51.6915 69.2482 51.0286 69.9236 50.4782C70.5991 49.9278 71.3871 49.515 72.2877 49.2399C73.2133 48.9397 74.214 48.7896 75.2898 48.7896C76.4906 48.7896 77.4787 48.8896 78.2543 49.0898C79.0298 49.2649 79.6677 49.4525 80.1681 49.6526V49.0898C80.1681 48.1141 79.7803 47.3136 79.0048 46.6881C78.2293 46.0377 77.2661 45.7125 76.1153 45.7125C74.4142 45.7125 72.9757 46.4254 71.7999 47.8514L68.235 45.4123C70.1863 42.9606 72.8506 41.7348 76.2279 41.7348C79.0798 41.7348 81.2563 42.4102 82.7573 43.7611C84.2583 45.087 85.0089 47.0634 85.0089 49.6902V60.7227H80.1681V58.7713ZM80.1681 53.2551C79.5927 52.9799 78.9923 52.7673 78.3668 52.6172C77.7664 52.442 77.1035 52.3545 76.378 52.3545C75.2022 52.3545 74.2891 52.6172 73.6386 53.1425C73.0132 53.6428 72.7005 54.2683 72.7005 55.0188C72.7005 55.7693 73.0007 56.3697 73.6011 56.82C74.2265 57.2703 74.9395 57.4955 75.7401 57.4955C76.3905 57.4955 76.9909 57.3829 77.5413 57.1577C78.0917 56.9076 78.5545 56.5949 78.9297 56.2196C79.33 55.8193 79.6302 55.369 79.8303 54.8687C80.0555 54.3433 80.1681 53.8055 80.1681 53.2551ZM94.3298 59.822L86.5996 42.3352H92.1909L96.844 53.4802H97.1067L101.572 42.3352H107.051L95.5307 68.8282H90.2396L94.3298 59.822ZM125.22 61.3231C124.07 61.3231 122.969 61.1605 121.918 60.8352C120.867 60.51 119.904 60.0222 119.029 59.3717C118.153 58.7213 117.39 57.9333 116.74 57.0076C116.089 56.057 115.576 54.9562 115.201 53.7054L119.967 51.8291C120.317 53.18 120.93 54.3058 121.806 55.2064C122.681 56.082 123.832 56.5198 125.258 56.5198C125.783 56.5198 126.284 56.4573 126.759 56.3322C127.259 56.1821 127.697 55.9819 128.072 55.7318C128.473 55.4566 128.785 55.1189 129.01 54.7186C129.236 54.3183 129.348 53.8555 129.348 53.3301C129.348 52.8298 129.261 52.3795 129.085 51.9792C128.91 51.5789 128.61 51.2037 128.185 50.8535C127.785 50.5032 127.247 50.1655 126.571 49.8403C125.921 49.515 125.108 49.1773 124.132 48.8271L122.481 48.2267C121.755 47.9765 121.017 47.6388 120.267 47.2135C119.541 46.7882 118.879 46.2753 118.278 45.6749C117.678 45.0745 117.177 44.3741 116.777 43.5735C116.402 42.7479 116.214 41.8223 116.214 40.7966C116.214 39.7459 116.414 38.7702 116.815 37.8696C117.24 36.944 117.828 36.1435 118.578 35.468C119.354 34.7675 120.267 34.2297 121.318 33.8544C122.393 33.4541 123.582 33.254 124.883 33.254C126.234 33.254 127.397 33.4416 128.372 33.8169C129.373 34.1671 130.211 34.6299 130.887 35.2053C131.587 35.7557 132.15 36.3686 132.575 37.0441C133.001 37.7195 133.313 38.3575 133.513 38.9579L129.048 40.8341C128.798 40.0836 128.335 39.4082 127.66 38.8078C127.009 38.2074 126.108 37.9072 124.958 37.9072C123.857 37.9072 122.944 38.1698 122.218 38.6952C121.493 39.1955 121.13 39.8585 121.13 40.684C121.13 41.4846 121.48 42.1726 122.181 42.7479C122.881 43.2983 123.995 43.8362 125.521 44.3615L127.209 44.9244C128.285 45.2997 129.261 45.7375 130.136 46.2378C131.037 46.7131 131.8 47.2885 132.425 47.964C133.076 48.6395 133.564 49.415 133.889 50.2906C134.239 51.1411 134.414 52.1293 134.414 53.2551C134.414 54.656 134.126 55.8694 133.551 56.8951C133.001 57.8957 132.288 58.7213 131.412 59.3717C130.536 60.0222 129.548 60.51 128.448 60.8352C127.347 61.1605 126.271 61.3231 125.22 61.3231ZM149.319 58.7713H149.019C148.443 59.4718 147.743 60.0722 146.917 60.5726C146.117 61.0729 145.079 61.3231 143.803 61.3231C142.852 61.3231 141.952 61.1605 141.101 60.8352C140.275 60.535 139.55 60.1097 138.924 59.5594C138.299 59.009 137.811 58.346 137.461 57.5705C137.111 56.795 136.936 55.9444 136.936 55.0188C136.936 54.0681 137.123 53.2176 137.499 52.467C137.874 51.6915 138.399 51.0286 139.075 50.4782C139.75 49.9278 140.538 49.515 141.439 49.2399C142.364 48.9397 143.365 48.7896 144.441 48.7896C145.642 48.7896 146.63 48.8896 147.405 49.0898C148.181 49.2649 148.819 49.4525 149.319 49.6526V49.0898C149.319 48.1141 148.931 47.3136 148.156 46.6881C147.38 46.0377 146.417 45.7125 145.266 45.7125C143.565 45.7125 142.127 46.4254 140.951 47.8514L137.386 45.4123C139.337 42.9606 142.002 41.7348 145.379 41.7348C148.231 41.7348 150.407 42.4102 151.908 43.7611C153.409 45.087 154.16 47.0634 154.16 49.6902V60.7227H149.319V58.7713ZM149.319 53.2551C148.744 52.9799 148.143 52.7673 147.518 52.6172C146.917 52.442 146.254 52.3545 145.529 52.3545C144.353 52.3545 143.44 52.6172 142.79 53.1425C142.164 53.6428 141.851 54.2683 141.851 55.0188C141.851 55.7693 142.152 56.3697 142.752 56.82C143.377 57.2703 144.09 57.4955 144.891 57.4955C145.541 57.4955 146.142 57.3829 146.692 57.1577C147.243 56.9076 147.705 56.5949 148.081 56.2196C148.481 55.8193 148.781 55.369 148.981 54.8687C149.206 54.3433 149.319 53.8055 149.319 53.2551ZM166.783 33.5542C167.484 33.5542 168.134 33.6167 168.734 33.7418C169.335 33.8669 169.873 34.0295 170.348 34.2297L168.96 38.6201C168.709 38.4951 168.434 38.395 168.134 38.3199C167.859 38.2449 167.509 38.2074 167.083 38.2074C166.358 38.2074 165.782 38.445 165.357 38.9203C164.932 39.3707 164.719 40.0086 164.719 40.8341V42.3352H169.297V46.538H164.719V60.7227H159.803V46.538H156.501V42.3352H159.803V40.5339C159.803 39.4082 159.966 38.42 160.291 37.5694C160.641 36.6938 161.129 35.9683 161.755 35.393C162.38 34.7925 163.118 34.3422 163.969 34.042C164.819 33.7168 165.757 33.5542 166.783 33.5542ZM188.893 56.2946C188.042 57.7957 186.891 59.009 185.44 59.9346C184.014 60.8602 182.263 61.3231 180.187 61.3231C178.786 61.3231 177.485 61.0854 176.284 60.6101C175.108 60.1097 174.083 59.4218 173.207 58.5462C172.331 57.6706 171.643 56.6449 171.143 55.4691C170.668 54.2683 170.43 52.9549 170.43 51.5289C170.43 50.203 170.668 48.9522 171.143 47.7764C171.618 46.5755 172.281 45.5373 173.132 44.6617C173.982 43.7611 174.983 43.0482 176.134 42.5228C177.31 41.9974 178.598 41.7348 179.999 41.7348C181.475 41.7348 182.788 41.9849 183.939 42.4853C185.09 42.9606 186.053 43.6361 186.829 44.5116C187.604 45.3622 188.192 46.3754 188.592 47.5512C188.993 48.727 189.193 50.0029 189.193 51.3788C189.193 51.5539 189.193 51.704 189.193 51.8291C189.168 51.9792 189.155 52.1168 189.155 52.2419C189.13 52.367 189.118 52.5046 189.118 52.6547H175.271C175.371 53.4052 175.571 54.0556 175.871 54.606C176.196 55.1314 176.584 55.5817 177.035 55.9569C177.51 56.3072 178.023 56.5698 178.573 56.745C179.123 56.8951 179.686 56.9701 180.262 56.9701C181.387 56.9701 182.313 56.7199 183.039 56.2196C183.789 55.6942 184.377 55.0438 184.802 54.2683L188.893 56.2946ZM184.427 49.1648C184.402 48.8396 184.289 48.4768 184.089 48.0766C183.914 47.6763 183.639 47.301 183.264 46.9508C182.914 46.6006 182.463 46.3129 181.913 46.0877C181.387 45.8626 180.75 45.75 179.999 45.75C178.948 45.75 178.023 46.0502 177.222 46.6506C176.422 47.251 175.859 48.0891 175.534 49.1648H184.427ZM211.91 58.7713H211.61C211.035 59.4718 210.334 60.0722 209.509 60.5726C208.708 61.0729 207.67 61.3231 206.394 61.3231C205.443 61.3231 204.543 61.1605 203.692 60.8352C202.867 60.535 202.141 60.1097 201.516 59.5594C200.89 59.009 200.403 58.346 200.052 57.5705C199.702 56.795 199.527 55.9444 199.527 55.0188C199.527 54.0681 199.715 53.2176 200.09 52.467C200.465 51.6915 200.99 51.0286 201.666 50.4782C202.341 49.9278 203.129 49.515 204.03 49.2399C204.956 48.9397 205.956 48.7896 207.032 48.7896C208.233 48.7896 209.221 48.8896 209.997 49.0898C210.772 49.2649 211.41 49.4525 211.91 49.6526V49.0898C211.91 48.1141 211.523 47.3136 210.747 46.6881C209.972 46.0377 209.008 45.7125 207.858 45.7125C206.156 45.7125 204.718 46.4254 203.542 47.8514L199.977 45.4123C201.929 42.9606 204.593 41.7348 207.97 41.7348C210.822 41.7348 212.999 42.4102 214.5 43.7611C216.001 45.087 216.751 47.0634 216.751 49.6902V60.7227H211.91V58.7713ZM211.91 53.2551C211.335 52.9799 210.735 52.7673 210.109 52.6172C209.509 52.442 208.846 52.3545 208.12 52.3545C206.944 52.3545 206.031 52.6172 205.381 53.1425C204.756 53.6428 204.443 54.2683 204.443 55.0188C204.443 55.7693 204.743 56.3697 205.343 56.82C205.969 57.2703 206.682 57.4955 207.482 57.4955C208.133 57.4955 208.733 57.3829 209.284 57.1577C209.834 56.9076 210.297 56.5949 210.672 56.2196C211.072 55.8193 211.373 55.369 211.573 54.8687C211.798 54.3433 211.91 53.8055 211.91 53.2551ZM225.275 44.7368H225.576C226.151 43.8112 226.926 43.0857 227.902 42.5603C228.878 42.0099 229.991 41.7348 231.242 41.7348C232.393 41.7348 233.406 41.9224 234.281 42.2976C235.157 42.6729 235.87 43.2108 236.42 43.9112C236.996 44.5867 237.421 45.4123 237.696 46.3879C237.996 47.3386 238.147 48.4018 238.147 49.5776V60.7227H233.231V50.178C233.231 48.8521 232.931 47.8764 232.33 47.251C231.755 46.6006 230.904 46.2753 229.778 46.2753C229.103 46.2753 228.502 46.4254 227.977 46.7257C227.477 47.0008 227.039 47.3886 226.664 47.8889C226.314 48.3643 226.038 48.9397 225.838 49.6151C225.663 50.2656 225.576 50.966 225.576 51.7165V60.7227H220.66V42.3352H225.275V44.7368ZM255.904 58.5087H255.604C255.154 59.2842 254.453 59.9471 253.503 60.4975C252.552 61.0479 251.376 61.3231 249.975 61.3231C248.799 61.3231 247.674 61.0854 246.598 60.6101C245.547 60.1097 244.609 59.4343 243.784 58.5837C242.983 57.7081 242.345 56.6699 241.87 55.4691C241.394 54.2683 241.157 52.9549 241.157 51.5289C241.157 50.1029 241.394 48.7896 241.87 47.5887C242.345 46.3879 242.983 45.3622 243.784 44.5116C244.609 43.6361 245.547 42.9606 246.598 42.4853C247.674 41.9849 248.799 41.7348 249.975 41.7348C251.376 41.7348 252.552 42.0099 253.503 42.5603C254.453 43.1107 255.154 43.7736 255.604 44.5492H255.904L255.604 41.9224V33.8544H260.52V60.7227H255.904V58.5087ZM250.988 56.7825C251.639 56.7825 252.252 56.6699 252.827 56.4448C253.428 56.1946 253.953 55.8443 254.403 55.394C254.854 54.9437 255.216 54.3934 255.492 53.7429C255.767 53.0925 255.904 52.3545 255.904 51.5289C255.904 50.7034 255.767 49.9654 255.492 49.3149C255.216 48.6645 254.854 48.1141 254.403 47.6638C253.953 47.2135 253.428 46.8758 252.827 46.6506C252.252 46.4004 251.639 46.2753 250.988 46.2753C250.338 46.2753 249.713 46.4004 249.112 46.6506C248.537 46.9008 248.024 47.251 247.574 47.7013C247.123 48.1516 246.761 48.702 246.485 49.3524C246.21 50.0029 246.073 50.7284 246.073 51.5289C246.073 52.3295 246.21 53.0549 246.485 53.7054C246.761 54.3558 247.123 54.9062 247.574 55.3565C248.024 55.8068 248.537 56.1571 249.112 56.4072C249.713 56.6574 250.338 56.7825 250.988 56.7825ZM57.6 94.4072C56.2741 96.0083 54.7106 97.2341 52.9093 98.0847C51.1081 98.9103 49.0942 99.3231 46.8677 99.3231C44.8664 99.3231 43.0026 98.9603 41.2764 98.2348C39.5753 97.5093 38.0993 96.5212 36.8484 95.2703C35.5976 94.0195 34.6094 92.5435 33.8839 90.8423C33.1584 89.1161 32.7957 87.2649 32.7957 85.2885C32.7957 83.3122 33.1584 81.4734 33.8839 79.7723C34.6094 78.0461 35.5976 76.5576 36.8484 75.3068C38.0993 74.0559 39.5753 73.0677 41.2764 72.3422C43.0026 71.6167 44.8664 71.254 46.8677 71.254C49.0192 71.254 50.908 71.6293 52.5341 72.3798C54.1852 73.1303 55.6487 74.2185 56.9246 75.6445L53.3596 79.0968C52.5591 78.1712 51.6335 77.4332 50.5827 76.8828C49.5571 76.3325 48.3312 76.0573 46.9053 76.0573C45.6544 76.0573 44.4786 76.2824 43.3779 76.7327C42.2771 77.158 41.314 77.7709 40.4884 78.5715C39.6879 79.372 39.0499 80.3477 38.5746 81.4985C38.0993 82.6242 37.8616 83.8876 37.8616 85.2885C37.8616 86.6895 38.0993 87.9654 38.5746 89.1161C39.0499 90.2419 39.6879 91.2051 40.4884 92.0056C41.314 92.8061 42.2771 93.4316 43.3779 93.8819C44.4786 94.3072 45.6544 94.5198 46.9053 94.5198C48.4063 94.5198 49.7322 94.2196 50.883 93.6192C52.0588 92.9938 53.097 92.1182 53.9976 90.9924L57.6 94.4072ZM69.0394 79.7348C70.4654 79.7348 71.7663 79.9849 72.9421 80.4853C74.1429 80.9606 75.1686 81.6361 76.0192 82.5116C76.8948 83.3622 77.5702 84.3879 78.0455 85.5887C78.5459 86.7896 78.796 88.1029 78.796 89.5289C78.796 90.9549 78.5459 92.2683 78.0455 93.4691C77.5702 94.6699 76.8948 95.7081 76.0192 96.5837C75.1686 97.4343 74.1429 98.1097 72.9421 98.6101C71.7663 99.0854 70.4654 99.3231 69.0394 99.3231C67.6135 99.3231 66.3001 99.0854 65.0992 98.6101C63.9234 98.1097 62.8978 97.4343 62.0222 96.5837C61.1716 95.7081 60.4961 94.6699 59.9958 93.4691C59.5205 92.2683 59.2828 90.9549 59.2828 89.5289C59.2828 88.1029 59.5205 86.7896 59.9958 85.5887C60.4961 84.3879 61.1716 83.3622 62.0222 82.5116C62.8978 81.6361 63.9234 80.9606 65.0992 80.4853C66.3001 79.9849 67.6135 79.7348 69.0394 79.7348ZM69.0394 94.7825C69.6648 94.7825 70.2653 94.6699 70.8406 94.4448C71.4411 94.1946 71.9664 93.8443 72.4167 93.394C72.867 92.9437 73.2173 92.3934 73.4674 91.7429C73.7426 91.0925 73.8802 90.3545 73.8802 89.5289C73.8802 88.7034 73.7426 87.9654 73.4674 87.3149C73.2173 86.6645 72.867 86.1141 72.4167 85.6638C71.9664 85.2135 71.4411 84.8758 70.8406 84.6506C70.2653 84.4004 69.6648 84.2753 69.0394 84.2753C68.389 84.2753 67.7761 84.4004 67.2007 84.6506C66.6253 84.8758 66.1124 85.2135 65.6621 85.6638C65.2118 86.1141 64.8491 86.6645 64.5739 87.3149C64.3237 87.9654 64.1986 88.7034 64.1986 89.5289C64.1986 90.3545 64.3237 91.0925 64.5739 91.7429C64.8491 92.3934 65.2118 92.9437 65.6621 93.394C66.1124 93.8443 66.6253 94.1946 67.2007 94.4448C67.7761 94.6699 68.389 94.7825 69.0394 94.7825ZM81.5882 80.3352H86.2038V82.7368H86.504C87.0794 81.8362 87.8549 81.1107 88.8306 80.5603C89.8313 80.0099 90.932 79.7348 92.1328 79.7348C93.5338 79.7348 94.7096 80.06 95.6602 80.7104C96.6109 81.3609 97.2863 82.1614 97.6866 83.1121C98.262 82.1864 99.075 81.3984 100.126 80.7479C101.176 80.0725 102.452 79.7348 103.953 79.7348C105.079 79.7348 106.055 79.9224 106.88 80.2976C107.706 80.6479 108.381 81.1482 108.907 81.7987C109.457 82.4491 109.87 83.2371 110.145 84.1628C110.42 85.0634 110.558 86.0516 110.558 87.1273V98.7227H105.642V88.0279C105.642 85.5262 104.616 84.2753 102.565 84.2753C101.914 84.2753 101.339 84.4254 100.839 84.7257C100.338 85.0008 99.9131 85.3886 99.5629 85.8889C99.2377 86.3643 98.975 86.9397 98.7748 87.6151C98.5997 88.2906 98.5122 89.0161 98.5122 89.7916V98.7227H93.5963V88.0279C93.5963 85.5262 92.5206 84.2753 90.3691 84.2753C89.7437 84.2753 89.1933 84.4254 88.718 84.7257C88.2427 85.0008 87.8424 85.3886 87.5172 85.8889C87.192 86.3643 86.9418 86.9397 86.7667 87.6151C86.5916 88.2906 86.504 89.0161 86.504 89.7916V98.7227H81.5882V80.3352ZM114.456 80.3352H119.072V82.5492H119.372C119.822 81.7736 120.523 81.1107 121.473 80.5603C122.424 80.0099 123.6 79.7348 125.001 79.7348C126.177 79.7348 127.29 79.9849 128.341 80.4853C129.416 80.9606 130.354 81.6361 131.155 82.5116C131.981 83.3622 132.631 84.3879 133.106 85.5887C133.582 86.7896 133.819 88.1029 133.819 89.5289C133.819 90.9549 133.582 92.2683 133.106 93.4691C132.631 94.6699 131.981 95.7081 131.155 96.5837C130.354 97.4343 129.416 98.1097 128.341 98.6101C127.29 99.0854 126.177 99.3231 125.001 99.3231C123.6 99.3231 122.424 99.0479 121.473 98.4975C120.523 97.9471 119.822 97.2842 119.372 96.5087H119.072L119.372 99.1354V106.828H114.456V80.3352ZM123.988 94.7825C124.638 94.7825 125.251 94.6574 125.826 94.4072C126.427 94.1571 126.952 93.8068 127.402 93.3565C127.853 92.9062 128.215 92.3558 128.491 91.7054C128.766 91.0549 128.903 90.3295 128.903 89.5289C128.903 88.7284 128.766 88.0029 128.491 87.3524C128.215 86.702 127.853 86.1516 127.402 85.7013C126.952 85.251 126.427 84.9008 125.826 84.6506C125.251 84.4004 124.638 84.2753 123.988 84.2753C123.337 84.2753 122.712 84.4004 122.111 84.6506C121.536 84.8758 121.023 85.2135 120.573 85.6638C120.122 86.1141 119.76 86.6645 119.485 87.3149C119.209 87.9654 119.072 88.7034 119.072 89.5289C119.072 90.3545 119.209 91.0925 119.485 91.7429C119.76 92.3934 120.122 92.9437 120.573 93.394C121.023 93.8443 121.536 94.1946 122.111 94.4448C122.712 94.6699 123.337 94.7825 123.988 94.7825ZM136.594 98.7227V71.8544H141.51V98.7227H136.594ZM148.458 77.6709C148.033 77.6709 147.62 77.5958 147.22 77.4457C146.844 77.2706 146.507 77.0454 146.206 76.7702C145.931 76.47 145.706 76.1323 145.531 75.7571C145.381 75.3818 145.306 74.969 145.306 74.5187C145.306 74.0684 145.381 73.6556 145.531 73.2804C145.706 72.9051 145.931 72.5799 146.206 72.3047C146.507 72.0045 146.844 71.7794 147.22 71.6293C147.62 71.4541 148.033 71.3666 148.458 71.3666C149.334 71.3666 150.084 71.6793 150.71 72.3047C151.335 72.9051 151.648 73.6431 151.648 74.5187C151.648 75.3943 151.335 76.1448 150.71 76.7702C150.084 77.3707 149.334 77.6709 148.458 77.6709ZM146.019 98.7227V80.3352H150.935V98.7227H146.019ZM166.579 96.7713H166.279C165.704 97.4718 165.003 98.0722 164.178 98.5726C163.377 99.0729 162.339 99.3231 161.063 99.3231C160.112 99.3231 159.212 99.1605 158.361 98.8352C157.536 98.535 156.81 98.1097 156.185 97.5594C155.559 97.009 155.071 96.346 154.721 95.5705C154.371 94.795 154.196 93.9444 154.196 93.0188C154.196 92.0681 154.384 91.2176 154.759 90.467C155.134 89.6915 155.659 89.0286 156.335 88.4782C157.01 87.9278 157.798 87.515 158.699 87.2399C159.625 86.9397 160.625 86.7896 161.701 86.7896C162.902 86.7896 163.89 86.8896 164.665 87.0898C165.441 87.2649 166.079 87.4525 166.579 87.6526V87.0898C166.579 86.1141 166.192 85.3136 165.416 84.6881C164.64 84.0377 163.677 83.7125 162.527 83.7125C160.825 83.7125 159.387 84.4254 158.211 85.8514L154.646 83.4123C156.598 80.9606 159.262 79.7348 162.639 79.7348C165.491 79.7348 167.668 80.4102 169.169 81.7611C170.67 83.087 171.42 85.0634 171.42 87.6902V98.7227H166.579V96.7713ZM166.579 91.2551C166.004 90.9799 165.403 90.7673 164.778 90.6172C164.178 90.442 163.515 90.3545 162.789 90.3545C161.613 90.3545 160.7 90.6172 160.05 91.1425C159.424 91.6428 159.112 92.2683 159.112 93.0188C159.112 93.7693 159.412 94.3697 160.012 94.82C160.638 95.2703 161.351 95.4955 162.151 95.4955C162.802 95.4955 163.402 95.3829 163.953 95.1577C164.503 94.9076 164.966 94.5949 165.341 94.2196C165.741 93.8193 166.041 93.369 166.242 92.8687C166.467 92.3433 166.579 91.8055 166.579 91.2551ZM179.944 82.7368H180.244C180.82 81.8112 181.595 81.0857 182.571 80.5603C183.547 80.0099 184.66 79.7348 185.911 79.7348C187.062 79.7348 188.075 79.9224 188.95 80.2976C189.826 80.6729 190.539 81.2108 191.089 81.9112C191.665 82.5867 192.09 83.4123 192.365 84.3879C192.665 85.3386 192.815 86.4018 192.815 87.5776V98.7227H187.9V88.178C187.9 86.8521 187.599 85.8764 186.999 85.251C186.424 84.6006 185.573 84.2753 184.447 84.2753C183.772 84.2753 183.171 84.4254 182.646 84.7257C182.146 85.0008 181.708 85.3886 181.333 85.8889C180.982 86.3643 180.707 86.9397 180.507 87.6151C180.332 88.2656 180.244 88.966 180.244 89.7165V98.7227H175.329V80.3352H179.944V82.7368ZM197.95 84.538H194.723V80.3352H197.95V74.7063H202.866V80.3352H207.369V84.538H202.866V91.6679C202.866 92.0932 202.903 92.4934 202.978 92.8687C203.078 93.2189 203.254 93.5191 203.504 93.7693C203.854 94.1696 204.354 94.3697 205.005 94.3697C205.43 94.3697 205.768 94.3322 206.018 94.2571C206.268 94.1571 206.506 94.032 206.731 93.8819L208.119 98.1973C207.544 98.4725 206.919 98.6726 206.243 98.7977C205.593 98.9478 204.867 99.0229 204.067 99.0229C203.141 99.0229 202.303 98.8853 201.552 98.6101C200.827 98.3099 200.214 97.9096 199.714 97.4093C198.538 96.2835 197.95 94.6824 197.95 92.606V84.538Z" fill="#0071C3"/>
<path d="M42.3064 113.088H43.5982L41.0281 122.723H39.7633L37.6911 116.372H37.6373L35.5651 122.723H34.3002L31.6225 113.088H32.9143L34.9461 120.664H34.9999L37.0856 114.38H38.2428L40.3284 120.664H40.3822L42.3064 113.088ZM46.7897 122.938C45.8209 122.938 45.0225 122.606 44.3946 121.942C43.7666 121.278 43.4527 120.44 43.4527 119.426C43.4527 118.421 43.7577 117.587 44.3677 116.923C44.9777 116.25 45.7581 115.914 46.709 115.914C47.6868 115.914 48.4627 116.232 49.0368 116.869C49.6199 117.497 49.9114 118.381 49.9114 119.52L49.898 119.655H44.7175C44.7355 120.301 44.9507 120.821 45.3634 121.216C45.776 121.61 46.2694 121.808 46.8435 121.808C47.6329 121.808 48.2519 121.413 48.7004 120.624L49.8038 121.162C49.5078 121.718 49.0951 122.153 48.5659 122.467C48.0456 122.781 47.4535 122.938 46.7897 122.938ZM44.8117 118.632H48.5928C48.5569 118.175 48.3685 117.798 48.0276 117.502C47.6957 117.197 47.2472 117.044 46.6821 117.044C46.2156 117.044 45.8119 117.188 45.471 117.475C45.1391 117.762 44.9194 118.148 44.8117 118.632ZM54.0001 113.088H55.238V116.129L55.1842 117.044H55.238C55.4264 116.721 55.7135 116.452 56.0992 116.237C56.4939 116.022 56.9021 115.914 57.3237 115.914C58.131 115.914 58.75 116.147 59.1806 116.614C59.6201 117.071 59.8399 117.726 59.8399 118.578V122.723H58.602V118.82C58.602 117.636 58.0772 117.044 57.0277 117.044C56.5253 117.044 56.0992 117.255 55.7494 117.677C55.4085 118.089 55.238 118.574 55.238 119.13V122.723H54.0001V113.088ZM64.2533 122.938C63.2845 122.938 62.4861 122.606 61.8582 121.942C61.2302 121.278 60.9163 120.44 60.9163 119.426C60.9163 118.421 61.2213 117.587 61.8313 116.923C62.4413 116.25 63.2217 115.914 64.1726 115.914C65.1504 115.914 65.9263 116.232 66.5004 116.869C67.0835 117.497 67.3751 118.381 67.3751 119.52L67.3616 119.655H62.1811C62.1991 120.301 62.4144 120.821 62.827 121.216C63.2396 121.61 63.733 121.808 64.3071 121.808C65.0965 121.808 65.7155 121.413 66.164 120.624L67.2674 121.162C66.9714 121.718 66.5587 122.153 66.0295 122.467C65.5092 122.781 64.9171 122.938 64.2533 122.938ZM62.2753 118.632H66.0564C66.0205 118.175 65.8321 117.798 65.4912 117.502C65.1593 117.197 64.7108 117.044 64.1457 117.044C63.6792 117.044 63.2755 117.188 62.9346 117.475C62.6027 117.762 62.383 118.148 62.2753 118.632ZM69.7451 113.088V122.723H68.5071V113.088H69.7451ZM74.4829 121.808C75.0749 121.808 75.5728 121.583 75.9764 121.135C76.3801 120.695 76.582 120.126 76.582 119.426C76.582 118.735 76.3801 118.166 75.9764 117.717C75.5728 117.269 75.0749 117.044 74.4829 117.044C73.8818 117.044 73.3795 117.269 72.9758 117.717C72.5811 118.166 72.3838 118.735 72.3838 119.426C72.3838 120.126 72.5811 120.7 72.9758 121.148C73.3795 121.588 73.8818 121.808 74.4829 121.808ZM74.6847 122.938C74.2003 122.938 73.7562 122.835 73.3526 122.628C72.9579 122.422 72.6529 122.149 72.4376 121.808H72.3838L72.4376 122.723V125.629H71.1996V116.129H72.3838V117.044H72.4376C72.6529 116.703 72.9579 116.43 73.3526 116.224C73.7562 116.017 74.2003 115.914 74.6847 115.914C75.5548 115.914 76.2904 116.255 76.8914 116.937C77.5104 117.627 77.8199 118.457 77.8199 119.426C77.8199 120.404 77.5104 121.234 76.8914 121.915C76.2904 122.597 75.5548 122.938 74.6847 122.938ZM87.804 116.129L83.673 125.629H82.3948L83.9287 122.306L81.2106 116.129H82.5562L84.5208 120.866H84.5477L86.4584 116.129H87.804ZM87.9724 119.426C87.9724 118.412 88.2908 117.574 88.9277 116.91C89.5736 116.246 90.3855 115.914 91.3632 115.914C92.341 115.914 93.1484 116.246 93.7853 116.91C94.4312 117.574 94.7541 118.412 94.7541 119.426C94.7541 120.449 94.4312 121.287 93.7853 121.942C93.1484 122.606 92.341 122.938 91.3632 122.938C90.3855 122.938 89.5736 122.606 88.9277 121.942C88.2908 121.278 87.9724 120.44 87.9724 119.426ZM89.2103 119.426C89.2103 120.135 89.4166 120.709 89.8293 121.148C90.2419 121.588 90.7532 121.808 91.3632 121.808C91.9732 121.808 92.4846 121.588 92.8972 121.148C93.3098 120.709 93.5162 120.135 93.5162 119.426C93.5162 118.726 93.3098 118.157 92.8972 117.717C92.4756 117.269 91.9643 117.044 91.3632 117.044C90.7622 117.044 90.2509 117.269 89.8293 117.717C89.4166 118.157 89.2103 118.726 89.2103 119.426ZM101.599 122.723H100.415V121.808H100.361C100.173 122.131 99.881 122.4 99.4863 122.615C99.1006 122.83 98.6969 122.938 98.2753 122.938C97.468 122.938 96.8445 122.709 96.4049 122.252C95.9744 121.785 95.7591 121.126 95.7591 120.274V116.129H96.997V120.193C97.0239 121.269 97.5666 121.808 98.6252 121.808C99.1185 121.808 99.5312 121.61 99.8631 121.216C100.195 120.812 100.361 120.332 100.361 119.776V116.129H101.599V122.723ZM106.964 120.704C106.964 121.027 107.099 121.296 107.368 121.512C107.646 121.727 107.969 121.835 108.336 121.835C108.857 121.835 109.319 121.642 109.722 121.256C110.135 120.87 110.341 120.417 110.341 119.897C109.956 119.592 109.417 119.439 108.727 119.439C108.224 119.439 107.803 119.561 107.462 119.803C107.13 120.045 106.964 120.345 106.964 120.704ZM108.565 115.914C109.48 115.914 110.202 116.161 110.732 116.654C111.261 117.139 111.525 117.807 111.525 118.659V122.723H110.341V121.808H110.288C109.776 122.561 109.094 122.938 108.242 122.938C107.516 122.938 106.906 122.723 106.412 122.292C105.928 121.861 105.686 121.323 105.686 120.677C105.686 119.996 105.941 119.453 106.453 119.049C106.973 118.646 107.664 118.444 108.525 118.444C109.26 118.444 109.866 118.578 110.341 118.847V118.565C110.341 118.134 110.171 117.771 109.83 117.475C109.489 117.17 109.09 117.017 108.632 117.017C107.942 117.017 107.395 117.309 106.991 117.892L105.901 117.206C106.502 116.345 107.39 115.914 108.565 115.914ZM118.708 122.723H117.524V121.808H117.47C117.281 122.131 116.99 122.4 116.595 122.615C116.209 122.83 115.806 122.938 115.384 122.938C114.577 122.938 113.953 122.709 113.514 122.252C113.083 121.785 112.868 121.126 112.868 120.274V116.129H114.106V120.193C114.133 121.269 114.675 121.808 115.734 121.808C116.227 121.808 116.64 121.61 116.972 121.216C117.304 120.812 117.47 120.332 117.47 119.776V116.129H118.708V122.723ZM122.891 122.83C122.353 122.83 121.904 122.664 121.545 122.332C121.195 122.001 121.016 121.539 121.007 120.946V117.26H119.85V116.129H121.007V114.111H122.245V116.129H123.86V117.26H122.245V120.543C122.245 120.982 122.33 121.283 122.501 121.444C122.671 121.597 122.864 121.673 123.079 121.673C123.178 121.673 123.272 121.664 123.362 121.646C123.46 121.619 123.55 121.588 123.631 121.552L124.021 122.655C123.698 122.772 123.321 122.83 122.891 122.83ZM124.595 119.426C124.595 118.412 124.913 117.574 125.55 116.91C126.196 116.246 127.008 115.914 127.986 115.914C128.963 115.914 129.771 116.246 130.408 116.91C131.053 117.574 131.376 118.412 131.376 119.426C131.376 120.449 131.053 121.287 130.408 121.942C129.771 122.606 128.963 122.938 127.986 122.938C127.008 122.938 126.196 122.606 125.55 121.942C124.913 121.278 124.595 120.44 124.595 119.426ZM125.833 119.426C125.833 120.135 126.039 120.709 126.452 121.148C126.864 121.588 127.376 121.808 127.986 121.808C128.596 121.808 129.107 121.588 129.52 121.148C129.932 120.709 130.138 120.135 130.138 119.426C130.138 118.726 129.932 118.157 129.52 117.717C129.098 117.269 128.587 117.044 127.986 117.044C127.385 117.044 126.873 117.269 126.452 117.717C126.039 118.157 125.833 118.726 125.833 119.426ZM133.607 122.723H132.37V116.129H133.554V117.044H133.607C133.796 116.721 134.083 116.452 134.469 116.237C134.863 116.022 135.254 115.914 135.639 115.914C136.124 115.914 136.55 116.026 136.918 116.25C137.285 116.475 137.554 116.784 137.725 117.179C138.272 116.336 139.03 115.914 139.999 115.914C140.761 115.914 141.349 116.147 141.762 116.614C142.174 117.08 142.381 117.744 142.381 118.605V122.723H141.143V118.794C141.143 118.175 141.031 117.731 140.806 117.461C140.582 117.183 140.205 117.044 139.676 117.044C139.201 117.044 138.801 117.246 138.478 117.65C138.156 118.054 137.994 118.529 137.994 119.076V122.723H136.756V118.794C136.756 118.175 136.644 117.731 136.42 117.461C136.195 117.183 135.819 117.044 135.289 117.044C134.814 117.044 134.415 117.246 134.092 117.65C133.769 118.054 133.607 118.529 133.607 119.076V122.723ZM144.664 120.704C144.664 121.027 144.798 121.296 145.067 121.512C145.346 121.727 145.668 121.835 146.036 121.835C146.557 121.835 147.019 121.642 147.422 121.256C147.835 120.87 148.041 120.417 148.041 119.897C147.655 119.592 147.117 119.439 146.426 119.439C145.924 119.439 145.503 119.561 145.162 119.803C144.83 120.045 144.664 120.345 144.664 120.704ZM146.265 115.914C147.18 115.914 147.902 116.161 148.431 116.654C148.961 117.139 149.225 117.807 149.225 118.659V122.723H148.041V121.808H147.987C147.476 122.561 146.794 122.938 145.942 122.938C145.215 122.938 144.605 122.723 144.112 122.292C143.628 121.861 143.385 121.323 143.385 120.677C143.385 119.996 143.641 119.453 144.152 119.049C144.673 118.646 145.363 118.444 146.225 118.444C146.96 118.444 147.566 118.578 148.041 118.847V118.565C148.041 118.134 147.871 117.771 147.53 117.475C147.189 117.17 146.79 117.017 146.332 117.017C145.642 117.017 145.094 117.309 144.691 117.892L143.601 117.206C144.202 116.345 145.09 115.914 146.265 115.914ZM153.101 122.83C152.562 122.83 152.114 122.664 151.755 122.332C151.405 122.001 151.226 121.539 151.217 120.946V117.26H150.06V116.129H151.217V114.111H152.455V116.129H154.069V117.26H152.455V120.543C152.455 120.982 152.54 121.283 152.71 121.444C152.881 121.597 153.074 121.673 153.289 121.673C153.388 121.673 153.482 121.664 153.572 121.646C153.67 121.619 153.76 121.588 153.841 121.552L154.231 122.655C153.908 122.772 153.531 122.83 153.101 122.83ZM158.142 122.938C157.173 122.938 156.374 122.606 155.746 121.942C155.118 121.278 154.805 120.44 154.805 119.426C154.805 118.421 155.11 117.587 155.719 116.923C156.329 116.25 157.11 115.914 158.061 115.914C159.039 115.914 159.815 116.232 160.389 116.869C160.972 117.497 161.263 118.381 161.263 119.52L161.25 119.655H156.069C156.087 120.301 156.303 120.821 156.715 121.216C157.128 121.61 157.621 121.808 158.195 121.808C158.985 121.808 159.604 121.413 160.052 120.624L161.156 121.162C160.86 121.718 160.447 122.153 159.918 122.467C159.397 122.781 158.805 122.938 158.142 122.938ZM156.164 118.632H159.945C159.909 118.175 159.72 117.798 159.379 117.502C159.048 117.197 158.599 117.044 158.034 117.044C157.567 117.044 157.164 117.188 156.823 117.475C156.491 117.762 156.271 118.148 156.164 118.632ZM167.962 122.83C167.424 122.83 166.976 122.664 166.617 122.332C166.267 122.001 166.088 121.539 166.079 120.946V117.26H164.921V116.129H166.079V114.111H167.316V116.129H168.931V117.26H167.316V120.543C167.316 120.982 167.402 121.283 167.572 121.444C167.743 121.597 167.935 121.673 168.151 121.673C168.249 121.673 168.344 121.664 168.433 121.646C168.532 121.619 168.622 121.588 168.702 121.552L169.093 122.655C168.77 122.772 168.393 122.83 167.962 122.83ZM170.174 113.088H171.412V116.129L171.359 117.044H171.412C171.601 116.721 171.888 116.452 172.274 116.237C172.668 116.022 173.076 115.914 173.498 115.914C174.305 115.914 174.924 116.147 175.355 116.614C175.795 117.071 176.014 117.726 176.014 118.578V122.723H174.776V118.82C174.776 117.636 174.252 117.044 173.202 117.044C172.7 117.044 172.274 117.255 171.924 117.677C171.583 118.089 171.412 118.574 171.412 119.13V122.723H170.174V113.088ZM180.428 122.938C179.459 122.938 178.66 122.606 178.033 121.942C177.405 121.278 177.091 120.44 177.091 119.426C177.091 118.421 177.396 117.587 178.006 116.923C178.616 116.25 179.396 115.914 180.347 115.914C181.325 115.914 182.101 116.232 182.675 116.869C183.258 117.497 183.549 118.381 183.549 119.52L183.536 119.655H178.355C178.373 120.301 178.589 120.821 179.001 121.216C179.414 121.61 179.907 121.808 180.482 121.808C181.271 121.808 181.89 121.413 182.338 120.624L183.442 121.162C183.146 121.718 182.733 122.153 182.204 122.467C181.684 122.781 181.091 122.938 180.428 122.938ZM178.45 118.632H182.231C182.195 118.175 182.006 117.798 181.666 117.502C181.334 117.197 180.885 117.044 180.32 117.044C179.854 117.044 179.45 117.188 179.109 117.475C178.777 117.762 178.557 118.148 178.45 118.632ZM190.652 122.938C189.674 122.938 188.863 122.606 188.217 121.942C187.58 121.26 187.261 120.422 187.261 119.426C187.261 118.412 187.58 117.574 188.217 116.91C188.863 116.246 189.674 115.914 190.652 115.914C191.325 115.914 191.913 116.084 192.415 116.425C192.917 116.757 193.294 117.219 193.545 117.811L192.415 118.282C192.065 117.457 191.451 117.044 190.571 117.044C190.006 117.044 189.517 117.273 189.105 117.731C188.701 118.188 188.499 118.753 188.499 119.426C188.499 120.099 188.701 120.664 189.105 121.121C189.517 121.579 190.006 121.808 190.571 121.808C191.477 121.808 192.114 121.395 192.482 120.57L193.586 121.041C193.343 121.633 192.962 122.099 192.442 122.44C191.93 122.772 191.334 122.938 190.652 122.938ZM194.668 113.088H195.906V116.129L195.852 117.044H195.906C196.095 116.721 196.382 116.452 196.767 116.237C197.162 116.022 197.57 115.914 197.992 115.914C198.799 115.914 199.418 116.147 199.849 116.614C200.288 117.071 200.508 117.726 200.508 118.578V122.723H199.27V118.82C199.27 117.636 198.745 117.044 197.696 117.044C197.193 117.044 196.767 117.255 196.417 117.677C196.077 118.089 195.906 118.574 195.906 119.13V122.723H194.668V113.088ZM204.921 122.938C203.953 122.938 203.154 122.606 202.526 121.942C201.898 121.278 201.584 120.44 201.584 119.426C201.584 118.421 201.889 117.587 202.499 116.923C203.109 116.25 203.89 115.914 204.841 115.914C205.818 115.914 206.594 116.232 207.169 116.869C207.752 117.497 208.043 118.381 208.043 119.52L208.03 119.655H202.849C202.867 120.301 203.082 120.821 203.495 121.216C203.908 121.61 204.401 121.808 204.975 121.808C205.765 121.808 206.384 121.413 206.832 120.624L207.936 121.162C207.639 121.718 207.227 122.153 206.698 122.467C206.177 122.781 205.585 122.938 204.921 122.938ZM202.943 118.632H206.724C206.689 118.175 206.5 117.798 206.159 117.502C205.827 117.197 205.379 117.044 204.814 117.044C204.347 117.044 203.944 117.188 203.603 117.475C203.271 117.762 203.051 118.148 202.943 118.632ZM212.255 122.938C211.277 122.938 210.465 122.606 209.82 121.942C209.183 121.26 208.864 120.422 208.864 119.426C208.864 118.412 209.183 117.574 209.82 116.91C210.465 116.246 211.277 115.914 212.255 115.914C212.928 115.914 213.515 116.084 214.018 116.425C214.52 116.757 214.897 117.219 215.148 117.811L214.018 118.282C213.668 117.457 213.053 117.044 212.174 117.044C211.609 117.044 211.12 117.273 210.708 117.731C210.304 118.188 210.102 118.753 210.102 119.426C210.102 120.099 210.304 120.664 210.708 121.121C211.12 121.579 211.609 121.808 212.174 121.808C213.08 121.808 213.717 121.395 214.085 120.57L215.188 121.041C214.946 121.633 214.565 122.099 214.045 122.44C213.533 122.772 212.937 122.938 212.255 122.938ZM222.07 122.723H220.577L218.518 119.614L217.509 120.61V122.723H216.271V113.088H217.509V119.022L220.362 116.129H221.949V116.183L219.379 118.74L222.07 122.669V122.723ZM227.69 120.893C227.69 121.467 227.439 121.951 226.937 122.346C226.434 122.741 225.802 122.938 225.039 122.938C224.375 122.938 223.792 122.768 223.29 122.427C222.788 122.077 222.429 121.619 222.214 121.054L223.317 120.583C223.478 120.978 223.712 121.287 224.017 121.512C224.331 121.727 224.671 121.835 225.039 121.835C225.434 121.835 225.761 121.749 226.022 121.579C226.291 121.408 226.425 121.207 226.425 120.973C226.425 120.552 226.102 120.242 225.456 120.045L224.326 119.762C223.043 119.439 222.402 118.82 222.402 117.905C222.402 117.304 222.644 116.825 223.129 116.466C223.622 116.098 224.25 115.914 225.012 115.914C225.595 115.914 226.12 116.053 226.587 116.331C227.062 116.609 227.394 116.982 227.582 117.448L226.479 117.905C226.353 117.627 226.147 117.412 225.86 117.26C225.582 117.098 225.268 117.017 224.918 117.017C224.595 117.017 224.304 117.098 224.044 117.26C223.792 117.421 223.667 117.618 223.667 117.852C223.667 118.228 224.021 118.498 224.73 118.659L225.726 118.915C227.035 119.238 227.69 119.897 227.69 120.893ZM33.0623 133.704C33.0623 134.027 33.1968 134.296 33.466 134.512C33.744 134.727 34.067 134.835 34.4348 134.835C34.9551 134.835 35.417 134.642 35.8207 134.256C36.2334 133.87 36.4397 133.417 36.4397 132.897C36.054 132.592 35.5157 132.439 34.825 132.439C34.3226 132.439 33.901 132.561 33.5602 132.803C33.2282 133.045 33.0623 133.345 33.0623 133.704ZM34.6635 128.914C35.5785 128.914 36.3006 129.161 36.8299 129.654C37.3592 130.139 37.6238 130.807 37.6238 131.659V135.723H36.4397V134.808H36.3859C35.8745 135.561 35.1928 135.938 34.3406 135.938C33.614 135.938 33.004 135.723 32.5106 135.292C32.0262 134.861 31.784 134.323 31.784 133.677C31.784 132.996 32.0396 132.453 32.551 132.049C33.0713 131.646 33.762 131.444 34.6232 131.444C35.3587 131.444 35.9643 131.578 36.4397 131.847V131.565C36.4397 131.134 36.2692 130.771 35.9284 130.475C35.5875 130.17 35.1883 130.017 34.7308 130.017C34.0401 130.017 33.4929 130.309 33.0892 130.892L31.9993 130.206C32.6003 129.345 33.4884 128.914 34.6635 128.914ZM39.02 129.129H40.2042V130.044H40.258C40.4464 129.721 40.7334 129.452 41.1191 129.237C41.5138 129.022 41.922 128.914 42.3436 128.914C43.151 128.914 43.7699 129.147 44.2005 129.614C44.6401 130.071 44.8599 130.726 44.8599 131.578V135.723H43.6219V131.659C43.595 130.583 43.0523 130.044 41.9938 130.044C41.5004 130.044 41.0877 130.246 40.7558 130.65C40.4239 131.045 40.258 131.52 40.258 132.076V135.723H39.02V129.129ZM49.2732 134.808C49.8832 134.808 50.3811 134.588 50.7668 134.148C51.1705 133.709 51.3723 133.135 51.3723 132.426C51.3723 131.735 51.1705 131.166 50.7668 130.717C50.3721 130.269 49.8743 130.044 49.2732 130.044C48.6812 130.044 48.1833 130.269 47.7797 130.717C47.376 131.166 47.1741 131.735 47.1741 132.426C47.1741 133.126 47.376 133.695 47.7797 134.135C48.1833 134.583 48.6812 134.808 49.2732 134.808ZM49.0714 135.938C48.2102 135.938 47.4702 135.597 46.8512 134.915C46.2412 134.225 45.9362 133.395 45.9362 132.426C45.9362 131.457 46.2412 130.627 46.8512 129.937C47.4702 129.255 48.2102 128.914 49.0714 128.914C49.5558 128.914 49.9954 129.017 50.3901 129.224C50.7937 129.43 51.1032 129.703 51.3185 130.044H51.3723L51.3185 129.129V126.088H52.5565V135.723H51.3723V134.808H51.3185C51.1032 135.149 50.7937 135.422 50.3901 135.628C49.9954 135.835 49.5558 135.938 49.0714 135.938ZM58.2603 135.723H57.0224V129.129H58.2065V130.206H58.2603C58.3859 129.856 58.6416 129.56 59.0273 129.318C59.422 129.067 59.8078 128.941 60.1845 128.941C60.5433 128.941 60.8483 128.995 61.0995 129.102L60.7227 130.3C60.5702 130.237 60.328 130.206 59.9961 130.206C59.5297 130.206 59.1215 130.394 58.7717 130.771C58.4308 131.148 58.2603 131.587 58.2603 132.09V135.723ZM64.4636 135.938C63.4947 135.938 62.6964 135.606 62.0684 134.942C61.4405 134.278 61.1265 133.44 61.1265 132.426C61.1265 131.421 61.4315 130.587 62.0415 129.923C62.6515 129.25 63.4319 128.914 64.3828 128.914C65.3606 128.914 66.1366 129.232 66.7107 129.869C67.2938 130.497 67.5853 131.381 67.5853 132.52L67.5718 132.655H62.3914C62.4093 133.301 62.6246 133.821 63.0372 134.216C63.4499 134.61 63.9433 134.808 64.5174 134.808C65.3068 134.808 65.9258 134.413 66.3743 133.624L67.4777 134.162C67.1816 134.718 66.769 135.153 66.2397 135.467C65.7194 135.781 65.1274 135.938 64.4636 135.938ZM62.4856 131.632H66.2666C66.2307 131.175 66.0424 130.798 65.7015 130.502C65.3696 130.197 64.9211 130.044 64.3559 130.044C63.8894 130.044 63.4858 130.188 63.1449 130.475C62.813 130.762 62.5932 131.148 62.4856 131.632ZM71.9468 134.808C72.5388 134.808 73.0367 134.583 73.4404 134.135C73.844 133.695 74.0459 133.126 74.0459 132.426C74.0459 131.735 73.844 131.166 73.4404 130.717C73.0367 130.269 72.5388 130.044 71.9468 130.044C71.3457 130.044 70.8434 130.269 70.4397 130.717C70.045 131.166 69.8477 131.735 69.8477 132.426C69.8477 133.126 70.045 133.7 70.4397 134.148C70.8434 134.588 71.3457 134.808 71.9468 134.808ZM72.1486 135.938C71.6642 135.938 71.2201 135.835 70.8165 135.628C70.4218 135.422 70.1168 135.149 69.9015 134.808H69.8477L69.9015 135.723V138.629H68.6635V129.129H69.8477V130.044H69.9015C70.1168 129.703 70.4218 129.43 70.8165 129.224C71.2201 129.017 71.6642 128.914 72.1486 128.914C73.0187 128.914 73.7543 129.255 74.3553 129.937C74.9743 130.627 75.2838 131.457 75.2838 132.426C75.2838 133.404 74.9743 134.234 74.3553 134.915C73.7543 135.597 73.0187 135.938 72.1486 135.938ZM76.0409 132.426C76.0409 131.412 76.3593 130.574 76.9962 129.91C77.6421 129.246 78.454 128.914 79.4317 128.914C80.4095 128.914 81.2169 129.246 81.8538 129.91C82.4997 130.574 82.8226 131.412 82.8226 132.426C82.8226 133.449 82.4997 134.287 81.8538 134.942C81.2169 135.606 80.4095 135.938 79.4317 135.938C78.454 135.938 77.6421 135.606 76.9962 134.942C76.3593 134.278 76.0409 133.44 76.0409 132.426ZM77.2788 132.426C77.2788 133.135 77.4851 133.709 77.8978 134.148C78.3104 134.588 78.8218 134.808 79.4317 134.808C80.0417 134.808 80.5531 134.588 80.9657 134.148C81.3783 133.709 81.5847 133.135 81.5847 132.426C81.5847 131.726 81.3783 131.157 80.9657 130.717C80.5441 130.269 80.0328 130.044 79.4317 130.044C78.8307 130.044 78.3194 130.269 77.8978 130.717C77.4851 131.157 77.2788 131.726 77.2788 132.426ZM91.5393 135.83C91.0011 135.83 90.5526 135.664 90.1937 135.332C89.8439 135.001 89.6645 134.539 89.6555 133.946V130.26H88.4983V129.129H89.6555V127.111H90.8934V129.129H92.5081V130.26H90.8934V133.543C90.8934 133.982 90.9787 134.283 91.1491 134.444C91.3195 134.597 91.5124 134.673 91.7277 134.673C91.8264 134.673 91.9206 134.664 92.0103 134.646C92.1089 134.619 92.1987 134.588 92.2794 134.552L92.6696 135.655C92.3467 135.772 91.9699 135.83 91.5393 135.83ZM83.8157 129.129H84.9998V130.206H85.0536C85.4214 129.363 86.1794 128.941 87.3277 128.941L87.5833 128.968V130.26L87.0316 130.206C86.4575 130.206 85.9821 130.385 85.6053 130.744C85.2375 131.094 85.0536 131.542 85.0536 132.09V135.723H83.8157V129.129ZM98.8746 133.893C98.8746 134.467 98.6234 134.951 98.1211 135.346C97.6187 135.741 96.9863 135.938 96.2238 135.938C95.56 135.938 94.9769 135.768 94.4746 135.427C93.9722 135.077 93.6134 134.619 93.3981 134.054L94.5015 133.583C94.663 133.978 94.8962 134.287 95.2012 134.512C95.5152 134.727 95.856 134.835 96.2238 134.835C96.6185 134.835 96.946 134.749 97.2061 134.579C97.4752 134.408 97.6098 134.207 97.6098 133.973C97.6098 133.552 97.2868 133.242 96.641 133.045L95.5107 132.762C94.2279 132.439 93.5865 131.82 93.5865 130.905C93.5865 130.304 93.8287 129.825 94.3131 129.466C94.8065 129.098 95.4344 128.914 96.1969 128.914C96.78 128.914 97.3048 129.053 97.7712 129.331C98.2467 129.609 98.5786 129.982 98.767 130.448L97.6636 130.905C97.538 130.627 97.3317 130.412 97.0446 130.26C96.7665 130.098 96.4526 130.017 96.1027 130.017C95.7798 130.017 95.4882 130.098 95.2281 130.26C94.9769 130.421 94.8513 130.618 94.8513 130.852C94.8513 131.228 95.2057 131.498 95.9143 131.659L96.9101 131.915C98.2198 132.238 98.8746 132.897 98.8746 133.893ZM102.909 129.129H104.093V130.044H104.147C104.335 129.721 104.622 129.452 105.008 129.237C105.403 129.022 105.811 128.914 106.232 128.914C107.04 128.914 107.659 129.147 108.089 129.614C108.529 130.071 108.749 130.726 108.749 131.578V135.723H107.511V131.659C107.484 130.583 106.941 130.044 105.882 130.044C105.389 130.044 104.976 130.246 104.645 130.65C104.313 131.045 104.147 131.52 104.147 132.076V135.723H102.909V129.129ZM113.162 135.938C112.193 135.938 111.395 135.606 110.767 134.942C110.139 134.278 109.825 133.44 109.825 132.426C109.825 131.421 110.13 130.587 110.74 129.923C111.35 129.25 112.13 128.914 113.081 128.914C114.059 128.914 114.835 129.232 115.409 129.869C115.992 130.497 116.284 131.381 116.284 132.52L116.27 132.655H111.09C111.108 133.301 111.323 133.821 111.736 134.216C112.148 134.61 112.642 134.808 113.216 134.808C114.005 134.808 114.624 134.413 115.073 133.624L116.176 134.162C115.88 134.718 115.467 135.153 114.938 135.467C114.418 135.781 113.826 135.938 113.162 135.938ZM111.184 131.632H114.965C114.929 131.175 114.741 130.798 114.4 130.502C114.068 130.197 113.619 130.044 113.054 130.044C112.588 130.044 112.184 130.188 111.843 130.475C111.511 130.762 111.292 131.148 111.184 131.632ZM120.442 135.938C119.473 135.938 118.675 135.606 118.047 134.942C117.419 134.278 117.105 133.44 117.105 132.426C117.105 131.421 117.41 130.587 118.02 129.923C118.63 129.25 119.41 128.914 120.361 128.914C121.339 128.914 122.115 129.232 122.689 129.869C123.272 130.497 123.563 131.381 123.563 132.52L123.55 132.655H118.37C118.387 133.301 118.603 133.821 119.015 134.216C119.428 134.61 119.921 134.808 120.496 134.808C121.285 134.808 121.904 134.413 122.352 133.624L123.456 134.162C123.16 134.718 122.747 135.153 122.218 135.467C121.698 135.781 121.106 135.938 120.442 135.938ZM118.464 131.632H122.245C122.209 131.175 122.021 130.798 121.68 130.502C121.348 130.197 120.899 130.044 120.334 130.044C119.868 130.044 119.464 130.188 119.123 130.475C118.791 130.762 118.571 131.148 118.464 131.632ZM127.721 134.808C128.331 134.808 128.829 134.588 129.215 134.148C129.619 133.709 129.821 133.135 129.821 132.426C129.821 131.735 129.619 131.166 129.215 130.717C128.82 130.269 128.323 130.044 127.721 130.044C127.129 130.044 126.632 130.269 126.228 130.717C125.824 131.166 125.622 131.735 125.622 132.426C125.622 133.126 125.824 133.695 126.228 134.135C126.632 134.583 127.129 134.808 127.721 134.808ZM127.52 135.938C126.658 135.938 125.918 135.597 125.299 134.915C124.689 134.225 124.384 133.395 124.384 132.426C124.384 131.457 124.689 130.627 125.299 129.937C125.918 129.255 126.658 128.914 127.52 128.914C128.004 128.914 128.444 129.017 128.838 129.224C129.242 129.43 129.551 129.703 129.767 130.044H129.821L129.767 129.129V126.088H131.005V135.723H129.821V134.808H129.767C129.551 135.149 129.242 135.422 128.838 135.628C128.444 135.835 128.004 135.938 127.52 135.938ZM135.409 135.938C134.44 135.938 133.641 135.606 133.014 134.942C132.386 134.278 132.072 133.44 132.072 132.426C132.072 131.421 132.377 130.587 132.987 129.923C133.597 129.25 134.377 128.914 135.328 128.914C136.306 128.914 137.082 129.232 137.656 129.869C138.239 130.497 138.53 131.381 138.53 132.52L138.517 132.655H133.336C133.354 133.301 133.57 133.821 133.982 134.216C134.395 134.61 134.888 134.808 135.462 134.808C136.252 134.808 136.871 134.413 137.319 133.624L138.423 134.162C138.127 134.718 137.714 135.153 137.185 135.467C136.665 135.781 136.072 135.938 135.409 135.938ZM133.431 131.632H137.212C137.176 131.175 136.987 130.798 136.647 130.502C136.315 130.197 135.866 130.044 135.301 130.044C134.835 130.044 134.431 130.188 134.09 130.475C133.758 130.762 133.538 131.148 133.431 131.632ZM142.688 134.808C143.298 134.808 143.796 134.588 144.182 134.148C144.586 133.709 144.788 133.135 144.788 132.426C144.788 131.735 144.586 131.166 144.182 130.717C143.787 130.269 143.289 130.044 142.688 130.044C142.096 130.044 141.599 130.269 141.195 130.717C140.791 131.166 140.589 131.735 140.589 132.426C140.589 133.126 140.791 133.695 141.195 134.135C141.599 134.583 142.096 134.808 142.688 134.808ZM142.487 135.938C141.625 135.938 140.885 135.597 140.266 134.915C139.656 134.225 139.351 133.395 139.351 132.426C139.351 131.457 139.656 130.627 140.266 129.937C140.885 129.255 141.625 128.914 142.487 128.914C142.971 128.914 143.411 129.017 143.805 129.224C144.209 129.43 144.518 129.703 144.734 130.044H144.788L144.734 129.129V126.088H145.972V135.723H144.788V134.808H144.734C144.518 135.149 144.209 135.422 143.805 135.628C143.411 135.835 142.971 135.938 142.487 135.938ZM153.923 135.938C153.438 135.938 152.994 135.835 152.591 135.628C152.196 135.422 151.891 135.149 151.676 134.808H151.622V135.723H150.438V126.088H151.676V129.129L151.622 130.044H151.676C151.891 129.703 152.196 129.43 152.591 129.224C152.994 129.017 153.438 128.914 153.923 128.914C154.793 128.914 155.528 129.255 156.129 129.937C156.748 130.627 157.058 131.457 157.058 132.426C157.058 133.404 156.748 134.234 156.129 134.915C155.528 135.597 154.793 135.938 153.923 135.938ZM153.721 134.808C154.313 134.808 154.811 134.583 155.214 134.135C155.618 133.695 155.82 133.126 155.82 132.426C155.82 131.735 155.618 131.166 155.214 130.717C154.811 130.269 154.313 130.044 153.721 130.044C153.12 130.044 152.617 130.269 152.214 130.717C151.819 131.166 151.622 131.735 151.622 132.426C151.622 133.126 151.819 133.7 152.214 134.148C152.617 134.588 153.12 134.808 153.721 134.808ZM163.821 129.129L159.69 138.629H158.412L159.946 135.306L157.228 129.129H158.573L160.538 133.866H160.565L162.476 129.129H163.821ZM168.824 135.723H167.586V129.129H168.77V130.206H168.824C168.949 129.856 169.205 129.56 169.591 129.318C169.985 129.067 170.371 128.941 170.748 128.941C171.107 128.941 171.412 128.995 171.663 129.102L171.286 130.3C171.134 130.237 170.891 130.206 170.56 130.206C170.093 130.206 169.685 130.394 169.335 130.771C168.994 131.148 168.824 131.587 168.824 132.09V135.723ZM175.027 135.938C174.058 135.938 173.26 135.606 172.632 134.942C172.004 134.278 171.69 133.44 171.69 132.426C171.69 131.421 171.995 130.587 172.605 129.923C173.215 129.25 173.995 128.914 174.946 128.914C175.924 128.914 176.7 129.232 177.274 129.869C177.857 130.497 178.149 131.381 178.149 132.52L178.135 132.655H172.955C172.973 133.301 173.188 133.821 173.601 134.216C174.013 134.61 174.507 134.808 175.081 134.808C175.87 134.808 176.489 134.413 176.938 133.624L178.041 134.162C177.745 134.718 177.332 135.153 176.803 135.467C176.283 135.781 175.691 135.938 175.027 135.938ZM173.049 131.632H176.83C176.794 131.175 176.606 130.798 176.265 130.502C175.933 130.197 175.484 130.044 174.919 130.044C174.453 130.044 174.049 130.188 173.708 130.475C173.376 130.762 173.157 131.148 173.049 131.632ZM182.307 134.808C182.917 134.808 183.415 134.588 183.8 134.148C184.204 133.709 184.406 133.135 184.406 132.426C184.406 131.735 184.204 131.166 183.8 130.717C183.406 130.269 182.908 130.044 182.307 130.044C181.715 130.044 181.217 130.269 180.813 130.717C180.409 131.166 180.208 131.735 180.208 132.426C180.208 133.126 180.409 133.695 180.813 134.135C181.217 134.583 181.715 134.808 182.307 134.808ZM182.266 138.844C181.899 138.844 181.553 138.795 181.23 138.696C180.907 138.607 180.611 138.477 180.342 138.306C180.082 138.136 179.858 137.934 179.669 137.701C179.481 137.467 179.338 137.207 179.239 136.92L180.409 136.436C180.544 136.822 180.777 137.131 181.109 137.364C181.441 137.597 181.827 137.714 182.266 137.714C182.939 137.714 183.464 137.512 183.841 137.109C184.217 136.705 184.406 136.149 184.406 135.44V134.808H184.352C184.119 135.158 183.8 135.436 183.397 135.642C183.002 135.839 182.571 135.938 182.105 135.938C181.244 135.938 180.504 135.602 179.885 134.929C179.275 134.238 178.97 133.404 178.97 132.426C178.97 131.448 179.275 130.618 179.885 129.937C180.504 129.255 181.244 128.914 182.105 128.914C182.571 128.914 183.002 129.017 183.397 129.224C183.8 129.421 184.119 129.694 184.352 130.044H184.406V129.129H185.59V135.44C185.59 136.499 185.289 137.328 184.688 137.929C184.078 138.539 183.271 138.844 182.266 138.844ZM192.82 135.723H191.636V134.808H191.582C191.393 135.131 191.102 135.4 190.707 135.615C190.321 135.83 189.918 135.938 189.496 135.938C188.689 135.938 188.065 135.709 187.626 135.252C187.195 134.785 186.98 134.126 186.98 133.274V129.129H188.218V133.193C188.245 134.269 188.787 134.808 189.846 134.808C190.339 134.808 190.752 134.61 191.084 134.216C191.416 133.812 191.582 133.332 191.582 132.776V129.129H192.82V135.723ZM195.564 126.088V135.723H194.327V126.088H195.564ZM197.909 133.704C197.909 134.027 198.043 134.296 198.312 134.512C198.59 134.727 198.913 134.835 199.281 134.835C199.802 134.835 200.264 134.642 200.667 134.256C201.08 133.87 201.286 133.417 201.286 132.897C200.9 132.592 200.362 132.439 199.671 132.439C199.169 132.439 198.747 132.561 198.407 132.803C198.075 133.045 197.909 133.345 197.909 133.704ZM199.51 128.914C200.425 128.914 201.147 129.161 201.676 129.654C202.206 130.139 202.47 130.807 202.47 131.659V135.723H201.286V134.808H201.232C200.721 135.561 200.039 135.938 199.187 135.938C198.46 135.938 197.85 135.723 197.357 135.292C196.873 134.861 196.63 134.323 196.63 133.677C196.63 132.996 196.886 132.453 197.397 132.049C197.918 131.646 198.608 131.444 199.47 131.444C200.205 131.444 200.811 131.578 201.286 131.847V131.565C201.286 131.134 201.116 130.771 200.775 130.475C200.434 130.17 200.035 130.017 199.577 130.017C198.887 130.017 198.339 130.309 197.936 130.892L196.846 130.206C197.447 129.345 198.335 128.914 199.51 128.914ZM206.346 135.83C205.807 135.83 205.359 135.664 205 135.332C204.65 135.001 204.471 134.539 204.462 133.946V130.26H203.305V129.129H204.462V127.111H205.7V129.129H207.314V130.26H205.7V133.543C205.7 133.982 205.785 134.283 205.955 134.444C206.126 134.597 206.319 134.673 206.534 134.673C206.633 134.673 206.727 134.664 206.816 134.646C206.915 134.619 207.005 134.588 207.086 134.552L207.476 135.655C207.153 135.772 206.776 135.83 206.346 135.83ZM210.159 126.855C210.159 127.098 210.074 127.304 209.903 127.474C209.733 127.645 209.526 127.73 209.284 127.73C209.042 127.73 208.836 127.645 208.665 127.474C208.495 127.304 208.41 127.098 208.41 126.855C208.41 126.613 208.495 126.407 208.665 126.236C208.836 126.066 209.042 125.981 209.284 125.981C209.526 125.981 209.733 126.066 209.903 126.236C210.074 126.407 210.159 126.613 210.159 126.855ZM209.903 129.129V135.723H208.665V129.129H209.903ZM211.072 132.426C211.072 131.412 211.39 130.574 212.027 129.91C212.673 129.246 213.485 128.914 214.463 128.914C215.44 128.914 216.248 129.246 216.885 129.91C217.531 130.574 217.853 131.412 217.853 132.426C217.853 133.449 217.531 134.287 216.885 134.942C216.248 135.606 215.44 135.938 214.463 135.938C213.485 135.938 212.673 135.606 212.027 134.942C211.39 134.278 211.072 133.44 211.072 132.426ZM212.31 132.426C212.31 133.135 212.516 133.709 212.929 134.148C213.341 134.588 213.853 134.808 214.463 134.808C215.073 134.808 215.584 134.588 215.997 134.148C216.409 133.709 216.616 133.135 216.616 132.426C216.616 131.726 216.409 131.157 215.997 130.717C215.575 130.269 215.064 130.044 214.463 130.044C213.862 130.044 213.35 130.269 212.929 130.717C212.516 131.157 212.31 131.726 212.31 132.426ZM218.847 129.129H220.031V130.044H220.084C220.273 129.721 220.56 129.452 220.946 129.237C221.34 129.022 221.749 128.914 222.17 128.914C222.977 128.914 223.596 129.147 224.027 129.614C224.467 130.071 224.686 130.726 224.686 131.578V135.723H223.448V131.659C223.422 130.583 222.879 130.044 221.82 130.044C221.327 130.044 220.914 130.246 220.582 130.65C220.25 131.045 220.084 131.52 220.084 132.076V135.723H218.847V129.129ZM231.12 133.893C231.12 134.467 230.869 134.951 230.366 135.346C229.864 135.741 229.231 135.938 228.469 135.938C227.805 135.938 227.222 135.768 226.72 135.427C226.217 135.077 225.858 134.619 225.643 134.054L226.747 133.583C226.908 133.978 227.141 134.287 227.446 134.512C227.76 134.727 228.101 134.835 228.469 134.835C228.864 134.835 229.191 134.749 229.451 134.579C229.72 134.408 229.855 134.207 229.855 133.973C229.855 133.552 229.532 133.242 228.886 133.045L227.756 132.762C226.473 132.439 225.832 131.82 225.832 130.905C225.832 130.304 226.074 129.825 226.558 129.466C227.052 129.098 227.679 128.914 228.442 128.914C229.025 128.914 229.55 129.053 230.016 129.331C230.492 129.609 230.824 129.982 231.012 130.448L229.909 130.905C229.783 130.627 229.577 130.412 229.29 130.26C229.012 130.098 228.698 130.017 228.348 130.017C228.025 130.017 227.733 130.098 227.473 130.26C227.222 130.421 227.096 130.618 227.096 130.852C227.096 131.228 227.451 131.498 228.159 131.659L229.155 131.915C230.465 132.238 231.12 132.897 231.12 133.893Z" fill="#060606"/>
<mask id="mask0_331_24" style="mask-type:alpha" maskUnits="userSpaceOnUse" x="-1" y="0" width="318" height="400">
<rect x="316.938" width="399.265" height="316.939" rx="30.2979" transform="rotate(90 316.938 0)" fill="#F8F8F8"/>
</mask>
<g mask="url(#mask0_331_24)">
<path d="M232.289 275.013C231.995 273.523 231.386 272.115 230.502 270.884C229.618 269.652 228.48 268.626 227.166 267.875L187.884 245.405L187.726 200.966C187.721 199.436 187.385 197.925 186.742 196.537C186.098 195.15 185.163 193.919 183.999 192.93C169.75 180.832 153.34 171.56 135.643 165.609C134.25 165.135 132.773 164.96 131.308 165.095C129.842 165.229 128.421 165.67 127.136 166.389L87.5115 188.621L47.8472 166.349C46.5613 165.626 45.1385 165.182 43.6709 165.045C42.2033 164.909 40.7234 165.083 39.327 165.556C21.6407 171.545 5.24902 180.852 -8.97604 192.983C-10.138 193.971 -11.0728 195.199 -11.7161 196.584C-12.3595 197.969 -12.6961 199.478 -12.7028 201.006L-12.9003 245.484L-52.1828 267.954C-53.497 268.705 -54.6347 269.731 -55.5187 270.963C-56.4026 272.195 -57.012 273.603 -57.3054 275.092C-60.8995 293.225 -60.8995 311.892 -57.3054 330.025C-57.012 331.514 -56.4026 332.922 -55.5187 334.154C-54.6347 335.385 -53.497 336.412 -52.1828 337.163L-12.9003 359.633L-12.7423 404.084C-12.7375 405.615 -12.4018 407.126 -11.7584 408.513C-11.115 409.901 -10.1791 411.132 -9.01555 412.121C5.23381 424.219 21.6433 433.491 39.3401 439.442C40.7338 439.915 42.2108 440.09 43.6759 439.956C45.1411 439.822 46.562 439.381 47.8472 438.662L87.5115 416.364L127.176 438.636C128.745 439.514 130.515 439.969 132.312 439.957C133.462 439.957 134.605 439.769 135.696 439.402C153.378 433.415 169.768 424.117 183.999 412.002C185.161 411.014 186.096 409.785 186.739 408.4C187.383 407.015 187.719 405.507 187.726 403.978L187.923 359.501L227.206 337.03C228.52 336.279 229.658 335.253 230.542 334.022C231.426 332.79 232.035 331.382 232.328 329.893C235.902 311.774 235.889 293.126 232.289 275.013ZM87.5115 355.363C77.0933 355.363 66.9092 352.263 58.2468 346.453C49.5844 340.644 42.8329 332.386 38.8461 322.725C34.8592 313.064 33.8161 302.434 35.8486 292.178C37.881 281.922 42.8979 272.501 50.2646 265.107C57.6313 257.713 67.0171 252.677 77.2351 250.637C87.4531 248.597 98.0443 249.644 107.669 253.646C117.294 257.647 125.521 264.424 131.309 273.119C137.097 281.813 140.187 292.035 140.187 302.492C140.187 316.515 134.637 329.963 124.758 339.878C114.88 349.793 101.482 355.363 87.5115 355.363Z" fill="#052135"/>
</g>
</svg>
