<svg width="318" height="400" viewBox="0 0 318 400" fill="none" xmlns="http://www.w3.org/2000/svg">
<rect x="317.688" width="399.265" height="316.939" rx="30.2979" transform="rotate(90 317.688 0)" fill="#F8F8F8"/>
<path d="M42.6097 62.3231C41.4588 62.3231 40.3579 62.1605 39.3071 61.8352C38.2562 61.51 37.293 61.0221 36.4173 60.3716C35.5416 59.7211 34.7784 58.9329 34.1279 58.0072C33.4774 57.0564 32.9645 55.9555 32.5892 54.7045L37.3555 52.828C37.7058 54.1791 38.3188 55.305 39.1945 56.2057C40.0702 57.0814 41.2211 57.5193 42.6472 57.5193C43.1727 57.5193 43.6731 57.4567 44.1484 57.3316C44.6488 57.1815 45.0867 56.9814 45.462 56.7312C45.8623 56.4559 46.1751 56.1182 46.4002 55.7179C46.6254 55.3175 46.738 54.8547 46.738 54.3292C46.738 53.8288 46.6504 53.3785 46.4753 52.9782C46.3002 52.5778 45.9999 52.2025 45.5746 51.8523C45.1743 51.502 44.6363 51.1642 43.9608 50.839C43.3103 50.5137 42.4971 50.1759 41.5213 49.8256L39.87 49.2252C39.1444 48.975 38.4063 48.6372 37.6557 48.2119C36.9302 47.7865 36.2671 47.2736 35.6667 46.6731C35.0662 46.0726 34.5658 45.3721 34.1655 44.5714C33.7902 43.7458 33.6025 42.82 33.6025 41.7942C33.6025 40.7434 33.8027 39.7676 34.203 38.8669C34.6283 37.9411 35.2163 37.1405 35.9669 36.465C36.7425 35.7644 37.6557 35.2265 38.7066 34.8512C39.7824 34.4509 40.9709 34.2507 42.2719 34.2507C43.623 34.2507 44.7864 34.4383 45.7622 34.8136C46.763 35.1639 47.6012 35.6268 48.2767 36.2023C48.9773 36.7527 49.5402 37.3657 49.9656 38.0412C50.3909 38.7168 50.7037 39.3548 50.9038 39.9553L46.4378 41.8318C46.1876 41.0812 45.7247 40.4056 45.0492 39.8051C44.3986 39.2047 43.4979 38.9044 42.347 38.9044C41.2461 38.9044 40.3329 39.1671 39.6073 39.6925C38.8817 40.1929 38.5189 40.856 38.5189 41.6816C38.5189 42.4823 38.8692 43.1703 39.5698 43.7458C40.2703 44.2962 41.3837 44.8342 42.9099 45.3596L44.5988 45.9225C45.6747 46.2978 46.6504 46.7357 47.5261 47.2361C48.4269 47.7115 49.19 48.2869 49.8155 48.9625C50.466 49.638 50.9539 50.4136 51.2791 51.2893C51.6294 52.14 51.8046 53.1283 51.8046 54.2542C51.8046 55.6553 51.5168 56.8688 50.9414 57.8946C50.3909 58.8954 49.6779 59.7211 48.8022 60.3716C47.9265 61.0221 46.9382 61.51 45.8373 61.8352C44.7364 62.1605 43.6605 62.3231 42.6097 62.3231ZM55.3772 43.333H59.9934V45.7349H60.2937C60.8691 44.8342 61.6447 44.1086 62.6205 43.5581C63.6213 43.0077 64.7222 42.7325 65.9232 42.7325C67.3243 42.7325 68.5002 43.0577 69.451 43.7083C70.4017 44.3588 71.0773 45.1594 71.4776 46.1102C72.0531 45.1844 72.8662 44.3963 73.9171 43.7458C74.9679 43.0702 76.2439 42.7325 77.7451 42.7325C78.871 42.7325 79.8468 42.9201 80.6725 43.2954C81.4981 43.6457 82.1737 44.1461 82.6991 44.7966C83.2495 45.4471 83.6623 46.2353 83.9376 47.161C84.2128 48.0617 84.3504 49.05 84.3504 50.1259V61.7227H79.434V51.0266C79.434 48.5246 78.4081 47.2736 76.3565 47.2736C75.706 47.2736 75.1305 47.4237 74.6301 47.724C74.1297 47.9992 73.7044 48.387 73.3541 48.8874C73.0288 49.3628 72.7661 49.9382 72.566 50.6138C72.3908 51.2893 72.3033 52.0149 72.3033 52.7905V61.7227H67.3868V51.0266C67.3868 48.5246 66.311 47.2736 64.1593 47.2736C63.5338 47.2736 62.9833 47.4237 62.5079 47.724C62.0326 47.9992 61.6322 48.387 61.307 48.8874C60.9817 49.3628 60.7315 49.9382 60.5564 50.6138C60.3812 51.2893 60.2937 52.0149 60.2937 52.7905V61.7227H55.3772V43.333ZM99.55 59.7711H99.2498C98.6743 60.4717 97.9738 61.0721 97.1481 61.5725C96.3475 62.0729 95.3092 62.3231 94.0331 62.3231C93.0824 62.3231 92.1817 62.1605 91.331 61.8352C90.5053 61.535 89.7797 61.1097 89.1542 60.5592C88.5287 60.0088 88.0408 59.3458 87.6906 58.5701C87.3403 57.7945 87.1651 56.9438 87.1651 56.0181C87.1651 55.0673 87.3528 54.2167 87.7281 53.4661C88.1034 52.6904 88.6288 52.0274 89.3044 51.477C89.9799 50.9265 90.768 50.5137 91.6687 50.2385C92.5945 49.9382 93.5953 49.7881 94.6711 49.7881C95.8721 49.7881 96.8604 49.8882 97.636 50.0884C98.4116 50.2635 99.0496 50.4511 99.55 50.6513V50.0884C99.55 49.1126 99.1622 48.3119 98.3866 47.6864C97.611 47.0359 96.6477 46.7107 95.4968 46.7107C93.7954 46.7107 92.3568 47.4237 91.1809 48.8499L87.6155 46.4104C89.5671 43.9585 92.2317 42.7325 95.6094 42.7325C98.4617 42.7325 100.638 43.408 102.14 44.7591C103.641 46.0852 104.391 48.0617 104.391 50.6888V61.7227H99.55V59.7711ZM99.55 54.2542C98.9746 53.979 98.3741 53.7663 97.7486 53.6162C97.1481 53.441 96.4851 53.3535 95.7595 53.3535C94.5836 53.3535 93.6703 53.6162 93.0198 54.1416C92.3943 54.642 92.0816 55.2675 92.0816 56.0181C92.0816 56.7687 92.3818 57.3692 92.9823 57.8195C93.6078 58.2699 94.3209 58.4951 95.1215 58.4951C95.772 58.4951 96.3725 58.3825 96.9229 58.1573C97.4734 57.9071 97.9363 57.5944 98.3116 57.2191C98.7119 56.8187 99.0121 56.3684 99.2123 55.868C99.4375 55.3426 99.55 54.8046 99.55 54.2542ZM112.917 45.885H113.217C113.717 44.9593 114.443 44.2212 115.394 43.6707C116.369 43.0953 117.445 42.8075 118.621 42.8075C119.046 42.8075 119.384 42.82 119.634 42.8451C119.885 42.8701 120.122 42.9201 120.348 42.9952V47.8741C120.072 47.749 119.76 47.6489 119.409 47.5738C119.084 47.4988 118.684 47.4613 118.208 47.4613C116.657 47.4613 115.431 47.9366 114.53 48.8874C113.655 49.8131 113.217 51.0892 113.217 52.7155V61.7227H108.3V43.333H112.917V45.885ZM125.789 47.5363H122.562V43.333H125.789V37.7035H130.706V43.333H135.209V47.5363H130.706V54.667C130.706 55.0924 130.743 55.4927 130.818 55.868C130.918 56.2183 131.094 56.5185 131.344 56.7687C131.694 57.169 132.194 57.3692 132.845 57.3692C133.27 57.3692 133.608 57.3316 133.858 57.2566C134.109 57.1565 134.346 57.0314 134.571 56.8813L135.96 61.1972C135.385 61.4725 134.759 61.6726 134.084 61.7977C133.433 61.9478 132.707 62.0229 131.907 62.0229C130.981 62.0229 130.143 61.8853 129.392 61.6101C128.667 61.3098 128.054 60.9095 127.553 60.4091C126.377 59.2832 125.789 57.6819 125.789 55.6053V47.5363ZM156.061 57.2941C155.21 58.7953 154.059 60.0088 152.608 60.9345C151.182 61.8603 149.431 62.3231 147.354 62.3231C145.953 62.3231 144.652 62.0854 143.451 61.6101C142.275 61.1097 141.249 60.4216 140.373 59.5459C139.498 58.6702 138.81 57.6444 138.309 56.4685C137.834 55.2675 137.596 53.9539 137.596 52.5278C137.596 51.2017 137.834 49.9507 138.309 48.7748C138.785 47.5738 139.448 46.5355 140.298 45.6598C141.149 44.7591 142.15 44.046 143.301 43.5206C144.477 42.9952 145.765 42.7325 147.166 42.7325C148.642 42.7325 149.956 42.9827 151.107 43.4831C152.258 43.9585 153.221 44.634 153.997 45.5097C154.772 46.3604 155.36 47.3737 155.761 48.5496C156.161 49.7256 156.361 51.0016 156.361 52.3777C156.361 52.5528 156.361 52.7029 156.361 52.828C156.336 52.9782 156.324 53.1158 156.324 53.2409C156.299 53.366 156.286 53.5036 156.286 53.6537H142.437C142.538 54.4043 142.738 55.0548 143.038 55.6053C143.363 56.1307 143.751 56.581 144.201 56.9563C144.677 57.3066 145.19 57.5693 145.74 57.7445C146.291 57.8946 146.853 57.9697 147.429 57.9697C148.555 57.9697 149.481 57.7195 150.206 57.2191C150.957 56.6936 151.545 56.0431 151.97 55.2675L156.061 57.2941ZM151.595 50.1634C151.57 49.8382 151.457 49.4754 151.257 49.075C151.082 48.6747 150.807 48.2994 150.431 47.9491C150.081 47.5989 149.631 47.3111 149.08 47.086C148.555 46.8608 147.917 46.7482 147.166 46.7482C146.115 46.7482 145.19 47.0484 144.389 47.6489C143.588 48.2494 143.025 49.0876 142.7 50.1634H151.595ZM159.501 43.333H164.117V45.885H164.417C164.643 45.4346 164.943 45.0218 165.318 44.6465C165.693 44.2712 166.106 43.9459 166.557 43.6707C167.032 43.3955 167.532 43.1828 168.058 43.0327C168.608 42.8826 169.146 42.8075 169.672 42.8075C170.322 42.8075 170.873 42.8701 171.323 42.9952C171.798 43.1203 172.199 43.2829 172.524 43.4831L171.21 47.9491C170.91 47.799 170.572 47.6864 170.197 47.6114C169.847 47.5113 169.409 47.4613 168.883 47.4613C168.208 47.4613 167.595 47.5989 167.045 47.8741C166.494 48.1243 166.019 48.4871 165.618 48.9625C165.243 49.4378 164.943 50.0008 164.718 50.6513C164.518 51.2768 164.417 51.9649 164.417 52.7155V61.7227H159.501V43.333ZM170.962 65.0628L173.176 61.6476C172.626 61.4474 172.15 61.0846 171.75 60.5592C171.375 60.0338 171.187 59.4083 171.187 58.6827C171.187 57.782 171.5 57.0189 172.125 56.3934C172.776 55.7679 173.552 55.4551 174.452 55.4551C175.353 55.4551 176.116 55.7679 176.742 56.3934C177.367 57.0189 177.68 57.782 177.68 58.6827C177.68 59.1581 177.605 59.5834 177.455 59.9587C177.305 60.309 177.067 60.7219 176.742 61.1972L173.176 66.5265L170.962 65.0628ZM42.6097 100.323C41.4588 100.323 40.3579 100.161 39.3071 99.8352C38.2562 99.51 37.293 99.0221 36.4173 98.3716C35.5416 97.7211 34.7784 96.9329 34.1279 96.0072C33.4774 95.0564 32.9645 93.9555 32.5892 92.7045L37.3555 90.828C37.7058 92.1791 38.3188 93.305 39.1945 94.2057C40.0702 95.0814 41.2211 95.5193 42.6472 95.5193C43.1727 95.5193 43.6731 95.4567 44.1484 95.3316C44.6488 95.1815 45.0867 94.9814 45.462 94.7312C45.8623 94.4559 46.1751 94.1182 46.4002 93.7179C46.6254 93.3175 46.738 92.8547 46.738 92.3292C46.738 91.8288 46.6504 91.3785 46.4753 90.9782C46.3002 90.5778 45.9999 90.2025 45.5746 89.8523C45.1743 89.502 44.6363 89.1642 43.9608 88.839C43.3103 88.5137 42.4971 88.1759 41.5213 87.8256L39.87 87.2252C39.1444 86.975 38.4063 86.6372 37.6557 86.2119C36.9302 85.7865 36.2671 85.2736 35.6667 84.6731C35.0662 84.0726 34.5658 83.3721 34.1655 82.5714C33.7902 81.7458 33.6025 80.82 33.6025 79.7942C33.6025 78.7434 33.8027 77.7676 34.203 76.8669C34.6283 75.9411 35.2163 75.1405 35.9669 74.465C36.7425 73.7644 37.6557 73.2265 38.7066 72.8512C39.7824 72.4509 40.9709 72.2507 42.2719 72.2507C43.623 72.2507 44.7864 72.4383 45.7622 72.8136C46.763 73.1639 47.6012 73.6268 48.2767 74.2023C48.9773 74.7527 49.5402 75.3657 49.9656 76.0412C50.3909 76.7168 50.7037 77.3548 50.9038 77.9553L46.4378 79.8318C46.1876 79.0812 45.7247 78.4056 45.0492 77.8051C44.3986 77.2047 43.4979 76.9044 42.347 76.9044C41.2461 76.9044 40.3329 77.1671 39.6073 77.6925C38.8817 78.1929 38.5189 78.856 38.5189 79.6816C38.5189 80.4823 38.8692 81.1703 39.5698 81.7458C40.2703 82.2962 41.3837 82.8342 42.9099 83.3596L44.5988 83.9225C45.6747 84.2978 46.6504 84.7357 47.5261 85.2361C48.4269 85.7115 49.19 86.2869 49.8155 86.9625C50.466 87.638 50.9539 88.4136 51.2791 89.2893C51.6294 90.14 51.8046 91.1283 51.8046 92.2542C51.8046 93.6553 51.5168 94.8688 50.9414 95.8946C50.3909 96.8954 49.6779 97.7211 48.8022 98.3716C47.9265 99.0221 46.9382 99.51 45.8373 99.8352C44.7364 100.161 43.6605 100.323 42.6097 100.323ZM66.7113 97.7711H66.4111C65.8356 98.4717 65.135 99.0721 64.3094 99.5725C63.5087 100.073 62.4704 100.323 61.1944 100.323C60.2436 100.323 59.3429 100.161 58.4922 99.8352C57.6666 99.535 56.941 99.1097 56.3155 98.5592C55.69 98.0088 55.2021 97.3458 54.8518 96.5701C54.5015 95.7945 54.3264 94.9438 54.3264 94.0181C54.3264 93.0673 54.514 92.2167 54.8893 91.4661C55.2646 90.6904 55.7901 90.0274 56.4656 89.477C57.1411 88.9265 57.9293 88.5137 58.83 88.2385C59.7557 87.9382 60.7565 87.7881 61.8324 87.7881C63.0334 87.7881 64.0216 87.8882 64.7973 88.0884C65.5729 88.2635 66.2109 88.4511 66.7113 88.6513V88.0884C66.7113 87.1126 66.3235 86.3119 65.5479 85.6864C64.7722 85.0359 63.809 84.7107 62.6581 84.7107C60.9567 84.7107 59.518 85.4237 58.3421 86.8499L54.7768 84.4104C56.7283 81.9585 59.3929 80.7325 62.7706 80.7325C65.6229 80.7325 67.7997 81.408 69.3009 82.7591C70.8021 84.0852 71.5527 86.0617 71.5527 88.6888V99.7227H66.7113V97.7711ZM66.7113 92.2542C66.1358 91.979 65.5354 91.7663 64.9099 91.6162C64.3094 91.441 63.6463 91.3535 62.9208 91.3535C61.7448 91.3535 60.8316 91.6162 60.1811 92.1416C59.5556 92.642 59.2428 93.2675 59.2428 94.0181C59.2428 94.7687 59.5431 95.3692 60.1435 95.8195C60.769 96.2699 61.4821 96.4951 62.2828 96.4951C62.9333 96.4951 63.5338 96.3825 64.0842 96.1573C64.6346 95.9071 65.0975 95.5944 65.4728 95.2191C65.8731 94.8187 66.1734 94.3684 66.3735 93.868C66.5987 93.3426 66.7113 92.8046 66.7113 92.2542ZM84.1774 72.5509C84.878 72.5509 85.5285 72.6135 86.129 72.7386C86.7294 72.8637 87.2674 73.0263 87.7428 73.2265L86.3541 77.6175C86.1039 77.4924 85.8287 77.3923 85.5285 77.3172C85.2533 77.2422 84.903 77.2047 84.4776 77.2047C83.7521 77.2047 83.1766 77.4423 82.7513 77.9177C82.3259 78.3681 82.1133 79.0061 82.1133 79.8318V81.333H86.6919V85.5363H82.1133V99.7227H77.1968V85.5363H73.8942V81.333H77.1968V79.5315C77.1968 78.4056 77.3595 77.4173 77.6847 76.5666C78.035 75.6909 78.5229 74.9654 79.1484 74.3899C79.7739 73.7894 80.512 73.3391 81.3627 73.0388C82.2133 72.7136 83.1516 72.5509 84.1774 72.5509ZM106.29 95.2941C105.439 96.7953 104.288 98.0088 102.837 98.9345C101.411 99.8603 99.6593 100.323 97.5827 100.323C96.1815 100.323 94.8805 100.085 93.6795 99.6101C92.5036 99.1097 91.4778 98.4216 90.6021 97.5459C89.7264 96.6702 89.0383 95.6444 88.5379 94.4685C88.0625 93.2675 87.8248 91.9539 87.8248 90.5278C87.8248 89.2017 88.0625 87.9507 88.5379 86.7748C89.0133 85.5738 89.6763 84.5355 90.527 83.6598C91.3777 82.7591 92.3785 82.046 93.5294 81.5206C94.7053 80.9952 95.9939 80.7325 97.395 80.7325C98.8712 80.7325 100.185 80.9827 101.336 81.4831C102.487 81.9585 103.45 82.634 104.225 83.5097C105.001 84.3604 105.589 85.3737 105.989 86.5496C106.39 87.7256 106.59 89.0016 106.59 90.3777C106.59 90.5528 106.59 90.7029 106.59 90.828C106.565 90.9782 106.552 91.1158 106.552 91.2409C106.527 91.366 106.515 91.5036 106.515 91.6537H92.6662C92.7663 92.4043 92.9665 93.0548 93.2667 93.6053C93.592 94.1307 93.9798 94.581 94.4301 94.9563C94.9055 95.3066 95.4184 95.5693 95.9689 95.7445C96.5193 95.8946 97.0823 95.9697 97.6577 95.9697C98.7836 95.9697 99.7093 95.7195 100.435 95.2191C101.186 94.6936 101.773 94.0431 102.199 93.2675L106.29 95.2941ZM101.824 88.1634C101.799 87.8382 101.686 87.4754 101.486 87.075C101.311 86.6747 101.035 86.2994 100.66 85.9491C100.31 85.5989 99.8595 85.3111 99.309 85.086C98.7836 84.8608 98.1456 84.7482 97.395 84.7482C96.3442 84.7482 95.4184 85.0484 94.6178 85.6489C93.8171 86.2494 93.2542 87.0876 92.9289 88.1634H101.824ZM109.73 81.333H114.346V83.885H114.646C114.871 83.4346 115.172 83.0218 115.547 82.6465C115.922 82.2712 116.335 81.9459 116.785 81.6707C117.261 81.3955 117.761 81.1828 118.287 81.0327C118.837 80.8826 119.375 80.8075 119.9 80.8075C120.551 80.8075 121.101 80.8701 121.552 80.9952C122.027 81.1203 122.427 81.2829 122.753 81.4831L121.439 85.9491C121.139 85.799 120.801 85.6864 120.426 85.6114C120.076 85.5113 119.638 85.4613 119.112 85.4613C118.437 85.4613 117.824 85.5989 117.273 85.8741C116.723 86.1243 116.247 86.4871 115.847 86.9625C115.472 87.4378 115.172 88.0008 114.946 88.6513C114.746 89.2768 114.646 89.9649 114.646 90.7155V99.7227H109.73V81.333ZM133.86 72.8512H138.926V94.9188H150.298V99.7227H133.86V72.8512ZM170.721 95.2941C169.87 96.7953 168.719 98.0088 167.268 98.9345C165.842 99.8603 164.091 100.323 162.014 100.323C160.613 100.323 159.312 100.085 158.111 99.6101C156.935 99.1097 155.909 98.4216 155.033 97.5459C154.158 96.6702 153.47 95.6444 152.969 94.4685C152.494 93.2675 152.256 91.9539 152.256 90.5278C152.256 89.2017 152.494 87.9507 152.969 86.7748C153.445 85.5738 154.108 84.5355 154.958 83.6598C155.809 82.7591 156.81 82.046 157.961 81.5206C159.137 80.9952 160.425 80.7325 161.826 80.7325C163.303 80.7325 164.616 80.9827 165.767 81.4831C166.918 81.9585 167.881 82.634 168.657 83.5097C169.432 84.3604 170.02 85.3737 170.421 86.5496C170.821 87.7256 171.021 89.0016 171.021 90.3777C171.021 90.5528 171.021 90.7029 171.021 90.828C170.996 90.9782 170.984 91.1158 170.984 91.2409C170.959 91.366 170.946 91.5036 170.946 91.6537H157.098C157.198 92.4043 157.398 93.0548 157.698 93.6053C158.023 94.1307 158.411 94.581 158.862 94.9563C159.337 95.3066 159.85 95.5693 160.4 95.7445C160.951 95.8946 161.514 95.9697 162.089 95.9697C163.215 95.9697 164.141 95.7195 164.866 95.2191C165.617 94.6936 166.205 94.0431 166.63 93.2675L170.721 95.2941ZM166.255 88.1634C166.23 87.8382 166.117 87.4754 165.917 87.075C165.742 86.6747 165.467 86.2994 165.091 85.9491C164.741 85.5989 164.291 85.3111 163.74 85.086C163.215 84.8608 162.577 84.7482 161.826 84.7482C160.776 84.7482 159.85 85.0484 159.049 85.6489C158.249 86.2494 157.686 87.0876 157.36 88.1634H166.255ZM178.777 83.7349H179.078C179.653 82.8091 180.429 82.0836 181.404 81.5581C182.38 81.0077 183.494 80.7325 184.745 80.7325C185.896 80.7325 186.909 80.9201 187.785 81.2954C188.66 81.6707 189.373 82.2087 189.924 82.9092C190.499 83.5848 190.925 84.4104 191.2 85.3862C191.5 86.337 191.65 87.4003 191.65 88.5762V99.7227H186.734V89.1767C186.734 87.8507 186.433 86.8749 185.833 86.2494C185.258 85.5989 184.407 85.2736 183.281 85.2736C182.605 85.2736 182.005 85.4237 181.479 85.724C180.979 85.9992 180.541 86.387 180.166 86.8874C179.816 87.3628 179.54 87.9382 179.34 88.6138C179.165 89.2643 179.078 89.9649 179.078 90.7155V99.7227H174.161V81.333H178.777V83.7349ZM209.41 97.5084H209.11C208.659 98.284 207.959 98.947 207.008 99.4975C206.057 100.048 204.881 100.323 203.48 100.323C202.304 100.323 201.178 100.085 200.103 99.6101C199.052 99.1097 198.113 98.4341 197.288 97.5834C196.487 96.7077 195.849 95.6694 195.374 94.4685C194.898 93.2675 194.661 91.9539 194.661 90.5278C194.661 89.1017 194.898 87.7881 195.374 86.5872C195.849 85.3862 196.487 84.3604 197.288 83.5097C198.113 82.634 199.052 81.9585 200.103 81.4831C201.178 80.9827 202.304 80.7325 203.48 80.7325C204.881 80.7325 206.057 81.0077 207.008 81.5581C207.959 82.1086 208.659 82.7716 209.11 83.5472H209.41L209.11 80.9201V72.8512H214.026V99.7227H209.41V97.5084ZM204.494 95.782C205.144 95.782 205.757 95.6694 206.333 95.4442C206.933 95.194 207.458 94.8438 207.909 94.3934C208.359 93.943 208.722 93.3926 208.997 92.7421C209.272 92.0916 209.41 91.3535 209.41 90.5278C209.41 89.7021 209.272 88.9641 208.997 88.3135C208.722 87.663 208.359 87.1126 207.909 86.6622C207.458 86.2119 206.933 85.8741 206.333 85.6489C205.757 85.3987 205.144 85.2736 204.494 85.2736C203.843 85.2736 203.218 85.3987 202.617 85.6489C202.042 85.8991 201.529 86.2494 201.078 86.6997C200.628 87.1501 200.265 87.7005 199.99 88.3511C199.715 89.0016 199.577 89.7272 199.577 90.5278C199.577 91.3284 199.715 92.054 199.99 92.7045C200.265 93.3551 200.628 93.9055 201.078 94.3559C201.529 94.8062 202.042 95.1565 202.617 95.4067C203.218 95.6569 203.843 95.782 204.494 95.782ZM220.955 78.6683C220.529 78.6683 220.116 78.5933 219.716 78.4431C219.341 78.268 219.003 78.0428 218.703 77.7676C218.428 77.4674 218.202 77.1296 218.027 76.7543C217.877 76.379 217.802 75.9662 217.802 75.5158C217.802 75.0654 217.877 74.6526 218.027 74.2773C218.202 73.902 218.428 73.5768 218.703 73.3015C219.003 73.0013 219.341 72.7761 219.716 72.626C220.116 72.4509 220.529 72.3633 220.955 72.3633C221.83 72.3633 222.581 72.676 223.206 73.3015C223.832 73.902 224.145 74.6401 224.145 75.5158C224.145 76.3915 223.832 77.1421 223.206 77.7676C222.581 78.3681 221.83 78.6683 220.955 78.6683ZM218.515 99.7227V81.333H223.432V99.7227H218.515ZM232.543 83.7349H232.844C233.419 82.8091 234.195 82.0836 235.171 81.5581C236.146 81.0077 237.26 80.7325 238.511 80.7325C239.662 80.7325 240.675 80.9201 241.551 81.2954C242.426 81.6707 243.139 82.2087 243.69 82.9092C244.265 83.5848 244.691 84.4104 244.966 85.3862C245.266 86.337 245.416 87.4003 245.416 88.5762V99.7227H240.5V89.1767C240.5 87.8507 240.2 86.8749 239.599 86.2494C239.024 85.5989 238.173 85.2736 237.047 85.2736C236.372 85.2736 235.771 85.4237 235.246 85.724C234.745 85.9992 234.307 86.387 233.932 86.8874C233.582 87.3628 233.307 87.9382 233.106 88.6138C232.931 89.2643 232.844 89.9649 232.844 90.7155V99.7227H227.927V81.333H232.543V83.7349ZM257.776 108.43C256.475 108.43 255.312 108.254 254.286 107.904C253.285 107.579 252.409 107.141 251.659 106.591C250.908 106.065 250.283 105.477 249.782 104.827C249.282 104.176 248.919 103.526 248.694 102.875L253.385 100.999C253.735 101.974 254.311 102.725 255.112 103.25C255.912 103.801 256.8 104.076 257.776 104.076C259.327 104.076 260.553 103.588 261.454 102.612C262.355 101.662 262.805 100.323 262.805 98.5968V97.3207H262.505C261.93 98.1214 261.166 98.7594 260.216 99.2348C259.29 99.6851 258.189 99.9103 256.913 99.9103C255.812 99.9103 254.736 99.6851 253.685 99.2348C252.66 98.7844 251.746 98.1464 250.946 97.3207C250.145 96.4701 249.495 95.4567 248.994 94.2808C248.494 93.1049 248.244 91.7913 248.244 90.3402C248.244 88.889 248.494 87.5754 248.994 86.3995C249.495 85.1985 250.145 84.1852 250.946 83.3596C251.746 82.5089 252.66 81.8584 253.685 81.408C254.736 80.9577 255.812 80.7325 256.913 80.7325C258.189 80.7325 259.29 80.9702 260.216 81.4455C261.166 81.8959 261.93 82.5214 262.505 83.322H262.805V81.333H267.496V98.4091C267.496 99.9603 267.259 101.349 266.783 102.575C266.308 103.826 265.645 104.877 264.794 105.727C263.944 106.603 262.918 107.266 261.717 107.717C260.541 108.192 259.227 108.43 257.776 108.43ZM257.964 95.4818C258.564 95.4818 259.152 95.3692 259.728 95.144C260.328 94.9188 260.854 94.5936 261.304 94.1682C261.754 93.7179 262.117 93.1799 262.392 92.5544C262.668 91.9039 262.805 91.1658 262.805 90.3402C262.805 89.5145 262.668 88.7764 262.392 88.1259C262.117 87.4754 261.754 86.9374 261.304 86.5121C260.854 86.0617 260.328 85.724 259.728 85.4988C259.152 85.2736 258.564 85.161 257.964 85.161C257.363 85.161 256.775 85.2736 256.2 85.4988C255.625 85.724 255.112 86.0617 254.661 86.5121C254.211 86.9625 253.848 87.5129 253.573 88.1634C253.298 88.7889 253.16 89.5145 253.16 90.3402C253.16 91.1658 253.298 91.9039 253.573 92.5544C253.848 93.1799 254.211 93.7179 254.661 94.1682C255.112 94.5936 255.625 94.9188 256.2 95.144C256.775 95.3692 257.363 95.4818 257.964 95.4818Z" fill="#F68E00"/>
<path d="M42.5877 115.088H43.8794L41.3094 124.723H40.0445L37.9723 118.372H37.9185L35.8463 124.723H34.5815L31.9038 115.088H33.1955L35.2273 122.664H35.2812L37.3668 116.38H38.524L40.6097 122.664H40.6635L42.5877 115.088ZM47.071 124.938C46.1021 124.938 45.3038 124.606 44.6758 123.942C44.0479 123.278 43.7339 122.44 43.7339 121.426C43.7339 120.421 44.0389 119.587 44.6489 118.923C45.2589 118.25 46.0393 117.914 46.9902 117.914C47.968 117.914 48.744 118.232 49.3181 118.869C49.9012 119.497 50.1927 120.381 50.1927 121.52L50.1792 121.655H44.9988C45.0167 122.301 45.232 122.821 45.6446 123.216C46.0573 123.61 46.5507 123.808 47.1248 123.808C47.9142 123.808 48.5332 123.413 48.9817 122.624L50.0851 123.162C49.789 123.718 49.3764 124.153 48.8471 124.467C48.3268 124.781 47.7348 124.938 47.071 124.938ZM45.093 120.632H48.874C48.8381 120.175 48.6498 119.798 48.3089 119.502C47.977 119.197 47.5285 119.044 46.9633 119.044C46.4968 119.044 46.0932 119.188 45.7523 119.475C45.4204 119.762 45.2006 120.148 45.093 120.632ZM60.0673 124.723H58.8832V123.808H58.8294C58.641 124.131 58.3495 124.4 57.9548 124.615C57.5691 124.83 57.1654 124.938 56.7438 124.938C55.9364 124.938 55.313 124.709 54.8734 124.252C54.4428 123.785 54.2275 123.126 54.2275 122.274V118.129H55.4655V122.193C55.4924 123.269 56.0351 123.808 57.0936 123.808C57.587 123.808 57.9996 123.61 58.3316 123.216C58.6635 122.812 58.8294 122.332 58.8294 121.776V118.129H60.0673V124.723ZM66.5545 122.893C66.5545 123.467 66.3033 123.951 65.801 124.346C65.2986 124.741 64.6662 124.938 63.9037 124.938C63.2399 124.938 62.6568 124.768 62.1545 124.427C61.6521 124.077 61.2933 123.619 61.078 123.054L62.1814 122.583C62.3428 122.978 62.5761 123.287 62.8811 123.512C63.195 123.727 63.5359 123.835 63.9037 123.835C64.2984 123.835 64.6258 123.749 64.886 123.579C65.1551 123.408 65.2897 123.207 65.2897 122.973C65.2897 122.552 64.9667 122.242 64.3208 122.045L63.1906 121.762C61.9078 121.439 61.2664 120.82 61.2664 119.905C61.2664 119.304 61.5086 118.825 61.993 118.466C62.4864 118.098 63.1143 117.914 63.8768 117.914C64.4599 117.914 64.9847 118.053 65.4511 118.331C65.9266 118.609 66.2585 118.982 66.4469 119.448L65.3435 119.905C65.2179 119.627 65.0116 119.412 64.7245 119.26C64.4464 119.098 64.1325 119.017 63.7826 119.017C63.4597 119.017 63.1681 119.098 62.908 119.26C62.6568 119.421 62.5312 119.618 62.5312 119.852C62.5312 120.228 62.8856 120.498 63.5942 120.659L64.59 120.915C65.8997 121.238 66.5545 121.897 66.5545 122.893ZM70.658 124.938C69.6892 124.938 68.8908 124.606 68.2629 123.942C67.6349 123.278 67.321 122.44 67.321 121.426C67.321 120.421 67.626 119.587 68.236 118.923C68.8459 118.25 69.6264 117.914 70.5773 117.914C71.555 117.914 72.331 118.232 72.9051 118.869C73.4882 119.497 73.7797 120.381 73.7797 121.52L73.7663 121.655H68.5858C68.6037 122.301 68.819 122.821 69.2317 123.216C69.6443 123.61 70.1377 123.808 70.7118 123.808C71.5012 123.808 72.1202 123.413 72.5687 122.624L73.6721 123.162C73.3761 123.718 72.9634 124.153 72.4342 124.467C71.9139 124.781 71.3218 124.938 70.658 124.938ZM68.68 120.632H72.4611C72.4252 120.175 72.2368 119.798 71.8959 119.502C71.564 119.197 71.1155 119.044 70.5503 119.044C70.0839 119.044 69.6802 119.188 69.3393 119.475C69.0074 119.762 68.7876 120.148 68.68 120.632ZM83.6544 124.723H82.4703V123.808H82.4165C82.2281 124.131 81.9365 124.4 81.5418 124.615C81.1561 124.83 80.7524 124.938 80.3308 124.938C79.5235 124.938 78.9 124.709 78.4605 124.252C78.0299 123.785 77.8146 123.126 77.8146 122.274V118.129H79.0525V122.193C79.0794 123.269 79.6221 123.808 80.6807 123.808C81.174 123.808 81.5867 123.61 81.9186 123.216C82.2505 122.812 82.4165 122.332 82.4165 121.776V118.129H83.6544V124.723ZM88.3907 123.808C88.9828 123.808 89.4806 123.583 89.8843 123.135C90.288 122.695 90.4898 122.126 90.4898 121.426C90.4898 120.735 90.288 120.166 89.8843 119.717C89.4806 119.269 88.9828 119.044 88.3907 119.044C87.7897 119.044 87.2873 119.269 86.8837 119.717C86.489 120.166 86.2916 120.735 86.2916 121.426C86.2916 122.126 86.489 122.7 86.8837 123.148C87.2873 123.588 87.7897 123.808 88.3907 123.808ZM88.5926 124.938C88.1081 124.938 87.6641 124.835 87.2604 124.628C86.8657 124.422 86.5607 124.149 86.3454 123.808H86.2916L86.3454 124.723V127.629H85.1075V118.129H86.2916V119.044H86.3454C86.5607 118.703 86.8657 118.43 87.2604 118.224C87.6641 118.017 88.1081 117.914 88.5926 117.914C89.4627 117.914 90.1983 118.255 90.7993 118.937C91.4183 119.627 91.7277 120.457 91.7277 121.426C91.7277 122.404 91.4183 123.234 90.7993 123.915C90.1983 124.597 89.4627 124.938 88.5926 124.938ZM97.1675 121.063H92.8616V120.04H97.1675V121.063ZM101.28 124.83C100.742 124.83 100.293 124.664 99.9345 124.332C99.5847 124.001 99.4053 123.539 99.3963 122.946V119.26H98.2391V118.129H99.3963V116.111H100.634V118.129H102.249V119.26H100.634V122.543C100.634 122.982 100.719 123.283 100.89 123.444C101.06 123.597 101.253 123.673 101.468 123.673C101.567 123.673 101.661 123.664 101.751 123.646C101.85 123.619 101.939 123.588 102.02 123.552L102.41 124.655C102.087 124.772 101.711 124.83 101.28 124.83ZM102.984 121.426C102.984 120.412 103.302 119.574 103.939 118.91C104.585 118.246 105.397 117.914 106.375 117.914C107.353 117.914 108.16 118.246 108.797 118.91C109.443 119.574 109.766 120.412 109.766 121.426C109.766 122.449 109.443 123.287 108.797 123.942C108.16 124.606 107.353 124.938 106.375 124.938C105.397 124.938 104.585 124.606 103.939 123.942C103.302 123.278 102.984 122.44 102.984 121.426ZM104.222 121.426C104.222 122.135 104.428 122.709 104.841 123.148C105.254 123.588 105.765 123.808 106.375 123.808C106.985 123.808 107.496 123.588 107.909 123.148C108.321 122.709 108.528 122.135 108.528 121.426C108.528 120.726 108.321 120.157 107.909 119.717C107.487 119.269 106.976 119.044 106.375 119.044C105.774 119.044 105.263 119.269 104.841 119.717C104.428 120.157 104.222 120.726 104.222 121.426ZM115.196 121.063H110.89V120.04H115.196V121.063ZM119.659 123.808C120.269 123.808 120.766 123.588 121.152 123.148C121.556 122.709 121.758 122.135 121.758 121.426C121.758 120.735 121.556 120.166 121.152 119.717C120.757 119.269 120.26 119.044 119.659 119.044C119.067 119.044 118.569 119.269 118.165 119.717C117.761 120.166 117.559 120.735 117.559 121.426C117.559 122.126 117.761 122.695 118.165 123.135C118.569 123.583 119.067 123.808 119.659 123.808ZM119.457 124.938C118.596 124.938 117.856 124.597 117.237 123.915C116.627 123.225 116.322 122.395 116.322 121.426C116.322 120.457 116.627 119.627 117.237 118.937C117.856 118.255 118.596 117.914 119.457 117.914C119.941 117.914 120.381 118.017 120.775 118.224C121.179 118.43 121.489 118.703 121.704 119.044H121.758L121.704 118.129V115.088H122.942V124.723H121.758V123.808H121.704C121.489 124.149 121.179 124.422 120.775 124.628C120.381 124.835 119.941 124.938 119.457 124.938ZM125.287 122.704C125.287 123.027 125.422 123.296 125.691 123.512C125.969 123.727 126.292 123.835 126.659 123.835C127.18 123.835 127.642 123.642 128.045 123.256C128.458 122.87 128.664 122.417 128.664 121.897C128.279 121.592 127.74 121.439 127.05 121.439C126.547 121.439 126.126 121.561 125.785 121.803C125.453 122.045 125.287 122.345 125.287 122.704ZM126.888 117.914C127.803 117.914 128.525 118.161 129.055 118.654C129.584 119.139 129.848 119.807 129.848 120.659V124.723H128.664V123.808H128.611C128.099 124.561 127.417 124.938 126.565 124.938C125.839 124.938 125.229 124.723 124.735 124.292C124.251 123.861 124.009 123.323 124.009 122.677C124.009 121.996 124.264 121.453 124.776 121.049C125.296 120.646 125.987 120.444 126.848 120.444C127.583 120.444 128.189 120.578 128.664 120.847V120.565C128.664 120.134 128.494 119.771 128.153 119.475C127.812 119.17 127.413 119.017 126.956 119.017C126.265 119.017 125.718 119.309 125.314 119.892L124.224 119.206C124.825 118.345 125.713 117.914 126.888 117.914ZM133.724 124.83C133.186 124.83 132.737 124.664 132.378 124.332C132.028 124.001 131.849 123.539 131.84 122.946V119.26H130.683V118.129H131.84V116.111H133.078V118.129H134.693V119.26H133.078V122.543C133.078 122.982 133.163 123.283 133.334 123.444C133.504 123.597 133.697 123.673 133.912 123.673C134.011 123.673 134.105 123.664 134.195 123.646C134.293 123.619 134.383 123.588 134.464 123.552L134.854 124.655C134.531 124.772 134.154 124.83 133.724 124.83ZM138.765 124.938C137.796 124.938 136.998 124.606 136.37 123.942C135.742 123.278 135.428 122.44 135.428 121.426C135.428 120.421 135.733 119.587 136.343 118.923C136.953 118.25 137.733 117.914 138.684 117.914C139.662 117.914 140.438 118.232 141.012 118.869C141.595 119.497 141.886 120.381 141.886 121.52L141.873 121.655H136.693C136.71 122.301 136.926 122.821 137.338 123.216C137.751 123.61 138.244 123.808 138.819 123.808C139.608 123.808 140.227 123.413 140.675 122.624L141.779 123.162C141.483 123.718 141.07 124.153 140.541 124.467C140.021 124.781 139.429 124.938 138.765 124.938ZM136.787 120.632H140.568C140.532 120.175 140.344 119.798 140.003 119.502C139.671 119.197 139.222 119.044 138.657 119.044C138.191 119.044 137.787 119.188 137.446 119.475C137.114 119.762 136.894 120.148 136.787 120.632ZM149.46 124.938C148.976 124.938 148.532 124.835 148.128 124.628C147.733 124.422 147.428 124.149 147.213 123.808H147.159V124.723H145.975V115.088H147.213V118.129L147.159 119.044H147.213C147.428 118.703 147.733 118.43 148.128 118.224C148.532 118.017 148.976 117.914 149.46 117.914C150.33 117.914 151.066 118.255 151.667 118.937C152.286 119.627 152.595 120.457 152.595 121.426C152.595 122.404 152.286 123.234 151.667 123.915C151.066 124.597 150.33 124.938 149.46 124.938ZM149.258 123.808C149.85 123.808 150.348 123.583 150.752 123.135C151.156 122.695 151.357 122.126 151.357 121.426C151.357 120.735 151.156 120.166 150.752 119.717C150.348 119.269 149.85 119.044 149.258 119.044C148.657 119.044 148.155 119.269 147.751 119.717C147.357 120.166 147.159 120.735 147.159 121.426C147.159 122.126 147.357 122.7 147.751 123.148C148.155 123.588 148.657 123.808 149.258 123.808ZM159.448 124.723H158.264V123.808H158.21C158.022 124.131 157.73 124.4 157.336 124.615C156.95 124.83 156.546 124.938 156.125 124.938C155.317 124.938 154.694 124.709 154.254 124.252C153.824 123.785 153.608 123.126 153.608 122.274V118.129H154.846V122.193C154.873 123.269 155.416 123.808 156.475 123.808C156.968 123.808 157.381 123.61 157.712 123.216C158.044 122.812 158.21 122.332 158.21 121.776V118.129H159.448V124.723ZM165.935 122.893C165.935 123.467 165.684 123.951 165.182 124.346C164.68 124.741 164.047 124.938 163.285 124.938C162.621 124.938 162.038 124.768 161.535 124.427C161.033 124.077 160.674 123.619 160.459 123.054L161.562 122.583C161.724 122.978 161.957 123.287 162.262 123.512C162.576 123.727 162.917 123.835 163.285 123.835C163.679 123.835 164.007 123.749 164.267 123.579C164.536 123.408 164.671 123.207 164.671 122.973C164.671 122.552 164.348 122.242 163.702 122.045L162.571 121.762C161.289 121.439 160.647 120.82 160.647 119.905C160.647 119.304 160.89 118.825 161.374 118.466C161.867 118.098 162.495 117.914 163.258 117.914C163.841 117.914 164.366 118.053 164.832 118.331C165.307 118.609 165.639 118.982 165.828 119.448L164.724 119.905C164.599 119.627 164.392 119.412 164.105 119.26C163.827 119.098 163.513 119.017 163.164 119.017C162.841 119.017 162.549 119.098 162.289 119.26C162.038 119.421 161.912 119.618 161.912 119.852C161.912 120.228 162.266 120.498 162.975 120.659L163.971 120.915C165.281 121.238 165.935 121.897 165.935 122.893ZM168.548 115.855C168.548 116.098 168.463 116.304 168.293 116.474C168.122 116.645 167.916 116.73 167.674 116.73C167.432 116.73 167.225 116.645 167.055 116.474C166.884 116.304 166.799 116.098 166.799 115.855C166.799 115.613 166.884 115.407 167.055 115.236C167.225 115.066 167.432 114.981 167.674 114.981C167.916 114.981 168.122 115.066 168.293 115.236C168.463 115.407 168.548 115.613 168.548 115.855ZM168.293 118.129V124.723H167.055V118.129H168.293ZM169.904 118.129H171.088V119.044H171.142C171.33 118.721 171.617 118.452 172.003 118.237C172.398 118.022 172.806 117.914 173.227 117.914C174.035 117.914 174.654 118.147 175.084 118.614C175.524 119.071 175.744 119.726 175.744 120.578V124.723H174.506V120.659C174.479 119.583 173.936 119.044 172.878 119.044C172.384 119.044 171.972 119.246 171.64 119.65C171.308 120.045 171.142 120.52 171.142 121.076V124.723H169.904V118.129ZM180.157 124.938C179.188 124.938 178.39 124.606 177.762 123.942C177.134 123.278 176.82 122.44 176.82 121.426C176.82 120.421 177.125 119.587 177.735 118.923C178.345 118.25 179.125 117.914 180.076 117.914C181.054 117.914 181.83 118.232 182.404 118.869C182.987 119.497 183.279 120.381 183.279 121.52L183.265 121.655H178.085C178.103 122.301 178.318 122.821 178.731 123.216C179.143 123.61 179.637 123.808 180.211 123.808C181 123.808 181.619 123.413 182.068 122.624L183.171 123.162C182.875 123.718 182.462 124.153 181.933 124.467C181.413 124.781 180.821 124.938 180.157 124.938ZM178.179 120.632H181.96C181.924 120.175 181.736 119.798 181.395 119.502C181.063 119.197 180.615 119.044 180.049 119.044C179.583 119.044 179.179 119.188 178.838 119.475C178.506 119.762 178.287 120.148 178.179 120.632ZM189.522 122.893C189.522 123.467 189.271 123.951 188.769 124.346C188.267 124.741 187.634 124.938 186.872 124.938C186.208 124.938 185.625 124.768 185.122 124.427C184.62 124.077 184.261 123.619 184.046 123.054L185.149 122.583C185.311 122.978 185.544 123.287 185.849 123.512C186.163 123.727 186.504 123.835 186.872 123.835C187.266 123.835 187.594 123.749 187.854 123.579C188.123 123.408 188.258 123.207 188.258 122.973C188.258 122.552 187.935 122.242 187.289 122.045L186.159 121.762C184.876 121.439 184.234 120.82 184.234 119.905C184.234 119.304 184.477 118.825 184.961 118.466C185.454 118.098 186.082 117.914 186.845 117.914C187.428 117.914 187.953 118.053 188.419 118.331C188.895 118.609 189.226 118.982 189.415 119.448L188.311 119.905C188.186 119.627 187.98 119.412 187.692 119.26C187.414 119.098 187.1 119.017 186.751 119.017C186.428 119.017 186.136 119.098 185.876 119.26C185.625 119.421 185.499 119.618 185.499 119.852C185.499 120.228 185.854 120.498 186.562 120.659L187.558 120.915C188.868 121.238 189.522 121.897 189.522 122.893ZM195.646 122.893C195.646 123.467 195.395 123.951 194.892 124.346C194.39 124.741 193.758 124.938 192.995 124.938C192.331 124.938 191.748 124.768 191.246 124.427C190.744 124.077 190.385 123.619 190.169 123.054L191.273 122.583C191.434 122.978 191.667 123.287 191.972 123.512C192.286 123.727 192.627 123.835 192.995 123.835C193.39 123.835 193.717 123.749 193.977 123.579C194.246 123.408 194.381 123.207 194.381 122.973C194.381 122.552 194.058 122.242 193.412 122.045L192.282 121.762C190.999 121.439 190.358 120.82 190.358 119.905C190.358 119.304 190.6 118.825 191.084 118.466C191.578 118.098 192.206 117.914 192.968 117.914C193.551 117.914 194.076 118.053 194.543 118.331C195.018 118.609 195.35 118.982 195.538 119.448L194.435 119.905C194.309 119.627 194.103 119.412 193.816 119.26C193.538 119.098 193.224 119.017 192.874 119.017C192.551 119.017 192.26 119.098 191.999 119.26C191.748 119.421 191.623 119.618 191.623 119.852C191.623 120.228 191.977 120.498 192.686 120.659L193.681 120.915C194.991 121.238 195.646 121.897 195.646 122.893ZM200.582 122.704C200.582 123.027 200.716 123.296 200.985 123.512C201.263 123.727 201.586 123.835 201.954 123.835C202.474 123.835 202.936 123.642 203.34 123.256C203.753 122.87 203.959 122.417 203.959 121.897C203.573 121.592 203.035 121.439 202.344 121.439C201.842 121.439 201.42 121.561 201.079 121.803C200.747 122.045 200.582 122.345 200.582 122.704ZM202.183 117.914C203.098 117.914 203.82 118.161 204.349 118.654C204.878 119.139 205.143 119.807 205.143 120.659V124.723H203.959V123.808H203.905C203.394 124.561 202.712 124.938 201.86 124.938C201.133 124.938 200.523 124.723 200.03 124.292C199.545 123.861 199.303 123.323 199.303 122.677C199.303 121.996 199.559 121.453 200.07 121.049C200.591 120.646 201.281 120.444 202.142 120.444C202.878 120.444 203.484 120.578 203.959 120.847V120.565C203.959 120.134 203.789 119.771 203.448 119.475C203.107 119.17 202.708 119.017 202.25 119.017C201.559 119.017 201.012 119.309 200.608 119.892L199.519 119.206C200.12 118.345 201.008 117.914 202.183 117.914ZM206.539 118.129H207.723V119.044H207.777C207.966 118.721 208.253 118.452 208.638 118.237C209.033 118.022 209.441 117.914 209.863 117.914C210.67 117.914 211.289 118.147 211.72 118.614C212.159 119.071 212.379 119.726 212.379 120.578V124.723H211.141V120.659C211.114 119.583 210.572 119.044 209.513 119.044C209.02 119.044 208.607 119.246 208.275 119.65C207.943 120.045 207.777 120.52 207.777 121.076V124.723H206.539V118.129ZM216.793 123.808C217.402 123.808 217.9 123.588 218.286 123.148C218.69 122.709 218.892 122.135 218.892 121.426C218.892 120.735 218.69 120.166 218.286 119.717C217.891 119.269 217.394 119.044 216.793 119.044C216.2 119.044 215.703 119.269 215.299 119.717C214.895 120.166 214.693 120.735 214.693 121.426C214.693 122.126 214.895 122.695 215.299 123.135C215.703 123.583 216.2 123.808 216.793 123.808ZM216.591 124.938C215.729 124.938 214.989 124.597 214.37 123.915C213.76 123.225 213.455 122.395 213.455 121.426C213.455 120.457 213.76 119.627 214.37 118.937C214.989 118.255 215.729 117.914 216.591 117.914C217.075 117.914 217.515 118.017 217.909 118.224C218.313 118.43 218.622 118.703 218.838 119.044H218.892L218.838 118.129V115.088H220.076V124.723H218.892V123.808H218.838C218.622 124.149 218.313 124.422 217.909 124.628C217.515 124.835 217.075 124.938 216.591 124.938ZM230.778 115.855C230.778 116.098 230.693 116.304 230.522 116.474C230.352 116.645 230.146 116.73 229.903 116.73C229.661 116.73 229.455 116.645 229.284 116.474C229.114 116.304 229.029 116.098 229.029 115.855C229.029 115.613 229.114 115.407 229.284 115.236C229.455 115.066 229.661 114.981 229.903 114.981C230.146 114.981 230.352 115.066 230.522 115.236C230.693 115.407 230.778 115.613 230.778 115.855ZM226.324 119.26V124.723H225.086V119.26H223.848V118.129H225.086V117.174C225.086 116.851 225.14 116.555 225.248 116.286C225.364 116.017 225.521 115.788 225.719 115.6C225.916 115.402 226.149 115.25 226.418 115.142C226.696 115.034 226.997 114.981 227.32 114.981C227.768 114.981 228.136 115.057 228.423 115.209L228.087 116.299C227.872 116.192 227.629 116.138 227.36 116.138C227.055 116.138 226.804 116.246 226.607 116.461C226.418 116.667 226.324 116.945 226.324 117.295V118.129H230.522V124.723H229.284V119.26H226.324ZM232.137 118.129H233.321V119.044H233.375C233.563 118.721 233.85 118.452 234.236 118.237C234.631 118.022 235.039 117.914 235.46 117.914C236.268 117.914 236.887 118.147 237.317 118.614C237.757 119.071 237.977 119.726 237.977 120.578V124.723H236.739V120.659C236.712 119.583 236.169 119.044 235.111 119.044C234.617 119.044 234.205 119.246 233.873 119.65C233.541 120.045 233.375 120.52 233.375 121.076V124.723H232.137V118.129ZM240.266 122.704C240.266 123.027 240.4 123.296 240.669 123.512C240.947 123.727 241.27 123.835 241.638 123.835C242.158 123.835 242.62 123.642 243.024 123.256C243.437 122.87 243.643 122.417 243.643 121.897C243.257 121.592 242.719 121.439 242.028 121.439C241.526 121.439 241.104 121.561 240.763 121.803C240.432 122.045 240.266 122.345 240.266 122.704ZM241.867 117.914C242.782 117.914 243.504 118.161 244.033 118.654C244.562 119.139 244.827 119.807 244.827 120.659V124.723H243.643V123.808H243.589C243.078 124.561 242.396 124.938 241.544 124.938C240.817 124.938 240.207 124.723 239.714 124.292C239.229 123.861 238.987 123.323 238.987 122.677C238.987 121.996 239.243 121.453 239.754 121.049C240.275 120.646 240.965 120.444 241.826 120.444C242.562 120.444 243.168 120.578 243.643 120.847V120.565C243.643 120.134 243.473 119.771 243.132 119.475C242.791 119.17 242.392 119.017 241.934 119.017C241.243 119.017 240.696 119.309 240.292 119.892L239.203 119.206C239.804 118.345 240.692 117.914 241.867 117.914ZM246.223 118.129H247.407V119.044H247.461C247.65 118.721 247.937 118.452 248.322 118.237C248.717 118.022 249.125 117.914 249.547 117.914C250.354 117.914 250.973 118.147 251.404 118.614C251.843 119.071 252.063 119.726 252.063 120.578V124.723H250.825V120.659C250.798 119.583 250.256 119.044 249.197 119.044C248.704 119.044 248.291 119.246 247.959 119.65C247.627 120.045 247.461 120.52 247.461 121.076V124.723H246.223V118.129ZM256.53 124.938C255.553 124.938 254.741 124.606 254.095 123.942C253.458 123.26 253.14 122.422 253.14 121.426C253.14 120.412 253.458 119.574 254.095 118.91C254.741 118.246 255.553 117.914 256.53 117.914C257.203 117.914 257.791 118.084 258.293 118.425C258.795 118.757 259.172 119.219 259.423 119.811L258.293 120.282C257.943 119.457 257.329 119.044 256.45 119.044C255.884 119.044 255.396 119.273 254.983 119.731C254.579 120.188 254.377 120.753 254.377 121.426C254.377 122.099 254.579 122.664 254.983 123.121C255.396 123.579 255.884 123.808 256.45 123.808C257.356 123.808 257.993 123.395 258.36 122.57L259.464 123.041C259.222 123.633 258.84 124.099 258.32 124.44C257.809 124.772 257.212 124.938 256.53 124.938ZM262.148 115.855C262.148 116.098 262.062 116.304 261.892 116.474C261.722 116.645 261.515 116.73 261.273 116.73C261.031 116.73 260.824 116.645 260.654 116.474C260.484 116.304 260.398 116.098 260.398 115.855C260.398 115.613 260.484 115.407 260.654 115.236C260.824 115.066 261.031 114.981 261.273 114.981C261.515 114.981 261.722 115.066 261.892 115.236C262.062 115.407 262.148 115.613 262.148 115.855ZM261.892 118.129V124.723H260.654V118.129H261.892ZM264.339 122.704C264.339 123.027 264.473 123.296 264.742 123.512C265.021 123.727 265.344 123.835 265.711 123.835C266.232 123.835 266.694 123.642 267.097 123.256C267.51 122.87 267.716 122.417 267.716 121.897C267.33 121.592 266.792 121.439 266.102 121.439C265.599 121.439 265.178 121.561 264.837 121.803C264.505 122.045 264.339 122.345 264.339 122.704ZM265.94 117.914C266.855 117.914 267.577 118.161 268.106 118.654C268.636 119.139 268.9 119.807 268.9 120.659V124.723H267.716V123.808H267.662C267.151 124.561 266.469 124.938 265.617 124.938C264.89 124.938 264.28 124.723 263.787 124.292C263.303 123.861 263.061 123.323 263.061 122.677C263.061 121.996 263.316 121.453 263.827 121.049C264.348 120.646 265.039 120.444 265.9 120.444C266.635 120.444 267.241 120.578 267.716 120.847V120.565C267.716 120.134 267.546 119.771 267.205 119.475C266.864 119.17 266.465 119.017 266.007 119.017C265.317 119.017 264.769 119.309 264.366 119.892L263.276 119.206C263.877 118.345 264.765 117.914 265.94 117.914ZM271.535 115.088V124.723H270.297V115.088H271.535ZM34.0432 128.855C34.0432 129.098 33.958 129.304 33.7876 129.474C33.6171 129.645 33.4108 129.73 33.1686 129.73C32.9264 129.73 32.7201 129.645 32.5496 129.474C32.3792 129.304 32.294 129.098 32.294 128.855C32.294 128.613 32.3792 128.407 32.5496 128.236C32.7201 128.066 32.9264 127.981 33.1686 127.981C33.4108 127.981 33.6171 128.066 33.7876 128.236C33.958 128.407 34.0432 128.613 34.0432 128.855ZM33.7876 131.129V137.723H32.5496V131.129H33.7876ZM35.3986 131.129H36.5827V132.044H36.6365C36.8249 131.721 37.112 131.452 37.4977 131.237C37.8924 131.022 38.3006 130.914 38.7222 130.914C39.5295 130.914 40.1485 131.147 40.5791 131.614C41.0186 132.071 41.2384 132.726 41.2384 133.578V137.723H40.0005V133.659C39.9736 132.583 39.4308 132.044 38.3723 132.044C37.8789 132.044 37.4663 132.246 37.1344 132.65C36.8025 133.045 36.6365 133.52 36.6365 134.076V137.723H35.3986V131.129ZM45.6011 127.981C46.0496 127.981 46.4174 128.057 46.7045 128.209L46.3681 129.299C46.1528 129.192 45.9106 129.138 45.6415 129.138C45.3365 129.138 45.0853 129.246 44.888 129.461C44.6996 129.667 44.6054 129.945 44.6054 130.295V131.129H46.3277V132.26H44.6054V137.723H43.3675V132.26H42.1295V131.129H43.3675V130.174C43.3675 129.519 43.5738 128.99 43.9864 128.586C44.408 128.183 44.9463 127.981 45.6011 127.981ZM46.7299 134.426C46.7299 133.412 47.0484 132.574 47.6853 131.91C48.3312 131.246 49.143 130.914 50.1208 130.914C51.0986 130.914 51.9059 131.246 52.5428 131.91C53.1887 132.574 53.5116 133.412 53.5116 134.426C53.5116 135.449 53.1887 136.287 52.5428 136.942C51.9059 137.606 51.0986 137.938 50.1208 137.938C49.143 137.938 48.3312 137.606 47.6853 136.942C47.0484 136.278 46.7299 135.44 46.7299 134.426ZM47.9679 134.426C47.9679 135.135 48.1742 135.709 48.5868 136.148C48.9995 136.588 49.5108 136.808 50.1208 136.808C50.7308 136.808 51.2421 136.588 51.6548 136.148C52.0674 135.709 52.2737 135.135 52.2737 134.426C52.2737 133.726 52.0674 133.157 51.6548 132.717C51.2331 132.269 50.7218 132.044 50.1208 132.044C49.5198 132.044 49.0084 132.269 48.5868 132.717C48.1742 133.157 47.9679 133.726 47.9679 134.426ZM55.7427 137.723H54.5047V131.129H55.6889V132.206H55.7427C55.8683 131.856 56.1239 131.56 56.5097 131.318C56.9044 131.067 57.2901 130.941 57.6669 130.941C58.0257 130.941 58.3307 130.995 58.5818 131.102L58.2051 132.3C58.0526 132.237 57.8104 132.206 57.4785 132.206C57.012 132.206 56.6038 132.394 56.254 132.771C55.9131 133.148 55.7427 133.587 55.7427 134.09V137.723ZM60.6309 137.723H59.393V131.129H60.5771V132.044H60.6309C60.8193 131.721 61.1064 131.452 61.4921 131.237C61.8868 131.022 62.277 130.914 62.6627 130.914C63.1471 130.914 63.5732 131.026 63.941 131.25C64.3088 131.475 64.5779 131.784 64.7484 132.179C65.2956 131.336 66.0536 130.914 67.0224 130.914C67.7849 130.914 68.3725 131.147 68.7851 131.614C69.1978 132.08 69.4041 132.744 69.4041 133.605V137.723H68.1662V133.794C68.1662 133.175 68.054 132.731 67.8298 132.461C67.6055 132.183 67.2287 132.044 66.6995 132.044C66.224 132.044 65.8248 132.246 65.5019 132.65C65.179 133.054 65.0175 133.529 65.0175 134.076V137.723H63.7796V133.794C63.7796 133.175 63.6674 132.731 63.4432 132.461C63.2189 132.183 62.8421 132.044 62.3129 132.044C61.8374 132.044 61.4383 132.246 61.1153 132.65C60.7924 133.054 60.6309 133.529 60.6309 134.076V137.723ZM71.6873 135.704C71.6873 136.027 71.8218 136.296 72.0909 136.512C72.369 136.727 72.692 136.835 73.0597 136.835C73.58 136.835 74.042 136.642 74.4457 136.256C74.8583 135.87 75.0647 135.417 75.0647 134.897C74.6789 134.592 74.1407 134.439 73.45 134.439C72.9476 134.439 72.526 134.561 72.1851 134.803C71.8532 135.045 71.6873 135.345 71.6873 135.704ZM73.2885 130.914C74.2035 130.914 74.9256 131.161 75.4549 131.654C75.9841 132.139 76.2488 132.807 76.2488 133.659V137.723H75.0647V136.808H75.0108C74.4995 137.561 73.8178 137.938 72.9656 137.938C72.2389 137.938 71.6289 137.723 71.1356 137.292C70.6512 136.861 70.409 136.323 70.409 135.677C70.409 134.996 70.6646 134.453 71.1759 134.049C71.6962 133.646 72.387 133.444 73.2481 133.444C73.9837 133.444 74.5892 133.578 75.0647 133.847V133.565C75.0647 133.134 74.8942 132.771 74.5533 132.475C74.2125 132.17 73.8133 132.017 73.3558 132.017C72.665 132.017 72.1178 132.309 71.7142 132.892L70.6242 132.206C71.2253 131.345 72.1134 130.914 73.2885 130.914ZM80.124 137.83C79.5858 137.83 79.1373 137.664 78.7784 137.332C78.4286 137.001 78.2492 136.539 78.2402 135.946V132.26H77.083V131.129H78.2402V129.111H79.4781V131.129H81.0928V132.26H79.4781V135.543C79.4781 135.982 79.5634 136.283 79.7338 136.444C79.9042 136.597 80.0971 136.673 80.3124 136.673C80.4111 136.673 80.5053 136.664 80.595 136.646C80.6937 136.619 80.7834 136.588 80.8641 136.552L81.2543 137.655C80.9314 137.772 80.5546 137.83 80.124 137.83ZM83.9374 128.855C83.9374 129.098 83.8522 129.304 83.6817 129.474C83.5113 129.645 83.305 129.73 83.0628 129.73C82.8205 129.73 82.6142 129.645 82.4438 129.474C82.2733 129.304 82.1881 129.098 82.1881 128.855C82.1881 128.613 82.2733 128.407 82.4438 128.236C82.6142 128.066 82.8205 127.981 83.0628 127.981C83.305 127.981 83.5113 128.066 83.6817 128.236C83.8522 128.407 83.9374 128.613 83.9374 128.855ZM83.6817 131.129V137.723H82.4438V131.129H83.6817ZM84.8503 134.426C84.8503 133.412 85.1687 132.574 85.8056 131.91C86.4515 131.246 87.2633 130.914 88.2411 130.914C89.2189 130.914 90.0263 131.246 90.6632 131.91C91.309 132.574 91.632 133.412 91.632 134.426C91.632 135.449 91.309 136.287 90.6632 136.942C90.0263 137.606 89.2189 137.938 88.2411 137.938C87.2633 137.938 86.4515 137.606 85.8056 136.942C85.1687 136.278 84.8503 135.44 84.8503 134.426ZM86.0882 134.426C86.0882 135.135 86.2945 135.709 86.7072 136.148C87.1198 136.588 87.6311 136.808 88.2411 136.808C88.8511 136.808 89.3624 136.588 89.7751 136.148C90.1877 135.709 90.394 135.135 90.394 134.426C90.394 133.726 90.1877 133.157 89.7751 132.717C89.3535 132.269 88.8421 132.044 88.2411 132.044C87.6401 132.044 87.1288 132.269 86.7072 132.717C86.2945 133.157 86.0882 133.726 86.0882 134.426ZM92.6251 131.129H93.8092V132.044H93.863C94.0514 131.721 94.3384 131.452 94.7242 131.237C95.1189 131.022 95.527 130.914 95.9487 130.914C96.756 130.914 97.375 131.147 97.8056 131.614C98.2451 132.071 98.4649 132.726 98.4649 133.578V137.723H97.227V133.659C97.2 132.583 96.6573 132.044 95.5988 132.044C95.1054 132.044 94.6928 132.246 94.3609 132.65C94.029 133.045 93.863 133.52 93.863 134.076V137.723H92.6251V131.129ZM105.485 137.83C104.947 137.83 104.498 137.664 104.139 137.332C103.79 137.001 103.61 136.539 103.601 135.946V132.26H102.444V131.129H103.601V129.111H104.839V131.129H106.454V132.26H104.839V135.543C104.839 135.982 104.924 136.283 105.095 136.444C105.265 136.597 105.458 136.673 105.673 136.673C105.772 136.673 105.866 136.664 105.956 136.646C106.055 136.619 106.144 136.588 106.225 136.552L106.615 137.655C106.292 137.772 105.916 137.83 105.485 137.83ZM107.189 134.426C107.189 133.412 107.507 132.574 108.144 131.91C108.79 131.246 109.602 130.914 110.58 130.914C111.558 130.914 112.365 131.246 113.002 131.91C113.648 132.574 113.971 133.412 113.971 134.426C113.971 135.449 113.648 136.287 113.002 136.942C112.365 137.606 111.558 137.938 110.58 137.938C109.602 137.938 108.79 137.606 108.144 136.942C107.507 136.278 107.189 135.44 107.189 134.426ZM108.427 134.426C108.427 135.135 108.633 135.709 109.046 136.148C109.459 136.588 109.97 136.808 110.58 136.808C111.19 136.808 111.701 136.588 112.114 136.148C112.526 135.709 112.733 135.135 112.733 134.426C112.733 133.726 112.526 133.157 112.114 132.717C111.692 132.269 111.181 132.044 110.58 132.044C109.979 132.044 109.467 132.269 109.046 132.717C108.633 133.157 108.427 133.726 108.427 134.426ZM121.012 136.808C121.622 136.808 122.12 136.588 122.506 136.148C122.909 135.709 123.111 135.135 123.111 134.426C123.111 133.735 122.909 133.166 122.506 132.717C122.111 132.269 121.613 132.044 121.012 132.044C120.42 132.044 119.922 132.269 119.518 132.717C119.115 133.166 118.913 133.735 118.913 134.426C118.913 135.126 119.115 135.695 119.518 136.135C119.922 136.583 120.42 136.808 121.012 136.808ZM120.972 140.844C120.604 140.844 120.259 140.795 119.936 140.696C119.613 140.607 119.317 140.477 119.047 140.306C118.787 140.136 118.563 139.934 118.375 139.701C118.186 139.467 118.043 139.207 117.944 138.92L119.115 138.436C119.249 138.822 119.483 139.131 119.814 139.364C120.146 139.597 120.532 139.714 120.972 139.714C121.644 139.714 122.169 139.512 122.546 139.109C122.923 138.705 123.111 138.149 123.111 137.44V136.808H123.057C122.824 137.158 122.506 137.436 122.102 137.642C121.707 137.839 121.277 137.938 120.81 137.938C119.949 137.938 119.209 137.602 118.59 136.929C117.98 136.238 117.675 135.404 117.675 134.426C117.675 133.448 117.98 132.618 118.59 131.937C119.209 131.255 119.949 130.914 120.81 130.914C121.277 130.914 121.707 131.017 122.102 131.224C122.506 131.421 122.824 131.694 123.057 132.044H123.111V131.129H124.295V137.44C124.295 138.499 123.995 139.328 123.394 139.929C122.784 140.539 121.976 140.844 120.972 140.844ZM127.406 128.855C127.406 129.098 127.321 129.304 127.15 129.474C126.98 129.645 126.773 129.73 126.531 129.73C126.289 129.73 126.083 129.645 125.912 129.474C125.742 129.304 125.657 129.098 125.657 128.855C125.657 128.613 125.742 128.407 125.912 128.236C126.083 128.066 126.289 127.981 126.531 127.981C126.773 127.981 126.98 128.066 127.15 128.236C127.321 128.407 127.406 128.613 127.406 128.855ZM127.15 131.129V137.723H125.912V131.129H127.15ZM131.964 137.723H130.726L128.062 131.129H129.407L131.345 136.243H131.372L133.336 131.129H134.655L131.964 137.723ZM138.226 137.938C137.257 137.938 136.459 137.606 135.831 136.942C135.203 136.278 134.889 135.44 134.889 134.426C134.889 133.421 135.194 132.587 135.804 131.923C136.414 131.25 137.194 130.914 138.145 130.914C139.123 130.914 139.899 131.232 140.473 131.869C141.056 132.497 141.348 133.381 141.348 134.52L141.334 134.655H136.154C136.172 135.301 136.387 135.821 136.8 136.216C137.212 136.61 137.706 136.808 138.28 136.808C139.069 136.808 139.688 136.413 140.137 135.624L141.24 136.162C140.944 136.718 140.531 137.153 140.002 137.467C139.482 137.781 138.89 137.938 138.226 137.938ZM136.248 133.632H140.029C139.993 133.175 139.805 132.798 139.464 132.502C139.132 132.197 138.683 132.044 138.118 132.044C137.652 132.044 137.248 132.188 136.907 132.475C136.575 132.762 136.356 133.148 136.248 133.632ZM151.33 131.129L147.199 140.629H145.921L147.455 137.306L144.737 131.129H146.082L148.047 135.866H148.074L149.984 131.129H151.33ZM151.498 134.426C151.498 133.412 151.817 132.574 152.454 131.91C153.1 131.246 153.911 130.914 154.889 130.914C155.867 130.914 156.674 131.246 157.311 131.91C157.957 132.574 158.28 133.412 158.28 134.426C158.28 135.449 157.957 136.287 157.311 136.942C156.674 137.606 155.867 137.938 154.889 137.938C153.911 137.938 153.1 137.606 152.454 136.942C151.817 136.278 151.498 135.44 151.498 134.426ZM152.736 134.426C152.736 135.135 152.943 135.709 153.355 136.148C153.768 136.588 154.279 136.808 154.889 136.808C155.499 136.808 156.011 136.588 156.423 136.148C156.836 135.709 157.042 135.135 157.042 134.426C157.042 133.726 156.836 133.157 156.423 132.717C156.002 132.269 155.49 132.044 154.889 132.044C154.288 132.044 153.777 132.269 153.355 132.717C152.943 133.157 152.736 133.726 152.736 134.426ZM165.125 137.723H163.941V136.808H163.887C163.699 137.131 163.407 137.4 163.012 137.615C162.627 137.83 162.223 137.938 161.801 137.938C160.994 137.938 160.371 137.709 159.931 137.252C159.5 136.785 159.285 136.126 159.285 135.274V131.129H160.523V135.193C160.55 136.269 161.093 136.808 162.151 136.808C162.645 136.808 163.057 136.61 163.389 136.216C163.721 135.812 163.887 135.332 163.887 134.776V131.129H165.125V137.723ZM172.367 127.981C172.815 127.981 173.183 128.057 173.47 128.209L173.134 129.299C172.918 129.192 172.676 129.138 172.407 129.138C172.102 129.138 171.851 129.246 171.654 129.461C171.465 129.667 171.371 129.945 171.371 130.295V131.129H173.093V132.26H171.371V137.723H170.133V132.26H168.895V131.129H170.133V130.174C170.133 129.519 170.339 128.99 170.752 128.586C171.174 128.183 171.712 127.981 172.367 127.981ZM174.918 135.704C174.918 136.027 175.053 136.296 175.322 136.512C175.6 136.727 175.923 136.835 176.291 136.835C176.811 136.835 177.273 136.642 177.677 136.256C178.089 135.87 178.296 135.417 178.296 134.897C177.91 134.592 177.372 134.439 176.681 134.439C176.179 134.439 175.757 134.561 175.416 134.803C175.084 135.045 174.918 135.345 174.918 135.704ZM176.52 130.914C177.435 130.914 178.157 131.161 178.686 131.654C179.215 132.139 179.48 132.807 179.48 133.659V137.723H178.296V136.808H178.242C177.731 137.561 177.049 137.938 176.197 137.938C175.47 137.938 174.86 137.723 174.367 137.292C173.882 136.861 173.64 136.323 173.64 135.677C173.64 134.996 173.896 134.453 174.407 134.049C174.927 133.646 175.618 133.444 176.479 133.444C177.215 133.444 177.82 133.578 178.296 133.847V133.565C178.296 133.134 178.125 132.771 177.784 132.475C177.444 132.17 177.044 132.017 176.587 132.017C175.896 132.017 175.349 132.309 174.945 132.892L173.855 132.206C174.456 131.345 175.344 130.914 176.52 130.914ZM182.477 128.855C182.477 129.098 182.392 129.304 182.222 129.474C182.051 129.645 181.845 129.73 181.603 129.73C181.36 129.73 181.154 129.645 180.984 129.474C180.813 129.304 180.728 129.098 180.728 128.855C180.728 128.613 180.813 128.407 180.984 128.236C181.154 128.066 181.36 127.981 181.603 127.981C181.845 127.981 182.051 128.066 182.222 128.236C182.392 128.407 182.477 128.613 182.477 128.855ZM182.222 131.129V137.723H180.984V131.129H182.222ZM185.071 137.723H183.833V131.129H185.017V132.206H185.071C185.196 131.856 185.452 131.56 185.838 131.318C186.232 131.067 186.618 130.941 186.995 130.941C187.354 130.941 187.659 130.995 187.91 131.102L187.533 132.3C187.381 132.237 187.138 132.206 186.806 132.206C186.34 132.206 185.932 132.394 185.582 132.771C185.241 133.148 185.071 133.587 185.071 134.09V137.723ZM191.274 137.938C190.305 137.938 189.507 137.606 188.879 136.942C188.251 136.278 187.937 135.44 187.937 134.426C187.937 133.421 188.242 132.587 188.852 131.923C189.462 131.25 190.242 130.914 191.193 130.914C192.171 130.914 192.947 131.232 193.521 131.869C194.104 132.497 194.396 133.381 194.396 134.52L194.382 134.655H189.202C189.22 135.301 189.435 135.821 189.848 136.216C190.26 136.61 190.754 136.808 191.328 136.808C192.117 136.808 192.736 136.413 193.185 135.624L194.288 136.162C193.992 136.718 193.579 137.153 193.05 137.467C192.53 137.781 191.938 137.938 191.274 137.938ZM189.296 133.632H193.077C193.041 133.175 192.853 132.798 192.512 132.502C192.18 132.197 191.731 132.044 191.166 132.044C190.7 132.044 190.296 132.188 189.955 132.475C189.623 132.762 189.403 133.148 189.296 133.632ZM196.766 137.723H195.528V131.129H196.712V132.206H196.766C196.891 131.856 197.147 131.56 197.533 131.318C197.927 131.067 198.313 130.941 198.69 130.941C199.049 130.941 199.354 130.995 199.605 131.102L199.228 132.3C199.075 132.237 198.833 132.206 198.501 132.206C198.035 132.206 197.627 132.394 197.277 132.771C196.936 133.148 196.766 133.587 196.766 134.09V137.723ZM204.61 128.088V137.723H203.372V128.088H204.61ZM205.676 134.426C205.676 133.412 205.995 132.574 206.632 131.91C207.278 131.246 208.089 130.914 209.067 130.914C210.045 130.914 210.852 131.246 211.489 131.91C212.135 132.574 212.458 133.412 212.458 134.426C212.458 135.449 212.135 136.287 211.489 136.942C210.852 137.606 210.045 137.938 209.067 137.938C208.089 137.938 207.278 137.606 206.632 136.942C205.995 136.278 205.676 135.44 205.676 134.426ZM206.914 134.426C206.914 135.135 207.121 135.709 207.533 136.148C207.946 136.588 208.457 136.808 209.067 136.808C209.677 136.808 210.189 136.588 210.601 136.148C211.014 135.709 211.22 135.135 211.22 134.426C211.22 133.726 211.014 133.157 210.601 132.717C210.18 132.269 209.668 132.044 209.067 132.044C208.466 132.044 207.955 132.269 207.533 132.717C207.121 133.157 206.914 133.726 206.914 134.426ZM214.484 135.704C214.484 136.027 214.619 136.296 214.888 136.512C215.166 136.727 215.489 136.835 215.857 136.835C216.377 136.835 216.839 136.642 217.243 136.256C217.655 135.87 217.861 135.417 217.861 134.897C217.476 134.592 216.938 134.439 216.247 134.439C215.744 134.439 215.323 134.561 214.982 134.803C214.65 135.045 214.484 135.345 214.484 135.704ZM216.085 130.914C217 130.914 217.722 131.161 218.252 131.654C218.781 132.139 219.046 132.807 219.046 133.659V137.723H217.861V136.808H217.808C217.296 137.561 216.615 137.938 215.762 137.938C215.036 137.938 214.426 137.723 213.932 137.292C213.448 136.861 213.206 136.323 213.206 135.677C213.206 134.996 213.461 134.453 213.973 134.049C214.493 133.646 215.184 133.444 216.045 133.444C216.781 133.444 217.386 133.578 217.861 133.847V133.565C217.861 133.134 217.691 132.771 217.35 132.475C217.009 132.17 216.61 132.017 216.153 132.017C215.462 132.017 214.915 132.309 214.511 132.892L213.421 132.206C214.022 131.345 214.91 130.914 216.085 130.914ZM220.442 131.129H221.626V132.044H221.68C221.868 131.721 222.155 131.452 222.541 131.237C222.936 131.022 223.344 130.914 223.765 130.914C224.573 130.914 225.192 131.147 225.622 131.614C226.062 132.071 226.282 132.726 226.282 133.578V137.723H225.044V133.659C225.017 132.583 224.474 132.044 223.416 132.044C222.922 132.044 222.51 132.246 222.178 132.65C221.846 133.045 221.68 133.52 221.68 134.076V137.723H220.442V131.129ZM230.315 134.426C230.315 133.412 230.633 132.574 231.27 131.91C231.916 131.246 232.728 130.914 233.705 130.914C234.683 130.914 235.491 131.246 236.128 131.91C236.773 132.574 237.096 133.412 237.096 134.426C237.096 135.449 236.773 136.287 236.128 136.942C235.491 137.606 234.683 137.938 233.705 137.938C232.728 137.938 231.916 137.606 231.27 136.942C230.633 136.278 230.315 135.44 230.315 134.426ZM231.553 134.426C231.553 135.135 231.759 135.709 232.172 136.148C232.584 136.588 233.095 136.808 233.705 136.808C234.315 136.808 234.827 136.588 235.239 136.148C235.652 135.709 235.858 135.135 235.858 134.426C235.858 133.726 235.652 133.157 235.239 132.717C234.818 132.269 234.306 132.044 233.705 132.044C233.104 132.044 232.593 132.269 232.172 132.717C231.759 133.157 231.553 133.726 231.553 134.426ZM240.069 131.129H243.029V130.174C243.029 129.519 243.236 128.99 243.648 128.586C244.07 128.183 244.608 127.981 245.263 127.981C245.711 127.981 246.079 128.057 246.366 128.209L246.03 129.299C245.815 129.192 245.572 129.138 245.303 129.138C244.998 129.138 244.747 129.246 244.55 129.461C244.361 129.667 244.267 129.945 244.267 130.295V131.129H245.99V132.26H244.267V137.723H243.029V132.26H240.069V137.723H238.831V132.26H237.593V131.129H238.831V130.174C238.831 129.519 239.037 128.99 239.45 128.586C239.872 128.183 240.41 127.981 241.065 127.981C241.513 127.981 241.881 128.057 242.168 128.209L241.832 129.299C241.616 129.192 241.374 129.138 241.105 129.138C240.8 129.138 240.549 129.246 240.352 129.461C240.163 129.667 240.069 129.945 240.069 130.295V131.129ZM249.722 137.938C248.754 137.938 247.955 137.606 247.327 136.942C246.699 136.278 246.385 135.44 246.385 134.426C246.385 133.421 246.69 132.587 247.3 131.923C247.91 131.25 248.691 130.914 249.642 130.914C250.619 130.914 251.395 131.232 251.969 131.869C252.553 132.497 252.844 133.381 252.844 134.52L252.831 134.655H247.65C247.668 135.301 247.883 135.821 248.296 136.216C248.709 136.61 249.202 136.808 249.776 136.808C250.566 136.808 251.185 136.413 251.633 135.624L252.736 136.162C252.44 136.718 252.028 137.153 251.499 137.467C250.978 137.781 250.386 137.938 249.722 137.938ZM247.744 133.632H251.525C251.49 133.175 251.301 132.798 250.96 132.502C250.628 132.197 250.18 132.044 249.615 132.044C249.148 132.044 248.745 132.188 248.404 132.475C248.072 132.762 247.852 133.148 247.744 133.632ZM255.214 137.723H253.976V131.129H255.16V132.206H255.214C255.34 131.856 255.595 131.56 255.981 131.318C256.376 131.067 256.762 130.941 257.138 130.941C257.497 130.941 257.802 130.995 258.053 131.102L257.677 132.3C257.524 132.237 257.282 132.206 256.95 132.206C256.483 132.206 256.075 132.394 255.725 132.771C255.385 133.148 255.214 133.587 255.214 134.09V137.723ZM263.648 135.893C263.648 136.467 263.396 136.951 262.894 137.346C262.392 137.741 261.759 137.938 260.997 137.938C260.333 137.938 259.75 137.768 259.247 137.427C258.745 137.077 258.386 136.619 258.171 136.054L259.274 135.583C259.436 135.978 259.669 136.287 259.974 136.512C260.288 136.727 260.629 136.835 260.997 136.835C261.391 136.835 261.719 136.749 261.979 136.579C262.248 136.408 262.383 136.207 262.383 135.973C262.383 135.552 262.06 135.242 261.414 135.045L260.284 134.762C259.001 134.439 258.359 133.82 258.359 132.905C258.359 132.304 258.602 131.825 259.086 131.466C259.579 131.098 260.207 130.914 260.97 130.914C261.553 130.914 262.078 131.053 262.544 131.331C263.02 131.609 263.351 131.982 263.54 132.448L262.436 132.905C262.311 132.627 262.105 132.412 261.818 132.26C261.539 132.098 261.225 132.017 260.876 132.017C260.553 132.017 260.261 132.098 260.001 132.26C259.75 132.421 259.624 132.618 259.624 132.852C259.624 133.228 259.979 133.498 260.687 133.659L261.683 133.915C262.993 134.238 263.648 134.897 263.648 135.893Z" fill="#060606"/>
<mask id="mask0_331_17" style="mask-type:alpha" maskUnits="userSpaceOnUse" x="0" y="0" width="318" height="400">
<rect x="317.689" width="399.265" height="316.939" rx="30.2979" transform="rotate(90 317.689 0)" fill="#F8F8F8"/>
</mask>
<g mask="url(#mask0_331_17)">
<path d="M206.75 248H166.75V218C166.75 202.087 160.429 186.826 149.176 175.574C137.924 164.321 122.663 158 106.75 158C90.837 158 75.5758 164.321 64.3236 175.574C53.0714 186.826 46.75 202.087 46.75 218V248H6.75C1.44567 248 -3.64141 250.107 -7.39214 253.858C-11.1429 257.609 -13.25 262.696 -13.25 268V408C-13.25 413.304 -11.1429 418.391 -7.39214 422.142C-3.64141 425.893 1.44567 428 6.75 428H206.75C212.054 428 217.141 425.893 220.892 422.142C224.643 418.391 226.75 413.304 226.75 408V268C226.75 262.696 224.643 257.609 220.892 253.858C217.141 250.107 212.054 248 206.75 248ZM106.75 353C103.783 353 100.883 352.12 98.4165 350.472C95.9497 348.824 94.0271 346.481 92.8918 343.74C91.7565 340.999 91.4594 337.983 92.0382 335.074C92.617 332.164 94.0456 329.491 96.1434 327.393C98.2412 325.296 100.914 323.867 103.824 323.288C106.733 322.709 109.749 323.007 112.49 324.142C115.231 325.277 117.574 327.2 119.222 329.666C120.87 332.133 121.75 335.033 121.75 338C121.75 341.978 120.17 345.794 117.357 348.607C114.544 351.42 110.728 353 106.75 353ZM146.75 248H66.75V218C66.75 207.391 70.9643 197.217 78.4657 189.716C85.9672 182.214 96.1413 178 106.75 178C117.359 178 127.533 182.214 135.034 189.716C142.536 197.217 146.75 207.391 146.75 218V248Z" fill="#F68E00"/>
</g>
</svg>
